<svg width="1280" height="400" viewBox="0 0 1280 400" xmlns="http://www.w3.org/2000/svg">
  <defs>
    <linearGradient id="bg" x1="0%" y1="0%" x2="100%" y2="100%">
      <stop offset="0%" style="stop-color:#0d1117"/>
      <stop offset="100%" style="stop-color:#161b22"/>
    </linearGradient>
    <linearGradient id="accent" x1="0%" y1="0%" x2="100%" y2="0%">
      <stop offset="0%" style="stop-color:#3B82F6"/>
      <stop offset="100%" style="stop-color:#2563eb"/>
    </linearGradient>
    <linearGradient id="glow" x1="0%" y1="0%" x2="100%" y2="100%">
      <stop offset="0%" style="stop-color:#3B82F620"/>
      <stop offset="100%" style="stop-color:#2563eb00"/>
    </linearGradient>
  </defs>
  <rect width="1280" height="400" fill="url(#bg)"/>
  <ellipse cx="200" cy="200" rx="300" ry="200" fill="url(#glow)"/>
  <g opacity="0.04" stroke="#ffffff" stroke-width="1">
    <line x1="0" y1="80" x2="1280" y2="80"/><line x1="0" y1="160" x2="1280" y2="160"/>
    <line x1="0" y1="240" x2="1280" y2="240"/><line x1="0" y1="320" x2="1280" y2="320"/>
    <line x1="160" y1="0" x2="160" y2="400"/><line x1="320" y1="0" x2="320" y2="400"/>
    <line x1="480" y1="0" x2="480" y2="400"/><line x1="640" y1="0" x2="640" y2="400"/>
    <line x1="800" y1="0" x2="800" y2="400"/><line x1="960" y1="0" x2="960" y2="400"/>
    <line x1="1120" y1="0" x2="1120" y2="400"/>
  </g>
  <rect x="0" y="0" width="1280" height="3" fill="url(#accent)"/>
  <!-- Bar chart decoration -->
  <rect x="900" y="280" width="28" height="60" rx="3" fill="#3B82F6" opacity="0.4"/>
  <rect x="940" y="220" width="28" height="120" rx="3" fill="#3B82F6" opacity="0.55"/>
  <rect x="980" y="160" width="28" height="180" rx="3" fill="#3B82F6" opacity="0.7"/>
  <rect x="1020" y="200" width="28" height="140" rx="3" fill="#3B82F6" opacity="0.6"/>
  <rect x="1060" y="130" width="28" height="210" rx="3" fill="#3B82F6" opacity="0.85"/>
  <rect x="1100" y="170" width="28" height="170" rx="3" fill="#2563eb" opacity="0.65"/>
  <rect x="1140" y="240" width="28" height="100" rx="3" fill="#3B82F6" opacity="0.5"/>
  <rect x="1180" y="190" width="28" height="150" rx="3" fill="#3B82F6" opacity="0.6"/>
  <!-- Trend line -->
  <polyline points="914,260 954,210 994,155 1034,185 1074,130 1114,165 1154,230 1194,185" fill="none" stroke="#60a5fa" stroke-width="2" opacity="0.6"/>
  <!-- Badge -->
  <rect x="80" y="100" width="130" height="28" rx="14" fill="#3B82F620" stroke="#3B82F6" stroke-width="1"/>
  <text x="145" y="119" font-family="monospace" font-size="12" fill="#3B82F6" text-anchor="middle">SKILL.md</text>
  <!-- Title -->
  <text x="80" y="200" font-family="-apple-system, BlinkMacSystemFont, 'Segoe UI', sans-serif" font-size="52" font-weight="700" fill="#ffffff" letter-spacing="-1">Social Listening</text>
  <text x="80" y="258" font-family="-apple-system, BlinkMacSystemFont, 'Segoe UI', sans-serif" font-size="52" font-weight="700" fill="#3B82F6" letter-spacing="-1">Report</text>
  <text x="80" y="310" font-family="-apple-system, BlinkMacSystemFont, 'Segoe UI', sans-serif" font-size="18" fill="#8b949e">Brand health, competitive benchmarks, and campaign reports from social data</text>
  <rect x="80" y="340" width="88" height="24" rx="12" fill="#3B82F610" stroke="#3B82F640" stroke-width="1"/>
  <text x="124" y="357" font-family="monospace" font-size="11" fill="#3B82F6" text-anchor="middle">6 modules</text>
  <rect x="180" y="340" width="110" height="24" rx="12" fill="#3B82F610" stroke="#3B82F640" stroke-width="1"/>
  <text x="235" y="357" font-family="monospace" font-size="11" fill="#3B82F6" text-anchor="middle">Data-driven</text>
  <rect x="302" y="340" width="100" height="24" rx="12" fill="#3B82F610" stroke="#3B82F640" stroke-width="1"/>
  <text x="352" y="357" font-family="monospace" font-size="11" fill="#3B82F6" text-anchor="middle">OpenClaw</text>
</svg>
