<svg width="24" height="24" viewBox="0 0 24 24" fill="none" xmlns="http://www.w3.org/2000/svg">
<path d="M9 15.75V8.25" stroke="white" stroke-width="1.5" stroke-linecap="round" stroke-linejoin="round"/>
<path d="M12 8.25V10.8C12.0001 12.5632 12.522 14.2869 13.5 15.754C14.478 14.2869 14.9999 12.5632 15 10.8V8.25" stroke="white" stroke-width="1.5" stroke-linecap="round" stroke-linejoin="round"/>
<path d="M3 8.25V14.25C3 14.6478 3.15804 15.0294 3.43934 15.3107C3.72064 15.592 4.10218 15.75 4.5 15.75H6" stroke="white" stroke-width="1.5" stroke-linecap="round" stroke-linejoin="round"/>
<path d="M21 15.75H19.5C19.1022 15.75 18.7206 15.592 18.4393 15.3107C18.158 15.0294 18 14.6478 18 14.25V9.75C18 9.35218 18.158 8.97064 18.4393 8.68934C18.7206 8.40804 19.1022 8.25 19.5 8.25H21" stroke="white" stroke-width="1.5" stroke-linecap="round" stroke-linejoin="round"/>
<path d="M18 12.75H21" stroke="white" stroke-width="1.5" stroke-linecap="round" stroke-linejoin="round"/>
<path d="M23.25 20.25H0.75" stroke="white" stroke-width="1.5" stroke-linecap="round" stroke-linejoin="round"/>
<path d="M0.75 3.75H23.25" stroke="white" stroke-width="1.5" stroke-linecap="round" stroke-linejoin="round"/>
</svg>
