<svg width="25" height="24" viewBox="0 0 25 24" fill="none" xmlns="http://www.w3.org/2000/svg">
<path d="M14.9204 18.8191C14.7304 18.8191 14.5404 18.7491 14.3904 18.5991C14.1004 18.3091 14.1004 17.8291 14.3904 17.5391L19.9304 11.9991L14.3904 6.45914C14.1004 6.16914 14.1004 5.68914 14.3904 5.39914C14.6804 5.10914 15.1604 5.10914 15.4504 5.39914L21.5204 11.4591C21.8104 11.7491 21.8104 12.2291 21.5204 12.5191L15.4504 18.5891C15.3004 18.7391 15.1104 18.8091 14.9204 18.8091V18.8191Z" fill="white"/>
<path d="M20.83 12.75H4C3.59 12.75 3.25 12.41 3.25 12C3.25 11.59 3.59 11.25 4 11.25H20.83C21.24 11.25 21.58 11.59 21.58 12C21.58 12.41 21.24 12.75 20.83 12.75Z" fill="white"/>
</svg>
