<svg width="16" height="16" viewBox="0 0 16 16" fill="none" xmlns="http://www.w3.org/2000/svg">
<g id="Frame">
<g id="Group">
<path id="Vector" d="M10.3337 7.5H5.66699C5.39366 7.5 5.16699 7.27333 5.16699 7C5.16699 6.72667 5.39366 6.5 5.66699 6.5H10.3337C10.607 6.5 10.8337 6.72667 10.8337 7C10.8337 7.27333 10.607 7.5 10.3337 7.5Z" fill="white"/>
<path id="Vector_2" d="M10.6668 14.8733C10.4402 14.8733 10.2135 14.8066 10.0202 14.6799L7.18016 12.7866H4.66683C2.3735 12.7866 0.833496 11.2466 0.833496 8.95328V4.94661C0.833496 2.65328 2.3735 1.11328 4.66683 1.11328H11.3335C13.6268 1.11328 15.1668 2.65328 15.1668 4.94661V8.94661C15.1668 11.0666 13.8468 12.5466 11.8335 12.7533V13.6999C11.8335 14.1333 11.6002 14.5199 11.2202 14.7199C11.0468 14.8133 10.8535 14.8599 10.6668 14.8599V14.8733ZM4.66683 2.10661C2.94683 2.10661 1.8335 3.21995 1.8335 4.93995V8.93328C1.8335 10.6533 2.94683 11.7666 4.66683 11.7666H7.3335C7.4335 11.7666 7.52683 11.7933 7.6135 11.8533L10.5802 13.8266C10.6535 13.8733 10.7202 13.8533 10.7535 13.8333C10.7868 13.8133 10.8402 13.7666 10.8402 13.6799V12.2599C10.8402 11.9866 11.0668 11.7599 11.3402 11.7599C13.0602 11.7599 14.1735 10.6466 14.1735 8.92661V4.92661C14.1735 3.20661 13.0602 2.09328 11.3402 2.09328H4.66683V2.10661Z" fill="white"/>
</g>
</g>
</svg>
