<svg width="24" height="24" viewBox="0 0 24 24" fill="none" xmlns="http://www.w3.org/2000/svg">
<path d="M13 19.75H7C2.59 19.75 1.25 18.41 1.25 14V10C1.25 5.59 2.59 4.25 7 4.25H13C17.41 4.25 18.75 5.59 18.75 10V14C18.75 18.41 17.41 19.75 13 19.75ZM7 5.75C3.42 5.75 2.75 6.43 2.75 10V14C2.75 17.57 3.42 18.25 7 18.25H13C16.58 18.25 17.25 17.57 17.25 14V10C17.25 6.43 16.58 5.75 13 5.75H7Z" fill="#FF5656"/>
<path d="M20.5 15.25C20.09 15.25 19.75 14.91 19.75 14.5C19.75 14.09 20.09 13.75 20.5 13.75C21.09 13.75 21.22 13.66 21.23 13.66C21.25 13.6 21.25 13.25 21.25 13V11C21.25 10.75 21.25 10.41 21.21 10.32C21.2 10.33 21.05 10.25 20.5 10.25C20.09 10.25 19.75 9.91 19.75 9.5C19.75 9.09 20.09 8.75 20.5 8.75C22.58 8.75 22.75 9.77 22.75 11V13C22.75 14.23 22.58 15.25 20.5 15.25Z" fill="#FF5656"/>
<path d="M6.37958 14.7521C6.31958 14.7521 6.25959 14.7421 6.19959 14.7321C5.79959 14.6321 5.54958 14.2221 5.64958 13.8221C5.94958 12.6321 5.94958 11.3721 5.64958 10.1821C5.54958 9.78205 5.78959 9.37205 6.19959 9.27205C6.58959 9.17205 6.99958 9.42205 7.09958 9.82205C7.45958 11.2521 7.45958 12.7621 7.09958 14.1821C7.01958 14.5221 6.70958 14.7521 6.37958 14.7521Z" fill="#FF5656"/>
</svg>
