<svg width="24" height="25" viewBox="0 0 24 25" fill="none" xmlns="http://www.w3.org/2000/svg">
<g id="button-refresh-arrow 1">
<path id="Vector" d="M6 14.748V19.248H1.5" stroke="white" stroke-width="1.5" stroke-linecap="round" stroke-linejoin="round"/>
<path id="Vector_2" d="M5.71689 19.2504C4.16985 17.6331 3.22613 15.5329 3.04406 13.3023C2.86199 11.0716 3.45265 8.84619 4.71694 6.99941C5.98123 5.15263 7.84222 3.79687 9.98766 3.15959C12.1331 2.52232 14.4324 2.64231 16.4999 3.49944" stroke="white" stroke-width="1.5" stroke-linecap="round" stroke-linejoin="round"/>
<path id="Vector_3" d="M5.71204 19.2464C4.04979 17.5091 3.09045 15.2173 3.01939 12.8139C2.94832 10.4106 3.77058 8.06613 5.32729 6.23365C6.88399 4.40117 9.06464 3.21071 11.4479 2.89228C13.8312 2.57386 16.2479 3.15007 18.231 4.50959C20.2142 5.86911 21.6231 7.91543 22.1855 10.2532C22.7479 12.5909 22.4239 15.0541 21.276 17.1669C20.1282 19.2796 18.238 20.892 15.9707 21.6923C13.7034 22.4927 11.2199 22.4243 9.00004 21.5004" stroke="white" stroke-width="1.5" stroke-linecap="round" stroke-linejoin="round"/>
</g>
</svg>
