<svg width="17" height="17" viewBox="0 0 17 17" fill="none" xmlns="http://www.w3.org/2000/svg">
<path d="M13.0832 8.93359V11.4003C13.0832 13.4803 11.1432 15.1669 8.74984 15.1669C6.3565 15.1669 4.4165 13.4803 4.4165 11.4003V8.93359C4.4165 11.0136 6.3565 12.5003 8.74984 12.5003C11.1432 12.5003 13.0832 11.0136 13.0832 8.93359Z" stroke="white" stroke-linecap="round" stroke-linejoin="round"/>
<path d="M13.0832 5.60065C13.0832 6.20732 12.9165 6.76732 12.6232 7.24732C11.9098 8.42065 10.4432 9.16732 8.74984 9.16732C7.0565 9.16732 5.58984 8.42065 4.8765 7.24732C4.58317 6.76732 4.4165 6.20732 4.4165 5.60065C4.4165 4.56065 4.90316 3.62065 5.68316 2.94065C6.46983 2.25398 7.54984 1.83398 8.74984 1.83398C9.94984 1.83398 11.0298 2.25398 11.8165 2.93398C12.5965 3.62065 13.0832 4.56065 13.0832 5.60065Z" stroke="white" stroke-linecap="round" stroke-linejoin="round"/>
<path d="M13.0832 5.60065V8.93398C13.0832 11.014 11.1432 12.5007 8.74984 12.5007C6.3565 12.5007 4.4165 11.014 4.4165 8.93398V5.60065C4.4165 3.52065 6.3565 1.83398 8.74984 1.83398C9.94984 1.83398 11.0298 2.25398 11.8165 2.93398C12.5965 3.62065 13.0832 4.56065 13.0832 5.60065Z" stroke="white" stroke-linecap="round" stroke-linejoin="round"/>
</svg>
