<svg width="16" height="16" viewBox="0 0 16 16" fill="none" xmlns="http://www.w3.org/2000/svg">
<g id="Frame" clip-path="url(#clip0_3688_12872)">
<g id="Group">
<path id="Vector" d="M10.6668 15.1673H2.00016C1.36016 15.1673 0.833496 14.6406 0.833496 14.0007V5.33398C0.833496 2.38732 2.38683 0.833984 5.3335 0.833984H10.6668C13.6135 0.833984 15.1668 2.38732 15.1668 5.33398V10.6673C15.1668 13.614 13.6135 15.1673 10.6668 15.1673ZM5.3335 1.83398C2.94683 1.83398 1.8335 2.94732 1.8335 5.33398V14.0007C1.8335 14.094 1.90683 14.1673 2.00016 14.1673H10.6668C13.0535 14.1673 14.1668 13.054 14.1668 10.6673V5.33398C14.1668 2.94732 13.0535 1.83398 10.6668 1.83398H5.3335Z" fill="#1DF9B3"/>
<path id="Vector_2" d="M10.3337 8.5H5.66699C5.39366 8.5 5.16699 8.27333 5.16699 8C5.16699 7.72667 5.39366 7.5 5.66699 7.5H10.3337C10.607 7.5 10.8337 7.72667 10.8337 8C10.8337 8.27333 10.607 8.5 10.3337 8.5Z" fill="#1DF9B3"/>
<path id="Vector_3" d="M8 10.8346C7.72667 10.8346 7.5 10.608 7.5 10.3346V5.66797C7.5 5.39464 7.72667 5.16797 8 5.16797C8.27333 5.16797 8.5 5.39464 8.5 5.66797V10.3346C8.5 10.608 8.27333 10.8346 8 10.8346Z" fill="#1DF9B3"/>
</g>
</g>
<defs>
<clipPath id="clip0_3688_12872">
<rect width="16" height="16" fill="white"/>
</clipPath>
</defs>
</svg>
