<svg width="16" height="16" viewBox="0 0 16 16" fill="none" xmlns="http://www.w3.org/2000/svg">
<g id="Frame" clip-path="url(#clip0_3945_12879)">
<g id="Group">
<path id="Vector" d="M8.00016 15.1673C11.9402 15.1673 15.1668 11.9406 15.1668 8.00065C15.1668 4.05398 11.9402 0.833984 8.00016 0.833984C4.0535 0.833984 0.833496 4.05398 0.833496 8.00065C0.833496 11.9406 4.0535 15.1673 8.00016 15.1673ZM8.00016 14.1673C4.60683 14.1673 1.8335 11.3873 1.8335 8.00065C1.8335 4.60732 4.60683 1.83398 8.00016 1.83398C11.3868 1.83398 14.1668 4.60732 14.1668 8.00065C14.1668 11.3873 11.3868 14.1673 8.00016 14.1673Z" fill="white"/>
<path id="Vector_2" d="M4.80689 8.35436L6.69355 10.241C6.88689 10.4344 7.20022 10.4344 7.40022 10.241L11.1802 6.46769C11.3736 6.26769 11.3736 5.95436 11.1802 5.75436C10.9802 5.55436 10.6669 5.55436 10.4669 5.74769L6.68689 9.51436H7.39355L5.50689 7.62769C5.30689 7.42769 4.99355 7.42769 4.79355 7.62769C4.59355 7.82103 4.59355 8.13436 4.79355 8.33436L4.80689 8.35436Z" fill="white"/>
</g>
</g>
<defs>
<clipPath id="clip0_3945_12879">
<rect width="16" height="16" fill="white"/>
</clipPath>
</defs>
</svg>
