<svg width="21" height="20" viewBox="0 0 21 20" fill="none" xmlns="http://www.w3.org/2000/svg">
<g id="Frame">
<g id="Group">
<path id="Vector" opacity="0.2" d="M8.875 4.375C8.875 5.41016 8.03516 6.25 7 6.25C5.96406 6.25 5.125 5.41016 5.125 4.375C5.125 3.33906 5.96406 2.5 7 2.5C8.03516 2.5 8.875 3.33906 8.875 4.375Z" fill="#FF8D4B"/>
<path id="Vector_2" d="M16.9999 8.75032H16.9998C15.8905 8.75189 14.9147 9.48314 14.6022 10.5472L11.3045 10.0785C11.1537 10.0566 11.0162 9.98158 10.9178 9.86673L8.12718 6.60579C9.35843 5.98158 9.85062 4.47689 9.2264 3.24564C8.60218 2.01361 7.09749 1.52142 5.86624 2.14564C4.63421 2.76907 4.14202 4.27376 4.76624 5.50501C5.09124 6.14642 5.67718 6.61673 6.37327 6.79564V13.2019C5.03577 13.5464 4.23187 14.9105 4.57718 16.2472C4.92171 17.5839 6.28577 18.3878 7.62249 18.0425C8.95921 17.6972 9.76312 16.3331 9.41781 14.9964C9.18968 14.1152 8.50218 13.4277 7.62171 13.2003V7.93704L9.96546 10.6714C10.2616 11.0167 10.6733 11.2425 11.1241 11.3074L14.5616 11.798C14.8655 13.1441 16.2037 13.9894 17.5506 13.6855C18.8967 13.3808 19.742 12.0425 19.4381 10.6956C19.1803 9.55423 18.1655 8.74407 16.9959 8.74642L16.9999 8.75032ZM5.74991 4.37532C5.74991 3.6847 6.30929 3.12532 6.99991 3.12532C7.68976 3.12532 8.24991 3.6847 8.24991 4.37532C8.24991 5.06517 7.68976 5.62532 6.99991 5.62532C6.30929 5.62532 5.74991 5.06517 5.74991 4.37532ZM8.24991 15.6253C8.24991 16.3152 7.68976 16.8753 6.99991 16.8753C6.30929 16.8753 5.74991 16.3152 5.74991 15.6253C5.74991 14.9347 6.30929 14.3753 6.99991 14.3753C7.68976 14.3753 8.24991 14.9347 8.24991 15.6253ZM16.9999 12.5003C16.3093 12.5003 15.7499 11.9402 15.7499 11.2503C15.7499 10.5597 16.3093 10.0003 16.9999 10.0003C17.6898 10.0003 18.2499 10.5597 18.2499 11.2503C18.2499 11.9402 17.6898 12.5003 16.9999 12.5003Z" fill="#FF8D4B"/>
</g>
</g>
</svg>
