<svg width="24" height="24" viewBox="0 0 24 24" fill="none" xmlns="http://www.w3.org/2000/svg">
<g opacity="0.5">
<path d="M12 22.75C17.91 22.75 22.75 17.91 22.75 12C22.75 6.08 17.91 1.25 12 1.25C6.08 1.25 1.25 6.08 1.25 12C1.25 17.91 6.08 22.75 12 22.75ZM12 21.25C6.91 21.25 2.75 17.08 2.75 12C2.75 6.91 6.91 2.75 12 2.75C17.08 2.75 21.25 6.91 21.25 12C21.25 17.08 17.08 21.25 12 21.25Z" fill="white"/>
<path d="M9.69982 15.3606L15.3598 9.70056C15.6498 9.40056 15.6498 8.93056 15.3598 8.63056C15.0598 8.33056 14.5898 8.33056 14.2898 8.62056L8.61982 14.2706C8.31982 14.5606 8.31982 15.0306 8.60982 15.3306C8.89982 15.6206 9.36982 15.6206 9.66982 15.3306L9.69982 15.3606Z" fill="white"/>
<path d="M15.36 14.2893L9.69002 8.6293C9.39002 8.3293 8.92002 8.3293 8.62002 8.6293C8.32002 8.9193 8.32002 9.3893 8.62002 9.6893L14.28 15.3393C14.57 15.6293 15.04 15.6293 15.34 15.3293C15.63 15.0293 15.63 14.5593 15.33 14.2593L15.36 14.2893Z" fill="white"/>
</g>
</svg>
