<svg width="16" height="17" viewBox="0 0 16 17" fill="none" xmlns="http://www.w3.org/2000/svg">
<g id="document-code-2.1 1">
<path id="Vector" opacity="0.7" d="M10.6667 15.6673H7.33333C7.06 15.6673 6.83333 15.4406 6.83333 15.1673C6.83333 14.894 7.06 14.6673 7.33333 14.6673H10.6667C12.5733 14.6673 13.5 13.7407 13.5 11.834V5.16732C13.5 3.26065 12.5733 2.33398 10.6667 2.33398H5.33333C3.42667 2.33398 2.5 3.26065 2.5 5.16732V9.83398C2.5 10.1073 2.27333 10.334 2 10.334C1.72667 10.334 1.5 10.1073 1.5 9.83398V5.16732C1.5 2.73398 2.9 1.33398 5.33333 1.33398H10.6667C13.1 1.33398 14.5 2.73398 14.5 5.16732V11.834C14.5 14.2673 13.1 15.6673 10.6667 15.6673Z" fill="white"/>
<path id="Vector_2" opacity="0.7" d="M12.3332 6.66667H10.9998C9.9865 6.66667 9.1665 5.84667 9.1665 4.83333V3.5C9.1665 3.22667 9.39317 3 9.6665 3C9.93984 3 10.1665 3.22667 10.1665 3.5V4.83333C10.1665 5.29333 10.5398 5.66667 10.9998 5.66667H12.3332C12.6065 5.66667 12.8332 5.89333 12.8332 6.16667C12.8332 6.44 12.6065 6.66667 12.3332 6.66667Z" fill="white"/>
<path id="Vector_3" opacity="0.7" d="M2.66614 14.9991C2.53947 14.9991 2.41281 14.9524 2.31281 14.8524L0.979473 13.5191C0.786139 13.3257 0.786139 13.0057 0.979473 12.8123L2.31281 11.479C2.50614 11.2857 2.82614 11.2857 3.01947 11.479C3.21281 11.6723 3.21281 11.9924 3.01947 12.1857L2.03947 13.1657L3.01947 14.1457C3.21281 14.339 3.21281 14.6591 3.01947 14.8524C2.91947 14.9524 2.79281 14.9991 2.66614 14.9991Z" fill="white"/>
<path id="Vector_4" opacity="0.7" d="M4.6663 14.9991C4.53964 14.9991 4.41297 14.9524 4.31297 14.8524C4.11964 14.6591 4.11964 14.339 4.31297 14.1457L5.29297 13.1657L4.31297 12.1857C4.11964 11.9924 4.11964 11.6723 4.31297 11.479C4.5063 11.2857 4.8263 11.2857 5.01964 11.479L6.35297 12.8123C6.5463 13.0057 6.5463 13.3257 6.35297 13.5191L5.01964 14.8524C4.91964 14.9524 4.79297 14.9991 4.6663 14.9991Z" fill="white"/>
</g>
</svg>
