<svg width="13" height="12" viewBox="0 0 13 12" fill="none" xmlns="http://www.w3.org/2000/svg">
<g id="clipboard.5 1" clip-path="url(#clip0_3844_12905)">
<path id="Vector" d="M9.42877 3.57605C9.44877 3.88105 9.42377 4.22605 9.36377 4.61105L8.99877 6.95605C8.68877 8.91105 7.78377 9.57105 5.82877 9.26605L3.48377 8.89605C2.80877 8.79105 2.28877 8.61105 1.90877 8.34105C1.18377 7.83605 0.973765 7.00605 1.17377 5.72605L1.54377 3.38105C1.85377 1.42605 2.75877 0.766047 4.71377 1.07105L7.05877 1.44105C8.62877 1.68605 9.36377 2.32605 9.42877 3.57605Z" stroke="white" stroke-width="0.75" stroke-linecap="round" stroke-linejoin="round"/>
<path id="Vector_2" d="M10.3637 6.73422L9.61371 8.98922C8.98871 10.8692 7.98871 11.3692 6.10871 10.7442L3.85369 9.99422C2.71869 9.61922 2.08869 9.09922 1.90869 8.33922C2.28869 8.60922 2.80869 8.78922 3.48369 8.89422L5.82871 9.26422C7.78371 9.56922 8.68871 8.90922 8.99871 6.95422L9.36371 4.60922C9.42371 4.22422 9.44871 3.87922 9.42871 3.57422C10.6237 4.20922 10.8837 5.16922 10.3637 6.73422Z" stroke="white" stroke-width="0.75" stroke-linecap="round" stroke-linejoin="round"/>
<path id="Vector_3" d="M4.23377 4.49C4.71426 4.49 5.10377 4.10049 5.10377 3.62C5.10377 3.13951 4.71426 2.75 4.23377 2.75C3.75328 2.75 3.36377 3.13951 3.36377 3.62C3.36377 4.10049 3.75328 4.49 4.23377 4.49Z" stroke="white" stroke-width="0.75" stroke-linecap="round" stroke-linejoin="round"/>
</g>
<defs>
<clipPath id="clip0_3844_12905">
<rect width="12" height="12" fill="white" transform="translate(0.11377)"/>
</clipPath>
</defs>
</svg>
