<svg width="36" height="36" viewBox="0 0 36 36" fill="none" xmlns="http://www.w3.org/2000/svg">
<path d="M24.8189 13.4311C25.4784 14.0878 25.4798 15.1566 24.8217 15.8175C24.8203 15.8175 24.8189 15.8189 24.8175 15.8203L16.9425 23.6953C16.2844 24.3548 15.2156 24.3563 14.5547 23.6981C14.5533 23.6967 14.5519 23.6953 14.5505 23.6939L11.1755 20.3189C10.5145 19.658 10.5145 18.5878 11.1755 17.9283C11.835 17.2673 12.9052 17.2673 13.5661 17.9283L15.7472 20.1066L22.4283 13.4241C23.0878 12.7645 24.1552 12.7659 24.8147 13.4269L24.8189 13.4311ZM33.1875 18C33.1875 26.3869 26.3869 33.1875 18 33.1875C9.61172 33.1875 2.8125 26.3869 2.8125 18C2.8125 9.61172 9.61172 2.8125 18 2.8125C26.3827 2.82094 33.1777 9.61594 33.1875 18ZM29.8125 18C29.8125 11.475 24.5236 6.1875 18 6.1875C11.475 6.1875 6.1875 11.475 6.1875 18C6.1875 24.5236 11.475 29.8125 18 29.8125C24.5208 29.8055 29.8055 24.5208 29.8125 18Z" fill="#00FFAE"/>
</svg>
