<svg width="11" height="12" viewBox="0 0 11 12" fill="none" xmlns="http://www.w3.org/2000/svg">
<g id="Group">
<path id="Vector" d="M10.6458 2.24208C8.75666 2.05205 6.86752 1.95703 5.00072 1.95703C3.8773 1.95703 2.75387 2.01292 1.63603 2.12471L0.495833 2.2309C0.261087 2.25326 0.0934112 2.45447 0.115768 2.68363C0.138125 2.91278 0.339336 3.08046 0.568493 3.0581L1.70869 2.94632C2.79858 2.83453 3.89406 2.77864 4.98396 2.77864C6.8228 2.77864 8.67841 2.86807 10.5396 3.05251C10.7688 3.07487 10.97 2.90161 10.9979 2.67245C11.0203 2.4377 10.847 2.23649 10.6179 2.20855L10.6458 2.24208Z" fill="white"/>
<path id="Vector_2" d="M4.02836 2.16302L4.15132 1.43083C4.24075 0.883093 4.2687 0.849557 4.83879 0.849557H6.30316C6.86208 0.849557 6.90121 0.888682 6.98504 1.43083L7.10801 2.15743C7.14154 2.381 7.35952 2.53749 7.58868 2.49837C7.81224 2.45925 7.96874 2.24127 7.92962 2.01211L7.80665 1.28551C7.65575 0.380065 7.32598 0 6.29198 0H4.82761C3.78802 0 3.46385 0.363298 3.31294 1.27434L3.18439 2.00652C3.14527 2.23009 3.29618 2.44807 3.52533 2.48719C3.7489 2.52073 3.96688 2.36982 4.006 2.14066L4.02836 2.16302Z" fill="white"/>
<path id="Vector_3" d="M8.986 4.39829L8.6227 10.021C8.55004 11.0382 8.43267 11.1836 7.36513 11.1836H3.77687C2.70933 11.1836 2.59196 11.0327 2.5193 10.0098L2.156 4.38152C2.13924 4.14677 1.93802 3.97351 1.70887 3.98469C1.47412 3.99586 1.30086 4.19708 1.31204 4.42623L1.67533 10.049C1.77035 11.463 2.18395 11.9996 3.7601 11.9996H7.34278C8.91893 11.9996 9.33253 11.463 9.42754 10.049L9.79084 4.41505C9.80202 4.18031 9.62876 3.9791 9.39401 3.96792C9.15926 3.95115 8.95805 4.12442 8.94687 4.35916L8.986 4.39829Z" fill="white"/>
<path id="Vector_4" d="M4.64282 8.95947H6.50402C6.73318 8.95947 6.92321 8.76944 6.92321 8.54028C6.92321 8.30554 6.73318 8.12109 6.50402 8.12109H4.64282C4.40808 8.12109 4.22363 8.30554 4.22363 8.54028C4.22363 8.76944 4.40808 8.95947 4.64282 8.95947Z" fill="white"/>
<path id="Vector_5" d="M4.17896 6.72314H6.97355C7.20271 6.72314 7.39274 6.53311 7.39274 6.30396C7.39274 6.06921 7.20271 5.88477 6.97355 5.88477H4.17896C3.94421 5.88477 3.75977 6.06921 3.75977 6.30396C3.75977 6.53311 3.94421 6.72314 4.17896 6.72314Z" fill="white"/>
</g>
</svg>
