<svg width="30" height="31" viewBox="0 0 30 31" fill="none" xmlns="http://www.w3.org/2000/svg">
<g id="Frame">
<path id="Vector" d="M16.875 3H13.125C10.1787 3 8.70559 3 7.79029 3.91529C6.875 4.83059 6.875 6.30373 6.875 9.25V21.75C6.875 24.6963 6.875 26.1694 7.79029 27.0847C8.70559 28 10.1787 28 13.125 28H16.875C19.8213 28 21.2944 28 22.2097 27.0847C23.125 26.1694 23.125 24.6963 23.125 21.75V9.25C23.125 6.30373 23.125 4.83059 22.2097 3.91529C21.2944 3 19.8213 3 16.875 3Z" stroke="white" stroke-width="1.5" stroke-linecap="round" stroke-linejoin="round"/>
<path id="Vector_2" d="M17.5 3H12.5L13.125 4.25H16.875L17.5 3Z" stroke="white" stroke-width="1.5" stroke-linecap="round" stroke-linejoin="round"/>
</g>
</svg>
