<svg width="13" height="12" viewBox="0 0 13 12" fill="none" xmlns="http://www.w3.org/2000/svg">
<g id="Frame" clip-path="url(#clip0_3844_12899)">
<g id="Group">
<path id="Vector" d="M4.23889 5.49914V8.49914C4.23889 8.82914 4.63889 8.99914 4.87889 8.76414L5.87889 7.76414C6.02389 7.61414 6.02389 7.37914 5.87889 7.22914C5.72889 7.07914 5.49389 7.07914 5.34389 7.22914L4.34389 8.22914L4.98389 8.49414V5.49414C4.98389 5.28414 4.81389 5.11914 4.60889 5.11914C4.39889 5.11914 4.23389 5.28414 4.23389 5.49414L4.23889 5.49914Z" fill="white"/>
<path id="Vector_2" d="M4.87895 8.22969L3.87895 7.22969C3.72895 7.07969 3.49395 7.07969 3.34395 7.22969C3.19395 7.37469 3.19395 7.60969 3.34395 7.75969L4.34395 8.75969C4.48895 8.90469 4.72395 8.90469 4.87395 8.75969C5.01895 8.60969 5.01895 8.37469 4.87395 8.22469L4.87895 8.22969Z" fill="white"/>
<path id="Vector_3" d="M10.7388 5V7.5C10.7388 9.79 9.90377 10.625 7.61377 10.625H4.61377C2.31877 10.625 1.48877 9.79 1.48877 7.5V4.5C1.48877 2.205 2.31877 1.375 4.61377 1.375H7.11377C7.31877 1.375 7.48877 1.205 7.48877 1C7.48877 0.79 7.31877 0.625 7.11377 0.625H4.61377C1.90377 0.625 0.73877 1.79 0.73877 4.5V7.5C0.73877 10.205 1.90377 11.375 4.61377 11.375H7.61377C10.3188 11.375 11.4888 10.205 11.4888 7.5V5C11.4888 4.79 11.3188 4.625 11.1138 4.625C10.9038 4.625 10.7388 4.79 10.7388 5Z" fill="white"/>
<path id="Vector_4" d="M11.1139 4.62468H9.11389C7.81889 4.62468 7.48889 4.28968 7.48889 2.99968V0.99968L6.84389 1.26468L10.8439 5.26468L11.1089 4.61968L11.1139 4.62468ZM11.1139 5.37468C11.4439 5.37468 11.6139 4.96968 11.3789 4.72968L7.37889 0.72968C7.13889 0.48968 6.73389 0.65968 6.73389 0.99468V2.99468C6.73389 4.69968 7.39889 5.36968 9.10889 5.36968H11.1089L11.1139 5.37468Z" fill="white"/>
</g>
</g>
<defs>
<clipPath id="clip0_3844_12899">
<rect width="12" height="12" fill="white" transform="translate(0.11377)"/>
</clipPath>
</defs>
</svg>
