<svg width="14" height="14" viewBox="0 0 14 14" fill="none" xmlns="http://www.w3.org/2000/svg">
<g id="Frame">
<path id="Vector" d="M12.6934 9.28602L8.96008 2.56602C8.45842 1.66185 7.76425 1.16602 7.00008 1.16602C6.23592 1.16602 5.53592 1.66185 5.03425 2.56602L1.30092 9.28602C0.828416 10.1435 0.775916 10.966 1.15508 11.6135C1.53425 12.261 2.28092 12.6168 3.26092 12.6168H10.7276C11.7076 12.6168 12.4542 12.261 12.8334 11.6135C13.2126 10.966 13.1601 10.1377 12.6876 9.28602H12.6934ZM6.56258 5.24935C6.56258 5.01018 6.76092 4.81185 7.00008 4.81185C7.23925 4.81185 7.43758 5.01018 7.43758 5.24935V8.16602C7.43758 8.40518 7.23925 8.60352 7.00008 8.60352C6.76092 8.60352 6.56258 8.40518 6.56258 8.16602V5.24935ZM7.41425 10.3302C7.38508 10.3535 7.35592 10.3768 7.32675 10.4002C7.29175 10.4235 7.25675 10.441 7.22175 10.4527C7.18675 10.4702 7.15175 10.4818 7.11092 10.4877C7.07592 10.4935 7.03508 10.4993 7.00008 10.4993C6.96508 10.4993 6.92425 10.4935 6.88342 10.4877C6.84842 10.4818 6.81342 10.4702 6.77842 10.4527C6.74342 10.441 6.70842 10.4235 6.67342 10.4002C6.64425 10.3768 6.61508 10.3535 6.58592 10.3302C6.48092 10.2193 6.41675 10.0677 6.41675 9.91602C6.41675 9.76435 6.48092 9.61268 6.58592 9.50185C6.61508 9.47852 6.64425 9.45518 6.67342 9.43185C6.70842 9.40851 6.74342 9.39102 6.77842 9.37935C6.81342 9.36185 6.84842 9.35018 6.88342 9.34435C6.95925 9.32685 7.04092 9.32685 7.11092 9.34435C7.15175 9.35018 7.18675 9.36185 7.22175 9.37935C7.25675 9.39102 7.29175 9.40851 7.32675 9.43185C7.35592 9.45518 7.38508 9.47852 7.41425 9.50185C7.51925 9.61268 7.58342 9.76435 7.58342 9.91602C7.58342 10.0677 7.51925 10.2193 7.41425 10.3302Z" fill="url(#paint0_linear_3599_13192)"/>
</g>
<defs>
<linearGradient id="paint0_linear_3599_13192" x1="6.99425" y1="1.16602" x2="6.99425" y2="12.6168" gradientUnits="userSpaceOnUse">
<stop stop-color="#FF3633"/>
<stop offset="1" stop-color="#FF3633" stop-opacity="0.5"/>
</linearGradient>
</defs>
</svg>
