<svg width="16" height="16" viewBox="0 0 16 16" fill="none" xmlns="http://www.w3.org/2000/svg">
<g id="solar-file-outline 1" clip-path="url(#clip0_3635_13042)">
<path id="Vector" fill-rule="evenodd" clip-rule="evenodd" d="M8.16683 1.88998C7.86016 1.83798 7.4415 1.83398 6.68683 1.83398C5.40883 1.83398 4.50016 1.83532 3.81216 1.92732C3.1375 2.01732 2.75016 2.18732 2.46816 2.46865C2.18616 2.75065 2.01683 3.13732 1.92683 3.80798C1.83483 4.49332 1.8335 5.39598 1.8335 6.66798V9.33465C1.8335 10.6053 1.83483 11.508 1.92683 12.1933C2.01683 12.864 2.18616 13.2507 2.46816 13.5333C2.75016 13.8147 3.13683 13.984 3.8075 14.074C4.49283 14.1667 5.3955 14.1673 6.66683 14.1673H9.3335C10.6048 14.1673 11.5082 14.166 12.1935 14.074C12.8635 13.984 13.2502 13.8147 13.5322 13.5327C13.8142 13.2507 13.9835 12.864 14.0735 12.1933C14.1655 11.5086 14.1668 10.6053 14.1668 9.33398V9.04265C14.1668 8.01865 14.1602 7.53332 14.0508 7.16732H11.9642C11.2088 7.16732 10.5922 7.16732 10.1042 7.10198C9.5955 7.03332 9.15416 6.88532 8.8015 6.53265C8.44883 6.17998 8.30083 5.73932 8.23216 5.22932C8.16683 4.74265 8.16683 4.12532 8.16683 3.36932V1.88998ZM9.16683 2.40732V3.33398C9.16683 4.13398 9.16816 4.68332 9.2235 5.09598C9.27683 5.49465 9.37283 5.68998 9.50883 5.82532C9.64416 5.96132 9.8395 6.05732 10.2382 6.11065C10.6508 6.16598 11.2002 6.16732 12.0002 6.16732H13.3468C13.091 5.92371 12.831 5.68457 12.5668 5.44998L9.9275 3.07465C9.6785 2.84706 9.4249 2.62457 9.16683 2.40732ZM6.7835 0.833984C7.70683 0.833984 8.3035 0.833984 8.85216 1.04398C9.40083 1.25465 9.84216 1.65198 10.5255 2.26732L10.5968 2.33132L13.2355 4.70665L13.3188 4.78132C14.1082 5.49132 14.6188 5.95065 14.8928 6.56665C15.1675 7.18265 15.1675 7.86932 15.1668 8.93065V9.37132C15.1668 10.5967 15.1668 11.5673 15.0648 12.3267C14.9595 13.108 14.7382 13.7407 14.2395 14.24C13.7402 14.7386 13.1075 14.96 12.3262 15.0653C11.5662 15.1673 10.5962 15.1673 9.37083 15.1673H6.6295C5.40416 15.1673 4.4335 15.1673 3.67416 15.0653C2.89283 14.96 2.26016 14.7386 1.76083 14.24C1.26216 13.7407 1.04083 13.108 0.935496 12.3267C0.833496 11.5667 0.833496 10.5967 0.833496 9.37132V6.62998C0.833496 5.40465 0.833496 4.43398 0.935496 3.67465C1.04083 2.89332 1.26216 2.26065 1.76083 1.76132C2.26083 1.26198 2.89483 1.04132 3.6795 0.935984C4.44216 0.833984 5.4175 0.833984 6.6495 0.833984H6.7835Z" fill="white"/>
</g>
<defs>
<clipPath id="clip0_3635_13042">
<rect width="16" height="16" fill="white"/>
</clipPath>
</defs>
</svg>
