<svg width="64" height="64" viewBox="0 0 64 64" fill="none" xmlns="http://www.w3.org/2000/svg">
<g id="files 1">
<path id="Vector" d="M53.415 16.585L43.415 6.585C43.2291 6.39933 43.0085 6.2521 42.7657 6.15173C42.5229 6.05135 42.2627 5.99979 42 6H22C20.9391 6 19.9217 6.42143 19.1716 7.17157C18.4214 7.92172 18 8.93913 18 10V14H14C12.9391 14 11.9217 14.4214 11.1716 15.1716C10.4214 15.9217 10 16.9391 10 18V54C10 55.0609 10.4214 56.0783 11.1716 56.8284C11.9217 57.5786 12.9391 58 14 58H42C43.0609 58 44.0783 57.5786 44.8284 56.8284C45.5786 56.0783 46 55.0609 46 54V50H50C51.0609 50 52.0783 49.5786 52.8284 48.8284C53.5786 48.0783 54 47.0609 54 46V18C54.0002 17.7373 53.9487 17.4771 53.8483 17.2343C53.7479 16.9915 53.6007 16.7709 53.415 16.585ZM42 54H14V18H33.1725L42 26.8275V47.96C42 47.975 42 47.9875 42 48C42 48.0125 42 48.025 42 48.04V54ZM50 46H46V26C46.0002 25.7373 45.9487 25.4771 45.8483 25.2343C45.7479 24.9915 45.6007 24.7709 45.415 24.585L35.415 14.585C35.2291 14.3993 35.0085 14.2521 34.7657 14.1517C34.5229 14.0514 34.2627 13.9998 34 14H22V10H41.1725L50 18.8275V46ZM36 38C36 38.5304 35.7893 39.0391 35.4142 39.4142C35.0391 39.7893 34.5304 40 34 40H22C21.4696 40 20.9609 39.7893 20.5858 39.4142C20.2107 39.0391 20 38.5304 20 38C20 37.4696 20.2107 36.9609 20.5858 36.5858C20.9609 36.2107 21.4696 36 22 36H34C34.5304 36 35.0391 36.2107 35.4142 36.5858C35.7893 36.9609 36 37.4696 36 38ZM36 46C36 46.5304 35.7893 47.0391 35.4142 47.4142C35.0391 47.7893 34.5304 48 34 48H22C21.4696 48 20.9609 47.7893 20.5858 47.4142C20.2107 47.0391 20 46.5304 20 46C20 45.4696 20.2107 44.9609 20.5858 44.5858C20.9609 44.2107 21.4696 44 22 44H34C34.5304 44 35.0391 44.2107 35.4142 44.5858C35.7893 44.9609 36 45.4696 36 46Z" fill="#00FFAE"/>
</g>
</svg>
