<svg width="32" height="32" viewBox="0 0 32 32" fill="none" xmlns="http://www.w3.org/2000/svg">
<path d="M29 12V8C29 7.46957 28.7893 6.96086 28.4142 6.58579C28.0391 6.21071 27.5304 6 27 6H11V4C11 3.46957 10.7893 2.96086 10.4142 2.58579C10.0391 2.21071 9.53043 2 9 2H3C2.46957 2 1.96086 2.21071 1.58579 2.58579C1.21071 2.96086 1 3.46957 1 4V27.7333C1.00753 28.2779 1.2109 28.8016 1.57291 29.2086C1.93492 29.6155 2.43136 29.8785 2.97138 29.9494C3.5114 30.0203 4.0589 29.8944 4.51369 29.5947C4.96848 29.295 5.30014 28.8415 5.448 28.3173L8.584 13.4453C8.70427 13.0287 8.95669 12.6624 9.30324 12.4017C9.64979 12.141 10.0717 12 10.5053 12H29ZM29 12C29.3066 11.9999 29.6091 12.0703 29.8841 12.2057C30.1592 12.3411 30.3994 12.5379 30.5862 12.781C30.7731 13.024 30.9016 13.3068 30.9618 13.6074C31.022 13.908 31.0122 14.2184 30.9333 14.5147L28 28.5147C27.8865 28.9407 27.6355 29.3174 27.2858 29.586C26.9362 29.8546 26.5076 30.0002 26.0667 30H3.26267" stroke="white" stroke-width="1.5" stroke-linecap="round" stroke-linejoin="round"/>
<path d="M17.1667 24.3333C19.4679 24.3333 21.3333 22.4679 21.3333 20.1667C21.3333 17.8655 19.4679 16 17.1667 16C14.8655 16 13 17.8655 13 20.1667C13 22.4679 14.8655 24.3333 17.1667 24.3333Z" stroke="white" stroke-width="1.5" stroke-linecap="round" stroke-linejoin="round"/>
<path d="M20.1133 23.1133L22.9999 25.9999" stroke="white" stroke-width="1.5" stroke-linecap="round" stroke-linejoin="round"/>
</svg>
