<svg width="99" height="24" viewBox="0 0 99 24" fill="none" xmlns="http://www.w3.org/2000/svg">
<g opacity="0.5" clip-path="url(#clip0_4323_14641)">
<path d="M12.9822 0C6.18038 0 0.685547 5.49333 0.685547 12.2933C0.685547 17.7333 4.20651 22.3467 9.08783 23.9733C9.70133 24.08 9.9414 23.7067 9.9414 23.3867C9.9414 23.0933 9.91472 22.1333 9.91472 21.0933C6.82055 21.6533 6.02033 20.3467 5.78027 19.6533C5.6469 19.3067 5.0334 18.2133 4.52659 17.92C4.09981 17.68 3.48631 17.12 4.49992 17.0933C5.46018 17.0667 6.1537 17.9733 6.39377 18.3467C7.51407 20.2133 9.27455 19.68 9.96807 19.36C10.0748 18.56 10.3949 18.0267 10.7416 17.7067C7.9942 17.3867 5.14009 16.3467 5.14009 11.6267C5.14009 10.2933 5.62022 9.17334 6.39377 8.32C6.2604 8 5.83361 6.74667 6.52714 5.06667C6.52714 5.06667 7.56742 4.74667 9.91472 6.32C10.9017 6.05333 11.9419 5.89333 12.9822 5.89333C14.0225 5.89333 15.0628 6.02667 16.0497 6.32C18.397 4.72 19.4373 5.06667 19.4373 5.06667C20.1042 6.74667 19.6774 8.02667 19.5707 8.32C20.3442 9.17334 20.8244 10.2667 20.8244 11.6267C20.8244 16.3467 17.9436 17.3867 15.1962 17.7067C15.6496 18.08 16.0231 18.8267 16.0231 19.9733C16.0231 21.6267 15.9964 22.9333 15.9964 23.36C15.9964 23.68 16.2364 24.08 16.8499 23.9467C21.7046 22.32 25.2256 17.7067 25.2256 12.2667C25.3056 5.49333 19.7841 0 12.9822 0Z" fill="white"/>
<path d="M59.7954 17.8953C59.662 17.8953 59.3152 17.9753 58.9418 17.9753C57.7682 17.9753 57.368 17.4419 57.368 16.7486V12.0819H59.742C59.8754 12.0819 59.9821 11.9753 59.9821 11.7886V9.25528C59.9821 9.12195 59.8754 9.01528 59.742 9.01528H57.368V5.89528C57.368 5.78861 57.288 5.70861 57.1547 5.70861H53.9538C53.8204 5.70861 53.7404 5.78861 53.7404 5.89528V9.12195C53.7404 9.12195 52.1133 9.52194 52.0066 9.54861C51.8999 9.57528 51.8199 9.68195 51.8199 9.78861V11.8153C51.8199 11.9753 51.9266 12.1086 52.0599 12.1086H53.7137V16.9886C53.7137 20.6153 56.2477 20.9886 57.9815 20.9886C58.7818 20.9886 59.7154 20.7486 59.8754 20.6686C59.9554 20.6419 60.0088 20.5353 60.0088 20.4286V18.1886C60.0354 18.0286 59.9287 17.9219 59.7954 17.8953ZM95.0583 14.6419C95.0583 11.9486 93.9647 11.6019 92.8177 11.7086C91.9375 11.7619 91.2173 12.2153 91.2173 12.2153V17.4419C91.2173 17.4419 91.9375 17.9486 93.0311 17.9753C94.5782 18.0286 95.0583 17.4686 95.0583 14.6419ZM98.686 14.4019C98.686 19.4953 97.0322 20.9619 94.1514 20.9619C91.7241 20.9619 90.3904 19.7353 90.3904 19.7353C90.3904 19.7353 90.337 20.4286 90.257 20.5086C90.2036 20.5886 90.1503 20.6153 90.0436 20.6153H87.8297C87.6696 20.6153 87.5363 20.5086 87.5363 20.3753L87.5629 3.84195C87.5629 3.70861 87.6696 3.60195 87.803 3.60195H90.9772C91.1106 3.60195 91.2173 3.70861 91.2173 3.84195L91.1906 9.41528C91.1906 9.41528 92.4176 8.61528 94.2047 8.61528H94.2314C96.0452 8.61528 98.686 9.28194 98.686 14.4019ZM85.6958 9.01528H82.5749C82.4149 9.01528 82.3348 9.12195 82.3348 9.30861V17.3886C82.3348 17.3886 81.5079 17.9753 80.3876 17.9753C79.2673 17.9753 78.9473 17.4686 78.9473 16.3486V9.28194C78.9473 9.14861 78.8406 9.04195 78.7072 9.04195H75.533C75.3996 9.04195 75.2929 9.14861 75.2929 9.28194V16.8819C75.2929 20.1619 77.1334 20.9619 79.6408 20.9619C81.7213 20.9619 83.4018 19.8153 83.4018 19.8153C83.4018 19.8153 83.4818 20.4019 83.5085 20.4819C83.5352 20.5619 83.6419 20.6153 83.7486 20.6153H85.7491C85.9091 20.6153 85.9892 20.5086 85.9892 20.3753L86.0158 9.25528C85.9892 9.14861 85.8558 9.01528 85.6958 9.01528ZM50.4328 9.01528H47.2586C47.1253 9.01528 47.0186 9.14861 47.0186 9.30861V20.2153C47.0186 20.5086 47.2053 20.6153 47.472 20.6153H50.3261C50.6195 20.6153 50.6996 20.4819 50.6996 20.2153V9.25528C50.6996 9.12195 50.5662 9.01528 50.4328 9.01528ZM48.8857 3.97528C47.7388 3.97528 46.8318 4.88195 46.8318 6.02861C46.8318 7.17528 47.7388 8.08194 48.8857 8.08194C50.006 8.08194 50.913 7.17528 50.913 6.02861C50.913 4.88195 50.006 3.97528 48.8857 3.97528ZM73.4258 3.60195H70.2782C70.1449 3.60195 70.0382 3.70861 70.0382 3.84195V9.92195H65.1035V3.86861C65.1035 3.73528 64.9968 3.62861 64.8634 3.62861H61.6892C61.5559 3.62861 61.4492 3.73528 61.4492 3.86861V20.4019C61.4492 20.5353 61.5825 20.6419 61.6892 20.6419H64.8634C64.9968 20.6419 65.1035 20.5353 65.1035 20.4019V13.3086H70.0382L70.0115 20.3753C70.0115 20.5086 70.1182 20.6153 70.2515 20.6153H73.4258C73.5591 20.6153 73.6658 20.5086 73.6658 20.3753V3.84195C73.6658 3.73528 73.5591 3.60195 73.4258 3.60195ZM45.3381 10.9353V19.4686C45.3381 19.5219 45.3114 19.6286 45.2581 19.6553C45.2581 19.6553 43.3909 20.9886 40.3234 20.9886C36.6157 20.9886 32.2412 19.8153 32.2412 12.1886C32.2412 4.53528 36.0823 2.96195 39.8166 2.98861C43.0708 2.98861 44.3778 3.70861 44.5646 3.84195C44.6179 3.92195 44.6446 3.97528 44.6446 4.05528L44.0311 6.69528C44.0311 6.82861 43.8977 6.98861 43.7377 6.93528C43.2042 6.77528 42.404 6.45528 40.5101 6.45528C38.3229 6.45528 35.9756 7.06861 35.9756 12.0019C35.9756 16.9353 38.2162 17.4953 39.8166 17.4953C41.177 17.4953 41.6838 17.3353 41.6838 17.3353V13.9219H39.4965C39.3365 13.9219 39.2031 13.8153 39.2031 13.6819V10.9353C39.2031 10.8019 39.3098 10.6953 39.4965 10.6953H45.0714C45.2314 10.6686 45.3381 10.8019 45.3381 10.9353Z" fill="white"/>
</g>
<defs>
<clipPath id="clip0_4323_14641">
<rect width="98" height="24" fill="white" transform="translate(0.685547)"/>
</clipPath>
</defs>
</svg>
