<svg width="20" height="20" viewBox="0 0 20 20" fill="none" xmlns="http://www.w3.org/2000/svg">
<g clip-path="url(#clip0_3616_13057)">
<path d="M10.0001 0.232422C7.6194 0.231715 5.31657 1.08036 3.50568 2.62574C1.69478 4.17113 0.494623 6.31188 0.121007 8.66305C-0.252608 11.0142 0.224832 13.4215 1.46748 15.4522C2.71012 17.4828 4.63645 19.0035 6.90006 19.7408H7.14173C7.25963 19.7481 7.37775 19.7302 7.48823 19.6884C7.59872 19.6466 7.69905 19.5818 7.78259 19.4983C7.86612 19.4147 7.93093 19.3144 7.97274 19.2039C8.01454 19.0934 8.03238 18.9753 8.02506 18.8574V18.6824C8.02506 18.5408 8.02506 18.3491 8.02506 17.7741C8.01689 17.7195 7.99794 17.6671 7.96933 17.6199C7.94072 17.5727 7.90301 17.5316 7.8584 17.4991C7.80999 17.4599 7.75342 17.4321 7.69286 17.4177C7.63229 17.4033 7.56926 17.4026 7.5084 17.4158C5.27506 17.8991 4.80006 16.4991 4.76673 16.4074C4.48707 15.6667 3.98676 15.0297 3.3334 14.5824C3.29425 14.5486 3.25245 14.5179 3.2084 14.4908C3.30524 14.4386 3.416 14.4182 3.52506 14.4324C3.73451 14.4615 3.93286 14.5444 4.10079 14.6729C4.26873 14.8014 4.40054 14.9712 4.4834 15.1658C4.80577 15.7271 5.3333 16.1415 5.95499 16.3218C6.57668 16.5021 7.24406 16.4342 7.81673 16.1324C7.87818 16.1056 7.93224 16.0643 7.97432 16.012C8.01639 15.9598 8.04523 15.8982 8.0584 15.8324C8.0903 15.447 8.25529 15.0846 8.52506 14.8074C8.58496 14.7542 8.62825 14.6849 8.64976 14.6078C8.67126 14.5306 8.67008 14.4489 8.64633 14.3724C8.62259 14.2959 8.5773 14.2278 8.51589 14.1764C8.45448 14.125 8.37955 14.0924 8.30006 14.0824C6.32506 13.8574 4.3084 13.1658 4.3084 9.75742C4.29175 8.90149 4.60506 8.07196 5.1834 7.44076C5.23666 7.38192 5.27202 7.3091 5.28531 7.23086C5.29859 7.15262 5.28926 7.07221 5.2584 6.99909C5.0268 6.35203 5.02975 5.64419 5.26673 4.99909C6.03659 5.13556 6.75917 5.46531 7.36673 5.95742C7.41692 5.99285 7.47446 6.01649 7.53506 6.02659C7.59566 6.03669 7.65776 6.03299 7.71673 6.01576C8.46114 5.81382 9.22876 5.71017 10.0001 5.70742C10.7743 5.70807 11.5449 5.81176 12.2917 6.01576C12.3495 6.03169 12.41 6.03472 12.4691 6.02464C12.5281 6.01456 12.5842 5.99161 12.6334 5.95742C13.2419 5.46686 13.9641 5.13729 14.7334 4.99909C14.9603 5.64074 14.9603 6.34077 14.7334 6.98242C14.7025 7.05554 14.6932 7.13595 14.7065 7.21419C14.7198 7.29244 14.7551 7.36526 14.8084 7.42409C15.3808 8.04899 15.6936 8.86841 15.6834 9.71576C15.6834 13.1241 13.6584 13.8074 11.6751 14.0324C11.5937 14.0409 11.5167 14.0731 11.4535 14.1251C11.3903 14.177 11.3439 14.2464 11.3199 14.3246C11.2959 14.4028 11.2954 14.4863 11.3186 14.5648C11.3417 14.6432 11.3875 14.7131 11.4501 14.7658C11.6347 14.9563 11.7757 15.1846 11.8635 15.4349C11.9512 15.6853 11.9836 15.9517 11.9584 16.2158V18.8658C11.9543 18.996 11.979 19.1256 12.0309 19.2452C12.0828 19.3648 12.1605 19.4714 12.2584 19.5574C12.3831 19.6508 12.5279 19.7138 12.6813 19.7412C12.8347 19.7687 12.9923 19.76 13.1417 19.7158C15.3902 18.9636 17.2982 17.437 18.5254 15.4084C19.7525 13.3798 20.219 10.9811 19.8416 8.64045C19.4642 6.29978 18.2674 4.16935 16.4647 2.62929C14.6621 1.08924 12.371 0.23976 10.0001 0.232422Z" fill="white"/>
</g>
<defs>
<clipPath id="clip0_3616_13057">
<rect width="20" height="20" fill="white"/>
</clipPath>
</defs>
</svg>
