<svg width="21" height="20" viewBox="0 0 21 20" fill="none" xmlns="http://www.w3.org/2000/svg">
<g id="Frame">
<g id="Group">
<path id="Vector" d="M8.25008 18.9577H6.58341C2.90841 18.9577 1.79175 17.841 1.79175 14.166V5.83268C1.79175 2.15768 2.90841 1.04102 6.58341 1.04102H7.83341C9.29175 1.04102 9.75008 1.51602 10.3334 2.29102L11.5834 3.95768C11.8584 4.32435 11.9001 4.37435 12.4167 4.37435H14.9167C18.5917 4.37435 19.7084 5.49102 19.7084 9.16602V10.8327C19.7084 11.1743 19.4251 11.4577 19.0834 11.4577C18.7417 11.4577 18.4584 11.1743 18.4584 10.8327V9.16602C18.4584 6.19102 17.9001 5.62435 14.9167 5.62435H12.4167C11.3501 5.62435 11.0001 5.24935 10.5834 4.69935L9.33341 3.03268C8.89175 2.45768 8.76675 2.28268 7.83341 2.28268H6.58341C3.60008 2.28268 3.04175 2.84935 3.04175 5.82435V14.1577C3.04175 17.1327 3.60008 17.6993 6.58341 17.6993H8.25008C8.59175 17.6993 8.87508 17.9827 8.87508 18.3243C8.87508 18.666 8.59175 18.9493 8.25008 18.9493V18.9577Z" fill="#FF8E90"/>
<path id="Vector_2" d="M16.8667 19.0078C16.8584 19.0078 16.8417 19.0078 16.8334 19.0078H12.2001C10.8084 18.9078 10.1084 17.8412 10.1084 16.8245C10.1084 16.0078 10.5667 15.1495 11.4501 14.7995C11.2667 13.7578 11.5334 12.7912 12.2251 12.0662C13.0751 11.1745 14.4334 10.8162 15.6167 11.1745C16.6501 11.4912 17.3917 12.3078 17.7001 13.4412C18.5751 13.7078 19.2667 14.3995 19.5501 15.3412C19.8834 16.4328 19.5667 17.5495 18.7417 18.2662C18.2417 18.7412 17.5584 19.0078 16.8417 19.0078H16.8667ZM12.2334 15.8912C11.6001 15.9495 11.3667 16.4245 11.3667 16.8245C11.3667 17.2245 11.6001 17.7078 12.2501 17.7578H16.8417C17.2417 17.7912 17.6417 17.6078 17.9417 17.3412C18.4834 16.8662 18.5084 16.1912 18.3667 15.7078C18.2251 15.2245 17.8084 14.6828 17.1084 14.5912C16.8334 14.5578 16.6084 14.3495 16.5584 14.0745C16.3751 12.9495 15.7417 12.5328 15.2501 12.3745C14.5167 12.1495 13.6501 12.3828 13.1251 12.9328C12.7667 13.3078 12.4167 13.9828 12.8084 15.0578C12.9251 15.3828 12.7584 15.7412 12.4334 15.8578C12.3584 15.8828 12.2834 15.8912 12.2167 15.8912H12.2334Z" fill="#FF8E90"/>
</g>
</g>
</svg>
