<svg width="21" height="20" viewBox="0 0 21 20" fill="none" xmlns="http://www.w3.org/2000/svg">
<g id="Frame">
<g id="Group">
<path id="Vector" d="M16.7916 10.166V11.5827C16.7916 13.716 15.725 14.7077 13.6666 14.7077H6.16663C4.09997 14.7077 3.04163 13.716 3.04163 11.5827V7.08268C3.04163 4.94102 4.09997 3.95768 6.16663 3.95768H8.41663V3.33268L7.82497 3.12435C7.69163 3.50768 7.61663 3.92435 7.61663 4.36602V7.61602C7.61663 8.57435 7.9333 9.41602 8.5333 10.0243C9.1333 10.6243 9.97497 10.941 10.9416 10.941L10.3166 10.316V11.4743C10.3166 12.391 11.35 12.9493 12.1166 12.441L14.525 10.8243L14.175 10.9243H16.3416C16.775 10.9243 17.1916 10.8493 17.5833 10.716L17.375 10.1243H16.75L16.7916 10.166ZM18.0416 10.166C18.0416 9.73268 17.6166 9.43268 17.2083 9.57435C16.95 9.65768 16.6666 9.69935 16.3666 9.69935H14.2C14.075 9.69935 13.95 9.73268 13.85 9.79935L11.4416 11.4077C11.5 11.366 11.5666 11.3993 11.5666 11.4743V10.316C11.5666 9.96602 11.2833 9.69102 10.9416 9.69102C10.3 9.69102 9.77497 9.48268 9.41663 9.12435C9.0583 8.76602 8.84997 8.23268 8.84997 7.59935V4.34102C8.84997 4.03268 8.89163 3.74935 8.97497 3.49935C9.1083 3.09102 8.8083 2.66602 8.3833 2.66602H6.1333C3.39997 2.66602 1.7583 4.19102 1.7583 7.04102V11.541C1.7583 14.3827 3.39997 15.916 6.1333 15.916H13.6333C16.3583 15.916 18.0083 14.3827 18.0083 11.541V10.1243L18.0416 10.166Z" fill="#FF488B"/>
<path id="Vector_2" d="M18.4584 4.37435V7.62435C18.4584 8.59102 17.9917 9.29102 17.2 9.57435C16.95 9.65768 16.6667 9.69935 16.3667 9.69935H14.2C14.075 9.69935 13.95 9.73268 13.85 9.79935L11.4417 11.4077C11.5 11.366 11.5667 11.3994 11.5667 11.4743V10.316C11.5667 9.96602 11.2834 9.69102 10.9417 9.69102C10.3 9.69102 9.77503 9.48268 9.4167 9.12435C9.05837 8.76602 8.85003 8.23268 8.85003 7.59935V4.34102C8.85003 4.03268 8.8917 3.74935 8.97503 3.49935C9.25003 2.71602 9.95003 2.24935 10.925 2.24935H16.3417C17.6167 2.24935 18.425 3.04935 18.425 4.33268L18.4584 4.37435ZM19.7084 4.37435C19.7084 2.39935 18.3417 1.04102 16.375 1.04102H10.9584C9.4667 1.04102 8.28337 1.81602 7.82503 3.11602C7.68337 3.50768 7.6167 3.92435 7.6167 4.36602V7.61602C7.6167 8.57435 7.93337 9.41602 8.53337 10.0243C9.13337 10.6243 9.97503 10.941 10.9417 10.941L10.3167 10.316V11.4743C10.3167 12.391 11.35 12.9493 12.1167 12.441L14.525 10.8243L14.175 10.9243H16.3417C16.775 10.9243 17.1917 10.8493 17.5834 10.716C18.8834 10.2493 19.6667 9.06602 19.6667 7.58268V4.32435L19.7084 4.37435Z" fill="#FF488B"/>
<path id="Vector_3" d="M6.91654 18.957H12.9082C13.2499 18.957 13.5332 18.6737 13.5332 18.332C13.5332 17.982 13.2499 17.707 12.9082 17.707H6.9082C6.5582 17.707 6.2832 17.982 6.2832 18.332C6.2832 18.6737 6.5582 18.957 6.9082 18.957H6.91654Z" fill="#FF488B"/>
<path id="Vector_4" d="M9.29175 15.3242V18.3242C9.29175 18.6659 9.56675 18.9492 9.91675 18.9492C10.2584 18.9492 10.5417 18.6659 10.5417 18.3242V15.3242C10.5417 14.9742 10.2584 14.6992 9.91675 14.6992C9.56675 14.6992 9.29175 14.9742 9.29175 15.3242Z" fill="#FF488B"/>
<path id="Vector_5" d="M16.1582 6.66602C16.4999 6.66602 16.7832 6.38268 16.7832 6.04102C16.7832 5.69102 16.4999 5.41602 16.1582 5.41602H16.1499C15.7999 5.41602 15.5249 5.69102 15.5249 6.04102C15.5249 6.38268 15.7999 6.66602 16.1499 6.66602H16.1582Z" fill="#FF488B"/>
<path id="Vector_6" d="M13.825 6.66602C14.1666 6.66602 14.45 6.38268 14.45 6.04102C14.45 5.69102 14.1666 5.41602 13.825 5.41602H13.8167C13.4667 5.41602 13.1917 5.69102 13.1917 6.04102C13.1917 6.38268 13.4667 6.66602 13.8167 6.66602H13.825Z" fill="#FF488B"/>
<path id="Vector_7" d="M11.4917 6.66602C11.8334 6.66602 12.1167 6.38268 12.1167 6.04102C12.1167 5.69102 11.8334 5.41602 11.4917 5.41602H11.4834C11.1334 5.41602 10.8584 5.69102 10.8584 6.04102C10.8584 6.38268 11.1334 6.66602 11.4834 6.66602H11.4917Z" fill="#FF488B"/>
</g>
</g>
</svg>
