<svg width="24" height="25" viewBox="0 0 24 25" fill="none" xmlns="http://www.w3.org/2000/svg">
<g id="info-circle.2 1">
<path id="Vector" d="M12 23.25C6.07 23.25 1.25 18.43 1.25 12.5C1.25 6.57 6.07 1.75 12 1.75C17.93 1.75 22.75 6.57 22.75 12.5C22.75 18.43 17.93 23.25 12 23.25ZM12 3.25C6.9 3.25 2.75 7.4 2.75 12.5C2.75 17.6 6.9 21.75 12 21.75C17.1 21.75 21.25 17.6 21.25 12.5C21.25 7.4 17.1 3.25 12 3.25Z" fill="#4F88FF"/>
<path id="Vector_2" d="M12 14.25C11.59 14.25 11.25 13.91 11.25 13.5V8.5C11.25 8.09 11.59 7.75 12 7.75C12.41 7.75 12.75 8.09 12.75 8.5V13.5C12.75 13.91 12.41 14.25 12 14.25Z" fill="#4F88FF"/>
<path id="Vector_3" d="M12 17.5009C11.87 17.5009 11.74 17.4709 11.62 17.4209C11.5 17.3709 11.39 17.3009 11.29 17.2109C11.2 17.1109 11.13 17.0109 11.08 16.8809C11.03 16.7609 11 16.6309 11 16.5009C11 16.3709 11.03 16.2409 11.08 16.1209C11.13 16.0009 11.2 15.8909 11.29 15.7909C11.39 15.7009 11.5 15.6309 11.62 15.5809C11.86 15.4809 12.14 15.4809 12.38 15.5809C12.5 15.6309 12.61 15.7009 12.71 15.7909C12.8 15.8909 12.87 16.0009 12.92 16.1209C12.97 16.2409 13 16.3709 13 16.5009C13 16.6309 12.97 16.7609 12.92 16.8809C12.87 17.0109 12.8 17.1109 12.71 17.2109C12.61 17.3009 12.5 17.3709 12.38 17.4209C12.26 17.4709 12.13 17.5009 12 17.5009Z" fill="#4F88FF"/>
</g>
</svg>
