<svg width="14" height="15" viewBox="0 0 14 15" fill="none" xmlns="http://www.w3.org/2000/svg">
<g id="Frame">
<path id="Vector" fill-rule="evenodd" clip-rule="evenodd" d="M7.94244 3.30048C8.56778 2.87115 9.37044 2.86182 9.95844 3.24448C10.0891 3.32848 10.2291 3.46848 10.6211 3.85768C11.0038 4.24035 11.1438 4.38035 11.2278 4.52035C11.6104 5.10835 11.6011 5.91102 11.1718 6.53635C11.0691 6.67635 10.9198 6.82568 10.5184 7.22702L9.93978 7.79635C9.75311 7.97368 9.75311 8.27235 9.93978 8.44968C10.1171 8.62702 10.4158 8.62702 10.5931 8.44968L11.1624 7.87102L11.1998 7.82435C11.5358 7.47902 11.7598 7.25502 11.9184 7.03102C12.5438 6.09768 12.5811 4.89368 11.9651 3.96968C11.8158 3.73635 11.6011 3.52168 11.2651 3.19502L11.2184 3.14835L11.1718 3.10168C10.8358 2.76568 10.6211 2.55102 10.3971 2.40168C9.47311 1.78568 8.25978 1.82302 7.33578 2.44835C7.10244 2.59768 6.88778 2.82168 6.54244 3.16702L6.49578 3.20435L5.91711 3.77368C5.73044 3.95102 5.73044 4.24968 5.91711 4.42702C6.09444 4.60435 6.39311 4.60435 6.57044 4.42702L7.13978 3.84835C7.53177 3.44702 7.69044 3.29768 7.83044 3.19502L7.94244 3.30048ZM4.02244 7.16448C4.19977 6.97782 4.19977 6.67915 4.02244 6.50182C3.83577 6.31515 3.53711 6.31515 3.35977 6.50182L2.78111 7.07115L2.73444 7.10848C2.38911 7.44448 2.16511 7.66848 2.00644 7.89248C1.37178 8.81648 1.33444 10.0205 1.95044 10.9445C2.09044 11.1685 2.30511 11.3832 2.64111 11.7098L2.67844 11.7472L2.71578 11.7845C3.04244 12.1112 3.25711 12.3258 3.48111 12.4752C4.40511 13.0818 5.60911 13.0445 6.53311 12.4192C6.75711 12.2605 6.97178 12.0365 7.31711 11.6912L7.35444 11.6445L7.92377 11.0658C8.10111 10.8792 8.10111 10.5805 7.92377 10.4032C7.73711 10.2165 7.43844 10.2165 7.26111 10.4032L6.68244 10.9725C6.28111 11.3645 6.12244 11.5138 5.98244 11.6165C5.34777 12.0365 4.54511 12.0458 3.95711 11.6632C3.81711 11.5698 3.67711 11.4298 3.28511 11.05C2.89311 10.658 2.75311 10.518 2.67191 10.378C2.27991 9.78062 2.28924 8.97795 2.71858 8.35262C2.81191 8.20328 2.96124 8.05395 3.36257 7.65262L3.93191 7.07395L4.02244 7.16448ZM8.96911 6.16582C9.14644 5.97915 9.14644 5.68048 8.96911 5.50315C8.78244 5.31648 8.48377 5.31648 8.30644 5.50315L5.00244 8.79782C4.81578 8.97515 4.81578 9.27382 5.00244 9.45115C5.17978 9.62848 5.47844 9.62848 5.65578 9.45115L8.95044 6.14715L8.96911 6.16582Z" fill="white"/>
</g>
</svg>
