<svg width="16" height="16" viewBox="0 0 16 16" fill="none" xmlns="http://www.w3.org/2000/svg">
<g id="messages-bubble-typing-alternate 1" clip-path="url(#clip0_3599_13237)">
<path id="Vector" d="M3.38997 14.0007C4.12635 14.0007 4.72331 13.4037 4.72331 12.6673C4.72331 11.9309 4.12635 11.334 3.38997 11.334C2.65359 11.334 2.05664 11.9309 2.05664 12.6673C2.05664 13.4037 2.65359 14.0007 3.38997 14.0007Z" fill="#3B82F6"/>
<path id="Vector_2" d="M10.568 6.20867e-05C9.71557 -0.00414665 8.87567 0.205684 8.12533 0.610321C7.37499 1.01496 6.73822 1.60146 6.27338 2.31606C5.69819 2.03083 5.06474 1.88273 4.42271 1.8834C3.28519 1.89484 2.19864 2.35699 1.40141 3.16847C0.604172 3.97995 0.16134 5.07451 0.170048 6.21206C0.162843 7.31367 0.578645 8.37604 1.33171 9.18008C2.08477 9.98412 3.11766 10.4685 4.21738 10.5334C4.89077 11.3737 5.86119 11.9232 6.92817 12.0685C7.99515 12.2138 9.07717 11.9437 9.95071 11.3141C10.2232 11.3553 10.4984 11.376 10.774 11.3761C13.768 11.3761 15.9414 8.9834 15.9414 5.68673C15.969 4.95878 15.8512 4.23263 15.5948 3.55075C15.3385 2.86886 14.9488 2.24493 14.4484 1.71544C13.9481 1.18595 13.3473 0.761529 12.681 0.466993C12.0147 0.172456 11.2964 0.0137186 10.568 6.20867e-05ZM10.776 10.0454C10.4868 10.0451 10.1984 10.0149 9.91538 9.9554C9.81621 9.93412 9.71347 9.93593 9.6151 9.96066C9.51673 9.9854 9.42536 10.0324 9.34805 10.0981C9.03904 10.3602 8.67797 10.5538 8.28865 10.6662C7.89934 10.7785 7.49063 10.8071 7.08947 10.75C6.68831 10.6928 6.30382 10.5513 5.96136 10.3347C5.61891 10.1181 5.32626 9.83136 5.10271 9.4934C5.02819 9.38615 4.92465 9.30235 4.80422 9.25181C4.68379 9.20128 4.55146 9.1861 4.42271 9.20806C3.63864 9.19682 2.89102 8.87512 2.34377 8.3135C1.79651 7.75188 1.4943 6.99617 1.50338 6.21206C1.49448 5.42807 1.79677 4.67253 2.344 4.11106C2.89123 3.54958 3.63876 3.22797 4.42271 3.21673C5.02667 3.21721 5.61489 3.40932 6.10271 3.7654C6.17918 3.82065 6.26651 3.85904 6.35892 3.87804C6.45132 3.89704 6.54671 3.89621 6.63878 3.8756C6.73084 3.855 6.81748 3.81509 6.89298 3.75851C6.96847 3.70193 7.0311 3.62997 7.07671 3.5474C7.39533 2.89029 7.89082 2.33501 8.50755 1.94392C9.12427 1.55283 9.83782 1.34141 10.568 1.3334C12.8727 1.3334 14.61 3.20606 14.61 5.6894C14.61 8.2134 13 10.0454 10.776 10.0454Z" fill="#3B82F6"/>
<path id="Vector_3" d="M5.05664 7.66602C5.60893 7.66602 6.05664 7.2183 6.05664 6.66602C6.05664 6.11373 5.60893 5.66602 5.05664 5.66602C4.50436 5.66602 4.05664 6.11373 4.05664 6.66602C4.05664 7.2183 4.50436 7.66602 5.05664 7.66602Z" fill="#3B82F6"/>
<path id="Vector_4" d="M8.39014 7.66602C8.94242 7.66602 9.39014 7.2183 9.39014 6.66602C9.39014 6.11373 8.94242 5.66602 8.39014 5.66602C7.83785 5.66602 7.39014 6.11373 7.39014 6.66602C7.39014 7.2183 7.83785 7.66602 8.39014 7.66602Z" fill="#3B82F6"/>
<path id="Vector_5" d="M11.7231 7.66602C12.2754 7.66602 12.7231 7.2183 12.7231 6.66602C12.7231 6.11373 12.2754 5.66602 11.7231 5.66602C11.1709 5.66602 10.7231 6.11373 10.7231 6.66602C10.7231 7.2183 11.1709 7.66602 11.7231 7.66602Z" fill="#3B82F6"/>
<path id="Vector_6" d="M1.05664 16C1.60893 16 2.05664 15.5523 2.05664 15C2.05664 14.4477 1.60893 14 1.05664 14C0.504356 14 0.0566406 14.4477 0.0566406 15C0.0566406 15.5523 0.504356 16 1.05664 16Z" fill="#3B82F6"/>
</g>
<defs>
<clipPath id="clip0_3599_13237">
<rect width="16" height="16" fill="white"/>
</clipPath>
</defs>
</svg>
