<svg width="27" height="25" viewBox="0 0 27 25" fill="none" xmlns="http://www.w3.org/2000/svg">
<g id="Layer_1" clip-path="url(#clip0_3599_13298)">
<g id="Group">
<g id="Group_2">
<g id="Group_3">
<path id="Vector" d="M7.29853 20.4851H7.04541L5.77979 19.2108V18.9559L7.72041 17.002H9.07041L9.26025 17.1931V18.5524L7.29853 20.4851Z" fill="#05BDBA"/>
<path id="Vector_2" d="M5.77979 5.98038V5.72551L7.04541 4.45117H7.29853L9.23916 6.40515V7.76445L9.07041 7.93436H7.72041L5.77979 5.98038Z" fill="#05BDBA"/>
<path id="Vector_3" d="M16.9805 16.344H15.1242L14.9766 16.1953V11.8201C14.9766 11.0343 14.6812 10.4396 13.7531 10.4183C13.268 10.3971 12.7195 10.4183 12.15 10.4396L12.0656 10.5245V16.1741L11.918 16.3228H10.0617L9.91406 16.1741V8.74047L10.0617 8.5918H14.2383C15.8625 8.5918 17.1703 9.90861 17.1703 11.544V16.1953L16.9805 16.344Z" fill="#05BDBA"/>
<path id="Vector_4" d="M7.55156 13.5414H0.147656L0 13.3927V11.5237L0.147656 11.375H7.55156L7.69922 11.5237V13.3927L7.55156 13.5414Z" fill="#05BDBA"/>
<path id="Vector_5" d="M26.8523 13.5414H19.4484L19.3008 13.3927V11.5237L19.4484 11.375H26.8523L27 11.5237V13.3927L26.8523 13.5414Z" fill="#05BDBA"/>
<path id="Vector_6" d="M12.4243 6.25575V0.648673L12.5931 0.5H14.4493L14.597 0.648673V6.23451L14.4493 6.38319H12.5931L12.4243 6.25575Z" fill="#05BDBA"/>
<path id="Vector_7" d="M12.4243 24.2658V18.6799L12.572 18.5312H14.4282L14.5759 18.6799V24.2658L14.4282 24.4144H12.572L12.4243 24.2658Z" fill="#05BDBA"/>
</g>
</g>
</g>
</g>
<defs>
<clipPath id="clip0_3599_13298">
<rect width="27" height="24" fill="white" transform="translate(0 0.5)"/>
</clipPath>
</defs>
</svg>
