<svg width="104" height="42" viewBox="0 0 104 42" fill="none" xmlns="http://www.w3.org/2000/svg">
<g opacity="0.5">
<mask id="mask0_4323_14624" style="mask-type:luminance" maskUnits="userSpaceOnUse" x="0" y="0" width="104" height="42">
<path d="M103.685 0H0.363281V42H103.685V0Z" fill="white"/>
</mask>
<g mask="url(#mask0_4323_14624)">
<path d="M24.0615 41.7782V31.1973L24.2821 30.9766H26.4864L26.7069 31.1973V41.7782L26.4864 41.9989H24.2821L24.0615 41.7782Z" fill="white"/>
<path d="M24.0615 10.8009V0.220647L24.2821 0H26.4864L26.7069 0.220647V10.8009L26.4864 11.0215H24.2821L24.0615 10.8009Z" fill="white"/>
<path d="M14.4804 34.1498H14.1688L12.6104 32.5907V32.2789L16.2495 28.6406L17.8997 28.6414L18.1211 28.8612V30.5115L14.4804 34.1498Z" fill="white"/>
<path d="M14.4785 7.84766H14.1668L12.6084 9.40685V9.71853L16.2475 13.3569L17.8977 13.3561L18.1192 13.1362V11.486L14.4785 7.84766Z" fill="white"/>
<path d="M0.583928 19.6797H15.5732L15.7939 19.9003V22.1044L15.5732 22.3252H0.583928L0.363281 22.1044V19.9003L0.583928 19.6797Z" fill="white"/>
<path d="M89.3577 19.6797H103.466L103.687 19.9003V22.1044L103.466 22.3252H88.4766L88.2559 22.1044L89.1369 19.9003L89.3577 19.6797Z" fill="white"/>
<path d="M43.1562 21.9444L42.9357 22.1652H36.0979L35.8773 22.3857C35.8773 22.8271 36.3186 24.1501 38.083 24.1501C38.7449 24.1501 39.406 23.9295 39.6267 23.4882L39.8473 23.2676H42.4943L42.7149 23.4882C42.4943 24.8114 41.3919 26.7971 38.083 26.7971C34.3335 26.7971 32.5684 24.1501 32.5684 21.0625C32.5684 17.9751 34.3327 15.3281 37.8622 15.3281C41.3919 15.3281 43.1562 17.9751 43.1562 21.0625V21.9452V21.9444ZM39.8473 19.7387C39.8473 19.5181 39.6267 17.9743 37.8622 17.9743C36.0979 17.9743 35.8773 19.5181 35.8773 19.7387L36.0979 19.9594H39.6267L39.8473 19.7387Z" fill="white"/>
<path d="M49.3324 23.2639C49.3324 23.7051 49.553 23.9258 49.9943 23.9258H51.9793L52.2 24.1464V26.3521L51.9793 26.5728H49.9943C48.0092 26.5728 46.2449 25.6902 46.2449 23.2639V18.4112L46.0241 18.1905H44.4805L44.2598 17.9699V15.7642L44.4805 15.5435H46.0241L46.2449 15.3229V13.3378L46.4655 13.1172H49.1125L49.333 13.3378V15.3229L49.5538 15.5435H51.9801L52.2008 15.7642V17.9699L51.9801 18.1905H49.5538L49.333 18.4112V23.2639H49.3324Z" fill="white"/>
<path d="M57.4928 26.5728H54.8458L54.625 26.352V11.3535L54.8458 11.1328H57.4928L57.7134 11.3535V26.352L57.4928 26.5728Z" fill="white"/>
<path d="M63.4479 13.7798H60.8009L60.5801 13.5592V11.3535L60.8009 11.1328H63.4479L63.6684 11.3535V13.5592L63.4479 13.7798ZM63.4479 26.5728H60.8009L60.5801 26.352V15.7648L60.8009 15.5442H63.4479L63.6684 15.7648V26.352L63.4479 26.5728Z" fill="white"/>
<path d="M73.8151 11.3535V13.5592L73.5943 13.7798H71.6094C71.1681 13.7798 70.9473 14.0005 70.9473 14.4417V15.3243L71.1681 15.545H73.3737L73.5943 15.7656V17.9713L73.3737 18.192H71.1681L70.9473 18.4126V26.3528L70.7267 26.5734H68.0797L67.8591 26.3528V18.4126L67.6384 18.192H66.0948L65.874 17.9713V15.7656L66.0948 15.545H67.6384L67.8591 15.3243V14.4417C67.8591 12.0154 69.6235 11.1328 71.6086 11.1328H73.5935L73.8143 11.3535H73.8151Z" fill="white"/>
<path d="M81.9765 26.7929C81.0938 28.9985 80.2121 30.3218 77.1238 30.3218H76.0205L75.8 30.101V27.8953L76.0205 27.6747H77.1238C78.2262 27.6747 78.4468 27.454 78.6676 26.7921V26.5715L75.1387 17.9693V15.7636L75.3594 15.543H77.3444L77.5651 15.7636L80.2121 23.2634H80.4327L83.0797 15.7636L83.3003 15.543H85.2854L85.506 15.7636V17.9693L81.9773 26.7921L81.9765 26.7929Z" fill="white"/>
<path d="M27.6983 26.5717L27.4778 26.3509L27.4792 19.9599C27.4792 18.8575 27.0457 18.0027 25.7148 17.9749C25.0305 17.9571 24.2475 17.9733 23.4111 18.0088L23.2862 18.1369L23.2878 26.3509L23.067 26.5717H20.4208L20.2002 26.3509V15.6457L20.4208 15.4251L26.3759 15.3711C29.3593 15.3711 30.5667 17.4209 30.5667 19.7347V26.3509L30.3462 26.5717H27.6983Z" fill="white"/>
</g>
</g>
</svg>
