<svg width="24" height="25" viewBox="0 0 24 25" fill="none" xmlns="http://www.w3.org/2000/svg">
<g id="solar-upload-square-outline 1">
<g id="Group">
<path id="Vector" d="M7.25 7.5C7.25 7.914 7.586 8.25 8 8.25H16C16.1989 8.25 16.3897 8.17098 16.5303 8.03033C16.671 7.88968 16.75 7.69891 16.75 7.5C16.75 7.30109 16.671 7.11032 16.5303 6.96967C16.3897 6.82902 16.1989 6.75 16 6.75H8C7.80109 6.75 7.61032 6.82902 7.46967 6.96967C7.32902 7.11032 7.25 7.30109 7.25 7.5ZM12 18.25C12.1989 18.25 12.3897 18.171 12.5303 18.0303C12.671 17.8897 12.75 17.6989 12.75 17.5V12.31L14.47 14.03C14.5387 14.1037 14.6215 14.1628 14.7135 14.2038C14.8055 14.2448 14.9048 14.2668 15.0055 14.2686C15.1062 14.2704 15.2062 14.2518 15.2996 14.2141C15.393 14.1764 15.4778 14.1203 15.549 14.049C15.6203 13.9778 15.6764 13.893 15.7141 13.7996C15.7518 13.7062 15.7704 13.6062 15.7686 13.5055C15.7668 13.4048 15.7448 13.3055 15.7038 13.2135C15.6628 13.1215 15.6037 13.0387 15.53 12.97L12.53 9.97C12.3894 9.82955 12.1988 9.75066 12 9.75066C11.8012 9.75066 11.6106 9.82955 11.47 9.97L8.47 12.97C8.39631 13.0387 8.33721 13.1215 8.29622 13.2135C8.25523 13.3055 8.23318 13.4048 8.23141 13.5055C8.22963 13.6062 8.24816 13.7062 8.28588 13.7996C8.3236 13.893 8.37974 13.9778 8.45096 14.049C8.52218 14.1203 8.60701 14.1764 8.7004 14.2141C8.79379 14.2518 8.89382 14.2704 8.99452 14.2686C9.09522 14.2668 9.19454 14.2448 9.28654 14.2038C9.37854 14.1628 9.46134 14.1037 9.53 14.03L11.25 12.31V17.5C11.25 17.914 11.586 18.25 12 18.25Z" fill="white"/>
<path id="Vector_2" fill-rule="evenodd" clip-rule="evenodd" d="M11.943 1.75C9.634 1.75 7.825 1.75 6.413 1.94C4.969 2.134 3.829 2.54 2.934 3.434C2.039 4.329 1.634 5.469 1.44 6.914C1.25 8.325 1.25 10.134 1.25 12.443V12.557C1.25 14.866 1.25 16.675 1.44 18.087C1.634 19.531 2.04 20.671 2.934 21.566C3.829 22.461 4.969 22.866 6.414 23.06C7.825 23.25 9.634 23.25 11.943 23.25H12.057C14.366 23.25 16.175 23.25 17.587 23.06C19.031 22.866 20.171 22.46 21.066 21.566C21.961 20.671 22.366 19.531 22.56 18.086C22.75 16.675 22.75 14.866 22.75 12.557V12.443C22.75 10.134 22.75 8.325 22.56 6.913C22.366 5.469 21.96 4.329 21.066 3.434C20.171 2.539 19.031 2.134 17.586 1.94C16.175 1.75 14.366 1.75 12.057 1.75H11.943ZM3.995 4.495C4.565 3.925 5.335 3.598 6.614 3.426C7.914 3.252 9.622 3.25 12 3.25C14.378 3.25 16.086 3.252 17.386 3.426C18.665 3.598 19.436 3.926 20.006 4.495C20.575 5.065 20.902 5.835 21.074 7.114C21.248 8.414 21.25 10.122 21.25 12.5C21.25 14.878 21.248 16.586 21.074 17.886C20.902 19.165 20.574 19.936 20.005 20.506C19.435 21.075 18.665 21.402 17.386 21.574C16.086 21.748 14.378 21.75 12 21.75C9.622 21.75 7.914 21.748 6.614 21.574C5.335 21.402 4.564 21.074 3.994 20.505C3.425 19.935 3.098 19.165 2.926 17.886C2.752 16.586 2.75 14.878 2.75 12.5C2.75 10.122 2.752 8.414 2.926 7.114C3.098 5.835 3.426 5.065 3.995 4.495Z" fill="white"/>
</g>
</g>
</svg>
