<svg width="32" height="32" viewBox="0 0 32 32" fill="none" xmlns="http://www.w3.org/2000/svg">
<g id="Frame">
<g id="Group">
<path id="Subtract" d="M13.8804 3.20035C15.1735 2.45404 16.7732 2.45406 18.0796 3.20035L26.0005 7.7609C27.2935 8.5209 28.0932 9.89412 28.0933 11.4005L28.1069 11.4406V20.547C28.1069 22.0404 27.3065 23.4277 26.0132 24.1877L18.0933 28.7609C16.8 29.5075 15.1997 29.5075 13.8931 28.7609L5.96045 24.1877C4.66712 23.441 3.8667 22.0537 3.8667 20.547V11.4279C3.8667 9.93456 4.66712 8.53457 5.96045 7.77457L13.8804 3.20035ZM15.9868 17.8556C13.9737 17.8556 12.2002 18.7621 11.2935 20.1086C10.6935 21.0019 11.3199 22.2023 12.3999 22.2023H19.5601C20.6398 22.202 21.2664 21.0018 20.6665 20.1086C19.7599 18.7621 17.9999 17.8558 15.9868 17.8556ZM15.9868 9.77359C14.2669 9.77371 12.8804 11.1607 12.8804 12.8673C12.8806 14.5738 14.2676 15.9738 15.9741 15.9738L15.9868 15.9865C17.6935 15.9865 19.0933 14.5867 19.0933 12.88C19.0931 11.1601 17.6934 9.77359 15.9868 9.77359Z" fill="url(#paint0_linear_3599_13203)"/>
</g>
</g>
<defs>
<linearGradient id="paint0_linear_3599_13203" x1="15.9868" y1="2.64062" x2="15.9868" y2="29.3209" gradientUnits="userSpaceOnUse">
<stop stop-color="#FDBB2D"/>
<stop offset="1" stop-color="#FDBB2D" stop-opacity="0.7"/>
</linearGradient>
</defs>
</svg>
