<svg width="24" height="24" viewBox="0 0 24 24" fill="none" xmlns="http://www.w3.org/2000/svg">
<path d="M22.7497 16.7299V4.65993C22.7497 3.01993 21.3897 1.77993 19.7597 1.91993V1.90993C17.4697 2.09993 14.1697 3.20993 12.2897 4.38993L12.1097 4.49993C12.0697 4.51993 11.8997 4.51993 11.8497 4.48993L11.5897 4.32993C9.70973 3.14993 6.40973 2.05993 4.19973 1.87993C2.56973 1.73993 1.21973 2.97993 1.21973 4.60993V16.6799C1.21973 18.0199 2.27973 19.2299 3.60973 19.3999L3.88973 19.4299C5.95973 19.6999 9.22973 20.7699 11.0697 21.7799L11.1297 21.8099C11.5897 22.0699 12.2997 22.0699 12.7997 21.7799C14.6197 20.7699 17.8997 19.6899 19.9797 19.4099L20.2997 19.3699C21.6297 19.1999 22.6897 17.9799 22.6897 16.6399L22.7497 16.7299ZM21.2497 16.7299C21.2497 17.3099 20.7397 17.8899 20.1597 17.9599L19.8297 17.9899C17.5497 18.2899 14.0997 19.4299 12.0897 20.5299C12.0397 20.5499 11.8897 20.5499 11.8497 20.5299L11.7797 20.4899C9.79973 19.3999 6.35973 18.2699 4.09973 17.9699L3.80973 17.9299C3.21973 17.8499 2.70973 17.2799 2.70973 16.6899V4.60993C2.70973 3.84993 3.29973 3.29993 4.04973 3.35993C6.01973 3.50993 9.08973 4.52993 10.7697 5.57993L11.0297 5.72993C11.5497 6.04993 12.3297 6.04993 12.8697 5.71993L13.0497 5.59993C14.7197 4.53993 17.7897 3.50993 19.7697 3.33993H19.7597C20.5697 3.26993 21.1797 3.81993 21.1797 4.57993V16.6399L21.2497 16.7299Z" fill="#FF5EC1"/>
<path d="M11.25 5.47973V20.4797C11.25 20.8897 11.58 21.2297 12 21.2297C12.41 21.2297 12.75 20.8897 12.75 20.4797V5.46973C12.75 5.04973 12.41 4.71973 12 4.71973C11.58 4.71973 11.25 5.04973 11.25 5.46973V5.47973Z" fill="#FF5EC1"/>
<path d="M7.75 7.72949H5.5C5.08 7.72949 4.75 8.05949 4.75 8.47949C4.75 8.88949 5.08 9.22949 5.5 9.22949H7.75C8.16 9.22949 8.5 8.88949 8.5 8.47949C8.5 8.05949 8.16 7.72949 7.75 7.72949Z" fill="#FF5EC1"/>
<path d="M8.5 10.7402H5.5C5.08 10.7402 4.75 11.0702 4.75 11.4902C4.75 11.9002 5.08 12.2402 5.5 12.2402H8.5C8.91 12.2402 9.25 11.9002 9.25 11.4902C9.25 11.0702 8.91 10.7402 8.5 10.7402Z" fill="#FF5EC1"/>
</svg>
