<svg width="13" height="12" viewBox="0 0 13 12" fill="none" xmlns="http://www.w3.org/2000/svg">
<g id="Frame">
<g id="Group">
<path id="Vector" d="M6.46897 1.54005L2.35897 5.88505C2.14897 6.10505 1.96397 6.50005 1.92397 6.80505L1.73397 8.43005C1.63897 9.26005 2.27897 9.86505 3.10397 9.72505L4.70897 9.45005C5.01897 9.39005 5.40897 9.18505 5.61397 8.95505L9.71397 4.61005C10.694 3.57005 10.769 2.51005 9.62397 1.43005C8.47897 0.350051 7.42897 0.485051 6.44897 1.52005L6.46897 1.54005ZM7.00897 2.05505C7.72397 1.29505 8.30897 1.22005 9.12397 1.99005C9.93897 2.76005 9.89897 3.35005 9.17897 4.10505L5.06897 8.45005C4.96897 8.55505 4.72897 8.68505 4.57897 8.71005L2.96897 8.98005C2.63397 9.03505 2.42897 8.84005 2.46897 8.50505L2.64897 6.88505C2.66397 6.74005 2.78397 6.48505 2.88397 6.38005L6.98397 2.03505L7.00897 2.05505Z" fill="white"/>
<path id="Vector_2" d="M5.6836 2.58076C5.9236 4.12576 7.1786 5.31076 8.7386 5.47076C8.9436 5.49076 9.1236 5.34076 9.1486 5.13076C9.1686 4.92076 9.0186 4.74076 8.8086 4.71576C7.5836 4.59076 6.6036 3.66576 6.4136 2.45576C6.3786 2.25076 6.1886 2.11076 5.9836 2.14076C5.7786 2.17076 5.6386 2.36076 5.6686 2.56576L5.6836 2.58076Z" fill="white"/>
<path id="Vector_3" d="M1.61377 11.375H10.6138C10.8188 11.375 10.9888 11.205 10.9888 11C10.9888 10.79 10.8188 10.625 10.6138 10.625H1.61377C1.40377 10.625 1.23877 10.79 1.23877 11C1.23877 11.205 1.40377 11.375 1.61377 11.375Z" fill="white"/>
</g>
</g>
</svg>
