<svg width="34" height="32" viewBox="0 0 34 32" fill="none" xmlns="http://www.w3.org/2000/svg">
<path id="Vector" d="M28.7327 12.5385V7.92308C28.7327 7.31104 28.5079 6.72407 28.1079 6.29129C27.7078 5.85852 27.1652 5.61538 26.5994 5.61538H11.6664V3.30769C11.6664 2.69565 11.4417 2.10868 11.0416 1.67591C10.6415 1.24313 10.0989 1 9.53314 1H3.13328C2.5675 1 2.02489 1.24313 1.62482 1.67591C1.22476 2.10868 1 2.69565 1 3.30769V28.3846C1.00803 29.013 1.22496 29.6173 1.61109 30.0868C1.99723 30.5564 2.52675 30.8598 3.10276 30.9416C3.67877 31.0234 4.26275 30.8781 4.74785 30.5323C5.23295 30.1865 5.58672 29.6633 5.74442 29.0585L9.08799 14.2015C9.21711 13.7214 9.48691 13.2996 9.85677 12.9997C10.2266 12.6998 10.6765 12.5379 11.1388 12.5385H30.866C31.193 12.5383 31.5156 12.6195 31.809 12.7758C32.1024 12.932 32.3586 13.1592 32.5579 13.4396C32.7573 13.72 32.8943 14.0463 32.9585 14.3931C33.0227 14.74 33.0123 15.0982 32.9282 15.44L29.7993 29.2862C29.6783 29.7778 29.4105 30.2123 29.0376 30.5223C28.6646 30.8322 28.2075 31.0002 27.7372 31H3.41346" stroke="white" stroke-width="2" stroke-linecap="round" stroke-linejoin="round"/>
</svg>
