<svg width="24" height="25" viewBox="0 0 24 25" fill="none" xmlns="http://www.w3.org/2000/svg">
<g id="resize-expand 1" clip-path="url(#clip0_3635_13123)">
<path id="Vector" d="M23.25 20.75V22.25C23.25 22.6478 23.092 23.0294 22.8107 23.3107C22.5294 23.592 22.1478 23.75 21.75 23.75H20.25" stroke="white" stroke-width="1.5" stroke-linecap="round" stroke-linejoin="round"/>
<path id="Vector_2" d="M20.25 1.25H21.75C22.1478 1.25 22.5294 1.40804 22.8107 1.68934C23.092 1.97064 23.25 2.35218 23.25 2.75V4.25" stroke="white" stroke-width="1.5" stroke-linecap="round" stroke-linejoin="round"/>
<path id="Vector_3" d="M0.75 4.25V2.75C0.75 2.35218 0.908035 1.97064 1.18934 1.68934C1.47064 1.40804 1.85218 1.25 2.25 1.25H3.75" stroke="white" stroke-width="1.5" stroke-linecap="round" stroke-linejoin="round"/>
<path id="Vector_4" d="M3.75 23.75H2.25C1.85218 23.75 1.47064 23.592 1.18934 23.3107C0.908035 23.0294 0.75 22.6478 0.75 22.25V20.75" stroke="white" stroke-width="1.5" stroke-linecap="round" stroke-linejoin="round"/>
<path id="Vector_5" d="M23.25 8V10.25" stroke="white" stroke-width="1.5" stroke-linecap="round" stroke-linejoin="round"/>
<path id="Vector_6" d="M23.25 14.75V17" stroke="white" stroke-width="1.5" stroke-linecap="round" stroke-linejoin="round"/>
<path id="Vector_7" d="M0.75 8V10.25" stroke="white" stroke-width="1.5" stroke-linecap="round" stroke-linejoin="round"/>
<path id="Vector_8" d="M0.75 14.75V17" stroke="white" stroke-width="1.5" stroke-linecap="round" stroke-linejoin="round"/>
<path id="Vector_9" d="M16.5 23.75H14.25" stroke="white" stroke-width="1.5" stroke-linecap="round" stroke-linejoin="round"/>
<path id="Vector_10" d="M9.75 23.75H7.5" stroke="white" stroke-width="1.5" stroke-linecap="round" stroke-linejoin="round"/>
<path id="Vector_11" d="M16.5 1.25H14.25" stroke="white" stroke-width="1.5" stroke-linecap="round" stroke-linejoin="round"/>
<path id="Vector_12" d="M9.75 1.25H7.5" stroke="white" stroke-width="1.5" stroke-linecap="round" stroke-linejoin="round"/>
</g>
<defs>
<clipPath id="clip0_3635_13123">
<rect width="24" height="24" fill="white" transform="translate(0 0.5)"/>
</clipPath>
</defs>
</svg>
