<svg width="20" height="20" viewBox="0 0 20 20" fill="none" xmlns="http://www.w3.org/2000/svg">
<g id="Frame">
<path id="Vector" d="M3.56136 7.2625H12.728C14.678 7.2625 16.2697 8.84583 16.2697 10.8042C16.2697 12.7542 14.678 14.3458 12.728 14.3458H6.89469C6.54469 14.3458 6.26969 14.6208 6.26969 14.9708C6.26969 15.3125 6.54469 15.5958 6.89469 15.5958H12.728C15.3697 15.5958 17.5197 13.4458 17.5197 10.8042C17.5197 8.15417 15.3697 6.0125 12.728 6.0125H3.56136C3.21136 6.0125 2.93636 6.2875 2.93636 6.6375C2.93636 6.97917 3.21136 7.2625 3.56136 7.2625ZM4.00303 7.07917L6.50303 4.57917C6.74469 4.32917 6.74469 3.9375 6.50303 3.6875C6.25303 3.4375 5.86136 3.4375 5.61136 3.6875L3.11136 6.1875C2.86136 6.42917 2.86136 6.82083 3.11136 7.07083C3.35303 7.3125 3.74469 7.3125 3.99469 7.07083L4.00303 7.07917ZM3.11136 7.07917L5.61136 9.57917C5.85303 9.82083 6.24469 9.82083 6.49469 9.57917C6.73636 9.32917 6.73636 8.9375 6.49469 8.6875L3.99469 6.1875C3.74469 5.9375 3.35303 5.9375 3.10303 6.1875C2.85303 6.42917 2.85303 6.82083 3.10303 7.07083L3.11136 7.07917Z" fill="url(#paint0_linear_3599_13397)"/>
</g>
<defs>
<linearGradient id="paint0_linear_3599_13397" x1="10.2176" y1="3.5" x2="10.2176" y2="15.5958" gradientUnits="userSpaceOnUse">
<stop stop-color="#98FF53"/>
<stop offset="1" stop-color="white"/>
</linearGradient>
</defs>
</svg>
