<svg width="24" height="25" viewBox="0 0 24 25" fill="none" xmlns="http://www.w3.org/2000/svg">
<g id="solar-full-screen-square-outline 1">
<path id="Vector" fill-rule="evenodd" clip-rule="evenodd" d="M11.943 1.75H12.057C14.366 1.75 16.175 1.75 17.587 1.94C19.031 2.134 20.171 2.54 21.066 3.434C21.961 4.329 22.366 5.469 22.56 6.914C22.75 8.325 22.75 10.134 22.75 12.443V12.557C22.75 14.866 22.75 16.675 22.56 18.087C22.366 19.531 21.96 20.671 21.066 21.566C20.171 22.461 19.031 22.866 17.586 23.06C16.175 23.25 14.366 23.25 12.057 23.25H11.943C9.634 23.25 7.825 23.25 6.413 23.06C4.969 22.866 3.829 22.46 2.934 21.566C2.039 20.671 1.634 19.531 1.44 18.086C1.25 16.675 1.25 14.866 1.25 12.557V12.443C1.25 10.134 1.25 8.325 1.44 6.913C1.634 5.469 2.04 4.329 2.934 3.434C3.829 2.539 4.969 2.134 6.414 1.94C7.825 1.75 9.634 1.75 11.943 1.75ZM6.613 3.426C5.335 3.598 4.564 3.926 3.995 4.495C3.425 5.065 3.098 5.835 2.926 7.114C2.752 8.414 2.75 10.122 2.75 12.5C2.75 14.878 2.752 16.586 2.926 17.886C3.098 19.165 3.426 19.936 3.995 20.506C4.565 21.075 5.335 21.402 6.614 21.574C7.914 21.748 9.622 21.75 12 21.75C14.378 21.75 16.086 21.748 17.386 21.574C18.665 21.402 19.436 21.074 20.006 20.505C20.575 19.935 20.902 19.165 21.074 17.886C21.248 16.586 21.25 14.878 21.25 12.5C21.25 10.122 21.248 8.414 21.074 7.114C20.902 5.835 20.574 5.064 20.005 4.494C19.435 3.925 18.665 3.598 17.386 3.426C16.086 3.252 14.378 3.25 12 3.25C9.622 3.25 7.913 3.252 6.613 3.426ZM10.747 6.494C10.7486 6.69274 10.6712 6.88399 10.5319 7.02574C10.3926 7.16749 10.2027 7.24815 10.004 7.25C9.148 7.257 8.55 7.285 8.1 7.374C7.672 7.458 7.434 7.586 7.26 7.76C7.086 7.934 6.958 8.172 6.874 8.6C6.786 9.05 6.757 9.648 6.75 10.504C6.74828 10.7029 6.66761 10.893 6.52573 11.0324C6.38386 11.1719 6.19241 11.2492 5.9935 11.2475C5.79459 11.2458 5.60451 11.1651 5.46507 11.0232C5.32564 10.8814 5.24828 10.6899 5.25 10.491C5.257 9.641 5.284 8.914 5.402 8.312C5.524 7.689 5.753 7.145 6.199 6.699C6.645 6.253 7.189 6.024 7.812 5.902C8.414 5.784 9.14 5.757 9.991 5.75C10.0895 5.74921 10.1872 5.76783 10.2785 5.80479C10.3698 5.84175 10.4529 5.89633 10.5231 5.96542C10.5933 6.03451 10.6492 6.11675 10.6876 6.20744C10.726 6.29813 10.7462 6.39551 10.747 6.494ZM13.25 6.494C13.2508 6.39542 13.271 6.29797 13.3095 6.20721C13.348 6.11645 13.404 6.03416 13.4743 5.96506C13.5446 5.89596 13.6278 5.8414 13.7192 5.8045C13.8106 5.7676 13.9084 5.74908 14.007 5.75C14.857 5.757 15.583 5.784 16.186 5.902C16.809 6.024 17.352 6.253 17.798 6.699C18.244 7.145 18.474 7.689 18.596 8.312C18.714 8.914 18.74 9.64 18.747 10.491C18.7479 10.5895 18.7293 10.6872 18.6924 10.7785C18.6555 10.8698 18.601 10.953 18.5319 11.0232C18.4629 11.0935 18.3807 11.1494 18.29 11.1879C18.1994 11.2264 18.102 11.2466 18.0035 11.2475C17.905 11.2484 17.8073 11.2298 17.716 11.1929C17.6247 11.156 17.5415 11.1015 17.4713 11.0324C17.401 10.9634 17.3451 10.8812 17.3066 10.7905C17.2681 10.6999 17.2479 10.6025 17.247 10.504C17.24 9.648 17.212 9.05 17.124 8.6C17.04 8.172 16.912 7.934 16.738 7.76C16.563 7.586 16.326 7.458 15.898 7.374C15.448 7.286 14.85 7.257 13.994 7.25C13.8955 7.24922 13.7981 7.22904 13.7074 7.19062C13.6167 7.1522 13.5345 7.0963 13.4654 7.02609C13.3963 6.95589 13.3417 6.87277 13.3048 6.78147C13.2678 6.69018 13.2492 6.59249 13.25 6.494ZM5.994 13.75C6.09249 13.7492 6.19018 13.7678 6.28147 13.8048C6.37277 13.8417 6.45589 13.8963 6.52609 13.9654C6.5963 14.0345 6.6522 14.1167 6.69062 14.2074C6.72904 14.2981 6.74922 14.3955 6.75 14.494C6.757 15.35 6.785 15.948 6.874 16.397C6.958 16.826 7.086 17.063 7.26 17.237C7.434 17.412 7.672 17.54 8.1 17.624C8.55 17.712 9.148 17.74 10.004 17.748C10.2029 17.7497 10.393 17.8304 10.5324 17.9723C10.6719 18.1141 10.7492 18.3056 10.7475 18.5045C10.7458 18.7034 10.6651 18.8935 10.5232 19.0329C10.3814 19.1724 10.1899 19.2497 9.991 19.248C9.141 19.24 8.414 19.214 7.812 19.096C7.189 18.974 6.645 18.744 6.199 18.298C5.753 17.852 5.524 17.308 5.402 16.686C5.284 16.083 5.257 15.357 5.25 14.506C5.24921 14.4075 5.26783 14.3098 5.30479 14.2185C5.34175 14.1272 5.39633 14.0441 5.46542 13.9739C5.53451 13.9037 5.61675 13.8478 5.70744 13.8094C5.79813 13.771 5.89551 13.7508 5.994 13.75ZM18.004 13.75C18.1025 13.7509 18.1998 13.7712 18.2905 13.8098C18.3811 13.8483 18.4633 13.9043 18.5323 13.9746C18.6013 14.0449 18.6558 14.1281 18.6926 14.2194C18.7294 14.3108 18.7479 14.4085 18.747 14.507C18.74 15.357 18.714 16.083 18.596 16.686C18.474 17.309 18.244 17.852 17.798 18.298C17.352 18.744 16.808 18.974 16.186 19.096C15.583 19.214 14.857 19.24 14.006 19.247C13.9075 19.2478 13.8098 19.2292 13.7185 19.1922C13.6272 19.1552 13.5441 19.1007 13.4739 19.0316C13.4037 18.9625 13.3478 18.8802 13.3094 18.7896C13.271 18.6989 13.2508 18.6015 13.25 18.503C13.2492 18.4045 13.2678 18.3068 13.3048 18.2155C13.3418 18.1242 13.3963 18.0411 13.4654 17.9709C13.5345 17.9007 13.6168 17.8448 13.7074 17.8064C13.7981 17.768 13.8955 17.7478 13.994 17.747C14.85 17.74 15.448 17.712 15.897 17.624C16.326 17.54 16.563 17.412 16.737 17.238C16.912 17.063 17.04 16.826 17.124 16.398C17.212 15.948 17.24 15.35 17.248 14.494C17.2488 14.3955 17.269 14.2981 17.3074 14.2074C17.3458 14.1167 17.4017 14.0345 17.4719 13.9654C17.5421 13.8963 17.6252 13.8417 17.7165 13.8048C17.8078 13.7678 17.9055 13.7492 18.004 13.75Z" fill="white"/>
</g>
</svg>
