<svg width="20" height="20" viewBox="0 0 20 20" fill="none" xmlns="http://www.w3.org/2000/svg">
<g id="Frame">
<g id="Group">
<path id="Vector" opacity="0.2" d="M7.40703 15L5.10624 16.7375C4.83671 16.9531 4.44296 16.9094 4.22734 16.6398C4.16718 16.5648 4.12578 16.4773 4.10468 16.3844L3.13906 12.0383C3.09687 11.8484 3.14453 11.6508 3.26874 11.5023L5.63671 8.66406C5.54609 10.4875 5.9914 12.6109 7.40624 14.9992L7.40703 15ZM16.7305 11.5031L14.3625 8.66484C14.457 10.4883 14.0078 12.6117 12.593 15L14.8937 16.7375C15.1625 16.9531 15.5562 16.9094 15.7719 16.6398C15.8312 16.5648 15.8727 16.4773 15.8937 16.3844L16.8594 12.0383C16.9008 11.8484 16.8531 11.6508 16.7297 11.5023L16.7305 11.5031Z" fill="white"/>
<path id="Vector_2" d="M11.875 17.5007C11.875 17.8452 11.5946 18.1257 11.25 18.1257H8.75003C8.40472 18.1257 8.12503 17.8452 8.12503 17.5007C8.12503 17.1554 8.40472 16.8757 8.75003 16.8757H11.25C11.5946 16.8757 11.875 17.1554 11.875 17.5007ZM10 8.75067C10.5172 8.75067 10.9375 8.33036 10.9375 7.81317C10.9375 7.29521 10.5172 6.87567 10 6.87567C9.48206 6.87567 9.06253 7.29521 9.06253 7.81317C9.06253 8.33036 9.48206 8.75067 10 8.75067ZM17.4703 12.1749L16.5047 16.521C16.3547 17.1944 15.6867 17.6194 15.0133 17.4702C14.8297 17.4296 14.6586 17.3483 14.511 17.2319L12.3828 15.6249H7.61722L5.48753 17.2319C4.94456 17.6585 4.15862 17.564 3.73206 17.0218C3.61565 16.8741 3.5344 16.7022 3.49378 16.5194L2.52815 12.1733C2.44456 11.7952 2.54058 11.3999 2.78745 11.1022L5.0187 8.42567C5.09292 7.4413 5.31862 6.47567 5.68815 5.56083C6.69597 3.03427 8.50065 1.44911 9.23269 0.885049C9.68269 0.53583 10.3132 0.535752 10.7639 0.884893C11.4936 1.44896 13.3007 3.03411 14.3085 5.56067C14.6772 6.47552 14.903 7.44114 14.978 8.42552L17.2092 11.1021C17.4553 11.3997 17.5514 11.7951 17.4686 12.1732L17.4703 12.1749ZM7.768 14.3757H12.2321C13.8821 11.4429 14.1907 8.63505 13.1492 6.02567C12.2305 3.72255 10.5071 2.2663 10 1.87567C9.49144 2.2663 7.768 3.72255 6.84925 6.02567C5.8094 8.63505 6.118 11.4429 7.768 14.3757ZM6.59612 14.8327C5.75498 13.3041 5.24456 11.8017 5.06487 10.3257L3.75003 11.9038L4.71565 16.2507L4.72972 16.2405L6.59612 14.8327ZM16.25 11.9038L14.9352 10.3257C14.7571 11.7986 14.2477 13.3009 13.4071 14.8327L15.2703 16.239L15.2844 16.2491L16.25 11.9038Z" fill="white"/>
</g>
</g>
</svg>
