<svg width="15" height="15" viewBox="0 0 15 15" fill="none" xmlns="http://www.w3.org/2000/svg">
<path fill-rule="evenodd" clip-rule="evenodd" d="M3 1.99922C2.44 1.99922 2 2.43922 2 2.99922V11.9992C2 12.5492 2.44 12.9992 3 12.9992H12C12.55 12.9992 13 12.5492 13 11.9992V8.49922C13 8.21922 12.77 7.99922 12.5 7.99922C12.22 7.99922 12 8.21922 12 8.49922V11.9992H3V2.99922H6.5C6.77 2.99922 7 2.76922 7 2.49922C7 2.21922 6.77 1.99922 6.5 1.99922H3ZM12.85 2.13922C12.89 2.17922 12.93 2.23922 12.95 2.29922C12.97 2.34922 12.98 2.41922 12.98 2.47922V5.46922C12.98 5.73922 12.75 5.96922 12.48 5.96922C12.2 5.96922 11.98 5.73922 11.98 5.46922V3.66922L6.83 8.80922C6.63 8.99922 6.31 8.99922 6.12 8.80922C5.92 8.60922 5.92 8.28922 6.12 8.09922L11.26 2.94922H9.46C9.18 2.94922 8.96 2.71922 8.96 2.44922C8.96 2.16922 9.18 1.94922 9.46 1.94922H12.45C12.51 1.94922 12.58 1.95922 12.64 1.97922C12.69 1.99922 12.75 2.03922 12.8 2.07922L12.85 2.13922Z" fill="#4F88FF"/>
</svg>
