<svg width="16" height="16" viewBox="0 0 16 16" fill="none" xmlns="http://www.w3.org/2000/svg">
<g id="Frame" clip-path="url(#clip0_1528_8160)">
<g id="Group">
<path id="Vector" d="M6 5.5V10.5C6 10.7733 6.22 11 6.5 11C6.77333 11 7 10.7733 7 10.5V5.5C7 5.22 6.77333 5 6.5 5C6.22 5 6 5.22 6 5.5Z" fill="white"/>
<path id="Vector_2" d="M9.37329 5.5V10.5C9.37329 10.7733 9.59329 11 9.87329 11C10.1466 11 10.3733 10.7733 10.3733 10.5V5.5C10.3733 5.22 10.1466 5 9.87329 5C9.59329 5 9.37329 5.22 9.37329 5.5Z" fill="white"/>
<path id="Vector_3" d="M15 7.99866C15 11.8587 11.86 14.9987 8 14.9987C4.13333 14.9987 1 11.8587 1 7.99866C1 4.13199 4.13333 0.998657 8 0.998657C11.86 0.998657 15 4.13199 15 7.99866ZM16 7.99866C16 3.57866 12.4133 -0.00134277 8 -0.00134277C3.58 -0.00134277 0 3.57866 0 7.99866C0 12.412 3.58 15.9987 8 15.9987C12.4133 15.9987 16 12.412 16 7.99866Z" fill="white"/>
</g>
</g>
<defs>
<clipPath id="clip0_1528_8160">
<rect width="16" height="16" fill="white"/>
</clipPath>
</defs>
</svg>
