<svg width="119" height="24" viewBox="0 0 119 24" fill="none" xmlns="http://www.w3.org/2000/svg">
<g opacity="0.5" clip-path="url(#clip0_4323_14610)">
<path d="M30.8389 14.0873C30.9608 15.2274 31.9978 17.1818 35.0074 17.1818C37.6304 17.1818 38.8913 15.5124 38.8913 13.8837C38.8913 12.4179 37.8948 11.2168 35.9225 10.8096L34.4989 10.5042C33.95 10.4024 33.584 10.0971 33.584 9.60844C33.584 9.03838 34.1533 8.61089 34.8651 8.61089C36.0037 8.61089 36.4307 9.36413 36.5121 9.95456L38.7692 9.44558C38.6473 8.36658 37.6914 6.55469 34.8447 6.55469C32.6892 6.55469 31.1033 8.04085 31.1033 9.83237C31.1033 11.2371 31.9775 12.3976 33.9093 12.8251L35.2311 13.1305C36.0037 13.2933 36.3088 13.6598 36.3088 14.1077C36.3088 14.637 35.8818 15.1053 34.987 15.1053C33.8077 15.1053 33.2178 14.3723 33.157 13.5783L30.8389 14.0873Z" fill="white"/>
<path d="M47.5342 16.8797H50.1167C50.076 16.5336 50.0149 15.8414 50.0149 15.0677V6.86328H47.3103V12.6858C47.3103 13.8463 46.6191 14.6606 45.4194 14.6606C44.1587 14.6606 43.5892 13.7648 43.5892 12.6451V6.86328H40.8848V13.1948C40.8848 15.3731 42.2674 17.1443 44.6873 17.1443C45.7445 17.1443 46.904 16.7372 47.453 15.8007C47.453 16.2078 47.4935 16.6761 47.5342 16.8797Z" fill="white"/>
<path d="M55.6056 20.7452V15.8999C56.0935 16.5717 57.1104 17.1214 58.4932 17.1214C61.3196 17.1214 63.2105 14.8819 63.2105 11.8485C63.2105 8.87617 61.5229 6.63672 58.5948 6.63672C57.0902 6.63672 55.9718 7.30852 55.5244 8.08218V6.86065H52.9014V20.7452H55.6056ZM60.5467 11.8689C60.5467 13.6604 59.4488 14.6987 58.066 14.6987C56.6835 14.6987 55.5651 13.6401 55.5651 11.8689C55.5651 10.0977 56.6835 9.05937 58.066 9.05937C59.4488 9.05937 60.5467 10.0977 60.5467 11.8689Z" fill="white"/>
<path d="M64.7422 14.1484C64.7422 15.716 66.0434 17.1615 68.1788 17.1615C69.6628 17.1615 70.6186 16.4693 71.1268 15.6753C71.1268 16.0621 71.1675 16.6118 71.2286 16.8764H73.7093C73.6483 16.5303 73.5876 15.8178 73.5876 15.2885V10.3617C73.5876 8.3462 72.4081 6.55469 69.2361 6.55469C66.5519 6.55469 65.108 8.28512 64.9455 9.85275L67.3449 10.3617C67.4263 9.48629 68.077 8.73303 69.2561 8.73303C70.3951 8.73303 70.944 9.32342 70.944 10.036C70.944 10.3821 70.7613 10.6671 70.1918 10.7485L67.7314 11.115C66.064 11.3593 64.7422 12.3568 64.7422 14.1484ZM68.7479 15.146C67.8737 15.146 67.4464 14.5759 67.4464 13.9855C67.4464 13.2119 67.9954 12.8251 68.687 12.7233L70.944 12.3772V12.8251C70.944 14.5963 69.8867 15.146 68.7479 15.146Z" fill="white"/>
<path d="M78.9367 16.8763V15.6548C79.4651 16.5099 80.5225 17.1206 81.9053 17.1206C84.7524 17.1206 86.6232 14.8608 86.6232 11.8274C86.6232 8.85503 84.9352 6.59525 82.0071 6.59525C80.5225 6.59525 79.4246 7.24672 78.9772 7.95923V2.13672H76.3135V16.8763H78.9367ZM83.9183 11.8477C83.9183 13.68 82.8204 14.6979 81.4376 14.6979C80.0753 14.6979 78.9367 13.6597 78.9367 11.8477C78.9367 10.0155 80.0753 9.0179 81.4376 9.0179C82.8204 9.0179 83.9183 10.0155 83.9183 11.8477Z" fill="white"/>
<path d="M88.1543 14.1484C88.1543 15.716 89.4555 17.1615 91.5907 17.1615C93.0749 17.1615 94.0309 16.4693 94.5389 15.6753C94.5389 16.0621 94.5798 16.6118 94.6407 16.8764H97.1214C97.0608 16.5303 96.9997 15.8178 96.9997 15.2885V10.3617C96.9997 8.3462 95.8202 6.55469 92.648 6.55469C89.964 6.55469 88.5203 8.28512 88.3576 9.85275L90.7568 10.3617C90.8384 9.48629 91.4891 8.73303 92.6682 8.73303C93.8072 8.73303 94.3562 9.32342 94.3562 10.036C94.3562 10.3821 94.1732 10.6671 93.6037 10.7485L91.1435 11.115C89.4761 11.3593 88.1543 12.3568 88.1543 14.1484ZM92.1602 15.146C91.2858 15.146 90.8585 14.5759 90.8585 13.9855C90.8585 13.2119 91.4075 12.8251 92.0991 12.7233L94.3562 12.3772V12.8251C94.3562 14.5963 93.2988 15.146 92.1602 15.146Z" fill="white"/>
<path d="M98.8721 14.0873C98.9938 15.2274 100.031 17.1818 103.04 17.1818C105.664 17.1818 106.924 15.5124 106.924 13.8837C106.924 12.4179 105.928 11.2168 103.955 10.8096L102.532 10.5042C101.983 10.4024 101.617 10.0971 101.617 9.60844C101.617 9.03838 102.186 8.61089 102.898 8.61089C104.037 8.61089 104.464 9.36413 104.546 9.95456L106.802 9.44558C106.68 8.36658 105.725 6.55469 102.878 6.55469C100.722 6.55469 99.1365 8.04085 99.1365 9.83237C99.1365 11.2371 100.01 12.3976 101.942 12.8251L103.264 13.1305C104.037 13.2933 104.342 13.6598 104.342 14.1077C104.342 14.637 103.915 15.1053 103.02 15.1053C101.841 15.1053 101.251 14.3723 101.19 13.5783L98.8721 14.0873Z" fill="white"/>
<path d="M111.031 10.7281C111.092 9.81204 111.865 8.75337 113.268 8.75337C114.814 8.75337 115.465 9.7306 115.505 10.7281H111.031ZM115.77 13.3341C115.444 14.2298 114.753 14.8609 113.492 14.8609C112.15 14.8609 111.031 13.9041 110.971 12.5808H118.128C118.128 12.54 118.169 12.1329 118.169 11.7461C118.169 8.52943 116.319 6.55469 113.228 6.55469C110.666 6.55469 108.307 8.63122 108.307 11.8275C108.307 15.207 110.726 17.1818 113.472 17.1818C115.932 17.1818 117.518 15.7363 118.027 14.0059L115.77 13.3341Z" fill="white"/>
<path d="M12.991 22.9491C12.409 23.682 11.2289 23.2804 11.2148 22.3446L11.0098 8.65625H20.2138C21.8809 8.65625 22.8106 10.5818 21.774 11.8874L12.991 22.9491Z" fill="white" fill-opacity="0.15"/>
<path d="M12.991 22.9491C12.409 23.682 11.2289 23.2804 11.2148 22.3446L11.0098 8.65625H20.2138C21.8809 8.65625 22.8106 10.5818 21.774 11.8874L12.991 22.9491Z" fill="white" fill-opacity="0.51"/>
<path d="M9.24712 0.921522C9.82914 0.188494 11.0093 0.59014 11.0233 1.52603L11.1131 15.2143H2.02433C0.357184 15.2143 -0.572612 13.2888 0.464067 11.9832L9.24712 0.921522Z" fill="white"/>
</g>
<defs>
<clipPath id="clip0_4323_14610">
<rect width="118.257" height="23" fill="white" transform="translate(0.0234375 0.5)"/>
</clipPath>
</defs>
</svg>
