<svg width="15" height="15" viewBox="0 0 15 15" fill="none" xmlns="http://www.w3.org/2000/svg">
<g clip-path="url(#clip0_4359_14052)">
<path d="M4.36549 9.35322C4.19945 9.35322 4.04527 9.26427 3.96818 9.11009C3.85552 8.89068 3.94446 8.62383 4.1698 8.51116C4.68571 8.25618 5.12453 7.8648 5.43881 7.3904C5.54555 7.23029 5.54555 7.02867 5.43881 6.86856C5.1186 6.39417 4.67978 6.00279 4.1698 5.74781C3.94446 5.64107 3.85552 5.37423 3.96818 5.14889C4.07492 4.92948 4.34177 4.84053 4.56118 4.9532C5.21348 5.27935 5.77089 5.77153 6.17413 6.37638C6.47657 6.83298 6.47657 7.42598 6.17413 7.88259C5.77089 8.48744 5.21348 8.97963 4.56118 9.30578C4.50188 9.33543 4.43072 9.35322 4.36549 9.35322Z" fill="white"/>
<path d="M10.3602 9.35434H7.9882C7.74508 9.35434 7.54346 9.15272 7.54346 8.90959C7.54346 8.66646 7.74508 8.46484 7.9882 8.46484H10.3602C10.6033 8.46484 10.8049 8.66646 10.8049 8.90959C10.8049 9.15272 10.6033 9.35434 10.3602 9.35434Z" fill="white"/>
<path d="M9.1742 13.5033H5.61623C2.39626 13.5033 1.02051 12.1276 1.02051 8.9076V5.34963C1.02051 2.12966 2.39626 0.753906 5.61623 0.753906H9.1742C12.3942 0.753906 13.7699 2.12966 13.7699 5.34963V8.9076C13.7699 12.1276 12.3942 13.5033 9.1742 13.5033ZM5.61623 1.6434C2.88252 1.6434 1.91 2.61591 1.91 5.34963V8.9076C1.91 11.6413 2.88252 12.6138 5.61623 12.6138H9.1742C11.9079 12.6138 12.8804 11.6413 12.8804 8.9076V5.34963C12.8804 2.61591 11.9079 1.6434 9.1742 1.6434H5.61623Z" fill="white"/>
</g>
<defs>
<clipPath id="clip0_4359_14052">
<rect width="14.2319" height="14.2319" fill="white" transform="translate(0.279785 0.0136719)"/>
</clipPath>
</defs>
</svg>
