<svg width="24" height="25" viewBox="0 0 24 25" fill="none" xmlns="http://www.w3.org/2000/svg">
<g id="terminal-window-light 1">
<path id="Vector" d="M11.8125 12.5C11.8126 12.5844 11.7937 12.6678 11.7572 12.7439C11.7206 12.82 11.6675 12.8869 11.6016 12.9397L7.85156 15.9397C7.73495 16.0329 7.58607 16.076 7.43769 16.0595C7.2893 16.043 7.15355 15.9682 7.06031 15.8516C6.96707 15.735 6.92398 15.5861 6.9405 15.4377C6.95703 15.2893 7.03183 15.1536 7.14844 15.0603L10.35 12.5L7.14844 9.93969C7.0907 9.89352 7.04262 9.83643 7.00694 9.77168C6.97126 9.70693 6.94869 9.63579 6.9405 9.56231C6.93232 9.48884 6.93869 9.41447 6.95924 9.34346C6.9798 9.27245 7.01414 9.20618 7.06031 9.14844C7.10648 9.0907 7.16357 9.04262 7.22832 9.00694C7.29307 8.97126 7.36421 8.94869 7.43769 8.9405C7.51116 8.93232 7.58553 8.93869 7.65654 8.95924C7.72755 8.9798 7.79382 9.01414 7.85156 9.06031L11.6016 12.0603C11.6675 12.1131 11.7206 12.18 11.7572 12.2561C11.7937 12.3322 11.8126 12.4156 11.8125 12.5ZM16.5 14.9375H12.75C12.6008 14.9375 12.4577 14.9968 12.3523 15.1023C12.2468 15.2077 12.1875 15.3508 12.1875 15.5C12.1875 15.6492 12.2468 15.7923 12.3523 15.8977C12.4577 16.0032 12.6008 16.0625 12.75 16.0625H16.5C16.6492 16.0625 16.7923 16.0032 16.8977 15.8977C17.0032 15.7923 17.0625 15.6492 17.0625 15.5C17.0625 15.3508 17.0032 15.2077 16.8977 15.1023C16.7923 14.9968 16.6492 14.9375 16.5 14.9375ZM21.5625 5.75V19.25C21.5625 19.5981 21.4242 19.9319 21.1781 20.1781C20.9319 20.4242 20.5981 20.5625 20.25 20.5625H3.75C3.4019 20.5625 3.06806 20.4242 2.82192 20.1781C2.57578 19.9319 2.4375 19.5981 2.4375 19.25V5.75C2.4375 5.4019 2.57578 5.06806 2.82192 4.82192C3.06806 4.57578 3.4019 4.4375 3.75 4.4375H20.25C20.5981 4.4375 20.9319 4.57578 21.1781 4.82192C21.4242 5.06806 21.5625 5.4019 21.5625 5.75ZM20.4375 5.75C20.4375 5.70027 20.4177 5.65258 20.3826 5.61742C20.3474 5.58225 20.2997 5.5625 20.25 5.5625H3.75C3.70027 5.5625 3.65258 5.58225 3.61742 5.61742C3.58225 5.65258 3.5625 5.70027 3.5625 5.75V19.25C3.5625 19.2997 3.58225 19.3474 3.61742 19.3826C3.65258 19.4177 3.70027 19.4375 3.75 19.4375H20.25C20.2997 19.4375 20.3474 19.4177 20.3826 19.3826C20.4177 19.3474 20.4375 19.2997 20.4375 19.25V5.75Z" fill="white"/>
</g>
</svg>
