<svg width="24" height="24" viewBox="0 0 24 24" fill="none" xmlns="http://www.w3.org/2000/svg">
<path d="M12 13.75C11.59 13.75 11.25 13.41 11.25 13V7.75C11.25 7.34 11.59 7 12 7C12.41 7 12.75 7.34 12.75 7.75V13C12.75 13.41 12.41 13.75 12 13.75Z" fill="#FF1100"/>
<path d="M12 17.2492C11.73 17.2492 11.48 17.1492 11.29 16.9592C11.2 16.8592 11.13 16.7492 11.07 16.6292C11.02 16.5092 11 16.3792 11 16.2492C11 15.9892 11.11 15.7292 11.29 15.5392C11.66 15.1692 12.34 15.1692 12.71 15.5392C12.89 15.7292 13 15.9892 13 16.2492C13 16.3792 12.97 16.5092 12.92 16.6292C12.87 16.7492 12.8 16.8592 12.71 16.9592C12.52 17.1492 12.27 17.2492 12 17.2492Z" fill="#FF1100"/>
<path d="M11.9996 22.7511C11.3296 22.7511 10.6496 22.5811 10.0496 22.2311L4.09965 18.8011C2.89965 18.1011 2.13965 16.8111 2.13965 15.4211V8.58109C2.13965 7.19109 2.88965 5.90109 4.08965 5.20109L10.0296 1.77109C11.2296 1.07109 12.7196 1.07109 13.9296 1.77109L19.8696 5.19109C21.0697 5.89109 21.8196 7.18109 21.8196 8.57109V15.4011C21.8196 16.7911 21.0697 18.0811 19.8696 18.7811L13.9296 22.2111C13.3296 22.5611 12.6496 22.7311 11.9796 22.7311L11.9996 22.7511ZM11.9996 2.75109C11.5896 2.75109 11.1696 2.86109 10.7996 3.07109L4.84965 6.50109C4.10965 6.93109 3.63965 7.72109 3.63965 8.58109V15.4111C3.63965 16.2611 4.09965 17.0611 4.83965 17.4911L10.7796 20.9211C11.5196 21.3511 12.4396 21.3511 13.1696 20.9211L19.1096 17.4911C19.8496 17.0611 20.3096 16.2711 20.3096 15.4111V8.57109C20.3096 7.72109 19.8496 6.91109 19.1096 6.48109L13.1696 3.05109C12.8096 2.84109 12.3896 2.73109 11.9796 2.73109L11.9996 2.75109Z" fill="#FF1100"/>
</svg>
