<svg width="103" height="26" viewBox="0 0 103 26" fill="none" xmlns="http://www.w3.org/2000/svg">
<g opacity="0.5">
<path d="M51.2143 7.30635C47.3479 7.30635 44.5601 9.83835 44.5601 13.6364C44.5601 17.4344 47.6947 19.9664 51.5647 19.9664C53.9005 19.9664 55.9599 19.038 57.2346 17.4731L54.5554 15.9187C53.848 16.6959 52.7728 17.1495 51.5647 17.1495C49.887 17.1495 48.4616 16.2703 47.9327 14.8637H57.746C57.8229 14.4698 57.8686 14.0619 57.8686 13.6328C57.8686 9.83836 55.0844 7.30635 51.2143 7.30635ZM47.9047 12.4056C48.3425 11.0024 49.5403 10.1197 51.2143 10.1197C52.8918 10.1197 54.0897 11.0024 54.524 12.4056H47.9047ZM47.1133 3.43802L37.4086 20.3181L27.7007 3.43802H31.3393L37.4053 13.9881L43.471 3.43802H47.1133ZM14.3117 1.67969L27.2524 24.1864H1.37109L14.3117 1.67969ZM71.9474 13.6364C71.9474 15.7464 73.3202 17.1531 75.4496 17.1531C76.8926 17.1531 77.9748 16.4954 78.5315 15.4228L81.2212 16.9808C80.1075 18.8445 78.0202 19.9664 75.4496 19.9664C71.5796 19.9664 68.7955 17.4344 68.7955 13.6364C68.7955 9.83835 71.5831 7.30635 75.4496 7.30635C78.0202 7.30635 80.104 8.42818 81.2212 10.292L78.5315 11.8499C77.9748 10.7773 76.8926 10.1197 75.4496 10.1197C73.3238 10.1197 71.9474 11.5264 71.9474 13.6364ZM100.834 3.43802V19.6147H97.6816V3.43802H100.834ZM88.926 7.30635C85.0596 7.30635 82.2719 9.83835 82.2719 13.6364C82.2719 17.4344 85.4099 19.9664 89.2763 19.9664C91.6122 19.9664 93.6715 19.038 94.9462 17.4731L92.2671 15.9187C91.5597 16.6959 90.4845 17.1495 89.2763 17.1495C87.5986 17.1495 86.1733 16.2703 85.6443 14.8637H95.4577C95.5346 14.4698 95.5801 14.0619 95.5801 13.6328C95.5801 9.83836 92.796 7.30635 88.926 7.30635ZM85.6163 12.4056C86.0544 11.0024 87.2485 10.1197 88.926 10.1197C90.6035 10.1197 91.8013 11.0024 92.2357 12.4056H85.6163ZM67.7448 7.65802V11.0657C67.3947 10.9637 67.0232 10.8934 66.624 10.8934C64.5892 10.8934 63.1218 12.3 63.1218 14.41V19.6147H59.97V7.65802H63.1218V10.8934C63.1218 9.10689 65.1915 7.65802 67.7448 7.65802Z" fill="white"/>
</g>
</svg>
