<svg width="45" height="44" viewBox="0 0 45 44" fill="none" xmlns="http://www.w3.org/2000/svg">
<rect x="0.333496" width="44" height="44" rx="22" fill="#B43F3F"/>
<g clip-path="url(#clip0_275_2125)">
<path d="M33.3335 31H12.8335C12.5535 31 12.3335 30.77 12.3335 30.5V12C12.3335 11.44 11.8835 11 11.3335 11C10.7735 11 10.3335 11.44 10.3335 12V31.5C10.3335 32.32 11.0035 33 11.8335 33H33.3335C33.8835 33 34.3335 32.55 34.3335 32C34.3335 31.44 33.8835 31 33.3335 31Z" fill="white"/>
<path d="M28.0834 28.5003C28.6334 28.5003 29.0834 28.0503 29.0834 27.5003C29.0834 26.9403 28.6334 26.5003 28.0834 26.5003C27.7034 26.5103 27.3234 26.4203 26.9934 26.2303C26.5234 25.9303 25.9034 26.0703 25.6034 26.5403C25.3034 27.0003 25.4434 27.6203 25.9134 27.9203C26.5534 28.3003 27.3034 28.4993 28.0534 28.4793L28.0834 28.5003Z" fill="white"/>
<path d="M18.7645 25.2201L19.9645 18.6471C20.0745 17.9771 20.6545 17.4971 21.3245 17.4971C21.8745 17.4971 22.3245 17.0471 22.3245 16.4971C22.3045 15.9471 21.8645 15.5071 21.3245 15.4971C19.6745 15.4971 18.2745 16.6671 17.9745 18.2871L16.7745 24.8571C16.5945 25.7971 15.7745 26.4871 14.8145 26.4871C14.2545 26.4871 13.8145 26.9271 13.8145 27.4871C13.8145 28.0371 14.2545 28.4871 14.8145 28.4871C16.7445 28.4871 18.3945 27.1071 18.7445 25.2071L18.7645 25.2201Z" fill="white"/>
<path d="M33.3335 26.4998C32.3635 26.4998 31.5335 25.8098 31.3635 24.8598L30.1635 18.2888C29.8935 16.6488 28.4635 15.4688 26.8135 15.5088C25.1535 15.4688 23.7335 16.6478 23.4735 18.2878L22.2735 24.8588C22.0935 25.7988 21.2735 26.4888 20.3135 26.4888C19.7535 26.4888 19.3135 26.9288 19.3135 27.4888C19.3135 28.0388 19.7535 28.4888 20.3135 28.4888C22.2435 28.4888 23.8935 27.1088 24.2435 25.2088L25.4435 18.6288C25.5835 17.8688 26.3235 17.3688 27.0835 17.5188C27.6335 17.6188 28.0735 18.0588 28.1835 18.6188L29.3735 25.1898C29.7135 27.0798 31.3635 28.4698 33.2935 28.4698C33.8435 28.4698 34.2935 28.0198 34.2935 27.4698C34.2935 26.9098 33.8435 26.4698 33.2935 26.4698L33.3335 26.4998Z" fill="white"/>
</g>
<defs>
<clipPath id="clip0_275_2125">
<rect width="24" height="24" fill="white" transform="translate(10.3335 10)"/>
</clipPath>
</defs>
</svg>
