<svg width="20" height="20" viewBox="0 0 20 20" fill="none" xmlns="http://www.w3.org/2000/svg">
<g opacity="0.2">
<path d="M15.4359 10.0828L11.4062 8.59375L9.92187 4.56094C9.68437 3.91563 8.96953 3.58594 8.325 3.82266C7.98281 3.94844 7.71328 4.21797 7.58672 4.56016L6.09297 8.59297L2.06015 10.0773H2.06008C1.41476 10.3141 1.08508 11.0289 1.3218 11.6734C1.44758 12.0148 1.71711 12.2844 2.05929 12.4109L6.09211 13.9047L7.57648 17.9375C7.8132 18.582 8.52804 18.9117 9.17258 18.675C9.51398 18.5484 9.78351 18.2789 9.91008 17.9367L11.4038 13.9039L15.4366 12.4195C16.0812 12.182 16.4109 11.4672 16.1741 10.8227C16.0476 10.4805 15.778 10.2109 15.4359 10.0844L15.4359 10.0828ZM10.7031 12.8297V12.8296C10.5312 12.8921 10.3953 13.028 10.3328 13.1999L8.75 17.4882L7.17031 13.203C7.10703 13.0288 6.97031 12.8921 6.79687 12.8296L2.51172 11.2499L6.79687 9.67023C6.97031 9.60695 7.10703 9.47023 7.17031 9.2968L8.75 5.01164L10.3297 9.2968C10.3922 9.46789 10.5281 9.60383 10.7 9.66711L14.9883 11.2499L10.7031 12.8297ZM11.25 3.125C11.25 2.77969 11.5297 2.5 11.875 2.5H13.125V1.25C13.125 0.904687 13.4047 0.625 13.75 0.625C14.0945 0.625 14.375 0.904687 14.375 1.25V2.5H15.625C15.9695 2.5 16.25 2.77969 16.25 3.125C16.25 3.46953 15.9695 3.75 15.625 3.75H14.375V5C14.375 5.34453 14.0945 5.625 13.75 5.625C13.4047 5.625 13.125 5.34453 13.125 5V3.75H11.875C11.5297 3.75 11.25 3.46953 11.25 3.125ZM19.375 6.875C19.375 7.21953 19.0945 7.5 18.75 7.5H18.125V8.125C18.125 8.46953 17.8445 8.75 17.5 8.75C17.1547 8.75 16.875 8.46953 16.875 8.125V7.5H16.25C15.9047 7.5 15.625 7.21953 15.625 6.875C15.625 6.52969 15.9047 6.25 16.25 6.25H16.875V5.625C16.875 5.27969 17.1547 5 17.5 5C17.8445 5 18.125 5.27969 18.125 5.625V6.25H18.75C19.0945 6.25 19.375 6.52969 19.375 6.875Z" fill="white"/>
</g>
</svg>
