<svg width="24" height="24" viewBox="0 0 24 24" fill="none" xmlns="http://www.w3.org/2000/svg">
<g id="Frame">
<path id="Vector" d="M12 4.99978C12.67 4.99978 13.35 5.08978 14 5.25978C15.78 3.25978 19.03 2.41978 20.42 2.99978C21.82 3.57978 20 9.99978 20 9.99978C20.57 11.0698 21 12.2398 21 13.4398C21 17.8998 16.97 20.9998 12 20.9998C7.02996 20.9998 2.99996 17.9998 2.99996 13.4398C2.99996 12.1898 3.49996 11.0398 3.99996 9.99978C3.99996 9.99978 2.10996 3.57978 3.49996 2.99978C4.88996 2.41978 8.21996 3.22978 9.99996 5.22978C10.656 5.07888 11.3268 5.00174 12 4.99978Z" stroke="#FF33B1" stroke-width="2" stroke-linecap="round" stroke-linejoin="round"/>
<path id="Vector_2" d="M8 14V14.5" stroke="#FF33B1" stroke-width="2" stroke-linecap="round" stroke-linejoin="round"/>
<path id="Vector_3" d="M16 14V14.5" stroke="#FF33B1" stroke-width="2" stroke-linecap="round" stroke-linejoin="round"/>
<path id="Vector_4" d="M11.25 16.25H12.75L12 17L11.25 16.25Z" stroke="#FF33B1" stroke-width="2" stroke-linecap="round" stroke-linejoin="round"/>
</g>
</svg>
