<svg width="211" height="46" viewBox="0 0 211 46" fill="none" xmlns="http://www.w3.org/2000/svg">
<g clip-path="url(#clip0_4571_15364)">
<path d="M66.267 24.4306V23.9071C66.267 22.5916 65.8167 21.5848 64.9163 20.8868C64.0431 20.1619 62.8971 19.7995 61.4782 19.7995C60.3868 19.7995 59.5273 19.9874 58.8997 20.3633C58.2994 20.7123 57.7264 21.2493 57.1807 21.9742C57.017 22.1889 56.8396 22.3366 56.6486 22.4171C56.4576 22.4977 56.1984 22.5379 55.8709 22.5379H54.6431C54.3429 22.5379 54.0701 22.4305 53.8245 22.2157C53.6062 22.001 53.5107 21.7459 53.538 21.4506C53.6199 20.6452 54.0155 19.8532 54.7249 19.0747C55.4616 18.2692 56.4303 17.6115 57.6309 17.1013C58.8315 16.5913 60.114 16.3362 61.4782 16.3362C64.0158 16.3362 66.0623 17.0342 67.6176 18.4303C69.2002 19.8264 69.9915 21.7862 69.9915 24.3098V36.5925C69.9915 36.8878 69.8823 37.1428 69.6641 37.3576C69.4458 37.5724 69.1866 37.6798 68.8864 37.6798H67.3721C67.0719 37.6798 66.8127 37.5724 66.5944 37.3576C66.3761 37.1428 66.267 36.8878 66.267 36.5925V34.9414C65.8304 35.9079 64.9026 36.673 63.4838 37.2368C62.0649 37.8006 60.646 38.0825 59.2272 38.0825C57.8355 38.0825 56.5941 37.8409 55.5026 37.3576C54.4111 36.8475 53.5653 36.1629 52.965 35.3038C52.392 34.4447 52.1055 33.4782 52.1055 32.4043C52.1055 30.3907 52.8695 28.8202 54.3975 27.6926C55.9255 26.5381 57.9583 25.7596 60.4959 25.3569L66.267 24.4306ZM66.267 27.6523L61.4373 28.4175C59.6637 28.6859 58.2858 29.1289 57.3035 29.7464C56.3211 30.337 55.83 31.0888 55.83 32.0016C55.83 32.6728 56.1438 33.2768 56.7714 33.8137C57.399 34.3507 58.354 34.6192 59.6364 34.6192C61.6011 34.6192 63.1973 34.0688 64.4251 32.9681C65.653 31.8673 66.267 30.431 66.267 28.6591V27.6523Z" fill="white"/>
<path d="M79.6893 36.5955C79.6893 36.8908 79.5798 37.1459 79.3616 37.3607C79.1433 37.5754 78.8846 37.6828 78.5838 37.6828H77.0696C76.7696 37.6828 76.5101 37.5754 76.2918 37.3607C76.0736 37.1459 75.9648 36.8908 75.9648 36.5955V10.1778C75.9648 9.88245 76.0736 9.62745 76.2918 9.41265C76.5101 9.19785 76.7696 9.09045 77.0696 9.09045H78.5838C78.8846 9.09045 79.1433 9.19785 79.3616 9.41265C79.5798 9.62745 79.6893 9.88245 79.6893 10.1778V36.5955Z" fill="white"/>
<path d="M94.4325 34.6192C97.161 34.6192 99.003 33.5722 99.9585 31.4781C100.149 31.0753 100.34 30.7935 100.531 30.6324C100.722 30.4713 100.981 30.3907 101.308 30.3907H102.537C102.837 30.3907 103.096 30.4981 103.314 30.7129C103.533 30.9008 103.642 31.129 103.642 31.3975C103.642 32.3103 103.273 33.2902 102.537 34.3373C101.8 35.3843 100.735 36.2703 99.3442 36.9952C97.953 37.72 96.3157 38.0825 94.4325 38.0825C92.4952 38.0825 90.8175 37.6798 89.3985 36.8743C87.9795 36.0689 86.8882 34.9682 86.124 33.5722C85.3597 32.1493 84.9375 30.5653 84.855 28.8202C84.828 28.498 84.8145 27.8806 84.8145 26.9677C84.8145 26.3234 84.828 25.867 84.855 25.5985C85.101 22.8601 86.0422 20.6317 87.6795 18.9136C89.3167 17.1953 91.5675 16.3362 94.4325 16.3362C96.3157 16.3362 97.9387 16.6987 99.3029 17.4235C100.695 18.1216 101.746 18.9941 102.454 20.0411C103.192 21.0613 103.587 22.0279 103.642 22.9406C103.669 23.236 103.56 23.491 103.314 23.7058C103.096 23.9206 102.837 24.028 102.537 24.028H101.308C100.981 24.028 100.722 23.9474 100.531 23.7863C100.34 23.6252 100.149 23.3434 99.9585 22.9406C99.003 20.8465 97.161 19.7995 94.4325 19.7995C92.9317 19.7995 91.6222 20.2962 90.5032 21.2896C89.385 22.2829 88.7437 23.7863 88.5795 25.7998C88.5525 26.0952 88.539 26.5784 88.539 27.2496C88.539 27.8671 88.5525 28.3235 88.5795 28.6189C88.7707 30.6324 89.412 32.1358 90.5032 33.1291C91.6222 34.1225 92.9317 34.6192 94.4325 34.6192Z" fill="white"/>
<path d="M127.448 36.5955C127.448 36.8908 127.339 37.1459 127.12 37.3607C126.902 37.5754 126.643 37.6828 126.343 37.6828H124.828C124.528 37.6828 124.27 37.5754 124.051 37.3607C123.832 37.1459 123.724 36.8908 123.724 36.5955V25.964C123.724 23.9504 123.219 22.4201 122.209 21.3731C121.2 20.3261 119.794 19.8026 117.994 19.8026C116.22 19.8026 114.814 20.3261 113.778 21.3731C112.768 22.4201 112.264 23.9504 112.264 25.964V36.5955C112.264 36.8908 112.154 37.1459 111.936 37.3607C111.718 37.5754 111.458 37.6828 111.158 37.6828H109.644C109.344 37.6828 109.084 37.5754 108.866 37.3607C108.648 37.1459 108.539 36.8908 108.539 36.5955V10.1778C108.539 9.88245 108.648 9.62745 108.866 9.41265C109.084 9.19785 109.344 9.09045 109.644 9.09045H111.158C111.458 9.09045 111.718 9.19785 111.936 9.41265C112.154 9.62745 112.264 9.88245 112.264 10.1778V19.0777C112.864 18.2991 113.683 17.6548 114.719 17.1446C115.783 16.6077 117.079 16.3392 118.607 16.3392C120.326 16.3392 121.855 16.7017 123.192 17.4266C124.528 18.1514 125.566 19.1984 126.302 20.5677C127.066 21.9101 127.448 23.5075 127.448 25.3599V36.5955Z" fill="white"/>
<path d="M141.79 16.3362C144.71 16.3362 147.016 17.249 148.708 19.0747C150.4 20.9002 151.246 23.3836 151.246 26.5247V27.6121C151.246 27.9074 151.136 28.1624 150.918 28.3772C150.7 28.592 150.44 28.6993 150.14 28.6993H136.06V28.941C136.115 30.7129 136.661 32.109 137.698 33.1291C138.762 34.1225 140.126 34.6192 141.79 34.6192C143.155 34.6192 144.205 34.4447 144.942 34.0957C145.706 33.7466 146.389 33.25 146.989 32.6056C147.207 32.3908 147.398 32.2432 147.562 32.1627C147.753 32.0821 147.998 32.0419 148.298 32.0419H149.527C149.854 32.0419 150.127 32.1493 150.345 32.364C150.563 32.5788 150.658 32.8339 150.631 33.1291C150.522 33.854 150.113 34.6057 149.404 35.3843C148.721 36.136 147.725 36.7804 146.416 37.3174C145.133 37.8274 143.592 38.0825 141.79 38.0825C140.044 38.0825 138.489 37.6932 137.125 36.9146C135.76 36.1092 134.669 35.0085 133.85 33.6124C133.059 32.2164 132.582 30.6458 132.418 28.9007C132.364 28.0953 132.336 27.4778 132.336 27.0483C132.336 26.6187 132.364 26.0012 132.418 25.1958C132.582 23.5312 133.059 22.0279 133.85 20.6854C134.669 19.3431 135.747 18.2827 137.084 17.5041C138.448 16.7255 140.017 16.3362 141.79 16.3362ZM147.562 25.3166V25.1958C147.562 23.5581 147.03 22.256 145.966 21.2896C144.928 20.2962 143.537 19.7995 141.79 19.7995C140.208 19.7995 138.857 20.2962 137.739 21.2896C136.647 22.2829 136.088 23.5849 136.06 25.1958V25.3166H147.562Z" fill="white"/>
<path d="M159.908 19.0747C160.563 18.2424 161.3 17.5846 162.118 17.1013C162.937 16.5913 164.029 16.3362 165.393 16.3362C168.586 16.3362 170.823 17.5041 172.105 19.8398C172.897 18.7122 173.797 17.8531 174.807 17.2624C175.816 16.645 177.139 16.3362 178.777 16.3362C181.45 16.3362 183.429 17.1282 184.711 18.7122C186.021 20.2962 186.676 22.5379 186.676 25.4374V36.5925C186.676 36.8878 186.567 37.1428 186.349 37.3576C186.13 37.5724 185.871 37.6798 185.571 37.6798H184.057C183.757 37.6798 183.497 37.5724 183.279 37.3576C183.061 37.1428 182.951 36.8878 182.951 36.5925V25.8401C182.951 21.8131 181.342 19.7995 178.122 19.7995C176.648 19.7995 175.475 20.2828 174.602 21.2493C173.728 22.2157 173.292 23.6521 173.292 25.5583V36.5925C173.292 36.8878 173.183 37.1428 172.965 37.3576C172.747 37.5724 172.487 37.6798 172.187 37.6798H170.673C170.373 37.6798 170.113 37.5724 169.895 37.3576C169.677 37.1428 169.567 36.8878 169.567 36.5925V25.8401C169.567 21.8131 167.958 19.7995 164.738 19.7995C163.264 19.7995 162.091 20.2828 161.218 21.2493C160.345 22.2157 159.908 23.6521 159.908 25.5583V36.5925C159.908 36.8878 159.799 37.1428 159.581 37.3576C159.363 37.5724 159.103 37.6798 158.803 37.6798H157.289C156.988 37.6798 156.73 37.5724 156.511 37.3576C156.293 37.1428 156.184 36.8878 156.184 36.5925V17.8262C156.184 17.5309 156.293 17.2759 156.511 17.0611C156.73 16.8463 156.988 16.7389 157.289 16.7389H158.803C159.103 16.7389 159.363 16.8463 159.581 17.0611C159.799 17.2759 159.908 17.5309 159.908 17.8262V19.0747Z" fill="white"/>
<path d="M198.14 44.3694C197.894 45.0138 197.499 45.336 196.953 45.336H195.275C195.002 45.336 194.769 45.242 194.579 45.0541C194.388 44.8661 194.292 44.6379 194.292 44.3694C194.292 44.262 194.306 44.1681 194.333 44.0875L198.262 35.6709L190.158 17.992C190.131 17.9115 190.117 17.8175 190.117 17.7101C190.117 17.4417 190.213 17.2135 190.404 17.0255C190.595 16.8376 190.827 16.7437 191.1 16.7437H192.778C193.323 16.7437 193.719 17.0658 193.965 17.7101L200.268 31.4023L206.653 17.7101C206.898 17.0658 207.294 16.7437 207.84 16.7437H209.518C209.791 16.7437 210.023 16.8376 210.213 17.0255C210.405 17.2135 210.5 17.4417 210.5 17.7101C210.5 17.8175 210.486 17.9115 210.459 17.992L198.14 44.3694Z" fill="white"/>
<path d="M36.6309 24.3617L22.8876 1.05042C22.8211 0.935317 22.7247 0.839432 22.6083 0.772448C22.4918 0.705462 22.3594 0.669745 22.2243 0.6689C22.0892 0.668054 21.9563 0.702111 21.839 0.767633C21.7217 0.833155 21.6241 0.927826 21.5561 1.04209L17.4401 8.02717C17.3053 8.25577 17.2344 8.51519 17.2344 8.77919C17.2344 9.04319 17.3053 9.30262 17.4401 9.53122L26.4015 24.7388C26.5365 24.9676 26.7306 25.1577 26.9644 25.2897C27.1982 25.4218 27.4633 25.4911 27.7332 25.4908H35.9651C36.0999 25.4905 36.2322 25.4554 36.3488 25.3893C36.4653 25.3231 36.5623 25.2281 36.6296 25.1138C36.697 24.9996 36.7326 24.8699 36.7328 24.738C36.733 24.606 36.6978 24.4762 36.6309 24.3617Z" fill="#363FF9"/>
<path d="M0.605975 36.5457L14.3492 13.2344C14.4166 13.1202 14.5136 13.0254 14.6303 12.9595C14.7469 12.8936 14.8792 12.8588 15.0139 12.8588C15.1486 12.8588 15.281 12.8936 15.3976 12.9595C15.5143 13.0254 15.6112 13.1202 15.6786 13.2344L19.7967 20.2132C19.9315 20.4422 20.0025 20.702 20.0025 20.9663C20.0025 21.2306 19.9315 21.4903 19.7967 21.7194L10.8352 36.9269C10.7008 37.1557 10.5071 37.3459 10.2737 37.4779C10.0403 37.6099 9.7754 37.6793 9.50577 37.6789H1.27176C1.13612 37.6796 1.00272 37.6451 0.885132 37.5789C0.76754 37.5127 0.66996 37.4171 0.602313 37.302C0.534666 37.1869 0.499363 37.0562 0.500009 36.9234C0.500654 36.7905 0.537212 36.6602 0.605975 36.5457Z" fill="#363FF9"/>
<path d="M15.6773 37.6697H43.1638C43.2986 37.6696 43.431 37.6347 43.5477 37.5685C43.6644 37.5024 43.7612 37.4073 43.8285 37.2928C43.8958 37.1784 43.9311 37.0486 43.931 36.9166C43.9307 36.7845 43.895 36.6548 43.8275 36.5406L39.7157 29.5576C39.5808 29.3287 39.3867 29.1387 39.1529 29.0067C38.9192 28.8747 38.654 28.8053 38.3841 28.8055H20.4611C20.1913 28.8053 19.9262 28.8747 19.6924 29.0067C19.4586 29.1387 19.2645 29.3287 19.1296 29.5576L15.0137 36.5406C14.946 36.6548 14.9103 36.7845 14.9102 36.9166C14.9099 37.0486 14.9452 37.1784 15.0125 37.2928C15.0797 37.4073 15.1766 37.5024 15.2933 37.5685C15.41 37.6347 15.5424 37.6696 15.6773 37.6697Z" fill="#363FF9"/>
</g>
<defs>
<clipPath id="clip0_4571_15364">
<rect width="210" height="45" fill="white" transform="translate(0.5 0.503845)"/>
</clipPath>
</defs>
</svg>
