<svg width="24" height="25" viewBox="0 0 24 25" fill="none" xmlns="http://www.w3.org/2000/svg">
<g id="Frame">
<g id="Group">
<path id="Vector" d="M6.17037 23.2402C6.07037 23.2402 5.96037 23.2302 5.87037 23.2202L3.70037 22.9202C2.66037 22.7802 1.72037 21.8502 1.56037 20.7902L1.26037 18.6002C1.16037 17.9002 1.46037 16.9902 1.96037 16.4802L6.35037 12.0902C5.64037 9.25016 6.46037 6.25016 8.55037 4.18016C11.7904 0.950158 17.0604 0.940158 20.3104 4.18016C21.8804 5.75016 22.7404 7.84016 22.7404 10.0602C22.7404 12.2702 21.8804 14.3602 20.3104 15.9302C18.2104 18.0102 15.2204 18.8302 12.4004 18.1102L7.99037 22.5002C7.57037 22.9402 6.82037 23.2302 6.16037 23.2302L6.17037 23.2402ZM14.4204 3.25016C12.6704 3.24916 10.9304 3.91016 9.59037 5.24016C7.79037 7.03016 7.14037 9.65016 7.89037 12.0802C7.97037 12.3502 7.90037 12.6302 7.70037 12.8302L3.00037 17.5302C2.83037 17.7002 2.69037 18.1402 2.72037 18.3702L3.02037 20.5602C3.08037 20.9402 3.49037 21.3702 3.87037 21.4202L6.05037 21.7202C6.29037 21.7602 6.73037 21.6202 6.90037 21.4502L11.6204 16.7402C11.8204 16.5402 12.1104 16.4802 12.3704 16.5602C14.7804 17.3202 17.4104 16.6702 19.2104 14.8702C20.4904 13.5902 21.2004 11.8702 21.2004 10.0502C21.2004 8.22016 20.4904 6.51016 19.2104 5.23016C17.9104 3.91016 16.1604 3.24016 14.4104 3.24016L14.4204 3.25016Z" fill="white"/>
<path id="Vector_2" d="M9.19008 21.0299C9.00008 21.0299 8.81008 20.9599 8.66008 20.8099L6.36008 18.5099C6.07008 18.2199 6.07008 17.7399 6.36008 17.4499C6.65008 17.1599 7.13008 17.1599 7.42008 17.4499L9.72008 19.7499C10.0101 20.0399 10.0101 20.5199 9.72008 20.8099C9.57008 20.9599 9.38008 21.0299 9.19008 21.0299Z" fill="white"/>
<path id="Vector_3" d="M14.5 12.25C13.26 12.25 12.25 11.24 12.25 10C12.25 8.76 13.26 7.75 14.5 7.75C15.74 7.75 16.75 8.76 16.75 10C16.75 11.24 15.74 12.25 14.5 12.25ZM14.5 9.25C14.09 9.25 13.75 9.59 13.75 10C13.75 10.41 14.09 10.75 14.5 10.75C14.91 10.75 15.25 10.41 15.25 10C15.25 9.59 14.91 9.25 14.5 9.25Z" fill="white"/>
</g>
</g>
</svg>
