<svg width="25" height="24" viewBox="0 0 25 24" fill="none" xmlns="http://www.w3.org/2000/svg">
<path d="M15.2951 18.8201C15.1051 18.8201 14.9151 18.7501 14.7651 18.6001C14.4751 18.3101 14.4751 17.8301 14.7651 17.5401L20.3051 12.0001L14.7651 6.46012C14.4751 6.17012 14.4751 5.69012 14.7651 5.40012C15.0551 5.11012 15.5351 5.11012 15.8251 5.40012L21.8951 11.4601C22.1851 11.7501 22.1851 12.2301 21.8951 12.5201L15.8251 18.5901C15.6751 18.7401 15.4851 18.8101 15.2951 18.8101V18.8201Z" fill="white"/>
<path d="M21.205 12.75H4.375C3.965 12.75 3.625 12.41 3.625 12C3.625 11.59 3.965 11.25 4.375 11.25H21.205C21.615 11.25 21.955 11.59 21.955 12C21.955 12.41 21.615 12.75 21.205 12.75Z" fill="white"/>
</svg>
