<svg width="24" height="25" viewBox="0 0 24 25" fill="none" xmlns="http://www.w3.org/2000/svg">
<g id="Frame">
<g id="Group">
<path id="Vector" d="M14.4199 19.32C14.2299 19.32 14.0399 19.25 13.8899 19.1C13.5999 18.81 13.5999 18.33 13.8899 18.04L19.4299 12.5L13.8899 6.96C13.5999 6.67 13.5999 6.19 13.8899 5.9C14.1799 5.61 14.6599 5.61 14.9499 5.9L21.0199 11.96C21.3099 12.25 21.3099 12.73 21.0199 13.02L14.9499 19.09C14.7999 19.24 14.6099 19.31 14.4199 19.31V19.32Z" fill="white"/>
<path id="Vector_2" d="M20.33 13.25H3.5C3.09 13.25 2.75 12.91 2.75 12.5C2.75 12.09 3.09 11.75 3.5 11.75H20.33C20.74 11.75 21.08 12.09 21.08 12.5C21.08 12.91 20.74 13.25 20.33 13.25Z" fill="white"/>
</g>
</g>
</svg>
