<svg width="45" height="44" viewBox="0 0 45 44" fill="none" xmlns="http://www.w3.org/2000/svg">
<rect x="0.666016" width="44" height="44" rx="22" fill="#BB6D00"/>
<path d="M31.666 15C31.666 16.6569 27.6366 18 22.666 18C17.6955 18 13.666 16.6569 13.666 15M31.666 15C31.666 13.3431 27.6366 12 22.666 12C17.6955 12 13.666 13.3431 13.666 15M31.666 15V18M13.666 15L13.6661 29C13.6605 29.4809 14.0019 29.9552 14.6614 30.383C15.3209 30.8107 16.2793 31.1793 17.4557 31.4577C18.6321 31.7361 19.9921 31.9162 21.421 31.9827C22.8499 32.0493 24.3058 32.0003 25.6661 31.84M31.666 22L28.666 27H32.666L29.666 32M13.666 22C13.6675 22.4675 13.9967 22.9285 14.6275 23.3461C15.2582 23.7636 16.1731 24.1263 17.299 24.4051C18.4249 24.6839 19.7307 24.8711 21.1122 24.9519C22.4938 25.0326 23.9128 25.0045 25.256 24.87" stroke="white" stroke-width="2" stroke-linecap="round" stroke-linejoin="round"/>
</svg>
