<svg width="16" height="17" viewBox="0 0 16 17" fill="none" xmlns="http://www.w3.org/2000/svg">
<g id="Frame">
<g id="Group">
<path id="Vector" d="M8.00754 14.18C6.44754 14.18 4.89421 13.9333 3.42088 13.44C2.86088 13.2467 2.43421 12.8533 2.24754 12.34C2.05421 11.8267 2.12088 11.26 2.42754 10.7533L3.19421 9.48C3.35421 9.21334 3.50088 8.68 3.50088 8.36667V6.44C3.50088 3.96 5.52088 1.94 8.00088 1.94C10.4809 1.94 12.5009 3.96 12.5009 6.44V8.36C12.5009 8.66667 12.6475 9.20667 12.8075 9.48L13.5675 10.7467C13.8542 11.2267 13.9075 11.8067 13.7142 12.3333C13.5209 12.86 13.1009 13.26 12.5742 13.4333C11.1075 13.9267 9.55421 14.1733 8.00088 14.1733L8.00754 14.18ZM8.00754 2.94C6.07421 2.94 4.50088 4.50667 4.50088 6.44V8.36C4.50088 8.84667 4.30088 9.56667 4.05421 9.98667L3.28754 11.26C3.14088 11.5067 3.10088 11.7667 3.18754 11.9867C3.26754 12.2133 3.46754 12.3867 3.74088 12.48C6.52754 13.4133 9.48088 13.4133 12.2675 12.48C12.5075 12.4 12.6942 12.22 12.7809 11.98C12.8675 11.74 12.8475 11.48 12.7142 11.26L11.9475 9.98667C11.6942 9.55334 11.5009 8.84 11.5009 8.35334V6.43334C11.5009 4.5 9.93421 2.93334 8.00088 2.93334L8.00754 2.94Z" fill="white"/>
<path id="Vector_2" d="M9.24722 3.12C9.20056 3.12 9.15389 3.11333 9.10722 3.1C8.91389 3.04667 8.72722 3.00667 8.54722 2.98C7.98056 2.90667 7.43389 2.94667 6.92056 3.1C6.73389 3.16 6.53389 3.1 6.40722 2.96C6.28056 2.82 6.24056 2.62 6.31389 2.44C6.58722 1.74 7.24722 1.28 8.00722 1.28C8.76722 1.28 9.43389 1.73333 9.70722 2.44C9.77389 2.62 9.74056 2.82 9.61389 2.96C9.51389 3.06667 9.37389 3.12 9.24056 3.12H9.24722Z" fill="white"/>
<path id="Vector_3" d="M8.00781 15.7C7.34781 15.7 6.70781 15.4333 6.24115 14.9667C5.77448 14.5 5.50781 13.86 5.50781 13.2H6.50781C6.50781 13.5933 6.66115 13.98 6.94115 14.26C7.22115 14.54 7.60781 14.7 8.00115 14.7C8.82781 14.7 9.50115 14.0267 9.50115 13.2H10.5011C10.5011 14.58 9.38115 15.7 8.00115 15.7H8.00781Z" fill="white"/>
</g>
</g>
</svg>
