<svg width="12" height="13" viewBox="0 0 12 13" fill="none" xmlns="http://www.w3.org/2000/svg">
<g id="Frame">
<g id="Group">
<path id="Vector" d="M8.37773 1.12484H3.62023C2.84023 1.12484 2.65523 1.13484 2.39023 1.22484C1.83023 1.41984 1.39523 1.86484 1.21523 2.42984C1.12523 2.68984 1.11523 2.87984 1.11523 3.67984V10.6798C1.11523 11.4298 1.99023 11.8348 2.54523 11.3248C2.58023 11.2848 2.64023 11.2848 2.67523 11.3198L2.91523 11.5398C3.37023 11.9648 4.08523 11.9648 4.54523 11.5348C4.71523 11.3698 4.98523 11.3698 5.16023 11.5348C5.62023 11.9598 6.33023 11.9598 6.79023 11.5348C6.96023 11.3698 7.23023 11.3698 7.40523 11.5348C7.86523 11.9598 8.57523 11.9598 9.03523 11.5348L9.27523 11.3148C9.31023 11.2748 9.37023 11.2748 9.40523 11.3098C9.96023 11.8148 10.8352 11.4098 10.8352 10.6598V3.65484C10.8352 2.85484 10.8202 2.66484 10.7352 2.39984C10.5502 1.83484 10.1202 1.38984 9.56023 1.19484C9.29523 1.09984 9.10523 1.08984 8.33023 1.08984L8.37773 1.12484ZM8.37773 1.87484C9.04773 1.87484 9.20773 1.87984 9.35273 1.93484C9.68773 2.04984 9.94773 2.31984 10.0577 2.65984C10.1077 2.81484 10.1177 2.98484 10.1177 3.67984V10.6798C10.1177 10.7848 10.0077 10.8348 9.93773 10.7748C9.61273 10.4748 9.11273 10.4748 8.78773 10.7748L8.54273 10.9898C8.36273 11.1498 8.09773 11.1498 7.92273 10.9898C7.45773 10.5598 6.74773 10.5598 6.28773 10.9898C6.11273 11.1498 5.84273 11.1498 5.66773 10.9898C5.20273 10.5598 4.49273 10.5598 4.03273 10.9898C3.85773 11.1498 3.58773 11.1498 3.41273 10.9898L3.16773 10.7648C2.84273 10.4648 2.34273 10.4648 2.01773 10.7648C1.94773 10.8248 1.84273 10.7748 1.84273 10.6648V3.65984C1.84273 2.96484 1.84773 2.79484 1.90273 2.63984C2.01273 2.29484 2.27273 2.02484 2.60773 1.90484C2.74773 1.84984 2.91273 1.84484 3.58273 1.84484H8.33773L8.37773 1.87484Z" fill="white"/>
<path id="Vector_2" d="M4.4699 5.94455L5.1799 6.74455C5.3249 6.90955 5.5899 6.90955 5.7349 6.73955L7.5199 4.73955C7.6549 4.58455 7.6399 4.34455 7.4849 4.20955C7.3299 4.06955 7.0899 4.08455 6.9549 4.23955L5.1649 6.23955L5.7199 6.23455L5.0049 5.43455C4.8649 5.27955 4.6249 5.26455 4.4749 5.40455C4.3199 5.53955 4.3049 5.77955 4.4449 5.92955L4.4699 5.94455Z" fill="white"/>
<path id="Vector_3" d="M3.75 8.625H8.25C8.455 8.625 8.625 8.455 8.625 8.25C8.625 8.04 8.455 7.875 8.25 7.875H3.75C3.54 7.875 3.375 8.04 3.375 8.25C3.375 8.455 3.54 8.625 3.75 8.625Z" fill="white"/>
</g>
</g>
</svg>
