<svg width="16" height="16" viewBox="0 0 16 16" fill="none" xmlns="http://www.w3.org/2000/svg">
<path d="M8.69069 2.43325L8.30402 2.65325C7.88402 2.89992 7.67069 3.02659 7.43736 3.05325C7.20402 3.07992 6.97736 3.00659 6.52402 2.87325L6.11069 2.74659C4.51736 2.25325 3.71736 2.00659 3.23736 2.44659C2.75869 2.87992 2.91469 3.71325 3.22402 5.37325L3.30402 5.79992C3.39269 6.26659 3.43736 6.50659 3.38402 6.73325C3.33069 6.95992 3.18402 7.15992 2.89736 7.55992L2.63069 7.91992C1.61736 9.31992 1.11069 10.0199 1.35736 10.5999C1.60402 11.1799 2.43802 11.2533 4.10402 11.4066L4.53069 11.4466C5.00402 11.4866 5.23736 11.5066 5.43736 11.6199C5.63069 11.7333 5.77069 11.9266 6.04402 12.3066L6.29069 12.6533C7.25869 14.0099 7.73736 14.6866 8.37069 14.6066C8.99736 14.5266 9.35736 13.7399 10.0774 12.1733L10.264 11.7666C10.364 11.5333 10.444 11.3666 10.5174 11.2333L13.5767 14.2933C13.7634 14.4866 14.0834 14.4933 14.2834 14.2999C14.4767 14.1066 14.4834 13.7866 14.29 13.5866C14.2834 13.5799 14.2767 13.5733 14.2767 13.5733L11.3234 10.6133C11.4034 10.5799 11.49 10.5466 11.5967 10.5133L12.01 10.3666C13.6167 9.79992 14.4234 9.51992 14.5634 8.88659C14.7034 8.25325 14.09 7.69325 12.87 6.57325L12.55 6.27992C12.1967 5.95992 12.0234 5.79992 11.9367 5.58659C11.8434 5.37325 11.85 5.12659 11.8567 4.64659L11.8634 4.19992C11.8834 2.49525 11.8967 1.63992 11.3567 1.33325C10.81 1.01992 10.07 1.45992 8.59669 2.33325L8.69069 2.43325Z" fill="white"/>
</svg>
