<svg width="16" height="17" viewBox="0 0 16 17" fill="none" xmlns="http://www.w3.org/2000/svg">
<g id="Frame">
<path id="Vector" d="M3.16648 8.49333V6.11333C3.16648 3.54666 4.83315 2.57999 7.05315 3.85999L9.11315 5.04666L11.1732 6.23333C13.3865 7.51333 13.3865 9.43999 11.1665 10.7267L9.10648 11.9067L7.04648 13.0933C4.82648 14.3733 3.15315 13.4067 3.15315 10.84V8.46666L3.16648 8.49333ZM2.16648 8.49333V10.8667C2.16648 14.1933 4.66648 15.64 7.55315 13.9733L9.60648 12.7867L11.6665 11.6C14.5532 9.93333 14.5532 7.03333 11.6665 5.37333L9.59982 4.17999L7.53982 2.99333C4.65315 1.32666 2.14648 2.77333 2.14648 6.09999V8.47333L2.16648 8.49333Z" fill="white"/>
</g>
</svg>
