<svg width="20" height="20" viewBox="0 0 20 20" fill="none" xmlns="http://www.w3.org/2000/svg">
<g id="Frame">
<path id="Vector" d="M16.0679 15.1828C16.3117 15.4266 16.3117 15.8227 16.0679 16.0672C15.8234 16.311 15.4273 16.311 15.1836 16.0672L10.0007 10.8836L4.81793 16.0672V16.0671C4.5734 16.3109 4.1773 16.3109 3.93355 16.0663C3.68902 15.8218 3.68902 15.4257 3.93348 15.182L9.11707 9.99916L3.93348 4.81634L3.9334 4.81626C3.68887 4.57173 3.68887 4.17564 3.9334 3.93189C4.17715 3.68736 4.57324 3.68736 4.81777 3.93189L10.0006 9.11548L15.1834 3.93189C15.4271 3.68736 15.8232 3.68728 16.0678 3.93181C16.3115 4.17556 16.3115 4.57166 16.0678 4.81619L10.8842 9.999L16.0679 15.1828Z" fill="white"/>
</g>
</svg>
