<svg width="16" height="17" viewBox="0 0 16 17" fill="none" xmlns="http://www.w3.org/2000/svg">
<g id="Frame">
<g id="Group">
<path id="Vector" d="M1.33398 6.66602H14.6673C14.9406 6.66602 15.1673 6.43935 15.1673 6.16602C15.1673 5.88602 14.9406 5.66602 14.6673 5.66602H1.33398C1.05398 5.66602 0.833984 5.88602 0.833984 6.16602C0.833984 6.43935 1.05398 6.66602 1.33398 6.66602Z" fill="white"/>
<path id="Vector_2" d="M4 12H5.33333C5.60667 12 5.83333 11.7733 5.83333 11.5C5.83333 11.22 5.60667 11 5.33333 11H4C3.72 11 3.5 11.22 3.5 11.5C3.5 11.7733 3.72 12 4 12Z" fill="white"/>
<path id="Vector_3" d="M7 12H9.66667C9.94 12 10.1667 11.7733 10.1667 11.5C10.1667 11.22 9.94 11 9.66667 11H7C6.72 11 6.5 11.22 6.5 11.5C6.5 11.7733 6.72 12 7 12Z" fill="white"/>
<path id="Vector_4" d="M4.29398 3.33284H11.7007C13.794 3.33284 14.1673 3.69284 14.1673 5.7595V11.2328C14.1673 13.2928 13.794 13.6595 11.7073 13.6595H4.29398C2.20065 13.6595 1.83398 13.2995 1.83398 11.2395V5.7595C1.83398 3.69284 2.20065 3.33284 4.29398 3.33284ZM4.29398 2.33284C1.64732 2.33284 0.833984 3.1395 0.833984 5.7595V11.2395C0.833984 13.8528 1.64732 14.6662 4.29398 14.6528H11.7007C14.3407 14.6528 15.1607 13.8395 15.1607 11.2262V5.75284C15.1607 3.13284 14.3407 2.32617 11.694 2.32617H4.28732L4.29398 2.33284Z" fill="white"/>
</g>
</g>
</svg>
