<svg width="11" height="11" viewBox="0 0 11 11" fill="none" xmlns="http://www.w3.org/2000/svg">
<g clip-path="url(#clip0_4359_14702)">
<path d="M5.49967 9.60482C3.02884 9.60482 1.02051 7.59648 1.02051 5.12565C1.02051 2.65482 3.02884 0.646484 5.49967 0.646484C7.97051 0.646484 9.97884 2.65482 9.97884 5.12565C9.97884 7.59648 7.97051 9.60482 5.49967 9.60482ZM5.49967 1.27148C3.37467 1.27148 1.64551 3.00065 1.64551 5.12565C1.64551 7.25065 3.37467 8.97982 5.49967 8.97982C7.62467 8.97982 9.35384 7.25065 9.35384 5.12565C9.35384 3.00065 7.62467 1.27148 5.49967 1.27148Z" fill="#0072FF"/>
<path d="M4.90397 6.61732C4.82064 6.61732 4.74147 6.58398 4.68314 6.52565L3.4998 5.34648C3.37897 5.22565 3.37897 5.02565 3.4998 4.90482C3.62064 4.78398 3.82064 4.78398 3.94147 4.90482L4.8998 5.86315L7.04147 3.72148C7.1623 3.60065 7.3623 3.60065 7.48314 3.72148C7.60397 3.84232 7.60397 4.04232 7.48314 4.16315L5.12064 6.52565C5.0623 6.58398 4.98314 6.61732 4.8998 6.61732H4.90397Z" fill="#0072FF"/>
</g>
<defs>
<clipPath id="clip0_4359_14702">
<rect width="10" height="10" fill="white" transform="translate(0.5 0.125)"/>
</clipPath>
</defs>
</svg>
