<svg width="13" height="13" viewBox="0 0 13 13" fill="none" xmlns="http://www.w3.org/2000/svg">
<path d="M6.4 1.625C3.7075 1.625 1.525 3.8075 1.525 6.5C1.525 9.19203 3.7075 11.375 6.4 11.375C9.09203 11.375 11.275 9.19203 11.275 6.5C11.2717 3.80844 9.0911 1.62781 6.4 1.625ZM8.54031 5.64031L5.91531 8.26531C5.7686 8.41156 5.53141 8.41156 5.38469 8.26531C5.38422 8.26484 5.38422 8.26484 5.38422 8.26484L4.25922 7.13984C4.1125 6.99312 4.1125 6.75547 4.25917 6.60922C4.40542 6.4625 4.64308 6.4625 4.7898 6.60922L5.64949 7.46937L8.00917 5.10922C8.15542 4.9625 8.39308 4.96245 8.5398 5.10917C8.68605 5.25542 8.68605 5.49308 8.5398 5.6398L8.54031 5.64031Z" fill="#00E2AB"/>
</svg>
