<svg width="16" height="16" viewBox="0 0 16 16" fill="none" xmlns="http://www.w3.org/2000/svg">
<g id="Frame" clip-path="url(#clip0_1270_5832)">
<g id="Group">
<path id="Vector" d="M8.00001 15.1668C4.04668 15.1668 0.833344 11.9535 0.833344 8.00016C0.833344 4.04683 4.04668 0.833496 8.00001 0.833496C11.9533 0.833496 15.1667 4.04683 15.1667 8.00016C15.1667 11.9535 11.9533 15.1668 8.00001 15.1668ZM8.00001 1.8335C4.60001 1.8335 1.83334 4.60016 1.83334 8.00016C1.83334 11.4002 4.60001 14.1668 8.00001 14.1668C11.4 14.1668 14.1667 11.4002 14.1667 8.00016C14.1667 4.60016 11.4 1.8335 8.00001 1.8335Z" fill="#00FFAE"/>
<path id="Vector_2" d="M7.04667 10.3867C6.91333 10.3867 6.78667 10.3334 6.69333 10.2401L4.8 8.3534C4.60667 8.16006 4.60667 7.84006 4.8 7.64673C4.99333 7.4534 5.31333 7.4534 5.50667 7.64673L7.04 9.18006L10.4667 5.7534C10.66 5.56007 10.98 5.56007 11.1733 5.7534C11.3667 5.94673 11.3667 6.26673 11.1733 6.46006L7.39333 10.2401C7.3 10.3334 7.17333 10.3867 7.04 10.3867H7.04667Z" fill="#00FFAE"/>
</g>
</g>
<defs>
<clipPath id="clip0_1270_5832">
<rect width="16" height="16" fill="white"/>
</clipPath>
</defs>
</svg>
