<svg width="14" height="15" viewBox="0 0 14 15" fill="none" xmlns="http://www.w3.org/2000/svg">
<g id="Frame" clip-path="url(#clip0_2493_11584)">
<path id="Vector" d="M10.0063 5.44814L10.0014 5.44604C9.99862 5.44499 9.99582 5.44394 9.99337 5.44149C9.98935 5.43718 9.98638 5.432 9.98468 5.42635C9.98298 5.42071 9.9826 5.41475 9.98357 5.40894L10.2541 3.75484L11.5229 5.02394L10.2034 5.58534C10.1997 5.58682 10.1958 5.58753 10.1918 5.58744H10.1866C10.1848 5.58639 10.1831 5.58499 10.1796 5.58149C10.1305 5.52681 10.0717 5.48162 10.0063 5.44814ZM11.8466 5.34734L13.2032 6.70394C13.485 6.98604 13.626 7.12674 13.6775 7.28984C13.6852 7.31399 13.6915 7.33814 13.6964 7.36299L10.4543 5.98994C10.4526 5.98922 10.4508 5.98852 10.4491 5.98784C10.4361 5.98259 10.4211 5.97664 10.4211 5.96334C10.4211 5.95004 10.4365 5.94374 10.4494 5.93849L10.4536 5.93674L11.8466 5.34734ZM13.6411 7.79839C13.5711 7.92999 13.4346 8.06649 13.2036 8.29784L11.6741 9.82699L9.69587 9.41504L9.68537 9.41294C9.66787 9.41014 9.64932 9.40699 9.64932 9.39124C9.6418 9.30963 9.61757 9.23045 9.57813 9.15861C9.53869 9.08678 9.48489 9.02383 9.42007 8.97369C9.41202 8.96564 9.41412 8.95304 9.41657 8.94149C9.41657 8.93974 9.41657 8.93799 9.41727 8.93659L9.78932 6.65249L9.79072 6.64479C9.79282 6.62729 9.79597 6.60699 9.81172 6.60699C9.89145 6.59707 9.96841 6.57138 10.0381 6.53142C10.1078 6.49146 10.1689 6.43803 10.2177 6.37424C10.2209 6.37074 10.223 6.36689 10.2272 6.36479C10.2384 6.35954 10.2517 6.36479 10.2632 6.36969L13.6411 7.79839ZM11.3223 10.1787L8.80722 12.6938L9.23772 10.0478L9.23842 10.0443C9.23877 10.0408 9.23947 10.0373 9.24052 10.0342C9.24402 10.0258 9.25312 10.0223 9.26187 10.0188L9.26607 10.017C9.36033 9.97682 9.4437 9.91481 9.50932 9.83609C9.51772 9.82629 9.52787 9.81684 9.54082 9.81509C9.54418 9.81454 9.5476 9.81454 9.55097 9.81509L11.322 10.1791L11.3223 10.1787ZM8.27487 13.2262L7.99137 13.5097L4.85712 8.97999C4.85598 8.97833 4.85482 8.9767 4.85362 8.97509C4.84872 8.96844 4.84347 8.96179 4.84452 8.95409C4.84487 8.94849 4.84837 8.94359 4.85222 8.93939L4.85572 8.93484C4.86517 8.92084 4.87322 8.90684 4.88197 8.89179L4.88897 8.87954L4.89002 8.87849C4.89492 8.87009 4.89947 8.86204 4.90787 8.85749C4.91522 8.85399 4.92537 8.85539 4.93342 8.85714L8.40577 9.57324C8.41547 9.57475 8.42463 9.57873 8.43237 9.58479C8.43692 9.58934 8.43797 9.59424 8.43902 9.59984C8.46324 9.69148 8.50832 9.77628 8.57073 9.84762C8.63314 9.91896 8.7112 9.97491 8.79882 10.0111C8.80862 10.016 8.80442 10.0268 8.79987 10.0384C8.7976 10.0435 8.79584 10.0487 8.79462 10.0541C8.75087 10.3201 8.37567 12.6084 8.27487 13.2262ZM7.68267 13.818C7.47372 14.0249 7.35052 14.1344 7.21122 14.1785C7.07387 14.222 6.92646 14.222 6.78912 14.1785C6.62602 14.1267 6.48497 13.986 6.20322 13.7039L3.05567 10.5564L3.87782 9.28134C3.88167 9.27504 3.88552 9.26944 3.89182 9.26489C3.90057 9.25859 3.91317 9.26139 3.92367 9.26489C4.11237 9.32182 4.31498 9.31155 4.49697 9.23584C4.50642 9.23234 4.51587 9.22989 4.52322 9.23654C4.52689 9.23989 4.53018 9.24365 4.53302 9.24774L7.68267 13.818ZM2.75222 10.2529L2.03017 9.53089L3.45607 8.92259C3.45971 8.921 3.46364 8.92017 3.46762 8.92014C3.47952 8.92014 3.48652 8.93204 3.49282 8.94289C3.50715 8.96494 3.52232 8.98642 3.53832 9.00729L3.54287 9.01289C3.54707 9.01884 3.54427 9.02479 3.54007 9.03039L2.75222 10.2529ZM1.71062 9.21134L0.797116 8.29784C0.641716 8.14244 0.529016 8.02974 0.450616 7.93279L3.22822 8.50889C3.2317 8.50954 3.23521 8.51012 3.23872 8.51064C3.25587 8.51344 3.27477 8.51659 3.27477 8.53269C3.27477 8.55019 3.25412 8.55824 3.23662 8.56489L3.22857 8.56839L1.71062 9.21134ZM0.291016 7.46309C0.294181 7.40424 0.304765 7.34603 0.322516 7.28984C0.374316 7.12674 0.515016 6.98604 0.797116 6.70394L1.96612 5.53494C2.50436 6.3161 3.04406 7.09625 3.58522 7.87539C3.59467 7.88799 3.60517 7.90199 3.59432 7.91249C3.54322 7.96884 3.49212 8.03044 3.45607 8.09729C3.45215 8.10588 3.44613 8.11335 3.43857 8.11899C3.43402 8.12179 3.42912 8.12074 3.42387 8.11969H3.42317L0.291016 7.46309ZM2.27902 5.22204L3.85087 3.65019C3.99857 3.71494 4.53617 3.94209 5.01707 4.14509C5.38107 4.29909 5.71287 4.43909 5.81717 4.48459C5.82767 4.48879 5.83712 4.49299 5.84167 4.50349C5.84447 4.50979 5.84307 4.51784 5.84167 4.52449C5.81678 4.63795 5.82049 4.75582 5.85244 4.86749C5.88439 4.97917 5.94359 5.08116 6.02472 5.16429C6.03522 5.17479 6.02472 5.18984 6.01562 5.20279L6.01072 5.21014L4.41472 7.68219C4.41052 7.68919 4.40667 7.69514 4.39967 7.69969C4.39127 7.70494 4.37937 7.70249 4.36957 7.70004C4.30749 7.68378 4.24368 7.67508 4.17952 7.67414C4.12212 7.67414 4.05982 7.68464 3.99682 7.69619C3.98982 7.69724 3.98317 7.69864 3.97757 7.69444C3.97138 7.68938 3.96606 7.68336 3.96182 7.67659L2.27902 5.22204ZM4.16832 3.33274L6.20322 1.29784C6.48497 1.01609 6.62602 0.875039 6.78912 0.823589C6.92646 0.780158 7.07387 0.780158 7.21122 0.823589C7.37432 0.875039 7.51537 1.01609 7.79712 1.29784L8.23812 1.73884L6.79087 3.98024C6.78729 3.98676 6.7824 3.99248 6.77652 3.99704C6.76777 4.00299 6.75552 4.00054 6.74502 3.99704C6.63091 3.96241 6.51009 3.95611 6.393 3.97867C6.27591 4.00124 6.16608 4.05199 6.07302 4.12654C6.06357 4.13634 6.04957 4.13074 6.03767 4.12549C5.84867 4.04324 4.37867 3.42199 4.16832 3.33274ZM8.54542 2.04614L9.88172 3.38244L9.55972 5.37674V5.38199C9.55943 5.38653 9.55849 5.39101 9.55692 5.39529C9.55342 5.40229 9.54642 5.40369 9.53942 5.40579C9.47057 5.42664 9.40573 5.45894 9.34762 5.50134C9.34512 5.50312 9.34278 5.50511 9.34062 5.50729C9.33677 5.51149 9.33292 5.51534 9.32662 5.51604C9.32149 5.5162 9.31638 5.51537 9.31157 5.51359L7.27527 4.64839L7.27142 4.64664C7.25847 4.64139 7.24307 4.63509 7.24307 4.62179C7.2311 4.50831 7.19404 4.39892 7.13457 4.30154C7.12477 4.28544 7.11392 4.26864 7.12232 4.25219L8.54542 2.04614ZM7.16922 5.05824L9.07812 5.86674C9.08862 5.87164 9.10017 5.87619 9.10472 5.88704C9.10654 5.89356 9.10654 5.90046 9.10472 5.90699C9.09912 5.93499 9.09422 5.96684 9.09422 5.99904V6.05259C9.09422 6.06589 9.08057 6.07149 9.06797 6.07674L9.06412 6.07814C8.76172 6.20729 4.81862 7.88869 4.81267 7.88869C4.80672 7.88869 4.80042 7.88869 4.79447 7.88274C4.78397 7.87224 4.79447 7.85754 4.80392 7.84424C4.80559 7.84193 4.80722 7.8396 4.80882 7.83724L6.37752 5.40824L6.38032 5.40404C6.38942 5.38934 6.39992 5.37289 6.41672 5.37289L6.43247 5.37534C6.46817 5.38024 6.49967 5.38479 6.53152 5.38479C6.76952 5.38479 6.99002 5.26894 7.12302 5.07084C7.12618 5.06555 7.13021 5.06082 7.13492 5.05684C7.14437 5.04984 7.15837 5.05334 7.16922 5.05824ZM4.98312 8.27299L9.28112 6.44004C9.28112 6.44004 9.28742 6.44004 9.29337 6.44599C9.31682 6.46944 9.33677 6.48519 9.35602 6.49989L9.36547 6.50584C9.37422 6.51074 9.38297 6.51634 9.38367 6.52544C9.38367 6.52894 9.38367 6.53104 9.38297 6.53419L9.01477 8.79589L9.01337 8.80499C9.01092 8.82249 9.00847 8.84244 8.99202 8.84244C8.89385 8.84907 8.79878 8.87953 8.71505 8.93118C8.63131 8.98284 8.56143 9.05413 8.51147 9.13889L8.50972 9.14169C8.50482 9.14974 8.50027 9.15744 8.49222 9.16164C8.48487 9.16514 8.47542 9.16374 8.46772 9.16199L5.04017 8.45499C5.03667 8.45429 4.98697 8.27334 4.98312 8.27299Z" fill="url(#paint0_radial_2493_11584)"/>
</g>
<defs>
<radialGradient id="paint0_radial_2493_11584" cx="0" cy="0" r="1" gradientUnits="userSpaceOnUse" gradientTransform="translate(-0.159071 7.31174) rotate(90) scale(1340.53 1547.7)">
<stop stop-color="#20C6B7"/>
<stop offset="1" stop-color="#4D9ABF"/>
</radialGradient>
<clipPath id="clip0_2493_11584">
<rect width="14" height="14" fill="white" transform="translate(0 0.5)"/>
</clipPath>
</defs>
</svg>
