<svg width="24" height="24" viewBox="0 0 24 24" fill="none" xmlns="http://www.w3.org/2000/svg">
<g id="Frame" opacity="0.5">
<g id="Group">
<path id="Vector" d="M12 22.75C17.91 22.75 22.75 17.91 22.75 12C22.75 6.08 17.91 1.25 12 1.25C6.08 1.25 1.25 6.08 1.25 12C1.25 17.91 6.08 22.75 12 22.75ZM12 21.25C6.91 21.25 2.75 17.08 2.75 12C2.75 6.91 6.91 2.75 12 2.75C17.08 2.75 21.25 6.91 21.25 12C21.25 17.08 17.08 21.25 12 21.25Z" fill="white"/>
<path id="Vector_2" d="M9.7008 15.3606L15.3608 9.70056C15.6508 9.40056 15.6508 8.93056 15.3608 8.63056C15.0608 8.33056 14.5908 8.33056 14.2908 8.62056L8.6208 14.2706C8.3208 14.5606 8.3208 15.0306 8.6108 15.3306C8.9008 15.6206 9.3708 15.6206 9.6708 15.3306L9.7008 15.3606Z" fill="white"/>
<path id="Vector_3" d="M15.3595 14.2893L9.68953 8.6293C9.38953 8.3293 8.91953 8.3293 8.61953 8.6293C8.31953 8.9193 8.31953 9.3893 8.61953 9.6893L14.2795 15.3393C14.5695 15.6293 15.0395 15.6293 15.3395 15.3293C15.6295 15.0293 15.6295 14.5593 15.3295 14.2593L15.3595 14.2893Z" fill="white"/>
</g>
</g>
</svg>
