<svg width="24" height="24" viewBox="0 0 24 24" fill="none" xmlns="http://www.w3.org/2000/svg">
<g id="Frame">
<path id="Vector" d="M21.74 12.9003C21.48 12.0403 21.05 11.2903 20.48 10.6803C19.75 9.84033 18.78 9.27033 17.69 9.02033C17.14 6.52033 15.6 4.72033 13.41 4.05033C11.03 3.31033 8.27 4.03033 6.54 5.84033C5.02 7.43033 4.52 9.62033 5.11 11.9503C3.11 12.4403 2.12 14.1103 2.01 15.7003C2 15.8103 2 15.9103 2 16.0103C2 17.8903 3.23 20.0003 5.97 20.2003H16.35C17.77 20.2003 19.13 19.6703 20.17 18.7203C21.8 17.2903 22.4 15.0603 21.74 12.8903V12.9003Z" fill="#00FFAE"/>
</g>
</svg>
