<svg width="24" height="24" viewBox="0 0 24 24" fill="none" xmlns="http://www.w3.org/2000/svg">
<g id="Frame">
<g id="Group">
<path id="Vector" d="M6.30953 8.76012C1.29953 9.11012 1.29953 16.3801 6.29953 16.7401H16.0095C17.3495 16.7501 18.6695 16.2401 19.6795 15.3201C23.0095 12.4001 21.2395 6.60012 16.8295 6.04012L17.4695 6.66012C16.7795 2.50012 13.3795 0.510118 9.80953 1.44012C6.22953 2.37012 4.23953 5.77012 5.66953 9.73012C5.80953 10.1101 6.22953 10.3201 6.61953 10.1801C6.99953 10.0301 7.20953 9.61012 7.06953 9.22012C5.94953 6.12012 7.42953 3.60012 10.1695 2.88012C12.9095 2.16012 15.4195 3.63012 15.9595 6.88012C16.0095 7.20012 16.2695 7.45012 16.5995 7.50012C19.7195 7.89012 21.0095 12.0901 18.6395 14.1701C17.8895 14.8401 16.9395 15.2101 15.9695 15.2001L6.29953 15.1901C3.19953 14.9601 3.19953 10.4201 6.34953 10.1901C6.75953 10.1601 7.06953 9.80012 7.03953 9.38012C7.00953 8.96012 6.64953 8.65012 6.22953 8.68012L6.30953 8.76012Z" fill="#ADFF7A"/>
<path id="Vector_2" d="M11.25 16V19C11.25 19.41 11.58 19.75 12 19.75C12.41 19.75 12.75 19.41 12.75 19V16C12.75 15.58 12.41 15.25 12 15.25C11.58 15.25 11.25 15.58 11.25 16Z" fill="#ADFF7A"/>
<path id="Vector_3" d="M12 23.75C13.51 23.75 14.75 22.51 14.75 21C14.75 19.48 13.51 18.25 12 18.25C10.48 18.25 9.25 19.48 9.25 21C9.25 22.51 10.48 23.75 12 23.75ZM12 22.25C11.3 22.25 10.75 21.69 10.75 21C10.75 20.3 11.3 19.75 12 19.75C12.69 19.75 13.25 20.3 13.25 21C13.25 21.69 12.69 22.25 12 22.25Z" fill="#ADFF7A"/>
<path id="Vector_4" d="M18 20.25H14C13.58 20.25 13.25 20.58 13.25 21C13.25 21.41 13.58 21.75 14 21.75H18C18.41 21.75 18.75 21.41 18.75 21C18.75 20.58 18.41 20.25 18 20.25Z" fill="#ADFF7A"/>
<path id="Vector_5" d="M10 20.25H6C5.58 20.25 5.25 20.58 5.25 21C5.25 21.41 5.58 21.75 6 21.75H10C10.41 21.75 10.75 21.41 10.75 21C10.75 20.58 10.41 20.25 10 20.25Z" fill="#ADFF7A"/>
</g>
</g>
</svg>
