<svg width="24" height="24" viewBox="0 0 24 24" fill="none" xmlns="http://www.w3.org/2000/svg">
<g id="Frame">
<path id="Vector" d="M20.8498 8.36008L13.9198 2.82008C12.8498 1.96008 11.1198 1.96008 10.0598 2.81008L3.11976 8.36008C2.33976 8.98008 1.83976 10.2801 2.00976 11.2601L3.33976 19.2201C3.57976 20.6401 4.93976 21.7901 6.37976 21.7901H17.5798C19.0098 21.7901 20.3798 20.6301 20.6198 19.2201L21.9498 11.2601C22.1098 10.2801 21.6098 8.97008 20.8398 8.35008L20.8498 8.36008ZM12.6998 17.1901C12.4998 17.3801 12.2498 17.4801 11.9898 17.4801C11.7298 17.4801 11.4798 17.3801 11.2798 17.1901C10.8898 16.8001 10.8898 16.1701 11.2798 15.7801C11.6698 15.3901 12.3098 15.3901 12.6998 15.7801C13.0898 16.1601 13.0898 16.7901 12.6998 17.1801V17.1901ZM14.6498 14.8801C14.4998 15.0301 14.3098 15.1101 14.1098 15.1101C13.9198 15.1101 13.7398 15.0401 13.5898 14.9001C12.6198 13.9701 11.3598 13.9701 10.3798 14.9001C10.0798 15.1901 9.59976 15.1801 9.30976 14.8801C9.01976 14.5801 9.02976 14.1101 9.32976 13.8201C10.8798 12.3301 13.0498 12.3301 14.6098 13.8201C14.9198 14.1001 14.9298 14.5801 14.6398 14.8801H14.6498ZM16.7698 12.7601C16.6198 12.9101 16.4298 12.9901 16.2298 12.9901C16.0398 12.9901 15.8498 12.9201 15.7098 12.7801C15.2398 12.3201 14.7098 11.9501 14.1498 11.6801C12.7498 11.0101 11.2198 11.0101 9.81976 11.6801C9.25976 11.9501 8.73976 12.3201 8.25976 12.7801C7.96976 13.0701 7.48976 13.0701 7.19976 12.7701C6.90976 12.4701 6.91976 12.0001 7.20976 11.7101C7.79976 11.1301 8.45976 10.6701 9.16976 10.3301C10.9798 9.46008 12.9798 9.46008 14.7798 10.3301C15.4898 10.6701 16.1498 11.1301 16.7398 11.7101C17.0398 11.9901 17.0498 12.4701 16.7598 12.7601H16.7698Z" fill="#FF83AC"/>
</g>
</svg>
