<svg width="16" height="17" viewBox="0 0 16 17" fill="none" xmlns="http://www.w3.org/2000/svg">
<g id="Frame">
<g id="Group">
<path id="Vector" d="M14 12.5V14.5C14 14.7733 13.7733 15 13.5 15H2C1.44667 15 1 14.5467 1 14V3C1 2.44667 1.44667 2 2 2H12.5C12.7733 2 13 2.22 13 2.5V4C13 4.27333 13.22 4.5 13.5 4.5C13.7733 4.5 14 4.27333 14 4V2.5C14 1.66667 13.3267 1 12.5 1H2C0.893333 1 0 1.89333 0 3V14C0 15.1 0.893333 16 2 16H13.5C14.3267 16 15 15.3267 15 14.5V12.5C15 12.22 14.7733 12 14.5 12C14.22 12 14 12.22 14 12.5Z" fill="white"/>
<path id="Vector_2" d="M14.5 13C15.3267 13 16 12.3267 16 11.5V8.5C16 7.66667 15.3267 7 14.5 7H12C10.34 7 9 8.34 9 10C9 11.6533 10.34 13 12 13H14.5ZM14.5 12H12C10.8933 12 10 11.1 10 10C10 8.89333 10.8933 8 12 8H14.5C14.7733 8 15 8.22 15 8.5V11.5C15 11.7733 14.7733 12 14.5 12Z" fill="white"/>
<path id="Vector_3" d="M12 10.2461C11.86 10.2461 11.75 10.1328 11.75 9.99609C11.75 9.85609 11.8567 9.74609 12 9.74609C12.1333 9.74609 12.25 9.85276 12.25 9.99609C12.25 10.1294 12.1367 10.2461 12 10.2461C12.2733 10.2461 12.5 10.0194 12.5 9.74609C12.5 9.46609 12.2733 9.24609 12 9.24609C11.58 9.24609 11.25 9.57943 11.25 9.99609C11.25 10.4094 11.5833 10.7461 12 10.7461C12.4133 10.7461 12.75 10.4061 12.75 9.99609C12.75 9.57609 12.41 9.24609 12 9.24609C11.72 9.24609 11.5 9.46609 11.5 9.74609C11.5 10.0194 11.72 10.2461 12 10.2461Z" fill="white"/>
<path id="Vector_4" d="M15 7.50049V5.00049C15 4.16715 14.3267 3.50049 13.5 3.50049H3.75002C3.47002 3.50715 3.23002 3.38049 3.11002 3.15382C2.97002 2.90715 2.67002 2.82715 2.42335 2.96049C2.17668 3.09382 2.09668 3.39382 2.23002 3.64049C2.53668 4.18715 3.13002 4.52049 3.76335 4.48715H13.4834C13.7567 4.48715 13.9834 4.70715 13.9834 4.98715V7.48715C13.9834 7.76049 14.2034 7.98715 14.4834 7.98715C14.7567 7.98715 14.9834 7.76049 14.9834 7.48715L15 7.50049Z" fill="white"/>
</g>
</g>
</svg>
