<svg width="24" height="24" viewBox="0 0 24 24" fill="none" xmlns="http://www.w3.org/2000/svg">
<g id="Frame">
<path id="Vector" d="M17.7806 6.21926C17.4872 5.92582 17.0128 5.92582 16.7194 6.21832C16.7185 6.21832 16.7185 6.21832 16.7185 6.21832L13.9388 8.99895H10.0594L7.27971 6.21832C6.98627 5.92488 6.51096 5.92488 6.21846 6.21832C5.92502 6.51082 5.92502 6.98613 6.21846 7.27957L8.99908 10.0593V13.9386L6.21846 16.7183C5.92502 17.0108 5.92502 17.4861 6.21846 17.7796C6.51096 18.0721 6.98627 18.0721 7.27971 17.7796L10.0594 14.9989H13.9388L16.7185 17.7796C17.011 18.0721 17.4863 18.0721 17.7797 17.7796C18.0722 17.4861 18.0722 17.0108 17.7797 16.7183L14.9991 13.9386V10.0593L17.7797 7.27957C18.0722 6.98613 18.0722 6.51176 17.7797 6.21832C17.7788 6.21738 17.7788 6.21738 17.7788 6.21738L17.7806 6.21926ZM10.5 10.4999H13.5V13.4999H10.5V10.4999ZM12.9853 5.74957V5.74948C13.7447 3.60166 16.1025 2.47666 18.2503 3.23698C20.3972 3.99635 21.5222 6.35416 20.7619 8.50198C20.3456 9.67479 19.4231 10.5982 18.2494 11.0135C18.1688 11.0435 18.0844 11.0595 17.9991 11.0614C17.5847 11.0604 17.2491 10.7248 17.2491 10.3104C17.2491 9.9926 17.4488 9.70948 17.7478 9.60354C19.1138 9.11885 19.83 7.61885 19.3453 6.25291C18.8606 4.88604 17.3606 4.16979 15.9947 4.65448C15.2475 4.91791 14.6606 5.50573 14.3963 6.25198C14.2641 6.64385 13.8394 6.85666 13.4466 6.72448C13.0538 6.59229 12.841 6.1676 12.9731 5.77479C12.975 5.76635 12.9788 5.75791 12.9816 5.74948L12.9853 5.74957ZM21 16.8749C21.001 19.153 19.155 20.9999 16.8769 21.0018C15.1266 21.0018 13.5675 19.8993 12.9844 18.2493C12.8522 17.8564 13.0641 17.4308 13.4569 17.2996C13.8394 17.1711 14.2556 17.3689 14.3972 17.7477C14.881 19.1136 16.381 19.8299 17.7478 19.3452C19.1138 18.8605 19.83 17.3605 19.3453 15.9946C19.081 15.2474 18.4931 14.6605 17.7469 14.3961C17.3588 14.2508 17.1619 13.8186 17.3063 13.4305C17.4469 13.0518 17.8631 12.853 18.2466 12.9814H18.2465C19.8927 13.5655 20.9943 15.1227 20.9962 16.8711L21 16.8749ZM11.0147 18.2502C10.2544 20.3971 7.89658 21.5221 5.74971 20.7618C3.6019 20.0014 2.4769 17.6436 3.23721 15.4968C3.65252 14.323 4.57502 13.3996 5.74877 12.9843C6.14065 12.8521 6.56627 13.0639 6.69752 13.4568C6.82502 13.8393 6.62721 14.2555 6.24846 14.3971C4.88158 14.8808 4.16533 16.3808 4.65002 17.7477C5.13377 19.1136 6.63377 19.8299 8.00065 19.3452C8.7469 19.0808 9.33377 18.493 9.59815 17.7468C9.74252 17.3586 10.1747 17.1618 10.5628 17.3061C10.9406 17.4468 11.1394 17.863 11.011 18.2464L11.0147 18.2502ZM3.00002 7.12488C2.99815 4.84582 4.84408 2.99895 7.12221 2.99707C8.87158 2.99613 10.4306 4.09863 11.0138 5.74863C11.1581 6.13582 10.9613 6.56801 10.5731 6.71332C10.185 6.8577 9.75283 6.66082 9.60752 6.2727C9.60377 6.26426 9.60096 6.25582 9.59815 6.24738C9.11346 4.88051 7.61346 4.16426 6.24752 4.64895C4.88065 5.1327 4.1644 6.6327 4.64908 7.99957C4.91252 8.74582 5.50033 9.3327 6.24658 9.59707C6.6394 9.72738 6.85221 10.1521 6.72096 10.5449C6.6169 10.8561 6.32346 11.0633 5.99533 11.0577C5.91002 11.0577 5.82471 11.0427 5.74502 11.0146C4.09596 10.4286 2.9943 8.86863 2.99524 7.1202L3.00002 7.12488Z" fill="#718AFF"/>
</g>
</svg>
