<svg width="24" height="24" viewBox="0 0 24 24" fill="none" xmlns="http://www.w3.org/2000/svg">
<g id="Frame" clip-path="url(#clip0_1484_8031)">
<g id="Group">
<path id="Vector" d="M6.27073 13.21L9.87073 10.81C9.90073 10.78 9.93073 10.74 9.93073 10.69H9.92973C9.92973 10.64 9.89973 10.59 9.85973 10.57L6.59973 8.40004C6.20973 8.17004 5.72973 8.17004 5.34973 8.40004L2.08973 10.56C2.04973 10.58 2.01973 10.62 2.01973 10.67H2.01073C2.00073 10.71 2.03073 10.75 2.07073 10.78L5.67073 13.18C5.83073 13.29 6.05073 13.29 6.22073 13.18L6.27073 13.21Z" fill="#00C6FF"/>
<path id="Vector_2" d="M1.54247 11.6804C1.51247 11.6904 1.49247 11.7204 1.49247 11.7504V20.3624C1.51247 20.8224 1.74147 21.2524 2.10147 21.5424L5.37147 23.8224C5.74147 24.0524 6.22147 24.0524 6.60147 23.8224L9.87147 21.5324C10.2315 21.2424 10.4515 20.8124 10.4815 20.3524V11.7404L10.4805 11.7394C10.4705 11.6894 10.4405 11.6594 10.3905 11.6594C10.3705 11.6594 10.3505 11.6594 10.3405 11.6694L6.79047 14.0294C6.28047 14.3594 5.61947 14.3594 5.11947 14.0294L1.57047 11.6504C1.54047 11.6304 1.51047 11.6304 1.48047 11.6404L1.54247 11.6804Z" fill="#00C6FF"/>
<path id="Vector_3" d="M13.5425 3.43036C13.5125 3.44036 13.4925 3.47036 13.4925 3.50036V20.3624C13.5125 20.8224 13.7415 21.2524 14.1015 21.5424L17.3715 23.8224C17.7415 24.0524 18.2215 24.0524 18.6015 23.8214L21.8715 21.5314C22.2315 21.2414 22.4515 20.8114 22.4815 20.3514V3.48036C22.4715 3.43036 22.4415 3.40036 22.3915 3.40036C22.3715 3.40036 22.3515 3.40036 22.3415 3.41036L18.7915 5.77036C18.2815 6.10036 17.6215 6.10036 17.1215 5.76936L13.5705 3.40036C13.5405 3.38036 13.5095 3.38036 13.4795 3.39036L13.5425 3.43036Z" fill="#00C6FF"/>
<path id="Vector_4" d="M18.2772 4.96816L21.8772 2.56816V2.56716C21.9072 2.53716 21.9372 2.49716 21.9372 2.44716C21.9372 2.39716 21.9072 2.34716 21.8672 2.32716L18.6142 0.150164C18.2242 -0.0798357 17.7442 -0.0798357 17.3642 0.149164L14.1042 2.30916C14.0642 2.32916 14.0342 2.36916 14.0342 2.41916H14.0332C14.0232 2.45916 14.0532 2.49916 14.0932 2.52916L17.6932 4.92916C17.8532 5.03916 18.0732 5.04016 18.2432 4.93016L18.2772 4.96816Z" fill="#00C6FF"/>
</g>
</g>
<defs>
<clipPath id="clip0_1484_8031">
<rect width="24" height="24" fill="white"/>
</clipPath>
</defs>
</svg>
