<svg width="24" height="24" viewBox="0 0 24 24" fill="none" xmlns="http://www.w3.org/2000/svg">
<g id="Frame">
<path id="Vector" d="M21 11.25H19.5V9.75002H21C21.4134 9.75002 21.75 10.0856 21.75 10.5C21.75 10.9135 21.4134 11.25 21 11.25ZM2.99996 9.75002C2.58559 9.75002 2.24996 10.0856 2.24996 10.5C2.24996 10.9135 2.58559 11.25 2.99996 11.25H4.49996V9.75002H2.99996ZM19.5 15C19.5 15.2531 19.4868 15.5035 19.4625 15.75H21C21.4134 15.75 21.75 16.0856 21.75 16.5C21.75 16.9135 21.4134 17.25 21 17.25H19.155C17.9128 21.2016 13.7025 23.3981 9.7509 22.156C7.4109 21.42 5.57902 19.5881 4.84402 17.2491H2.99902C2.58465 17.2491 2.24902 16.9125 2.24902 16.4991C2.24902 16.0847 2.58465 15.7491 2.99902 15.7491H4.53652C4.51215 15.5025 4.49902 15.2522 4.49902 14.9991V14.2491H2.99902C2.58465 14.2491 2.24902 13.9125 2.24902 13.4991C2.24902 13.0847 2.58465 12.7491 2.99902 12.7491H4.49902V11.2491H19.499V12.7491H20.999C21.4125 12.7491 21.749 13.0847 21.749 13.4991C21.749 13.9125 21.4125 14.2491 20.999 14.2491H19.499L19.5 15ZM12.75 13.5C12.75 13.0856 12.4134 12.75 12 12.75C11.5856 12.75 11.25 13.0856 11.25 13.5V19.5C11.25 19.9135 11.5856 20.25 12 20.25C12.4134 20.25 12.75 19.9135 12.75 19.5V13.5ZM6.54746 5.35783C5.40934 6.55877 4.70246 8.10377 4.53746 9.75002H19.4625C19.2965 8.10377 18.5896 6.55868 17.4525 5.35774L19.2806 3.53055C19.5731 3.23711 19.5731 2.7618 19.2796 2.4693C18.9862 2.17586 18.5109 2.17586 18.2184 2.46921L16.3162 4.37233C13.7287 2.54139 10.2684 2.54139 7.68184 4.37224L5.77965 2.46911C5.48621 2.17568 5.0109 2.17568 4.7184 2.46902C4.42496 2.76152 4.42496 3.23683 4.7183 3.53027L6.54746 5.35783Z" fill="#98FF53"/>
</g>
</svg>
