<svg width="45" height="44" viewBox="0 0 45 44" fill="none" xmlns="http://www.w3.org/2000/svg">
<rect x="0.666504" width="44" height="44" rx="22" fill="#076D2E"/>
<g clip-path="url(#clip0_275_2068)">
<path d="M23.6265 16.2102L18.2665 21.5702C17.8265 22.0002 17.8265 22.7202 18.2665 23.1602C18.4765 23.3702 18.7565 23.4802 19.0565 23.4802H21.1565L20.4065 22.7302V27.2302C20.4065 27.8902 21.2065 28.2302 21.6865 27.7602L27.0465 22.4002C27.4765 21.9602 27.4765 21.2402 27.0365 20.8002C26.8165 20.5802 26.5365 20.4702 26.2365 20.4702L24.1265 20.4602L24.8765 21.2102V16.7102C24.8765 16.0402 24.0665 15.7002 23.5865 16.1702L23.6265 16.2102ZM24.6865 17.2702L23.3965 16.7302V21.2302C23.3965 21.6402 23.7265 21.9802 24.1465 21.9802H26.2465C26.1465 21.9702 26.0465 21.9402 25.9765 21.8702C25.8265 21.7202 25.8265 21.4802 25.9665 21.3302L20.6065 26.6802L21.8865 27.2102V22.7102C21.8865 22.2902 21.5465 21.9602 21.1365 21.9602H19.0365C19.1265 21.9602 19.2265 21.9902 19.2965 22.0602C19.4365 22.2002 19.4365 22.4402 19.2965 22.5902L24.6465 17.2302L24.6865 17.2702Z" fill="white"/>
<path d="M12.2565 23.4002C12.1865 22.9302 12.1565 22.4602 12.1565 21.9902C12.1565 16.1902 16.8565 11.4902 22.6565 11.4902C23.0665 11.4892 23.4065 11.1502 23.4065 10.7402C23.4065 10.3202 23.0665 9.99023 22.6565 9.99023C16.0265 9.99023 10.6565 15.3602 10.6565 21.9902C10.6565 22.5202 10.6865 23.0502 10.7565 23.5802C10.8065 23.9902 11.1865 24.2702 11.5965 24.2202C12.0065 24.1602 12.2865 23.7802 12.2365 23.3702L12.2565 23.4002Z" fill="white"/>
<path d="M34.5565 23.5905C34.6265 23.0605 34.6565 22.5205 34.6565 21.9905C34.6565 15.3605 29.2765 9.98047 22.6565 9.98047C22.6465 9.98047 22.6465 9.98047 22.6465 9.98047C22.2265 9.98047 21.8965 10.3105 21.8965 10.7305C21.8965 11.1405 22.2265 11.4705 22.6465 11.4705C22.6465 11.4605 22.6465 11.4605 22.6465 11.4605C28.4365 11.4605 33.1465 16.1605 33.1465 21.9605C33.1365 22.4205 33.1065 22.8905 33.0465 23.3605C32.9865 23.7705 33.2765 24.1405 33.6865 24.2005C34.0965 24.2505 34.4665 23.9605 34.5265 23.5505L34.5565 23.5905Z" fill="white"/>
<path d="M32.2864 26.1901C31.9464 26.9801 31.4964 27.7201 30.9664 28.4001C30.7064 28.7201 30.7664 29.1901 31.0864 29.4501C31.4064 29.7001 31.8764 29.6401 32.1364 29.3201C32.7464 28.5301 33.2464 27.6801 33.6364 26.7701C33.7964 26.3801 33.6164 25.9401 33.2364 25.7801C32.8464 25.6101 32.4064 25.7901 32.2464 26.1701L32.2864 26.1901Z" fill="white"/>
<path d="M28.9465 30.4C28.2565 30.92 27.5065 31.34 26.7165 31.67C26.3265 31.82 26.1465 32.26 26.2965 32.64C26.4465 33.02 26.8865 33.2 27.2665 33.05C28.1765 32.67 29.0465 32.18 29.8365 31.58C30.1565 31.32 30.2265 30.85 29.9765 30.52C29.7165 30.19 29.2465 30.12 28.9165 30.37L28.9465 30.4Z" fill="white"/>
<path d="M18.6264 31.6804C17.8264 31.3504 17.0764 30.9204 16.3964 30.4004C16.0664 30.1404 15.5864 30.2104 15.3364 30.5404C15.0764 30.8604 15.1464 31.3404 15.4764 31.5904C16.2564 32.1904 17.1264 32.6804 18.0464 33.0504C18.4264 33.2004 18.8664 33.0204 19.0164 32.6304C19.1664 32.2404 18.9864 31.8004 18.5964 31.6504L18.6264 31.6804Z" fill="white"/>
<path d="M14.3665 28.4006C13.8265 27.7206 13.3865 26.9706 13.0465 26.1806C12.8765 25.7906 12.4365 25.6206 12.0565 25.7806C11.6665 25.9406 11.4965 26.3806 11.6565 26.7606C12.0465 27.6706 12.5565 28.5206 13.1665 29.3006C13.4165 29.6206 13.8865 29.6806 14.2165 29.4206C14.5365 29.1606 14.5965 28.6906 14.3365 28.3606L14.3665 28.4006Z" fill="white"/>
<path d="M24.0665 32.4008C23.1265 32.5208 22.1865 32.5208 21.2565 32.4008C20.8365 32.3408 20.4665 32.6308 20.4065 33.0408C20.3465 33.4508 20.6365 33.8208 21.0465 33.8808C22.1065 34.0208 23.1765 34.0208 24.2365 33.8808C24.6465 33.8208 24.9265 33.4408 24.8765 33.0308C24.8165 32.6108 24.4365 32.3308 24.0265 32.3808L24.0665 32.4008Z" fill="white"/>
</g>
<defs>
<clipPath id="clip0_275_2068">
<rect width="24" height="24" fill="white" transform="translate(10.6665 10)"/>
</clipPath>
</defs>
</svg>
