<svg width="16" height="17" viewBox="0 0 16 17" fill="none" xmlns="http://www.w3.org/2000/svg">
<g id="Frame">
<g id="Group">
<path id="Vector" d="M14.0468 3.98648C11.7934 3.75982 9.54009 3.64648 7.31343 3.64648C5.97343 3.64648 4.63343 3.71315 3.30009 3.84648L1.94009 3.97315C1.66009 3.99982 1.46009 4.23982 1.48676 4.51315C1.51343 4.78648 1.75343 4.98648 2.02676 4.95982L3.38676 4.82648C4.68676 4.69315 5.99343 4.62648 7.29343 4.62648C9.48676 4.62648 11.7001 4.73315 13.9201 4.95315C14.1934 4.97982 14.4334 4.77315 14.4668 4.49982C14.4934 4.21982 14.2868 3.97982 14.0134 3.94648L14.0468 3.98648Z" fill="white"/>
<path id="Vector_2" d="M6.15367 3.89348L6.30034 3.02014C6.40701 2.36681 6.44034 2.32681 7.12034 2.32681H8.86701C9.53367 2.32681 9.58034 2.37348 9.68034 3.02014L9.82701 3.88681C9.86701 4.15348 10.127 4.34014 10.4003 4.29348C10.667 4.24681 10.8537 3.98681 10.807 3.71348L10.6603 2.84681C10.4803 1.76681 10.087 1.31348 8.85367 1.31348H7.10701C5.86701 1.31348 5.48034 1.74681 5.30034 2.83348L5.14701 3.70681C5.10034 3.97348 5.28034 4.23348 5.55367 4.28014C5.82034 4.32014 6.08034 4.14014 6.12701 3.86681L6.15367 3.89348Z" fill="white"/>
<path id="Vector_3" d="M12.067 6.56057L11.6337 13.2672C11.547 14.4806 11.407 14.6539 10.1337 14.6539H5.8537C4.58036 14.6539 4.44036 14.4739 4.3537 13.2539L3.92036 6.54057C3.90036 6.26057 3.66036 6.0539 3.38703 6.06724C3.10703 6.08057 2.90036 6.32057 2.9137 6.5939L3.34703 13.3006C3.46036 14.9872 3.9537 15.6272 5.8337 15.6272H10.107C11.987 15.6272 12.4804 14.9872 12.5937 13.3006L13.027 6.58057C13.0404 6.30057 12.8337 6.06057 12.5537 6.04724C12.2737 6.02724 12.0337 6.2339 12.0204 6.5139L12.067 6.56057Z" fill="white"/>
<path id="Vector_4" d="M6.88672 12H9.10672C9.38005 12 9.60672 11.7733 9.60672 11.5C9.60672 11.22 9.38005 11 9.10672 11H6.88672C6.60672 11 6.38672 11.22 6.38672 11.5C6.38672 11.7733 6.60672 12 6.88672 12Z" fill="white"/>
<path id="Vector_5" d="M6.33301 9.33301H9.66634C9.93967 9.33301 10.1663 9.10634 10.1663 8.83301C10.1663 8.55301 9.93967 8.33301 9.66634 8.33301H6.33301C6.05301 8.33301 5.83301 8.55301 5.83301 8.83301C5.83301 9.10634 6.05301 9.33301 6.33301 9.33301Z" fill="white"/>
</g>
</g>
</svg>
