<svg width="20" height="20" viewBox="0 0 20 20" fill="none" xmlns="http://www.w3.org/2000/svg">
<g id="Frame">
<g id="Group">
<path id="Vector" d="M18.9583 13.9416V3.88327C18.9583 2.5166 17.825 1.48327 16.4667 1.59994V1.5916C14.5583 1.74994 11.8083 2.67494 10.2417 3.65827L10.0917 3.74994C10.0583 3.7666 9.91666 3.7666 9.875 3.7416L9.65833 3.60827C8.09166 2.62494 5.34166 1.7166 3.5 1.5666C2.14166 1.44994 1.01666 2.48327 1.01666 3.8416V13.8999C1.01666 15.0166 1.9 16.0249 3.00833 16.1666L3.24166 16.1916C4.96666 16.4166 7.69166 17.3083 9.225 18.1499L9.275 18.1749C9.65833 18.3916 10.25 18.3916 10.6667 18.1499C12.1833 17.3083 14.9167 16.4083 16.65 16.1749L16.9167 16.1416C18.025 15.9999 18.9083 14.9833 18.9083 13.8666L18.9583 13.9416ZM17.7083 13.9416C17.7083 14.4249 17.2833 14.9083 16.8 14.9666L16.525 14.9916C14.625 15.2416 11.75 16.1916 10.075 17.1083C10.0333 17.1249 9.90833 17.1249 9.875 17.1083L9.81666 17.0749C8.16666 16.1666 5.3 15.2249 3.41666 14.9749L3.175 14.9416C2.68333 14.8749 2.25833 14.3999 2.25833 13.9083V3.8416C2.25833 3.20827 2.75 2.74994 3.375 2.79994C5.01666 2.92494 7.575 3.77494 8.975 4.64994L9.19166 4.77494C9.625 5.0416 10.275 5.0416 10.725 4.7666L10.875 4.6666C12.2667 3.78327 14.825 2.92494 16.475 2.78327H16.4667C17.1417 2.72494 17.65 3.18327 17.65 3.8166V13.8666L17.7083 13.9416Z" fill="white"/>
<path id="Vector_2" d="M9.375 4.56693V17.0669C9.375 17.4086 9.65 17.6919 10 17.6919C10.3417 17.6919 10.625 17.4086 10.625 17.0669V4.55859C10.625 4.20859 10.3417 3.93359 10 3.93359C9.65 3.93359 9.375 4.20859 9.375 4.55859V4.56693Z" fill="white"/>
<path id="Vector_3" d="M6.45831 6.44141H4.58331C4.23331 6.44141 3.95831 6.71641 3.95831 7.06641C3.95831 7.40807 4.23331 7.69141 4.58331 7.69141H6.45831C6.79998 7.69141 7.08331 7.40807 7.08331 7.06641C7.08331 6.71641 6.79998 6.44141 6.45831 6.44141Z" fill="white"/>
<path id="Vector_4" d="M7.08331 8.9502H4.58331C4.23331 8.9502 3.95831 9.2252 3.95831 9.5752C3.95831 9.91686 4.23331 10.2002 4.58331 10.2002H7.08331C7.42498 10.2002 7.70831 9.91686 7.70831 9.5752C7.70831 9.2252 7.42498 8.9502 7.08331 8.9502Z" fill="white"/>
</g>
</g>
</svg>
