<svg width="64" height="64" viewBox="0 0 64 64" fill="none" xmlns="http://www.w3.org/2000/svg">
<g clip-path="url(#clip0_4571_15409)">
<path d="M25.0007 35.9997C25.0007 35.4693 25.2114 34.9606 25.5864 34.5855C25.9615 34.2104 26.4702 33.9997 27.0007 33.9997H37.0006C37.5311 33.9997 38.0398 34.2104 38.4149 34.5855C38.7899 34.9606 39.0006 35.4693 39.0006 35.9997V36.6664C39.0006 37.02 39.1411 37.3591 39.3912 37.6092C39.6412 37.8592 39.9804 37.9997 40.334 37.9997H61.334C61.6876 37.9997 62.0267 37.8592 62.2768 37.6092C62.5268 37.3591 62.6673 37.02 62.6673 36.6664V26.6664C62.6673 25.9591 62.3864 25.2809 61.8863 24.7808C61.3862 24.2807 60.7079 23.9997 60.0006 23.9997H45.2673C44.9372 20.7106 43.397 17.6613 40.9455 15.4437C38.4941 13.226 35.3063 11.998 32.0006 11.998C28.695 11.998 25.5072 13.226 23.0558 15.4437C20.6043 17.6613 19.0641 20.7106 18.734 23.9997H4.00065C3.29341 23.9997 2.61513 24.2807 2.11503 24.7808C1.61494 25.2809 1.33398 25.9591 1.33398 26.6664V36.6664C1.33398 37.02 1.47446 37.3591 1.72451 37.6092C1.97456 37.8592 2.3137 37.9997 2.66732 37.9997H23.6673C24.0209 37.9997 24.3601 37.8592 24.6101 37.6092C24.8602 37.3591 25.0007 37.02 25.0007 36.6664V35.9997ZM32.0006 17.333C33.8912 17.3331 35.7206 18.0026 37.1646 19.223C38.6085 20.4433 39.5736 22.1356 39.8886 23.9997H24.1126C24.4277 22.1356 25.3928 20.4433 26.8367 19.223C28.2807 18.0026 30.1101 17.3331 32.0006 17.333Z" fill="#FFD4C6"/>
<path d="M39.0006 44.336C38.9994 45.3736 38.7679 46.398 38.3229 47.3352C37.8778 48.2725 37.2302 49.0993 36.4269 49.7559C35.6235 50.4126 34.6845 50.8827 33.6774 51.1324C32.6703 51.3822 31.6204 51.4053 30.6033 51.2C28.9921 50.8331 27.5562 49.9231 26.5366 48.6227C25.5169 47.3224 24.9755 45.7109 25.0033 44.0587V43.336C25.0033 42.9824 24.8628 42.6433 24.6128 42.3932C24.3627 42.1432 24.0236 42.0027 23.67 42.0027H2.66732C2.3137 42.0027 1.97456 42.1432 1.72451 42.3932C1.47446 42.6433 1.33398 42.9824 1.33398 43.336V61.3334C1.33398 62.0406 1.61494 62.7189 2.11503 63.219C2.61513 63.7191 3.29341 64 4.00065 64H60.0006C60.7079 64 61.3862 63.7191 61.8863 63.219C62.3864 62.7189 62.6673 62.0406 62.6673 61.3334V43.3334C62.6673 42.9798 62.5268 42.6406 62.2768 42.3906C62.0267 42.1405 61.6876 42 61.334 42H40.454C40.2691 41.9833 40.0827 42.0054 39.9068 42.0649C39.7309 42.1244 39.5694 42.2199 39.4326 42.3455C39.2958 42.471 39.1867 42.6237 39.1123 42.7938C39.0379 42.9639 38.9999 43.1477 39.0006 43.3334V44.336Z" fill="#FFD4C6"/>
<path d="M33.6667 38.0024H30.3333C29.9797 38.0024 29.6406 38.1429 29.3905 38.393C29.1405 38.643 29 38.9822 29 39.3358V44.3358C29 45.1314 29.3161 45.8945 29.8787 46.4571C30.4413 47.0197 31.2044 47.3358 32 47.3358C32.7956 47.3358 33.5587 47.0197 34.1213 46.4571C34.6839 45.8945 35 45.1314 35 44.3358V39.3358C35 38.9822 34.8595 38.643 34.6095 38.393C34.3594 38.1429 34.0203 38.0024 33.6667 38.0024Z" fill="#FFD4C6"/>
</g>
<defs>
<clipPath id="clip0_4571_15409">
<rect width="64" height="64" fill="white"/>
</clipPath>
</defs>
</svg>
