<svg width="24" height="24" viewBox="0 0 24 24" fill="none" xmlns="http://www.w3.org/2000/svg">
<g id="Frame" clip-path="url(#clip0_1484_8052)">
<path id="Vector" d="M21.5 0H2.5C1.11 0 0 1.11 0 2.5V21.5C0 22.88 1.11 24 2.5 24H21.5C22.88 24 24 22.88 24 21.5V2.5C24 1.11 22.88 0 21.5 0ZM18.5 9.5H14C13.44 9.5 13 9.05 13 8.5C13 7.94 13.44 7.5 14 7.5H18.5C19.05 7.5 19.5 7.94 19.5 8.5C19.5 9.05 19.05 9.5 18.5 9.5ZM19.5 17.5C19.5 18.05 19.05 18.5 18.5 18.5H14C13.44 18.5 13 18.05 13 17.5C13 16.94 13.44 16.5 14 16.5H18.5C19.05 16.5 19.5 16.94 19.5 17.5ZM11.3 5.6L8.3 9.6C8.12 9.83 7.86 9.97 7.57 10H7.49C7.22 9.99 6.97 9.89 6.78 9.7L5.28 8.2C4.88 7.8 4.88 7.17 5.27 6.78C5.66 6.38 6.29 6.38 6.68 6.77L7.36 7.45L9.668 4.37C9.998 3.92 10.618 3.83 11.068 4.17C11.508 4.5 11.598 5.12 11.268 5.57L11.3 5.6ZM11.3 15.6L8.3 19.6C7.95 20.04 7.31 20.12 6.87 19.77C6.84 19.74 6.81 19.72 6.79 19.7L5.29 18.2C4.9 17.8 4.91 17.16 5.31 16.78C5.69 16.4 6.31 16.4 6.69 16.78L7.37 17.46L9.67 14.38C10 13.93 10.62 13.84 11.07 14.18C11.51 14.51 11.6 15.13 11.27 15.58L11.3 15.6Z" fill="#4EFF33"/>
</g>
<defs>
<clipPath id="clip0_1484_8052">
<rect width="24" height="24" fill="white"/>
</clipPath>
</defs>
</svg>
