<svg width="16" height="17" viewBox="0 0 16 17" fill="none" xmlns="http://www.w3.org/2000/svg">
<g id="Frame">
<g id="Group">
<path id="Vector" d="M8.65947 8.33316C8.5328 8.33316 8.40613 8.2865 8.30613 8.1865C8.1128 7.99316 8.1128 7.67316 8.30613 7.47983L13.7728 2.01316C13.9661 1.81983 14.2861 1.81983 14.4795 2.01316C14.6728 2.2065 14.6728 2.5265 14.4795 2.71983L9.0128 8.17983C8.9128 8.27983 8.78613 8.3265 8.65947 8.3265V8.33316Z" fill="white"/>
<path id="Vector_2" d="M14.66 5.53301C14.3866 5.53301 14.16 5.30634 14.16 5.03301V2.33301H11.46C11.1866 2.33301 10.96 2.10634 10.96 1.83301C10.96 1.55967 11.1866 1.33301 11.46 1.33301H14.66C14.9333 1.33301 15.16 1.55967 15.16 1.83301V5.03301C15.16 5.30634 14.9333 5.53301 14.66 5.53301Z" fill="white"/>
<path id="Vector_3" d="M9.99967 15.6663H5.99967C2.37967 15.6663 0.833008 14.1197 0.833008 10.4997V6.49967C0.833008 2.87967 2.37967 1.33301 5.99967 1.33301H7.33301C7.60634 1.33301 7.83301 1.55967 7.83301 1.83301C7.83301 2.10634 7.60634 2.33301 7.33301 2.33301H5.99967C2.92634 2.33301 1.83301 3.42634 1.83301 6.49967V10.4997C1.83301 13.573 2.92634 14.6663 5.99967 14.6663H9.99967C13.073 14.6663 14.1663 13.573 14.1663 10.4997V9.16634C14.1663 8.89301 14.393 8.66634 14.6663 8.66634C14.9397 8.66634 15.1663 8.89301 15.1663 9.16634V10.4997C15.1663 14.1197 13.6197 15.6663 9.99967 15.6663Z" fill="white"/>
</g>
</g>
</svg>
