<svg width="24" height="24" viewBox="0 0 24 24" fill="none" xmlns="http://www.w3.org/2000/svg">
<g id="Frame" clip-path="url(#clip0_1772_18787)">
<g id="Group">
<path id="Vector" d="M11.9102 7.12023L13.3102 10.0702C13.4302 10.3302 13.6902 10.4902 13.9802 10.4902H16.3502C16.3002 10.4902 16.2602 10.4402 16.2602 10.3902C16.2502 10.3602 16.2702 10.3302 16.2802 10.3102L14.1202 12.2202C13.8702 12.4302 13.8002 12.7802 13.9302 13.0702L15.1302 15.8402C15.1002 15.7802 15.1202 15.7202 15.1702 15.7102C15.1902 15.6902 15.2202 15.7002 15.2502 15.7102L12.3102 14.0602C12.0802 13.9302 11.8002 13.9302 11.5702 14.0602L8.64715 15.7002C8.67715 15.6802 8.73715 15.6902 8.75715 15.7302C8.76715 15.7502 8.76715 15.7802 8.75715 15.8102L9.95715 13.0402C10.0772 12.7402 10.0072 12.3902 9.76715 12.1802L7.58415 10.2302C7.64415 10.2902 7.64415 10.3502 7.60415 10.3902C7.58415 10.4002 7.55415 10.4102 7.52415 10.4102H9.91415C10.1942 10.4102 10.4642 10.2402 10.5842 9.98023L11.9842 7.03024C11.9442 7.09024 11.8942 7.11023 11.8542 7.08023C11.8342 7.07023 11.8242 7.05023 11.8142 7.04023L11.9102 7.12023ZM13.2502 6.45023C13.1102 6.18023 12.9002 5.97024 12.6402 5.84024C11.9402 5.48024 11.0902 5.75024 10.7302 6.44024L9.31015 9.41023L9.98015 8.98023H7.60015C7.23015 8.97023 6.86015 9.12024 6.59015 9.39024C6.04015 9.94024 6.05015 10.8202 6.60015 11.3702L8.81015 13.3402L8.62015 12.4802L7.41015 15.2502C7.23015 15.6602 7.26015 16.1302 7.48015 16.5102C7.87015 17.1802 8.73015 17.4002 9.40015 17.0102L12.3102 15.3702H11.5702L14.4902 17.0102C14.8602 17.2202 15.3202 17.2502 15.7302 17.0802C16.4402 16.7702 16.7802 15.9502 16.4802 15.2302L15.2602 12.4402L15.0702 13.2902L17.2502 11.3402C17.5502 11.0402 17.7002 10.6702 17.6902 10.2902C17.6702 9.51024 17.0302 8.90023 16.2602 8.91023L13.8902 8.90023L14.5602 9.32023L13.1602 6.37023L13.2502 6.45023Z" fill="#FFF695"/>
<path id="Vector_2" d="M12 1.50028L13.87 3.66128C14.23 4.08128 14.8 4.26128 15.35 4.14128L18.14 3.49128C18.14 3.48128 18.15 3.49128 18.15 3.50128L18.4 6.35128C18.44 6.90128 18.8 7.39128 19.31 7.61128L21.94 8.72128C21.94 8.72128 21.95 8.73128 21.94 8.73128C21.93 8.73128 21.93 8.73128 21.93 8.73128L20.45 11.1813C20.16 11.6513 20.16 12.2513 20.44 12.7313L21.91 15.1813C21.91 15.1813 21.91 15.1913 21.9 15.2013C21.89 15.2013 21.89 15.2013 21.89 15.2013L19.25 16.3113C18.73 16.5213 18.38 17.0113 18.33 17.5713L18.08 20.4213C18.07 20.4213 18.07 20.4313 18.06 20.4313C18.05 20.4213 18.05 20.4213 18.05 20.4213L15.26 19.7713C14.71 19.6413 14.14 19.8213 13.77 20.2513L11.89 22.4113C11.88 22.4113 11.87 22.4113 11.87 22.4013C11.86 22.3913 11.86 22.3913 11.86 22.3913L9.98001 20.2213C9.61001 19.7913 9.04001 19.6113 8.49001 19.7313L5.69001 20.3713C5.68001 20.3713 5.67001 20.3613 5.67001 20.3513C5.66001 20.3413 5.66001 20.3413 5.66001 20.3413L5.40001 17.4813C5.35001 16.9213 4.99001 16.4313 4.48001 16.2113L1.84001 15.0813C1.83001 15.0713 1.82001 15.0613 1.83001 15.0613C1.83001 15.0513 1.83001 15.0513 1.83001 15.0513L3.30001 12.5913C3.58001 12.1113 3.58001 11.5013 3.29001 11.0213L1.81001 8.57028C1.80001 8.56028 1.80001 8.55028 1.81001 8.54028C1.81001 8.53028 1.81001 8.53028 1.81001 8.53028L4.44001 7.41028C4.95001 7.19028 5.31001 6.70028 5.35001 6.14028L5.59001 3.29028C5.59001 3.28028 5.59001 3.27028 5.60001 3.27028L8.38001 3.91028C8.92001 4.03028 9.49001 3.85028 9.86001 3.42028L11.73 1.25028C11.73 1.24028 11.74 1.24028 11.74 1.24028L12 1.50028ZM13.13 0.510284C13.08 0.450284 13.03 0.400284 12.98 0.350284C12.35 -0.199716 11.39 -0.139716 10.84 0.490284L8.96001 2.65028C8.95001 2.65028 8.95001 2.65028 8.94001 2.65028L6.15001 2.00028C6.08001 1.98028 6.01001 1.97028 5.94001 1.96028C5.10001 1.88028 4.37001 2.50028 4.29001 3.33028L4.04001 6.18028C4.03001 6.18028 4.03001 6.19028 4.03001 6.19028L1.39001 7.30028C1.32001 7.32028 1.25001 7.36028 1.19001 7.40028C0.470008 7.83028 0.240008 8.76028 0.680008 9.47028L2.15001 11.9103C2.15001 11.9103 2.15001 11.9103 2.15001 11.9203L0.670008 14.3703C0.630008 14.4303 0.590008 14.4903 0.560008 14.5603C0.230008 15.3303 0.590008 16.2103 1.36001 16.5403L3.99001 17.6503L4.24001 20.5003C4.24001 20.5603 4.25001 20.6303 4.27001 20.7003C4.45001 21.5103 5.26001 22.0203 6.08001 21.8303L8.87001 21.1803C8.87001 21.1703 8.87001 21.1803 8.88001 21.1803L10.75 23.3403C10.79 23.3903 10.84 23.4403 10.89 23.4803C11.51 24.0303 12.47 23.9603 13.02 23.3303L14.89 21.1603C14.89 21.1503 14.89 21.1503 14.9 21.1503L17.68 21.7903C17.74 21.8003 17.81 21.8103 17.88 21.8203C18.71 21.8903 19.44 21.2703 19.52 20.4403L19.76 17.5803C19.76 17.5703 19.76 17.5703 19.76 17.5603L22.39 16.4403C22.45 16.4103 22.52 16.3703 22.58 16.3303C23.29 15.8903 23.52 14.9603 23.08 14.2503L21.6 11.7903C21.59 11.7803 21.59 11.7803 21.6 11.7703L23.07 9.31028C23.1 9.24028 23.14 9.18028 23.17 9.11028C23.49 8.33028 23.13 7.45028 22.36 7.12028L19.72 6.00028C19.71 5.99028 19.71 5.99028 19.71 5.99028L19.45 3.13028C19.44 3.06028 19.43 2.99028 19.41 2.92028C19.22 2.10028 18.41 1.59028 17.59 1.78028L14.79 2.42028C14.78 2.42028 14.78 2.41028 14.77 2.41028L12.89 0.240284L13.13 0.510284Z" fill="#FFF695"/>
</g>
</g>
<defs>
<clipPath id="clip0_1772_18787">
<rect width="24" height="24" fill="white"/>
</clipPath>
</defs>
</svg>
