<svg width="24" height="24" viewBox="0 0 24 24" fill="none" xmlns="http://www.w3.org/2000/svg">
<g id="Frame">
<g id="Group">
<path id="Vector" d="M6.52523 10.1352L9.63523 9.95516L10.8252 12.9752C11.0152 13.4752 11.5252 13.8052 12.0752 13.7752C12.6252 13.7452 13.1052 13.3652 13.2552 12.8252L14.2552 9.24816L17.8252 8.24816C18.3552 8.09816 18.7452 7.61816 18.7652 7.06816C18.7952 6.51816 18.4742 6.00816 17.9642 5.80816L14.9342 4.61816L15.1142 1.47816C15.1242 0.958162 14.8242 0.488162 14.3442 0.288162L14.3432 0.280162C13.8632 0.0801623 13.3232 0.190162 12.9732 0.560162L11.0832 2.44016L7.77323 1.12016L7.74323 1.10016C7.05323 0.880162 6.33323 1.25016 6.11323 1.93016C6.02323 2.19016 6.02323 2.48016 6.12323 2.75016L7.43323 6.05016L5.54323 7.93016C5.17323 8.28016 5.05323 8.82016 5.25323 9.29016C5.45323 9.76016 5.93323 10.0602 6.45323 10.0502L6.52523 10.1352Z" fill="white"/>
<path id="Vector_2" d="M7.28027 19.7842C6.45027 19.7842 5.78027 20.4542 5.78027 21.2842V23.2842C5.78027 23.5542 6.00027 23.7842 6.28027 23.7842H18.2803C18.5503 23.7842 18.7803 23.5542 18.7803 23.2842V21.2842C18.7803 20.4542 18.1003 19.7842 17.2803 19.7842H7.28027Z" fill="white"/>
<path id="Vector_3" d="M16.2844 18.284C16.5544 18.284 16.7844 18.054 16.7844 17.784V16.284C16.7544 15.474 16.2144 14.774 15.4344 14.554L12.4044 13.794C12.3244 13.764 12.2344 13.764 12.1544 13.794L9.12541 14.544C8.34541 14.754 7.79541 15.454 7.77541 16.264V17.764C7.77541 18.034 7.99441 18.264 8.27441 18.264L16.2844 18.284Z" fill="white"/>
</g>
</g>
</svg>
