<svg width="16" height="17" viewBox="0 0 16 17" fill="none" xmlns="http://www.w3.org/2000/svg">
<g id="Frame" opacity="0.5">
<g id="Group">
<path id="Vector" d="M6.10671 8.69165C6.08671 8.69165 6.07337 8.69165 6.05337 8.69165C6.02004 8.68499 5.97337 8.68499 5.93337 8.69165C4.00004 8.63165 2.54004 7.11165 2.54004 5.23832C2.54004 3.33165 4.09337 1.77832 6.00004 1.77832C7.90004 1.77832 9.45337 3.33165 9.45337 5.23832C9.44671 7.11165 7.98004 8.63165 6.12004 8.69165C6.11337 8.69165 6.10671 8.69165 6.10004 8.69165H6.10671ZM6.00004 2.77832C4.64671 2.77832 3.54004 3.88499 3.54004 5.23832C3.54004 6.57165 4.58004 7.64499 5.90671 7.69165C5.94671 7.68499 6.03337 7.68499 6.12004 7.69165C7.42004 7.63165 8.44671 6.55832 8.45337 5.23832C8.45337 3.88499 7.34671 2.77832 5.99337 2.77832H6.00004Z" fill="white"/>
<path id="Vector_2" d="M11.0266 8.77799C11.0066 8.77799 10.9866 8.77799 10.9666 8.77133C10.6932 8.79799 10.4132 8.60466 10.3866 8.33133C10.3599 8.05799 10.5266 7.81133 10.7999 7.77799C10.8799 7.77133 10.9666 7.77133 11.0399 7.77133C12.0132 7.71799 12.7732 6.91799 12.7732 5.93799C12.7732 4.92466 11.9532 4.10466 10.9399 4.10466C10.6666 4.11133 10.4399 3.88466 10.4399 3.61133C10.4399 3.33799 10.6666 3.11133 10.9399 3.11133C12.4999 3.11133 13.7732 4.38466 13.7732 5.94466C13.7732 7.47799 12.5732 8.71799 11.0466 8.77799C11.0399 8.77799 11.0332 8.77799 11.0266 8.77799Z" fill="white"/>
<path id="Vector_3" d="M6.10721 15.978C4.80055 15.978 3.48721 15.6447 2.49388 14.978C1.56721 14.3647 1.06055 13.5247 1.06055 12.6113C1.06055 11.698 1.56721 10.8513 2.49388 10.2313C4.49388 8.90466 7.72721 8.90466 9.71388 10.2313C10.6339 10.8447 11.1472 11.6847 11.1472 12.598C11.1472 13.5113 10.6405 14.358 9.71388 14.978C8.71388 15.6447 7.40721 15.978 6.10055 15.978H6.10721ZM3.04721 11.0713C2.40721 11.498 2.06055 12.0447 2.06055 12.618C2.06055 13.1847 2.41388 13.7313 3.04721 14.1513C4.70721 15.2647 7.50055 15.2647 9.16055 14.1513C9.80055 13.7247 10.1472 13.178 10.1472 12.6047C10.1472 12.038 9.79388 11.4913 9.16055 11.0713C7.50055 9.96466 4.70055 9.96466 3.04055 11.0713H3.04721Z" fill="white"/>
<path id="Vector_4" d="M12.2278 14.7787C11.9944 14.7787 11.7878 14.6187 11.7411 14.3787C11.6878 14.1053 11.8611 13.8453 12.1278 13.7853C12.5478 13.6987 12.9344 13.532 13.2344 13.2987C13.6144 13.012 13.8211 12.652 13.8211 12.272C13.8211 11.892 13.6144 11.532 13.2411 11.252C12.9478 11.0253 12.5811 10.8653 12.1478 10.7653C11.8811 10.7053 11.7078 10.4387 11.7678 10.1653C11.8278 9.89866 12.0944 9.72533 12.3678 9.78533C12.9411 9.91199 13.4411 10.1387 13.8478 10.452C14.4678 10.9187 14.8211 11.5787 14.8211 12.272C14.8211 12.9653 14.4611 13.6253 13.8411 14.0987C13.4278 14.4187 12.9078 14.652 12.3344 14.7653C12.2944 14.7787 12.2611 14.7787 12.2278 14.7787Z" fill="white"/>
</g>
</g>
</svg>
