<svg width="25" height="24" viewBox="0 0 25 24" fill="none" xmlns="http://www.w3.org/2000/svg">
<g clip-path="url(#clip0_4571_14250)">
<mask id="mask0_4571_14250" style="mask-type:luminance" maskUnits="userSpaceOnUse" x="1" y="-1" width="24" height="25">
<path d="M24.5577 -0.000976562H1.06055V23.4962H24.5577V-0.000976562Z" fill="white"/>
</mask>
<g mask="url(#mask0_4571_14250)">
<path d="M21.3645 14.0396C20.9544 14.299 20.4716 14.3313 20.1056 14.1247C19.6395 13.8604 19.3829 13.2455 19.3829 12.3879V9.82475C19.3829 8.58723 18.8935 7.70608 18.0749 7.46817C16.6887 7.06383 15.645 8.76052 15.2533 9.39886L12.8077 13.364V8.51772C12.7803 7.4016 12.418 6.73487 11.7307 6.53319C11.2745 6.40102 10.5941 6.45389 9.93223 7.46622L4.4525 16.2649C3.71986 14.8719 3.33746 13.3215 3.33834 11.7476C3.33834 6.44703 7.58643 2.13531 12.8077 2.13531C18.028 2.13531 22.2751 6.44703 22.2751 11.7476C22.2791 11.7652 22.277 11.7809 22.278 11.7995C22.3269 12.8265 21.9941 13.643 21.3645 14.0415V14.0396ZM24.3801 11.7486L24.3791 11.6948C24.3497 5.23987 19.1705 -0.000976562 12.8067 -0.000976562C6.42626 -0.000976562 1.23438 5.26924 1.23438 11.7476C1.23438 18.2249 6.42626 23.4961 12.8067 23.4961C15.7351 23.4961 18.5303 22.383 20.6753 20.3632C21.1012 19.9619 21.1257 19.2863 20.7312 18.8545C20.638 18.7518 20.5255 18.6687 20.3999 18.6101C20.2743 18.5515 20.1381 18.5185 19.9996 18.5132C19.8612 18.5077 19.7231 18.5301 19.5932 18.5788C19.4635 18.6275 19.3448 18.7015 19.244 18.7967C17.5053 20.4429 15.202 21.3601 12.8077 21.3599C10.0115 21.3599 7.49637 20.1233 5.76149 18.1604L10.7037 10.2252V13.8839C10.7037 15.6403 11.3851 16.2081 11.9569 16.3745C12.5287 16.5411 13.402 16.4275 14.3194 14.9373C15.2964 13.3572 16.3019 11.7094 17.2791 10.1596V12.3879C17.2791 14.0308 17.9369 15.3446 19.0834 15.9908C20.1172 16.5752 21.4175 16.5224 22.4757 15.8537C23.7603 15.0431 24.4525 13.5491 24.3801 11.7486Z" fill="white"/>
</g>
</g>
<defs>
<clipPath id="clip0_4571_14250">
<rect width="24" height="24" fill="white" transform="translate(0.568359)"/>
</clipPath>
</defs>
</svg>
