<svg width="22" height="24" viewBox="0 0 22 24" fill="none" xmlns="http://www.w3.org/2000/svg">
<g clip-path="url(#clip0_4571_14278)">
<path fill-rule="evenodd" clip-rule="evenodd" d="M8.22713 1.36975C6.79012 2.1137 5.61444 2.74323 5.61469 2.76883C5.61533 2.83492 9.06357 4.57046 9.18596 4.56623C9.24163 4.56438 9.64551 4.37961 10.0834 4.1557L10.8797 3.74865L11.7494 4.19291L12.619 4.63727L14.0432 4.00127C16.1892 3.04291 16.4121 2.93789 16.3771 2.90261C16.3308 2.85579 15.5611 2.44485 13.4728 1.35222C12.4635 0.824137 11.484 0.306372 11.2959 0.201602C11.1079 0.0968323 10.9284 0.012552 10.897 0.0141834C10.8657 0.0158149 9.66418 0.625824 8.22713 1.36975ZM1.9244 4.61338L0.42848 5.3813V8.75157C0.42848 10.6052 0.448123 12.1218 0.472217 12.1218C0.496228 12.1218 1.23222 11.8047 2.10772 11.4172L3.69954 10.7126V7.16012L4.47741 7.5813C5.07682 7.90556 5.6766 8.22916 6.27673 8.5521L7.29816 9.10172L7.75267 8.89746C8.03772 8.76915 8.3222 8.6396 8.6061 8.50879C8.82549 8.40726 9.36402 8.1662 9.80282 7.973C10.2416 7.77972 10.6478 7.58536 10.7054 7.54106C10.7819 7.48222 9.84895 6.96985 7.25467 5.64586C5.29915 4.64786 3.63644 3.83447 3.55976 3.83837C3.48308 3.84227 2.74717 4.19098 1.9244 4.61338ZM16.6467 4.82903C15.6279 5.28613 14.7936 5.67838 14.7927 5.70075C14.7918 5.72309 15.3471 6.05123 16.0267 6.42983C16.7063 6.80851 17.2624 7.13858 17.2624 7.16343C17.2624 7.18824 16.661 7.47783 15.9261 7.8071C15.191 8.13628 13.3332 8.97012 11.7974 9.6601L6.65145 11.9718C5.357 12.5533 4.19019 13.0775 4.05857 13.1368C1.41457 14.3263 0.687843 14.6564 0.588043 14.713C0.487687 14.7701 0.464956 15.1015 0.447093 16.7647L0.425781 18.7485L1.7635 19.4259L3.10119 20.1033L4.9561 19.2713C5.97633 18.8138 6.81101 18.4155 6.81101 18.3861C6.81101 18.3569 6.62248 18.2348 6.39217 18.1147C6.16174 17.9947 5.68608 17.7289 5.33504 17.524C4.98403 17.3191 4.63402 17.1311 4.55718 17.1061C4.48036 17.0813 4.41862 17.0378 4.41987 17.0094C4.42115 16.9811 5.23797 16.5955 6.23491 16.1525C8.17129 15.2921 9.65316 14.6289 12.8345 13.1991C14.2571 12.5599 15.6799 11.921 17.1028 11.2826C18.3534 10.7216 19.8074 10.0664 20.334 9.82664L21.2914 9.39067L21.3127 7.38428L21.3341 5.37798L19.9773 4.68588C19.231 4.30526 18.5932 3.99477 18.5597 3.9959C18.5263 3.99695 17.6655 4.37182 16.6467 4.82903ZM20.9279 12.0673C20.7279 12.1643 20.333 12.3461 20.0503 12.4711C19.7675 12.5961 19.231 12.8367 18.858 13.0058L18.1799 13.3132L18.1644 15.0746C18.1559 16.0434 18.12 16.8317 18.0846 16.8266C18.0044 16.8147 16.7334 16.1669 15.4558 15.4866C14.5336 14.9956 14.4757 14.976 14.259 15.0827C14.1338 15.1444 13.385 15.4781 12.5952 15.8244C11.8053 16.1707 11.1334 16.4766 11.1017 16.5043C11.0702 16.532 12.6599 17.3883 14.6344 18.4072L18.2243 20.2599L19.7579 19.4715C20.6013 19.038 21.3184 18.6425 21.3514 18.5927C21.4258 18.4809 21.4194 11.8755 21.345 11.8844C21.3155 11.8879 21.1278 11.9702 20.9279 12.0673ZM12.4356 19.8204C12.1696 19.934 11.9037 20.0479 11.6378 20.1618C10.835 20.507 10.9923 20.5185 10.0371 20.0459C9.40097 19.7312 9.12675 19.6341 9.00773 19.6812C8.91844 19.7166 8.15006 20.0601 7.30008 20.4447C6.45015 20.8292 5.72526 21.1438 5.6892 21.1438C5.3326 21.1438 5.92544 21.4959 8.21311 22.6427L10.896 23.9876L12.0248 23.4337C12.6457 23.1291 13.8979 22.5191 14.8077 22.0782C15.7173 21.6371 16.4504 21.2649 16.4367 21.2508C16.4228 21.2368 15.6606 20.8478 14.7427 20.3864L13.0739 19.5475L12.4356 19.8204Z" fill="white"/>
</g>
<defs>
<clipPath id="clip0_4571_14278">
<rect width="21" height="24" fill="white" transform="translate(0.425781)"/>
</clipPath>
</defs>
</svg>
