<svg width="24" height="24" viewBox="0 0 24 24" fill="none" xmlns="http://www.w3.org/2000/svg">
<g clip-path="url(#clip0_4571_14256)">
<mask id="mask0_4571_14256" style="mask-type:luminance" maskUnits="userSpaceOnUse" x="1" y="0" width="23" height="24">
<path d="M23.2992 0H1.04102V23.4946H23.2992V0Z" fill="white"/>
</mask>
<g mask="url(#mask0_4571_14256)">
<mask id="mask1_4571_14256" style="mask-type:luminance" maskUnits="userSpaceOnUse" x="1" y="0" width="23" height="24">
<path d="M23.2992 0H1.04102V23.4946H23.2992V0Z" fill="white"/>
</mask>
<g mask="url(#mask1_4571_14256)">
<path d="M23.2992 11.72C23.3264 17.867 18.3666 22.8713 12.2209 22.8985C6.07394 22.9257 1.06957 17.966 1.04113 11.8203C1.01392 5.67329 5.97378 0.668918 12.1194 0.641713C18.2664 0.614508 23.272 5.57313 23.2992 11.72Z" fill="white"/>
<path d="M22.4604 11.7255C22.4851 17.41 17.8987 22.0372 12.2155 22.0631C6.53221 22.0891 1.90498 17.5027 1.87902 11.8182C1.85305 6.13499 6.43946 1.50653 12.1227 1.48057C17.806 1.45584 22.4344 6.04225 22.4604 11.7255Z" fill="#090909"/>
<path d="M12.3574 2.14573C13.0066 2.01961 13.6805 2.03568 14.3358 2.14203C14.9925 2.25208 15.6404 2.45488 16.2253 2.77515C16.8115 3.09789 17.3197 3.5344 17.8242 3.94617C18.3287 4.36165 18.8321 4.7759 19.3093 5.23219C19.7929 5.68354 20.2257 6.19547 20.5756 6.76182C20.933 7.32322 21.2445 7.91924 21.4646 8.54989C21.8938 9.81242 22.0421 11.1726 21.8282 12.4697H21.7627C21.5475 11.1838 21.2557 9.95833 20.7994 8.79226C20.5768 8.2086 20.3369 7.62988 20.0377 7.07839C19.7334 6.53058 19.407 5.9902 19.0373 5.47209C18.6626 4.95644 18.2187 4.48408 17.6943 4.11682C17.1725 3.74461 16.5703 3.50225 15.9903 3.27348C15.4079 3.041 14.8281 2.81718 14.2234 2.64407C13.6199 2.46477 13.0017 2.33864 12.3574 2.21128V2.14573Z" fill="white"/>
<path d="M17.3884 8.08729C16.6415 7.87089 15.8674 7.56423 15.0834 7.25385C15.0377 7.05723 14.8646 6.81239 14.5121 6.51314C14.0002 6.06799 13.0382 6.08035 12.2072 6.27696C11.2884 6.06056 10.382 5.9839 9.51273 6.19288C2.39755 8.15282 6.43122 12.9347 3.81836 17.7436C4.19057 18.5313 8.19702 23.1326 13.9941 21.8972C13.9941 21.8972 12.0118 17.1327 16.4857 14.8463C20.115 12.9915 22.7377 9.54643 17.3871 8.08606L17.3884 8.08729Z" fill="white"/>
<path d="M18.2674 11.2221C18.2674 11.4595 18.0757 11.6537 17.8384 11.6549C17.6009 11.6561 17.4067 11.4632 17.4043 11.2245C17.403 10.9871 17.596 10.793 17.8346 10.793C18.072 10.7905 18.2661 10.9834 18.2674 11.2208V11.2221Z" fill="white"/>
<path d="M12.2051 6.27783C12.7245 6.31493 14.5979 6.92702 15.0814 7.25471C14.6807 6.08616 13.3218 5.93036 12.2051 6.27783Z" fill="white"/>
<path d="M12.2051 6.27783C12.7245 6.31493 14.5979 6.92702 15.0814 7.25471C14.6807 6.08616 13.3218 5.93036 12.2051 6.27783Z" fill="black" fill-opacity="0.5"/>
<path d="M12.7 9.23376C12.7 10.3331 11.8084 11.2234 10.7103 11.2234C9.61227 11.2234 8.7207 10.3331 8.7207 9.23376C8.7207 8.13446 9.61227 7.24414 10.7103 7.24414C11.8084 7.24414 12.7 8.13446 12.7 9.23376Z" fill="white"/>
<path d="M12.1089 9.24963C12.1089 10.0225 11.482 10.6494 10.7091 10.6494C9.93625 10.6494 9.31055 10.0237 9.31055 9.24963C9.31055 8.47678 9.93625 7.85107 10.7091 7.85107C11.482 7.85107 12.1089 8.47678 12.1089 9.24963Z" fill="white"/>
<path d="M12.1089 9.24963C12.1089 10.0225 11.482 10.6494 10.7091 10.6494C9.93625 10.6494 9.31055 10.0237 9.31055 9.24963C9.31055 8.47678 9.93625 7.85107 10.7091 7.85107C11.482 7.85107 12.1089 8.47678 12.1089 9.24963Z" fill="black" fill-opacity="0.5"/>
<path d="M19.8793 12.0971C18.2681 13.2336 16.433 14.0954 13.8326 14.0954C12.6158 14.0954 12.3684 12.8021 11.5647 13.4351C11.1492 13.7629 9.68509 14.4949 8.52149 14.4392C7.34923 14.3835 5.47708 13.7022 4.95154 11.2217C4.74255 13.7022 4.63744 15.5298 3.70508 17.6233C5.55992 20.5936 9.98187 22.8837 13.9958 21.8994C13.5642 18.8871 16.1956 15.9379 17.6783 14.4281C18.2409 13.8568 19.3167 12.9245 19.8793 12.0971Z" fill="white"/>
<path d="M19.8152 12.1721C19.3144 12.6283 18.7196 12.9671 18.1124 13.2639C17.499 13.5532 16.861 13.7894 16.2019 13.9601C15.5441 14.1295 14.8578 14.2581 14.1616 14.195C13.479 14.1357 12.7569 13.8958 12.2969 13.3751L12.3179 13.3505C12.8867 13.7165 13.5347 13.8451 14.1826 13.8636C14.8306 13.881 15.4909 13.8327 16.1413 13.7017C16.7906 13.5668 17.4286 13.3666 18.0457 13.1118C18.6602 12.8583 19.2686 12.5639 19.7929 12.146L19.8139 12.1708L19.8152 12.1721Z" fill="white"/>
<path d="M19.8152 12.1721C19.3144 12.6283 18.7196 12.9671 18.1124 13.2639C17.499 13.5532 16.861 13.7894 16.2019 13.9601C15.5441 14.1295 14.8578 14.2581 14.1616 14.195C13.479 14.1357 12.7569 13.8958 12.2969 13.3751L12.3179 13.3505C12.8867 13.7165 13.5347 13.8451 14.1826 13.8636C14.8306 13.881 15.4909 13.8327 16.1413 13.7017C16.7906 13.5668 17.4286 13.3666 18.0457 13.1118C18.6602 12.8583 19.2686 12.5639 19.7929 12.146L19.8139 12.1708L19.8152 12.1721Z" fill="black" fill-opacity="0.5"/>
</g>
</g>
</g>
<defs>
<clipPath id="clip0_4571_14256">
<rect width="22.8571" height="24" fill="white" transform="translate(0.568359)"/>
</clipPath>
</defs>
</svg>
