<svg width="16" height="17" viewBox="0 0 16 17" fill="none" xmlns="http://www.w3.org/2000/svg">
<g id="Frame">
<path id="Vector" opacity="0.5" d="M14.4995 4.94454C14.4989 3.83954 13.6026 2.94454 12.4983 2.94517C11.3933 2.94517 10.4983 3.84142 10.4989 4.94579C10.4989 5.85704 11.1158 6.65329 11.9983 6.88079V7.94329C11.9983 8.21892 11.7739 8.44329 11.4983 8.44329H5.99825V8.44323C5.82763 8.4426 5.65825 8.47198 5.49825 8.52948V6.88017C6.56763 6.60392 7.21075 5.51267 6.9345 4.44329C6.65825 3.37329 5.567 2.73017 4.49763 3.00642C3.42763 3.28204 2.7845 4.37329 3.06075 5.44267C3.24263 6.14704 3.79263 6.69704 4.497 6.87892V11.0039C3.427 11.2795 2.78388 12.3708 3.06013 13.4402C3.33575 14.5095 4.427 15.1527 5.49638 14.8764C6.56575 14.6002 7.20888 13.5089 6.93263 12.4395C6.75013 11.7345 6.20013 11.1845 5.49575 11.0027V9.94017C5.49575 9.66392 5.7195 9.44017 5.99575 9.44017H11.4958C12.3239 9.44017 12.9958 8.76829 12.9958 7.94017V6.87767C13.8783 6.64829 14.4945 5.85204 14.4958 4.94017L14.4995 4.94454ZM3.9995 4.94454C3.9995 4.39204 4.447 3.94454 4.9995 3.94454C5.55138 3.94454 5.9995 4.39204 5.9995 4.94454C5.9995 5.49642 5.55138 5.94454 4.9995 5.94454C4.447 5.94454 3.9995 5.49642 3.9995 4.94454ZM5.9995 12.9445C5.9995 13.4964 5.55138 13.9445 4.9995 13.9445C4.447 13.9445 3.9995 13.4964 3.9995 12.9445C3.9995 12.392 4.447 11.9445 4.9995 11.9445C5.55138 11.9445 5.9995 12.392 5.9995 12.9445ZM12.4995 5.94454C11.947 5.94454 11.4995 5.49642 11.4995 4.94454C11.4995 4.39204 11.947 3.94454 12.4995 3.94454C13.0514 3.94454 13.4995 4.39204 13.4995 4.94454C13.4995 5.49642 13.0514 5.94454 12.4995 5.94454Z" fill="white"/>
</g>
</svg>
