<svg width="16" height="13" viewBox="0 0 16 13" fill="none" xmlns="http://www.w3.org/2000/svg">
<g id="Frame" clip-path="url(#clip0_29_717)">
<g id="Page-1">
<g id="walletconnect-logo-alt">
<path id="WalletConnect" d="M3.27715 2.85173C5.88574 -0.254531 10.1151 -0.254531 12.7237 2.85173L13.0377 3.22557C13.1681 3.38088 13.1681 3.6327 13.0377 3.78801L11.9637 5.06685C11.8985 5.14451 11.7928 5.14451 11.7275 5.06685L11.2955 4.5524C9.47569 2.3854 6.52517 2.3854 4.70535 4.5524L4.24268 5.10334C4.17747 5.18099 4.07173 5.18099 4.00652 5.10334L2.93256 3.82449C2.80213 3.66918 2.80213 3.41737 2.93256 3.26206L3.27715 2.85173ZM14.9448 5.49651L15.9006 6.63469C16.031 6.79 16.031 7.04181 15.9006 7.19713L11.5907 12.3293C11.4603 12.4846 11.2488 12.4846 11.1184 12.3293C11.1184 12.3293 11.1184 12.3293 11.1184 12.3293L8.05949 8.68685C8.02689 8.64802 7.97402 8.64802 7.94141 8.68685C7.94141 8.68685 7.94141 8.68685 7.94141 8.68685L4.88259 12.3293C4.75216 12.4846 4.54069 12.4846 4.41026 12.3293C4.41026 12.3293 4.41026 12.3293 4.41026 12.3293L0.100264 7.19706C-0.0301661 7.04175 -0.0301661 6.78994 0.100264 6.63462L1.05609 5.49645C1.18652 5.34113 1.39799 5.34113 1.52842 5.49645L4.58735 9.13896C4.61996 9.17778 4.67282 9.17778 4.70543 9.13896C4.70543 9.13896 4.70543 9.13896 4.70543 9.13896L7.76421 5.49645C7.89464 5.34113 8.1061 5.34112 8.23654 5.49643C8.23654 5.49643 8.23654 5.49644 8.23654 5.49643L11.2955 9.13895C11.3281 9.17778 11.3809 9.17778 11.4136 9.13895L14.4724 5.49651C14.6029 5.3412 14.8143 5.3412 14.9448 5.49651Z" fill="#3B99FC"/>
</g>
</g>
</g>
<defs>
<clipPath id="clip0_29_717">
<rect width="16" height="12" fill="white" transform="translate(0 0.5)"/>
</clipPath>
</defs>
</svg>
