<svg width="44" height="44" viewBox="0 0 44 44" fill="none" xmlns="http://www.w3.org/2000/svg">
<rect width="44" height="44" rx="22" fill="#0072FF"/>
<path d="M22 16V12H18M12 22H14M19 21V23M25 21V23M30 22H32M18 28L14 32V18C14 17.4696 14.2107 16.9609 14.5858 16.5858C14.9609 16.2107 15.4696 16 16 16H28C28.5304 16 29.0391 16.2107 29.4142 16.5858C29.7893 16.9609 30 17.4696 30 18V26C30 26.5304 29.7893 27.0391 29.4142 27.4142C29.0391 27.7893 28.5304 28 28 28H18Z" stroke="white" stroke-width="2" stroke-linecap="round" stroke-linejoin="round"/>
</svg>
