<svg width="20" height="20" viewBox="0 0 20 20" fill="none" xmlns="http://www.w3.org/2000/svg">
<g id="Frame">
<g id="Group">
<path id="Vector" opacity="0.2" d="M7.40709 15L5.10631 16.7375C4.83677 16.9531 4.44302 16.9094 4.2274 16.6398C4.16724 16.5648 4.12584 16.4773 4.10474 16.3844L3.13912 12.0383C3.09693 11.8484 3.14459 11.6508 3.26881 11.5023L5.63677 8.66406C5.54615 10.4875 5.99146 12.6109 7.40631 14.9992L7.40709 15ZM16.7305 11.5031L14.3626 8.66484C14.4571 10.4883 14.0079 12.6117 12.593 15L14.8938 16.7375C15.1626 16.9531 15.5563 16.9094 15.7719 16.6398C15.8313 16.5648 15.8727 16.4773 15.8938 16.3844L16.8594 12.0383C16.9008 11.8484 16.8532 11.6508 16.7297 11.5023L16.7305 11.5031Z" fill="white"/>
<path id="Vector_2" d="M11.875 17.4997C11.875 17.8442 11.5946 18.1247 11.25 18.1247H8.75003C8.40472 18.1247 8.12503 17.8442 8.12503 17.4997C8.12503 17.1544 8.40472 16.8747 8.75003 16.8747H11.25C11.5946 16.8747 11.875 17.1544 11.875 17.4997ZM10 8.7497C10.5172 8.7497 10.9375 8.32939 10.9375 7.8122C10.9375 7.29423 10.5172 6.8747 10 6.8747C9.48206 6.8747 9.06253 7.29423 9.06253 7.8122C9.06253 8.32939 9.48206 8.7497 10 8.7497ZM17.4703 12.1739L16.5047 16.52C16.3547 17.1934 15.6867 17.6185 15.0133 17.4692C14.8297 17.4286 14.6586 17.3474 14.511 17.2309L12.3828 15.6239H7.61722L5.48753 17.2309C4.94456 17.6575 4.15862 17.563 3.73206 17.0208C3.61565 16.8731 3.5344 16.7013 3.49378 16.5184L2.52815 12.1724C2.44456 11.7942 2.54058 11.3989 2.78745 11.1013L5.0187 8.4247C5.09292 7.44032 5.31862 6.4747 5.68815 5.55985C6.69597 3.03329 8.50065 1.44813 9.23269 0.884072C9.68269 0.534853 10.3132 0.534775 10.7639 0.883916C11.4936 1.44798 13.3007 3.03313 14.3085 5.5597C14.6772 6.47454 14.903 7.44017 14.978 8.42454L17.2092 11.1011C17.4553 11.3988 17.5514 11.7941 17.4686 12.1722L17.4703 12.1739ZM7.768 14.3747H12.2321C13.8821 11.4419 14.1907 8.63407 13.1492 6.0247C12.2305 3.72157 10.5071 2.26532 10 1.8747C9.49144 2.26532 7.768 3.72157 6.84925 6.0247C5.8094 8.63407 6.118 11.4419 7.768 14.3747ZM6.59612 14.8317C5.75498 13.3031 5.24456 11.8007 5.06487 10.3247L3.75003 11.9028L4.71565 16.2497L4.72972 16.2395L6.59612 14.8317ZM16.25 11.9028L14.9352 10.3247C14.7571 11.7976 14.2477 13.3 13.4071 14.8317L15.2703 16.238L15.2844 16.2481L16.25 11.9028Z" fill="white"/>
</g>
</g>
</svg>
