<svg width="20" height="20" viewBox="0 0 20 20" fill="none" xmlns="http://www.w3.org/2000/svg">
<path opacity="0.2" d="M7.40605 15L5.10527 16.7375C4.83574 16.9531 4.44199 16.9094 4.22636 16.6398C4.16621 16.5648 4.1248 16.4773 4.10371 16.3844L3.13808 12.0383C3.09589 11.8484 3.14355 11.6508 3.26777 11.5023L5.63574 8.66406C5.54511 10.4875 5.99042 12.6109 7.40527 14.9992L7.40605 15ZM16.7295 11.5031L14.3615 8.66484C14.456 10.4883 14.0068 12.6117 12.592 15L14.8928 16.7375C15.1615 16.9531 15.5553 16.9094 15.7709 16.6398C15.8303 16.5648 15.8717 16.4773 15.8928 16.3844L16.8584 12.0383C16.8998 11.8484 16.8521 11.6508 16.7287 11.5023L16.7295 11.5031Z" fill="#00FFAE"/>
<path d="M11.8745 17.5002C11.8745 17.8447 11.5941 18.1252 11.2495 18.1252H8.74954C8.40423 18.1252 8.12454 17.8447 8.12454 17.5002C8.12454 17.1549 8.40423 16.8752 8.74954 16.8752H11.2495C11.5941 16.8752 11.8745 17.1549 11.8745 17.5002ZM9.99954 8.75019C10.5167 8.75019 10.937 8.32987 10.937 7.81269C10.937 7.29472 10.5167 6.87519 9.99954 6.87519C9.48157 6.87519 9.06204 7.29472 9.06204 7.81269C9.06204 8.32987 9.48157 8.75019 9.99954 8.75019ZM17.4699 12.1744L16.5042 16.5205C16.3542 17.1939 15.6863 17.6189 15.0128 17.4697C14.8292 17.4291 14.6581 17.3478 14.5105 17.2314L12.3824 15.6244H7.61673L5.48704 17.2314C4.94407 17.658 4.15814 17.5635 3.73157 17.0213C3.61517 16.8736 3.53392 16.7017 3.49329 16.5189L2.52767 12.1728C2.44407 11.7947 2.54009 11.3994 2.78696 11.1018L5.01821 8.42519C5.09243 7.44081 5.31813 6.47519 5.68767 5.56034C6.69548 3.03378 8.50017 1.44862 9.2322 0.884561C9.6822 0.535342 10.3127 0.535264 10.7634 0.884404C11.4931 1.44847 13.3002 3.03362 14.308 5.56019C14.6767 6.47503 14.9025 7.44065 14.9775 8.42503L17.2088 11.1016C17.4549 11.3993 17.5509 11.7946 17.4681 12.1727L17.4699 12.1744ZM7.76751 14.3752H12.2316C13.8816 11.4424 14.1902 8.63456 13.1488 6.02519C12.23 3.72206 10.5066 2.26581 9.99954 1.87519C9.49095 2.26581 7.76751 3.72206 6.84876 6.02519C5.80892 8.63456 6.11751 11.4424 7.76751 14.3752ZM6.59563 14.8322C5.75449 13.3036 5.24407 11.8012 5.06438 10.3252L3.74954 11.9033L4.71517 16.2502L4.72923 16.24L6.59563 14.8322ZM16.2495 11.9033L14.9347 10.3252C14.7566 11.7981 14.2472 13.3004 13.4066 14.8322L15.2699 16.2385L15.2839 16.2486L16.2495 11.9033Z" fill="#00FFAE"/>
</svg>
