<svg width="16" height="16" viewBox="0 0 16 16" fill="none" xmlns="http://www.w3.org/2000/svg">
<g id="Frame" clip-path="url(#clip0_1465_7848)">
<path id="Vector" d="M8.00082 0.187151C3.58082 0.180484 -0.00584449 3.76048 -0.00584449 8.18048C-0.0125112 11.6405 2.22082 14.7138 5.51416 15.7872H5.70749C6.07416 15.8072 6.38749 15.5272 6.41416 15.1605C6.41416 15.1272 6.41416 15.1005 6.41416 15.0738V14.9338C6.41416 14.8205 6.41416 14.6671 6.41416 14.2071C6.40082 14.1138 6.34749 14.0338 6.28082 13.9872C6.20082 13.9205 6.09416 13.8938 6.00082 13.9205C4.21416 14.3071 3.83416 13.1872 3.80749 13.1138C3.58082 12.5205 3.18082 12.0071 2.66082 11.6538H2.65416C2.62082 11.6205 2.58749 11.6005 2.55416 11.5805C2.62749 11.5338 2.71416 11.5205 2.80749 11.5338C3.14749 11.5805 3.43416 11.8005 3.57416 12.1205C4.10749 13.0472 5.28749 13.3938 6.24082 12.8938C6.33416 12.8472 6.40749 12.7605 6.43416 12.6538C6.45416 12.3405 6.58749 12.0538 6.80749 11.8338C6.94082 11.7072 6.95416 11.5005 6.83416 11.3605C6.77416 11.2938 6.70082 11.2605 6.62082 11.2472C5.04082 11.0672 3.42749 10.5138 3.42749 7.78715C3.41416 7.10048 3.66082 6.43382 4.12749 5.93382C4.21416 5.83382 4.23416 5.69382 4.18749 5.58048C4.00082 5.06048 4.00082 4.49382 4.19416 3.98048V3.97382C4.80749 4.08048 5.38749 4.34048 5.87416 4.74048C5.95416 4.79382 6.05416 4.81382 6.15416 4.78715C6.74749 4.62048 7.36082 4.54048 7.98082 4.54048L7.98016 4.53982C8.59349 4.53982 9.21349 4.61982 9.81349 4.78648C9.90682 4.80648 10.0068 4.79315 10.0868 4.73982C10.5735 4.34648 11.1468 4.07982 11.7668 3.97315C11.9468 4.47982 11.9468 5.04648 11.7668 5.55982C11.7135 5.67315 11.7335 5.81315 11.8268 5.91315C12.2802 6.40648 12.5335 7.06648 12.5268 7.74648C12.5268 10.4732 10.9068 11.0198 9.32016 11.1998C9.13349 11.2132 9.00016 11.3798 9.02016 11.5598C9.02682 11.6398 9.06682 11.7198 9.13349 11.7798C9.42682 12.0865 9.58016 12.5065 9.54016 12.9398V15.0598C9.52682 15.2665 9.62016 15.4732 9.78016 15.6132C9.98016 15.7598 10.2402 15.8065 10.4868 15.7398C14.6735 14.3331 16.9335 9.79982 15.5335 5.61315C14.4402 2.35315 11.4002 0.159818 7.96682 0.146484L8.00082 0.187151Z" fill="#0A0A0A"/>
</g>
<defs>
<clipPath id="clip0_1465_7848">
<rect width="16" height="16" fill="white"/>
</clipPath>
</defs>
</svg>
