<svg width="206" height="58" viewBox="0 0 206 58" fill="none" xmlns="http://www.w3.org/2000/svg">
<path d="M28.8125 3.21719C14.5695 3.21719 3.03125 14.7555 3.03125 28.9984C3.03125 40.4055 10.4117 50.043 20.6586 53.4578C21.9477 53.6828 22.4305 52.9117 22.4305 52.2344C22.4305 51.6203 22.4 49.5906 22.4 47.432C15.9219 48.625 14.2461 45.8523 13.7305 44.4039C13.4398 43.6609 12.1836 41.3734 11.0891 40.7617C10.1867 40.2766 8.89531 39.0859 11.0562 39.0531C13.0859 39.0203 14.5367 40.9211 15.0195 41.6969C17.3398 45.5945 21.0453 44.5 22.5289 43.8227C22.7539 42.1469 23.4313 41.0195 24.1719 40.375C18.4344 39.7305 12.4414 37.5063 12.4414 27.6438C12.4414 24.8406 13.4398 22.5203 15.0852 20.7156C14.825 20.0711 13.9227 17.4297 15.343 13.8836C15.343 13.8836 17.5016 13.2086 22.4305 16.5273C24.5292 15.9451 26.6978 15.6525 28.8758 15.6578C31.0695 15.6578 33.2609 15.9461 35.3211 16.5273C40.2523 13.1758 42.4109 13.8836 42.4109 13.8836C43.8289 17.4297 42.9289 20.0711 42.6711 20.7156C44.3141 22.5203 45.3125 24.8102 45.3125 27.6438C45.3125 37.5391 39.2867 39.7305 33.5492 40.375C34.4844 41.1813 35.2906 42.7281 35.2906 45.1445C35.2906 48.5922 35.2578 51.3648 35.2578 52.2344C35.2578 52.9117 35.7406 53.7156 37.0297 53.4578C47.2133 50.043 54.5938 40.375 54.5938 28.9984C54.5938 14.7555 43.0578 3.21719 28.8125 3.21719Z" fill="white"/>
<path d="M88.3344 24.3037C88.1683 23.6885 87.9242 23.1465 87.6019 22.6777C87.2797 22.1992 86.8842 21.7939 86.4154 21.4619C85.9467 21.1299 85.4095 20.8809 84.8041 20.7148C84.1986 20.5391 83.5345 20.4512 82.8119 20.4512C81.3568 20.4512 80.097 20.8027 79.0326 21.5059C77.9779 22.209 77.1625 23.2344 76.5863 24.582C76.0101 25.9199 75.722 27.5459 75.722 29.46C75.722 31.3838 76.0004 33.0244 76.557 34.3818C77.1136 35.7393 77.9193 36.7744 78.974 37.4873C80.0287 38.2002 81.308 38.5566 82.8119 38.5566C84.14 38.5566 85.2631 38.3418 86.181 37.9121C87.1088 37.4727 87.8119 36.8525 88.2904 36.0518C88.7689 35.251 89.0082 34.3086 89.0082 33.2246L90.3558 33.3857H83.0609V28.0977H95.9955V32.0674C95.9955 34.7529 95.4242 37.0527 94.2816 38.9668C93.1488 40.8809 91.5863 42.3506 89.5941 43.376C87.6117 44.4014 85.3314 44.9141 82.7533 44.9141C79.892 44.9141 77.3773 44.2939 75.2094 43.0537C73.0414 41.8135 71.3519 40.0459 70.141 37.751C68.9301 35.4463 68.3246 32.7119 68.3246 29.5479C68.3246 27.0869 68.6908 24.9043 69.4232 23C70.1556 21.0859 71.1761 19.4648 72.4847 18.1367C73.8031 16.8086 75.3265 15.8027 77.0551 15.1191C78.7933 14.4355 80.6635 14.0937 82.6654 14.0937C84.4037 14.0937 86.0199 14.3428 87.514 14.8408C89.0179 15.3389 90.3461 16.042 91.4984 16.9502C92.6605 17.8584 93.6029 18.9375 94.3256 20.1875C95.0482 21.4375 95.4974 22.8096 95.6732 24.3037H88.3344ZM100.442 44.5039V22.0039H107.605V44.5039H100.442ZM104.03 19.3818C103.025 19.3818 102.16 19.0498 101.438 18.3857C100.715 17.7119 100.354 16.9014 100.354 15.9541C100.354 15.0166 100.715 14.2158 101.438 13.5518C102.16 12.8779 103.025 12.541 104.03 12.541C105.046 12.541 105.91 12.8779 106.623 13.5518C107.346 14.2158 107.707 15.0166 107.707 15.9541C107.707 16.9014 107.346 17.7119 106.623 18.3857C105.91 19.0498 105.046 19.3818 104.03 19.3818ZM123.627 22.0039V27.2773H109.432V22.0039H123.627ZM112.406 16.6133H119.569V37.4287C119.569 37.8682 119.637 38.2246 119.774 38.498C119.921 38.7617 120.131 38.9521 120.404 39.0693C120.677 39.1768 121.005 39.2305 121.385 39.2305C121.659 39.2305 121.947 39.2061 122.25 39.1572C122.562 39.0986 122.797 39.0498 122.953 39.0107L124.037 44.1816C123.695 44.2793 123.212 44.4014 122.587 44.5479C121.971 44.6943 121.234 44.7871 120.375 44.8262C118.695 44.9043 117.255 44.709 116.053 44.2402C114.862 43.7617 113.949 43.0195 113.314 42.0137C112.689 41.0078 112.386 39.7432 112.406 38.2197V16.6133ZM126.527 44.5039V14.5039H133.778V26.5449H145.6V14.5039H152.836V44.5039H145.6V32.4482H133.778V44.5039H126.527ZM170.663 34.792V22.0039H177.812V44.5039H170.986V40.3145H170.751C170.253 41.6914 169.404 42.7852 168.202 43.5957C167.011 44.3965 165.571 44.7969 163.881 44.7969C162.348 44.7969 161 44.4453 159.838 43.7422C158.676 43.0391 157.773 42.0576 157.128 40.7979C156.484 39.5283 156.157 38.0439 156.147 36.3447V22.0039H163.31V34.9385C163.32 36.1592 163.642 37.1211 164.277 37.8242C164.911 38.5273 165.776 38.8789 166.869 38.8789C167.582 38.8789 168.222 38.7227 168.788 38.4102C169.365 38.0879 169.819 37.624 170.151 37.0186C170.493 36.4033 170.663 35.6611 170.663 34.792ZM181.134 44.5039V14.5039H188.297V25.8564H188.443C188.736 25.1729 189.151 24.5137 189.688 23.8789C190.235 23.2441 190.929 22.7266 191.768 22.3262C192.618 21.916 193.634 21.7109 194.815 21.7109C196.378 21.7109 197.838 22.1211 199.195 22.9414C200.562 23.7617 201.666 25.0264 202.506 26.7354C203.346 28.4443 203.766 30.6221 203.766 33.2686C203.766 35.8174 203.36 37.9512 202.55 39.6699C201.749 41.3887 200.665 42.6777 199.298 43.5371C197.94 44.3965 196.432 44.8262 194.771 44.8262C193.639 44.8262 192.657 44.6406 191.827 44.2695C190.997 43.8984 190.299 43.4102 189.732 42.8047C189.176 42.1992 188.746 41.5498 188.443 40.8564H188.224V44.5039H181.134ZM188.15 33.2539C188.15 34.4648 188.311 35.5195 188.634 36.418C188.966 37.3164 189.439 38.0146 190.055 38.5127C190.68 39.001 191.427 39.2451 192.296 39.2451C193.175 39.2451 193.922 39.001 194.537 38.5127C195.152 38.0146 195.616 37.3164 195.929 36.418C196.251 35.5195 196.412 34.4648 196.412 33.2539C196.412 32.043 196.251 30.9932 195.929 30.1045C195.616 29.2158 195.152 28.5273 194.537 28.0391C193.932 27.5508 193.184 27.3066 192.296 27.3066C191.417 27.3066 190.67 27.5459 190.055 28.0244C189.439 28.5029 188.966 29.1865 188.634 30.0752C188.311 30.9639 188.15 32.0234 188.15 33.2539Z" fill="white"/>
</svg>
