<svg width="17" height="16" viewBox="0 0 17 16" fill="none" xmlns="http://www.w3.org/2000/svg">
<g id="Frame" clip-path="url(#clip0_12_3)">
<path id="Vector" d="M16.125 8.18125C16.125 12.6031 13.0969 15.75 8.625 15.75C4.3375 15.75 0.875 12.2875 0.875 8C0.875 3.7125 4.3375 0.25 8.625 0.25C10.7125 0.25 12.4688 1.01562 13.8219 2.27813L11.7125 4.30625C8.95312 1.64375 3.82188 3.64375 3.82188 8C3.82184 10.7031 5.98125 12.8938 8.625 12.8938C11.6938 12.8938 12.8438 10.6938 13.025 9.55313H8.625V6.8875H16.0031C16.075 7.28437 16.125 7.66562 16.125 8.18125Z" fill="white"/>
</g>
<defs>
<clipPath id="clip0_12_3">
<rect width="15.25" height="16" fill="white" transform="translate(0.875)"/>
</clipPath>
</defs>
</svg>
