<svg width="166" height="166" viewBox="0 0 166 166" fill="none" xmlns="http://www.w3.org/2000/svg">
<path d="M83.1152 142.945C116.342 142.945 143.346 115.942 143.346 82.7148C143.346 49.4375 116.342 22.4844 83.1152 22.4844C49.8379 22.4844 22.8848 49.4375 22.8848 82.7148C22.8848 115.942 49.8379 142.895 83.1152 142.945ZM107.146 85.0882C107.218 85.1758 107.255 85.2874 107.244 85.4002C107.081 87.135 105.947 88.6604 104.296 89.3402L73.7325 104.607C73.7306 104.608 73.7283 104.608 73.7268 104.606C73.7253 104.605 73.723 104.604 73.7211 104.605C72.8688 105.006 71.9664 105.256 71.0139 105.256C70.1105 105.256 69.2572 105.005 68.5545 104.553C66.9986 103.499 66.1453 101.793 66.2457 99.9357V70.2672C65.9947 67.5568 68.0024 65.1978 70.6626 64.9469C71.6664 64.8465 72.7205 65.0974 73.6239 65.5994L104.141 80.8577C105.753 81.4928 106.89 83.0314 107.042 84.8255C107.05 84.9215 107.085 85.0137 107.146 85.0882Z" fill="url(#paint0_linear_4949_14869)" style="mix-blend-mode:screen"/>
<path d="M83.1152 11.4219C122.446 11.4219 154.408 43.3217 154.408 82.7148C154.408 122.052 122.452 154.008 83.1152 154.008H83.0986C43.7338 153.948 11.8223 122.061 11.8223 82.7148C11.8223 43.3277 43.7281 11.4219 83.1152 11.4219ZM81.0322 96.3008C81.0936 96.3548 81.1555 96.4083 81.2158 96.4639L81.5293 96.7637L81.5391 96.7734L81.5498 96.7832C81.3822 96.6156 81.2085 96.4559 81.0322 96.3008ZM77.3086 90.4541L87.957 85.1348L77.3086 79.8096V90.4541Z" stroke="black" stroke-opacity="0.7" stroke-width="22.1255" style="mix-blend-mode:screen"/>
<defs>
<linearGradient id="paint0_linear_4949_14869" x1="29.7652" y1="71.8005" x2="79.3714" y2="33.0051" gradientUnits="userSpaceOnUse">
<stop stop-color="#2670FF"/>
<stop offset="0.166667" stop-color="#7FEBEB"/>
<stop offset="0.333333" stop-color="#70F9CA"/>
<stop offset="0.5" stop-color="#AED3A6"/>
<stop offset="0.666667" stop-color="#E98CBF"/>
<stop offset="0.833333" stop-color="#6278AF"/>
<stop offset="1" stop-color="#C266B6"/>
</linearGradient>
</defs>
</svg>
