<svg width="16" height="17" viewBox="0 0 16 17" fill="none" xmlns="http://www.w3.org/2000/svg">
<g id="Frame">
<g id="Group">
<path id="Vector" d="M7.34053 8.66586C7.4672 8.66586 7.59387 8.71253 7.69387 8.81253C7.8872 9.00586 7.8872 9.32586 7.69387 9.51919L2.2272 14.9859C2.03387 15.1792 1.71387 15.1792 1.52053 14.9859C1.3272 14.7925 1.3272 14.4725 1.52053 14.2792L6.9872 8.81919C7.0872 8.71919 7.21387 8.67253 7.34053 8.67253V8.66586Z" fill="white"/>
<path id="Vector_2" d="M1.34004 11.466C1.61337 11.466 1.84004 11.6927 1.84004 11.966L1.84004 14.666H4.54004C4.81337 14.666 5.04004 14.8927 5.04004 15.166C5.04004 15.4393 4.81337 15.666 4.54004 15.666H1.34004C1.06671 15.666 0.84004 15.4393 0.84004 15.166L0.84004 11.966C0.84004 11.6927 1.06671 11.466 1.34004 11.466Z" fill="white"/>
<path id="Vector_3" d="M6.00033 1.33268L10.0003 1.33268C13.6203 1.33268 15.167 2.87935 15.167 6.49935L15.167 10.4993C15.167 14.1193 13.6203 15.666 10.0003 15.666H8.66699C8.39366 15.666 8.16699 15.4393 8.16699 15.166C8.16699 14.8927 8.39366 14.666 8.66699 14.666H10.0003C13.0737 14.666 14.167 13.5727 14.167 10.4993L14.167 6.49935C14.167 3.42602 13.0737 2.33268 10.0003 2.33268L6.00033 2.33268C2.92699 2.33268 1.83366 3.42602 1.83366 6.49935V7.83268C1.83366 8.10602 1.60699 8.33268 1.33366 8.33268C1.06033 8.33268 0.83366 8.10602 0.83366 7.83268V6.49935C0.83366 2.87935 2.38033 1.33268 6.00033 1.33268Z" fill="white"/>
</g>
</g>
</svg>
