<svg width="25" height="24" viewBox="0 0 25 24" fill="none" xmlns="http://www.w3.org/2000/svg">
<g id="Frame">
<path id="Vector" d="M23.5035 19.9988L18.2535 9.49881C18.1148 9.22037 17.7764 9.10693 17.4989 9.24568C17.3892 9.30006 17.3001 9.38818 17.2457 9.49787L15.1551 13.6791V13.679C13.4076 13.6059 11.7257 12.9928 10.3429 11.9231C11.9507 10.2778 12.9098 8.10746 13.0448 5.81152H15.4992C15.8095 5.81152 16.0617 5.55934 16.0617 5.24902C16.0617 4.93777 15.8095 4.68652 15.4992 4.68652H10.0617V2.99902C10.0617 2.68777 9.80948 2.43652 9.49917 2.43652C9.18792 2.43652 8.93667 2.68777 8.93667 2.99902V4.68652H3.49917C3.18792 4.68652 2.93667 4.93777 2.93667 5.24902C2.93667 5.55934 3.18792 5.81152 3.49917 5.81152H11.917C11.7829 7.83184 10.9242 9.73777 9.49917 11.1768C8.62448 10.2946 7.95511 9.23152 7.54073 8.06152C7.44417 7.76621 7.12627 7.60496 6.83095 7.70152C6.53564 7.79715 6.37439 8.11496 6.47095 8.41027C6.47283 8.41871 6.47658 8.42715 6.47939 8.43559L6.4793 8.43549C6.94148 9.74143 7.68398 10.9321 8.6543 11.923C7.17867 13.0667 5.36461 13.6874 3.49805 13.6855C3.1868 13.6855 2.93555 13.9367 2.93555 14.248C2.93555 14.5583 3.1868 14.8105 3.49805 14.8105H3.49795C5.68139 14.8124 7.80014 14.0633 9.49795 12.6889C10.9605 13.8683 12.7388 14.5911 14.61 14.7674L11.9954 19.9967C11.8557 20.2742 11.9691 20.6117 12.2475 20.7514C12.525 20.8902 12.8625 20.7767 13.0022 20.4992L14.3457 17.8105H21.15L22.4944 20.4992C22.5891 20.6896 22.7841 20.8105 22.9979 20.8105C23.085 20.8105 23.1712 20.7899 23.249 20.7505C23.5265 20.6117 23.639 20.2742 23.5012 19.9967L23.5035 19.9988ZM14.9104 16.6876L17.7501 11.0082L20.5898 16.6876H14.9104Z" fill="white"/>
</g>
</svg>
