<svg width="24" height="25" viewBox="0 0 24 25" fill="none" xmlns="http://www.w3.org/2000/svg">
<g id="Layer_1">
<path id="Vector" d="M20.6481 3.17419L13.1528 8.74105L14.5389 5.45668L20.6481 3.17419Z" fill="#E2761B" stroke="#E2761B" stroke-width="0.0753296" stroke-linecap="round" stroke-linejoin="round"/>
<path id="Vector_2" d="M3.34467 3.17419L10.7797 8.79378L9.46143 5.45668L3.34467 3.17419ZM17.9511 16.0781L15.9548 19.1365L20.226 20.3117L21.4539 16.1459L17.9511 16.0781ZM2.55371 16.1459L3.77405 20.3117L8.04524 19.1365L6.049 16.0781L2.55371 16.1459Z" fill="#E4761B" stroke="#E4761B" stroke-width="0.0753296" stroke-linecap="round" stroke-linejoin="round"/>
<path id="Vector_3" d="M7.80446 10.9105L6.61426 12.7109L10.8553 12.8992L10.7047 8.34179L7.80446 10.9105ZM16.1886 10.9105L13.2508 8.28906L13.1529 12.8992L17.3864 12.7109L16.1886 10.9105ZM8.04552 19.1365L10.5917 17.8936L8.39204 16.1761L8.04552 19.1365ZM13.4015 17.8936L15.9551 19.1365L15.6011 16.1761L13.4015 17.8936Z" fill="#E4761B" stroke="#E4761B" stroke-width="0.0753296" stroke-linecap="round" stroke-linejoin="round"/>
<path id="Vector_4" d="M15.955 19.1366L13.4013 17.8936L13.6047 19.5584L13.5821 20.259L15.955 19.1366ZM8.04541 19.1366L10.4183 20.259L10.4032 19.5584L10.5915 17.8936L8.04541 19.1366Z" fill="#D7C1B3" stroke="#D7C1B3" stroke-width="0.0753296" stroke-linecap="round" stroke-linejoin="round"/>
<path id="Vector_5" d="M10.4558 15.0763L8.33154 14.4511L9.8306 13.7656L10.4558 15.0763ZM13.5368 15.0763L14.1621 13.7656L15.6686 14.4511L13.5368 15.0763Z" fill="#233447" stroke="#233447" stroke-width="0.0753296" stroke-linecap="round" stroke-linejoin="round"/>
<path id="Vector_6" d="M8.04555 19.1365L8.40713 16.0782L6.04932 16.146L8.04555 19.1365ZM15.5936 16.0782L15.9552 19.1365L17.9514 16.146L15.5936 16.0782ZM17.3864 12.7109L13.1529 12.8993L13.5446 15.0763L14.1698 13.7656L15.6764 14.451L17.3864 12.7109ZM8.3318 14.451L9.83839 13.7656L10.4561 15.0763L10.8553 12.8993L6.61429 12.7109L8.3318 14.451Z" fill="#CD6116" stroke="#CD6116" stroke-width="0.0753296" stroke-linecap="round" stroke-linejoin="round"/>
<path id="Vector_7" d="M6.61426 12.7109L8.39204 16.1761L8.33177 14.451L6.61426 12.7109ZM15.6764 14.451L15.6011 16.1761L17.3864 12.7109L15.6764 14.451ZM10.8553 12.8993L10.4561 15.0763L10.9532 17.645L11.0662 14.2627L10.8553 12.8993ZM13.1529 12.8993L12.9495 14.2552L13.0399 17.645L13.5446 15.0763L13.1529 12.8993Z" fill="#E4751F" stroke="#E4751F" stroke-width="0.0753296" stroke-linecap="round" stroke-linejoin="round"/>
<path id="Vector_8" d="M13.5443 15.0763L13.0396 17.645L13.4012 17.8936L15.6008 16.1761L15.6762 14.451L13.5443 15.0763ZM8.33154 14.451L8.39181 16.1761L10.5914 17.8936L10.953 17.645L10.4558 15.0763L8.33154 14.451Z" fill="#F6851B" stroke="#F6851B" stroke-width="0.0753296" stroke-linecap="round" stroke-linejoin="round"/>
<path id="Vector_9" d="M13.5821 20.2589L13.6047 19.5584L13.4164 19.3927H10.5765L10.4032 19.5584L10.4183 20.2589L8.04541 19.1365L8.87404 19.8145L10.5539 20.9821H13.439L15.1264 19.8145L15.955 19.1365L13.5821 20.2589Z" fill="#C0AD9E" stroke="#C0AD9E" stroke-width="0.0753296" stroke-linecap="round" stroke-linejoin="round"/>
<path id="Vector_10" d="M13.4014 17.8936L13.0399 17.645H10.9532L10.5916 17.8936L10.4033 19.5584L10.5766 19.3927H13.4165L13.6048 19.5584L13.4014 17.8936Z" fill="#161616" stroke="#161616" stroke-width="0.0753296" stroke-linecap="round" stroke-linejoin="round"/>
<path id="Vector_11" d="M20.9642 9.10263L21.6045 6.02919L20.6479 3.17419L13.4012 8.55273L16.1884 10.9105L20.1281 12.0631L21.0019 11.0461L20.6253 10.7749L21.2279 10.225L20.7609 9.86346L21.3635 9.40395L20.9642 9.10263ZM2.39551 6.02919L3.03581 9.10263L2.62903 9.40395L3.23167 9.86346L2.77216 10.225L3.37479 10.7749L2.99814 11.0461L3.86443 12.0631L7.80417 10.9105L10.5914 8.55273L3.34466 3.17419L2.39551 6.02919Z" fill="#763D16" stroke="#763D16" stroke-width="0.0753296" stroke-linecap="round" stroke-linejoin="round"/>
<path id="Vector_12" d="M20.1281 12.0631L16.1884 10.9106L17.3861 12.711L15.6008 16.1761L17.9511 16.146H21.4539L20.1281 12.0631ZM7.80418 10.9106L3.86445 12.0631L2.55371 16.146H6.049L8.39175 16.1761L6.61398 12.711L7.80418 10.9106ZM13.1526 12.8993L13.4012 8.55277L14.5462 5.45673H9.46143L10.5914 8.55277L10.855 12.8993L10.9454 14.2703L10.953 17.6451H13.0396L13.0547 14.2703L13.1526 12.8993Z" fill="#F6851B" stroke="#F6851B" stroke-width="0.0753296" stroke-linecap="round" stroke-linejoin="round"/>
</g>
</svg>
