<svg width="24" height="25" viewBox="0 0 24 25" fill="none" xmlns="http://www.w3.org/2000/svg">
<g clip-path="url(#clip0_4826_14566)">
<path d="M13.2703 9.11182L22.6003 17.9058C22.722 18.0274 22.8185 18.1717 22.8843 18.3306C22.9502 18.4895 22.9841 18.6598 22.9841 18.8318C22.9841 19.0038 22.9502 19.1741 22.8843 19.333C22.8185 19.4919 22.722 19.6362 22.6003 19.7578L21.6743 20.6828C21.5529 20.8046 21.4086 20.9012 21.2498 20.9671C21.091 21.033 20.9207 21.0669 20.7488 21.0669C20.5768 21.0669 20.4066 21.033 20.2478 20.9671C20.089 20.9012 19.9447 20.8046 19.8233 20.6828L11.0293 11.3578" stroke="#DDB44D" stroke-width="1.5" stroke-linecap="round" stroke-linejoin="round"/>
<path d="M3.57911 9.07482C6.69227 7.34717 9.25846 4.78098 10.9861 1.66782C11.1075 1.54606 11.2518 1.44945 11.4106 1.38354C11.5694 1.31762 11.7397 1.28369 11.9116 1.28369C12.0836 1.28369 12.2538 1.31762 12.4126 1.38354C12.5714 1.44945 12.7157 1.54606 12.8371 1.66782L16.3471 5.17782C16.4689 5.29923 16.5655 5.44348 16.6314 5.60229C16.6973 5.76111 16.7312 5.93137 16.7312 6.10332C16.7312 6.27527 16.6973 6.44553 16.6314 6.60434C16.5655 6.76315 16.4689 6.9074 16.3471 7.02882C13.2027 8.7147 10.626 11.2914 8.94011 14.4358C8.81854 14.5575 8.67419 14.654 8.5153 14.7199C8.35641 14.7857 8.1861 14.8196 8.01411 14.8196C7.84211 14.8196 7.6718 14.7857 7.51291 14.7199C7.35403 14.654 7.20967 14.5575 7.08811 14.4358L3.57911 10.9268C3.45744 10.8052 3.36092 10.6609 3.29506 10.502C3.22921 10.3431 3.19531 10.1728 3.19531 10.0008C3.19531 9.82882 3.22921 9.65851 3.29506 9.49962C3.36092 9.34074 3.45744 9.19638 3.57911 9.07482Z" stroke="#DDB44D" stroke-width="1.5" stroke-linecap="round" stroke-linejoin="round"/>
<path d="M12.75 22.25C12.75 21.8522 12.592 21.4706 12.3107 21.1893C12.0294 20.908 11.6478 20.75 11.25 20.75H3.75C3.35218 20.75 2.97064 20.908 2.68934 21.1893C2.40804 21.4706 2.25 21.8522 2.25 22.25V23.75H12.75V22.25Z" stroke="#DDB44D" stroke-width="1.5" stroke-linecap="round" stroke-linejoin="round"/>
<path d="M0.75 23.75H14.25" stroke="#DDB44D" stroke-width="1.5" stroke-linecap="round" stroke-linejoin="round"/>
</g>
<defs>
<clipPath id="clip0_4826_14566">
<rect width="24" height="24" fill="white" transform="translate(0 0.5)"/>
</clipPath>
</defs>
</svg>
