<svg width="21" height="20" viewBox="0 0 21 20" fill="none" xmlns="http://www.w3.org/2000/svg">
<g id="Frame" opacity="0.8">
<path id="Vector" d="M19.2499 6.89365C19.2179 7.98115 18.771 9.01553 17.9999 9.78428L15.285 12.5007C14.4858 13.303 13.3991 13.7538 12.2671 13.7507H12.2632C9.90535 13.7483 7.99598 11.8366 7.99754 9.47959C7.99754 9.44053 7.99754 9.40147 7.9991 9.3624C8.00848 9.01709 8.29598 8.74522 8.64129 8.75459C8.98582 8.76397 9.2577 9.05147 9.24832 9.39678C9.20066 11.0624 10.5132 12.4507 12.1788 12.4976C12.2061 12.4983 12.2343 12.4983 12.2616 12.4983C13.0616 12.4999 13.8304 12.1819 14.3952 11.6147L17.11 8.8999C18.2811 7.71318 18.2686 5.80303 17.0827 4.63193C15.9069 3.471 14.0163 3.471 12.8413 4.63193L11.9819 5.49131C11.7311 5.72881 11.3358 5.71865 11.0983 5.46865C10.8686 5.22725 10.8686 4.84834 11.0982 4.60693L11.9576 3.74756C13.624 2.07959 16.3279 2.07881 17.9951 3.746C17.9951 3.746 17.9951 3.746 17.9959 3.74678C18.8256 4.57803 19.2771 5.71467 19.2459 6.88967L19.2499 6.89365ZM9.01551 14.5054L8.15613 15.3647C7.58973 15.9343 6.81855 16.2538 6.01543 16.2507C4.34824 16.2491 2.99824 14.8968 2.9998 13.2296C2.9998 12.4296 3.31777 11.6632 3.88262 11.0983L6.59277 8.3835C7.76777 7.20147 9.67871 7.19678 10.8607 8.37178C11.4521 8.96006 11.7732 9.76709 11.7482 10.6015C11.7381 10.946 12.01 11.2343 12.3553 11.2437C12.6998 11.253 12.9881 10.9812 12.9975 10.6358V10.6358C13.0271 9.46232 12.5756 8.32873 11.7475 7.49826C10.0795 5.83107 7.37793 5.831 5.71074 7.49818L2.99746 10.213C1.33027 11.8787 1.32949 14.5802 2.9959 16.2474C3.79512 17.0466 4.87871 17.4966 6.00918 17.4974C7.14199 17.5005 8.22871 17.0505 9.02793 16.2474L9.8873 15.388C10.11 15.1247 10.0779 14.7302 9.81465 14.5068C9.5834 14.3099 9.24434 14.3083 9.01152 14.5013L9.01551 14.5054Z" fill="white"/>
</g>
</svg>
