<svg width="24" height="24" viewBox="0 0 24 24" fill="none" xmlns="http://www.w3.org/2000/svg">
<g id="Frame">
<path id="Vector" d="M22.2997 18.5005C23.1197 18.4905 23.7897 17.8205 23.7897 16.9905C23.7797 16.8905 23.7797 16.8005 23.7597 16.7105L21.1347 2.71047C20.9947 1.99047 20.3747 1.48047 19.6547 1.48047H1.67969C0.849688 1.48047 0.179688 2.15047 0.179688 2.98047C0.179688 3.07047 0.179687 3.16047 0.199687 3.25047L2.82469 17.2505C2.95469 17.9505 3.57469 18.4705 4.29469 18.4705H6.54469C6.77469 18.4605 6.97469 18.3105 7.02469 18.0805L8.07469 13.7805C8.16469 13.3705 8.57469 13.1305 8.97469 13.2305C9.37469 13.3205 9.61469 13.7305 9.52469 14.1305L7.65469 21.8305H7.64969C7.57969 22.0905 7.73969 22.3605 8.00969 22.4305C8.03969 22.4305 8.07969 22.4405 8.11969 22.4405H16.6197C17.0297 22.4405 17.3697 22.1005 17.3697 21.6905C17.3697 21.2705 17.0297 20.9405 16.6197 20.9405H14.1197C13.8397 20.9405 13.6197 20.7105 13.6197 20.4405V18.9405C13.6197 18.6605 13.8397 18.4405 14.1197 18.4405L22.2997 18.5005ZM21.4397 14.3505C21.5197 14.7505 21.2597 15.1505 20.8597 15.2305C20.4497 15.3105 20.0497 15.0505 19.9697 14.6505C19.9597 14.6405 19.9597 14.6305 19.9597 14.6305L19.7597 13.6305C19.6797 13.2205 19.9497 12.8305 20.3497 12.7505C20.7497 12.6705 21.1297 12.9305 21.2197 13.3305L21.4397 14.3505ZM18.9397 14.3505C19.0197 14.7505 18.7597 15.1505 18.3597 15.2305C17.9497 15.3105 17.5497 15.0505 17.4697 14.6505C17.4597 14.6405 17.4597 14.6305 17.4597 14.6305L17.2597 13.6305C17.1797 13.2205 17.4497 12.8295 17.8497 12.7495C18.2497 12.6695 18.6297 12.9295 18.7197 13.3295L18.9397 14.3505Z" fill="#B721FF"/>
</g>
</svg>
