<svg width="14" height="15" viewBox="0 0 14 15" fill="none" xmlns="http://www.w3.org/2000/svg">
<g id="Frame">
<g id="Group">
<path id="Vector" d="M10.5 6.77116C10.2608 6.77116 10.0625 6.57283 10.0625 6.33366V5.16699C10.0625 3.32949 9.54333 2.10449 7 2.10449C4.45667 2.10449 3.9375 3.32949 3.9375 5.16699V6.33366C3.9375 6.57283 3.73917 6.77116 3.5 6.77116C3.26083 6.77116 3.0625 6.57283 3.0625 6.33366V5.16699C3.0625 3.47533 3.47083 1.22949 7 1.22949C10.5292 1.22949 10.9375 3.47533 10.9375 5.16699V6.33366C10.9375 6.57283 10.7392 6.77116 10.5 6.77116Z" fill="white"/>
<path id="Vector_2" d="M7.00033 11.7292C5.95616 11.7292 5.10449 10.8775 5.10449 9.83333C5.10449 8.78917 5.95616 7.9375 7.00033 7.9375C8.04449 7.9375 8.89616 8.78917 8.89616 9.83333C8.89616 10.8775 8.04449 11.7292 7.00033 11.7292ZM7.00033 8.8125C6.44033 8.8125 5.97949 9.27333 5.97949 9.83333C5.97949 10.3933 6.44033 10.8542 7.00033 10.8542C7.56033 10.8542 8.02116 10.3933 8.02116 9.83333C8.02116 9.27333 7.56033 8.8125 7.00033 8.8125Z" fill="white"/>
<path id="Vector_3" d="M9.91699 13.7715H4.08366C1.51116 13.7715 0.729492 12.9898 0.729492 10.4173V9.25065C0.729492 6.67815 1.51116 5.89648 4.08366 5.89648H9.91699C12.4895 5.89648 13.2712 6.67815 13.2712 9.25065V10.4173C13.2712 12.9898 12.4895 13.7715 9.91699 13.7715ZM4.08366 6.77148C1.99533 6.77148 1.60449 7.16815 1.60449 9.25065V10.4173C1.60449 12.4998 1.99533 12.8965 4.08366 12.8965H9.91699C12.0053 12.8965 12.3962 12.4998 12.3962 10.4173V9.25065C12.3962 7.16815 12.0053 6.77148 9.91699 6.77148H4.08366Z" fill="white"/>
</g>
</g>
</svg>
