<svg width="64" height="64" viewBox="0 0 64 64" fill="none" xmlns="http://www.w3.org/2000/svg">
<g clip-path="url(#clip0_4571_15399)">
<path d="M51.734 29.1017C51.6013 29.016 51.4427 28.98 51.286 29C51.1294 29.02 50.9848 29.0948 50.878 29.211C48.5154 31.8706 45.2245 33.5251 41.6806 33.835C38.3358 34.0881 35.0205 33.0552 32.4113 30.947C32.2934 30.8534 32.1472 30.8024 31.9966 30.8024C31.8461 30.8024 31.6999 30.8534 31.582 30.947C29.2718 32.8393 26.3789 33.8755 23.3927 33.8804C23.0433 33.8804 22.6887 33.8644 22.326 33.835C18.767 33.5298 15.4608 31.871 13.0887 29.2004C12.9831 29.0841 12.8398 29.0089 12.6842 28.9879C12.5286 28.9669 12.3706 29.0016 12.238 29.0857C10.3998 30.3014 8.22367 30.9035 6.02198 30.8057C5.9332 30.8032 5.8448 30.8184 5.76196 30.8504C5.67911 30.8825 5.60346 30.9307 5.53943 30.9922C5.47539 31.0538 5.42425 31.1275 5.38898 31.209C5.3537 31.2905 5.33501 31.3782 5.33398 31.467V56.9924C5.33398 58.0532 5.75541 59.0706 6.50556 59.8208C7.2557 60.5709 8.27312 60.9924 9.33398 60.9924H54.6673C55.7282 60.9924 56.7456 60.5709 57.4957 59.8208C58.2459 59.0706 58.6673 58.0532 58.6673 56.9924V31.499C58.6671 31.4081 58.6484 31.3182 58.6123 31.2348C58.5761 31.1514 58.5234 31.0762 58.4573 31.0138C58.3912 30.9514 58.313 30.9031 58.2276 30.872C58.1423 30.8408 58.0514 30.8273 57.9607 30.8324C55.7527 30.9425 53.5684 30.3354 51.734 29.1017ZM40.0006 40.6297C40.0151 40.3608 40.1355 40.1087 40.3353 39.9283C40.5352 39.7479 40.7984 39.654 41.0673 39.667H49.6007C49.8696 39.654 50.1327 39.7479 50.3326 39.9283C50.5325 40.1087 50.6528 40.3608 50.6673 40.6297V54.723C50.6673 55.0766 50.5268 55.4158 50.2768 55.6658C50.0267 55.9159 49.6876 56.0564 49.334 56.0564H41.334C40.9804 56.0564 40.6412 55.9159 40.3912 55.6658C40.1411 55.4158 40.0006 55.0766 40.0006 54.723V40.6297ZM14.6673 40.555C14.6831 40.305 14.7971 40.0714 14.9844 39.9051C15.1717 39.7387 15.4172 39.6532 15.6673 39.667H29.6567C29.9068 39.6532 30.1522 39.7387 30.3396 39.9051C30.5269 40.0714 30.6409 40.305 30.6567 40.555V49.4457C30.6409 49.6957 30.5269 49.9293 30.3396 50.0957C30.1522 50.262 29.9068 50.3476 29.6567 50.3337H15.662C15.4119 50.3476 15.1664 50.262 14.9791 50.0957C14.7918 49.9293 14.6778 49.6957 14.662 49.4457L14.6673 40.555Z" fill="#B39CFB"/>
<path d="M58.1041 3H49.6961C49.5927 3.00041 49.4907 3.02469 49.3982 3.07094C49.3057 3.11719 49.2251 3.18417 49.1627 3.26667C49.1008 3.35218 49.0603 3.45127 49.0445 3.55565C49.0288 3.66004 49.0382 3.76668 49.0721 3.86667L53.2267 16.368C53.2952 16.5718 53.3312 16.785 53.3334 17C53.3334 22.736 53.3334 24.432 53.3334 24.976C53.3318 25.0842 53.3564 25.1912 53.4052 25.2878C53.4539 25.3844 53.5254 25.4677 53.6134 25.5307C54.4578 26.1944 55.4626 26.6233 56.526 26.7741C57.5894 26.9249 58.6738 26.7922 59.6694 26.3893C60.9443 25.8293 62.0308 24.9137 62.7988 23.7521C63.5669 22.5906 63.9839 21.2324 64.0001 19.84V17.3173C63.9991 17.2364 63.9847 17.1562 63.9574 17.08L58.9334 3.89867C58.7094 3.31467 58.3387 3 58.1041 3Z" fill="#B39CFB"/>
<path d="M49.2053 24.8343C49.2853 24.7222 49.3282 24.5879 49.328 24.4503V17.4316C49.3286 17.3599 49.3169 17.2886 49.2933 17.2209L44.704 3.46625C44.6598 3.33356 44.575 3.21812 44.4616 3.13629C44.3482 3.05445 44.2119 3.01036 44.072 3.01025H34.6667C34.4898 3.01023 34.3201 3.08022 34.1947 3.20492C34.0709 3.331 34.0011 3.50027 34 3.67692V26.7329C34.8563 27.8435 35.9845 28.7145 37.2756 29.262C38.5666 29.8095 39.9771 30.0148 41.3707 29.8583C42.9734 29.6744 44.5128 29.126 45.8708 28.2552C47.2289 27.3843 48.3695 26.2141 49.2053 24.8343Z" fill="#B39CFB"/>
<path d="M30.0008 26.7227V3.66667C30.0008 3.48986 29.9306 3.32029 29.8055 3.19526C29.6805 3.07024 29.5109 3 29.3341 3H19.9181C19.7783 3.00011 19.642 3.0442 19.5286 3.12603C19.4151 3.20787 19.3303 3.3233 19.2861 3.456L14.6968 17.2213C14.6732 17.289 14.6615 17.3603 14.6621 17.432V24.4347C14.6622 24.5719 14.704 24.7059 14.7821 24.8187C15.6208 26.2076 16.7686 27.3842 18.1362 28.257C19.5039 29.1297 21.0546 29.6751 22.6675 29.8507C24.056 30.0082 25.4616 29.8027 26.747 29.2545C28.0323 28.7062 29.1535 27.8339 30.0008 26.7227Z" fill="#B39CFB"/>
<path d="M10.6667 24.9996V16.9996C10.6671 16.7849 10.7013 16.5716 10.768 16.3676L14.9333 3.87692C14.9672 3.77693 14.9767 3.67029 14.9609 3.56591C14.9451 3.46152 14.9046 3.36243 14.8427 3.27692C14.7806 3.19412 14.7 3.12692 14.6075 3.08064C14.5149 3.03435 14.4128 3.01025 14.3093 3.01025H5.896C5.66133 3.01025 5.29067 3.32492 5.06933 3.90892L0.048 17.0796C0.0189116 17.1555 0.00268893 17.2357 0 17.3169L0 19.8396C0.0168652 21.2291 0.434137 22.5843 1.20179 23.7426C1.96944 24.9009 3.05489 25.8133 4.328 26.3703C5.38733 26.8752 6.58421 27.0146 7.73122 26.7665C8.87823 26.5185 9.9106 25.8971 10.6667 24.9996Z" fill="#B39CFB"/>
</g>
<defs>
<clipPath id="clip0_4571_15399">
<rect width="64" height="64" fill="white"/>
</clipPath>
</defs>
</svg>
