<svg width="40" height="41" viewBox="0 0 40 41" fill="none" xmlns="http://www.w3.org/2000/svg">
<g filter="url(#filter0_b_462_3693)">
<rect y="0.5" width="40" height="40" rx="19.8" fill="#8761EE" fill-opacity="0.2"/>
<path d="M23.25 14.5C23.25 16.29 21.79 17.75 20 17.75C18.2 17.75 16.75 16.29 16.75 14.5C16.75 12.7 18.2 11.25 20 11.25C21.79 11.25 23.25 12.7 23.25 14.5ZM24.75 14.5C24.75 11.87 22.62 9.75 20 9.75C17.37 9.75 15.25 11.87 15.25 14.5C15.25 17.12 17.37 19.25 20 19.25C22.62 19.25 24.75 17.12 24.75 14.5Z" fill="#8761EE"/>
<path d="M26 18.25C28.04 18.25 29.75 16.82 29.75 15C29.75 13.17 28.04 11.75 26 11.75C25.58 11.75 25.25 12.08 25.25 12.5C25.25 12.91 25.58 13.25 26 13.25C27.26 13.25 28.25 14.06 28.25 15C28.25 15.93 27.26 16.75 26 16.75C25.58 16.75 25.25 17.08 25.25 17.5C25.25 17.91 25.58 18.25 26 18.25ZM14 16.75C12.73 16.75 11.75 15.93 11.75 15C11.75 14.06 12.73 13.25 14 13.25C14.41 13.25 14.75 12.91 14.75 12.5C14.75 12.08 14.41 11.75 14 11.75C11.95 11.75 10.25 13.17 10.25 15C10.25 16.82 11.95 18.25 14 18.25C14.41 18.25 14.75 17.91 14.75 17.5C14.75 17.08 14.41 16.75 14 16.75Z" fill="#8761EE"/>
<path d="M25.25 25.5C25.25 27.21 22.94 28.75 20 28.75C17.05 28.75 14.75 27.21 14.75 25.5C14.75 23.78 17.05 22.25 20 22.25C22.94 22.25 25.25 23.78 25.25 25.5ZM26.75 25.5C26.75 22.79 23.67 20.75 20 20.75C16.32 20.75 13.25 22.79 13.25 25.5C13.25 28.2 16.32 30.25 20 30.25C23.67 30.25 26.75 28.2 26.75 25.5Z" fill="#8761EE"/>
<path d="M28.16 28.2305C30.25 27.7705 31.74 26.5405 31.74 24.9905C31.74 23.4305 30.24 22.2105 28.15 21.7505C27.74 21.6605 27.34 21.9105 27.25 22.3205C27.16 22.7205 27.41 23.1205 27.82 23.2105C29.3 23.5305 30.23 24.2905 30.23 24.9705C30.23 25.6505 29.3 26.4105 27.81 26.7305C27.4 26.8105 27.14 27.2105 27.23 27.6205C27.31 28.0205 27.71 28.2805 28.12 28.1905L28.16 28.2305ZM12.16 26.7605C10.67 26.4305 9.73998 25.6705 9.73998 24.9905C9.73998 24.3005 10.66 23.5405 12.15 23.2205C12.55 23.1305 12.81 22.7305 12.72 22.3205C12.63 21.9105 12.23 21.6505 11.82 21.7405C9.71998 22.1905 8.22998 23.4205 8.22998 24.9705C8.22998 26.5205 9.71998 27.7405 11.81 28.2005C12.21 28.2805 12.61 28.0305 12.7 27.6205C12.78 27.2105 12.53 26.8105 12.12 26.7205L12.16 26.7605Z" fill="#8761EE"/>
</g>
<defs>
<filter id="filter0_b_462_3693" x="-24" y="-23.5" width="88" height="88" filterUnits="userSpaceOnUse" color-interpolation-filters="sRGB">
<feFlood flood-opacity="0" result="BackgroundImageFix"/>
<feGaussianBlur in="BackgroundImageFix" stdDeviation="12"/>
<feComposite in2="SourceAlpha" operator="in" result="effect1_backgroundBlur_462_3693"/>
<feBlend mode="normal" in="SourceGraphic" in2="effect1_backgroundBlur_462_3693" result="shape"/>
</filter>
</defs>
</svg>
