<svg width="56" height="44" viewBox="0 0 56 44" fill="none" xmlns="http://www.w3.org/2000/svg">
<g clip-path="url(#clip0_4571_15358)">
<path d="M52.8596 9.48641C50.4509 4.42215 45.5377 0.91785 39.9998 0.503485C37.2863 0.252241 34.4863 0.70973 32.0399 1.93783C30.3973 2.74968 28.9351 3.87653 27.7064 5.219C25.1716 2.35408 21.5888 0.480986 17.7237 0.285989C9.59835 -0.199624 2.59451 5.04088 0.887778 13.1782C-0.149061 18.0512 0.981865 23.1398 3.22679 27.426C5.46794 31.6541 8.73841 35.4133 12.993 37.6221C15.9624 39.062 18.7455 35.4095 16.574 32.856C15.8815 32.0834 15.2436 31.2621 14.6621 30.3847C14.1221 29.571 13.6366 28.7159 13.1962 27.8404C11.9731 25.3429 11.0605 22.5305 10.8798 19.7612C10.7726 18.0006 11.004 16.4837 11.7379 14.9519C12.4323 13.5232 13.5575 12.2951 15.0347 11.7176C17.3323 10.8495 19.7296 11.3164 21.4759 13.1913C22.6106 14.3557 23.13 15.9851 23.7095 17.4887C23.7527 17.5975 23.7998 17.7024 23.8487 17.8055C25.0022 21.3511 30.2899 21.4411 31.2778 17.4081C31.3081 17.2712 31.3381 17.1324 31.3701 16.9918C31.3757 16.9693 31.3814 16.9487 31.3871 16.9263C31.3926 16.9038 31.3964 16.8813 31.4021 16.8568C31.4868 16.4969 31.5847 16.1369 31.7107 15.8012C32.1039 14.7194 32.7588 13.6751 33.5454 12.8782C34.7309 11.6764 36.2419 10.9507 37.8959 11.112C38.8217 11.1645 39.8661 11.4157 40.6189 11.8226C44.8414 14.1044 44.4011 20.1006 42.5909 24.0511C41.3188 26.8186 39.2828 29.1341 37.0247 31.1347C36.4659 31.6278 35.8279 32.1716 35.2503 32.6309C32.6027 34.6802 31.9253 38.5595 34.0178 41.34C36.2626 44.3962 40.7336 44.5444 43.3022 41.8257C43.8065 41.3289 44.2939 40.8133 44.7737 40.2939C49.6193 34.9015 54.0224 26.8973 54.7074 19.5212C54.9898 16.0731 54.3743 12.627 52.8558 9.48828L52.8596 9.48641Z" fill="white"/>
<path d="M52.8596 9.48641C50.4509 4.42215 45.5377 0.91785 39.9998 0.503485C37.2863 0.252241 34.4863 0.70973 32.0399 1.93783C30.3973 2.74968 28.9351 3.87653 27.7064 5.219C25.1716 2.35408 21.5888 0.480986 17.7237 0.285989C9.59835 -0.199624 2.59451 5.04088 0.887778 13.1782C-0.149061 18.0512 0.981865 23.1398 3.22679 27.426C5.46794 31.6541 8.73841 35.4133 12.993 37.6221C15.9624 39.062 18.7455 35.4095 16.574 32.856C15.8815 32.0834 15.2436 31.2621 14.6621 30.3847C14.1221 29.571 13.6366 28.7159 13.1962 27.8404C11.9731 25.3429 11.0605 22.5305 10.8798 19.7612C10.7726 18.0006 11.004 16.4837 11.7379 14.9519C12.4323 13.5232 13.5575 12.2951 15.0347 11.7176C17.3323 10.8495 19.7296 11.3164 21.4759 13.1913C22.6106 14.3557 23.13 15.9851 23.7095 17.4887C23.7527 17.5975 23.7998 17.7024 23.8487 17.8055C25.0022 21.3511 30.2899 21.4411 31.2778 17.4081C31.3081 17.2712 31.3381 17.1324 31.3701 16.9918C31.3757 16.9693 31.3814 16.9487 31.3871 16.9263C31.3926 16.9038 31.3964 16.8813 31.4021 16.8568C31.4868 16.4969 31.5847 16.1369 31.7107 15.8012C32.1039 14.7194 32.7588 13.6751 33.5454 12.8782C34.7309 11.6764 36.2419 10.9507 37.8959 11.112C38.8217 11.1645 39.8661 11.4157 40.6189 11.8226C44.8414 14.1044 44.4011 20.1006 42.5909 24.0511C41.3188 26.8186 39.2828 29.1341 37.0247 31.1347C36.4659 31.6278 35.8279 32.1716 35.2503 32.6309C32.6027 34.6802 31.9253 38.5595 34.0178 41.34C36.2626 44.3962 40.7336 44.5444 43.3022 41.8257C43.8065 41.3289 44.2939 40.8133 44.7737 40.2939C49.6193 34.9015 54.0224 26.8973 54.7074 19.5212C54.9898 16.0731 54.3743 12.627 52.8558 9.48828L52.8596 9.48641Z" fill="url(#paint0_radial_4571_15358)"/>
</g>
<defs>
<radialGradient id="paint0_radial_4571_15358" cx="0" cy="0" r="1" gradientUnits="userSpaceOnUse" gradientTransform="translate(37.873 38.5691) rotate(-131.637) scale(44.8635 68.1553)">
<stop stop-color="#33FFCC"/>
<stop offset="1" stop-color="#0F7FFF"/>
</radialGradient>
<clipPath id="clip0_4571_15358">
<rect width="55.5" height="43.5" fill="white" transform="translate(0.5 0.253845)"/>
</clipPath>
</defs>
</svg>
