<svg width="156" height="30" viewBox="0 0 156 30" fill="none" xmlns="http://www.w3.org/2000/svg">
<path d="M0.944256 28.5038V4.77684H12.4943L17.9393 17.6138L18.2693 18.3728L18.6323 17.6138L24.0773 4.77684H35.5943V28.5038H27.3113V13.4558L26.7173 14.7758L21.9323 25.6988H14.6063L9.85426 14.5448L9.29326 13.4228V28.5038H0.944256ZM58.7445 26.4578C56.4565 28.2178 53.3435 29.0978 49.4055 29.0978C45.4675 29.0978 42.3545 28.2178 40.0665 26.4578C37.8005 24.6978 36.6675 22.3548 36.6675 19.4288C36.6675 16.5468 37.8005 14.2368 40.0665 12.4988C42.3545 10.7608 45.4675 9.89184 49.4055 9.89184C53.3435 9.89184 56.4565 10.7718 58.7445 12.5318C61.0325 14.2698 62.1765 16.5688 62.1765 19.4288C62.1765 22.3548 61.0325 24.6978 58.7445 26.4578ZM49.3725 23.4218C51.5945 23.4218 52.7055 22.0908 52.7055 19.4288C52.7055 18.1528 52.4085 17.1958 51.8145 16.5578C51.2425 15.9198 50.4285 15.6008 49.3725 15.6008C47.1725 15.6008 46.0725 16.8768 46.0725 19.4288C46.0725 22.0908 47.1725 23.4218 49.3725 23.4218ZM78.3545 10.2218C79.4985 10.2218 80.3785 10.3208 80.9945 10.5188L80.0045 17.2838C78.7725 16.8658 77.3205 16.6568 75.6485 16.6568C74.4825 16.6568 73.6355 16.9208 73.1075 17.4488C72.5795 17.9548 72.3155 18.8898 72.3155 20.2538V28.5038H63.0755V10.4858H70.9955L71.5565 12.7958C73.4265 11.0798 75.6925 10.2218 78.3545 10.2218ZM88.0029 29.0978C85.3629 29.0978 83.3609 28.5918 81.9969 27.5798C80.6329 26.5678 79.9509 25.2808 79.9509 23.7188C79.9509 21.9368 80.6879 20.5728 82.1619 19.6268C83.6579 18.6588 86.3089 17.9768 90.1149 17.5808C92.2489 17.3608 93.9209 17.2288 95.1309 17.1848C95.1309 16.5028 94.8779 16.0518 94.3719 15.8318C93.8879 15.5898 93.1399 15.4688 92.1279 15.4688C89.2899 15.4688 86.6059 15.9858 84.0759 17.0198L80.1819 12.5978C83.4599 10.7938 87.3649 9.89184 91.8969 9.89184C96.3189 9.89184 99.5089 10.6618 101.467 12.2018C103.425 13.7418 104.404 16.1838 104.404 19.5278V28.5368H97.0779L96.3849 25.9628C95.7689 26.9528 94.6689 27.7228 93.0849 28.2728C91.5009 28.8228 89.8069 29.0978 88.0029 29.0978ZM90.7419 23.6858C91.5779 23.6858 92.4799 23.4548 93.4479 22.9928C94.4159 22.5308 94.9659 22.0028 95.0979 21.4088V21.3428C94.2179 21.3428 93.3819 21.3978 92.5899 21.5078C90.2579 21.7498 89.0919 22.1788 89.0919 22.7948C89.0919 23.3888 89.6419 23.6858 90.7419 23.6858ZM113 29.0978C110.91 29.0978 109.194 28.5258 107.852 27.3818C106.51 26.2378 105.839 24.5768 105.839 22.3988V4.74384H114.782V21.0458C114.782 21.7278 114.925 22.1898 115.211 22.4318C115.519 22.6738 116.091 22.7948 116.927 22.7948C117.631 22.7948 118.511 22.7178 119.567 22.5638L120.227 28.2398C118.577 28.8118 116.168 29.0978 113 29.0978ZM125.501 8.93484C124.027 8.93484 122.872 8.57184 122.036 7.84584C121.2 7.11984 120.782 6.11884 120.782 4.84284C120.782 3.58884 121.2 2.60984 122.036 1.90584C122.872 1.17984 124.027 0.816844 125.501 0.816844C126.975 0.816844 128.119 1.17984 128.933 1.90584C129.747 2.60984 130.154 3.58884 130.154 4.84284C130.154 6.11884 129.736 7.11984 128.9 7.84584C128.086 8.57184 126.953 8.93484 125.501 8.93484ZM120.848 28.5038V10.4858H130.088V28.5038H120.848ZM143.892 29.1308C140.24 29.1308 137.292 28.6688 135.048 27.7448C132.804 26.7988 131.407 25.2038 130.857 22.9598L138.81 22.2998C138.964 22.7838 139.195 23.1908 139.503 23.5208C139.833 23.8288 140.229 24.0488 140.691 24.1808C141.175 24.2908 141.582 24.3678 141.912 24.4118C142.264 24.4338 142.693 24.4448 143.199 24.4448C145.333 24.4448 146.4 24.1808 146.4 23.6528C146.4 23.2568 146.07 22.9598 145.41 22.7618C144.75 22.5418 142.924 22.0908 139.932 21.4088C134.388 20.1328 131.616 18.0538 131.616 15.1718C131.616 13.3898 132.65 12.0588 134.718 11.1788C136.808 10.2988 139.569 9.85885 143.001 9.85885C150.063 9.85885 154.111 11.6628 155.145 15.2708L147.588 16.3268C147.478 15.8868 147.291 15.5348 147.027 15.2708C146.785 15.0068 146.433 14.8198 145.971 14.7098C145.509 14.5778 145.102 14.5008 144.75 14.4788C144.398 14.4348 143.903 14.4128 143.265 14.4128C141.615 14.4128 140.79 14.6768 140.79 15.2048C140.79 15.5568 141.131 15.8428 141.813 16.0628C142.495 16.2608 143.892 16.5908 146.004 17.0528C146.268 17.1188 146.477 17.1738 146.631 17.2178C146.785 17.2398 146.994 17.2838 147.258 17.3498C147.522 17.3938 147.764 17.4378 147.984 17.4818C153.044 18.5598 155.574 20.5618 155.574 23.4878C155.574 27.2498 151.68 29.1308 143.892 29.1308Z" fill="white"/>
</svg>
