<svg width="44" height="44" viewBox="0 0 44 44" fill="none" xmlns="http://www.w3.org/2000/svg">
<rect width="44" height="44" rx="22" fill="#0091BB"/>
<g clip-path="url(#clip0_275_2095)">
<path d="M34 21.9896C33.99 20.3096 32.88 18.8296 31.27 18.3796L31.58 19.6396C32.76 18.4796 32.79 16.5796 31.64 15.3896C31.13 14.8596 30.45 14.5396 29.73 14.4796L29.66 15.2196L30.22 14.7196C30.05 14.5296 29.87 14.3696 29.67 14.2296L29.24 14.8396L29.93 15.1196C30.72 13.1996 29.81 11.0096 27.9 10.2096C26.07 9.44955 23.97 10.2396 23.09 12.0096L24.36 11.8896C23.37 10.5496 21.5 10.2596 20.16 11.2496C19.91 11.4196 19.69 11.6396 19.52 11.8796L20.12 12.3196L20.79 11.9796C19.87 10.1196 17.62 9.34955 15.76 10.2696C13.98 11.1396 13.19 13.2396 13.95 15.0696L14.64 14.7796L14.21 14.1596C14 14.2896 13.82 14.4496 13.66 14.6396L14.22 15.1296L14.15 14.3796C12.49 14.5096 11.27 15.9596 11.4 17.6096C11.45 18.3296 11.77 19.0096 12.3 19.5096L12.82 18.9696L12.61 18.2396C10.61 18.7996 9.44999 20.8696 10.02 22.8596C10.37 24.1096 11.35 25.0896 12.6 25.4396L12.28 24.1696C11.09 25.3196 11.06 27.2196 12.21 28.3996C12.71 28.9196 13.39 29.2396 14.12 29.2996L14.18 28.5496L13.61 29.0396C13.77 29.2196 13.95 29.3796 14.15 29.5196L14.57 28.8996L13.87 28.6096C13.07 30.5196 13.98 32.7096 15.89 33.5096C17.71 34.2596 19.81 33.4696 20.69 31.6996L19.41 31.8096C20.39 33.1396 22.26 33.4296 23.6 32.4396C23.84 32.2596 24.06 32.0396 24.23 31.7996L23.62 31.3496L22.94 31.6796C23.85 33.5296 26.1 34.2996 27.96 33.3796C29.73 32.4996 30.52 30.3996 29.76 28.5696L29.06 28.8496L29.48 29.4596C29.68 29.3196 29.86 29.1596 30.02 28.9696L29.45 28.4696L29.51 29.2096C31.16 29.0696 32.38 27.6296 32.25 25.9696C32.19 25.2396 31.87 24.5596 31.34 24.0496L30.81 24.5796L31.01 25.2996C32.62 24.8396 33.73 23.3596 33.73 21.6896L34 21.9896ZM32.5 21.9896C32.5 22.9896 31.83 23.8796 30.86 24.1496C30.3 24.2996 30.12 24.9996 30.54 25.4096C30.8 25.6596 30.96 25.9996 30.99 26.3596C31.05 27.1796 30.44 27.8996 29.61 27.9696C29.41 27.9796 29.23 28.0696 29.11 28.2096C29.02 28.2996 28.93 28.3796 28.83 28.4496C28.53 28.6496 28.42 29.0196 28.56 29.3496C29.01 30.4396 28.54 31.6996 27.47 32.2296C26.35 32.7696 25 32.3196 24.45 31.1996C24.2 30.6896 23.5 30.6296 23.17 31.0796C23.08 31.1996 22.97 31.3096 22.85 31.3896C22.18 31.8796 21.24 31.7296 20.75 31.0696C20.41 30.6096 19.72 30.6696 19.47 31.1796C18.94 32.2396 17.68 32.7096 16.58 32.2596C15.43 31.7796 14.88 30.4596 15.36 29.3096C15.49 28.9796 15.38 28.5996 15.09 28.3996C14.98 28.3196 14.89 28.2396 14.81 28.1496C14.68 27.9996 14.5 27.9096 14.31 27.8996C13.94 27.8696 13.6 27.7096 13.35 27.4396C12.77 26.8396 12.78 25.8896 13.38 25.3196C13.79 24.9096 13.61 24.2096 13.06 24.0496C12.3 23.8296 11.72 23.2396 11.5 22.4896C11.16 21.2896 11.85 20.0496 13.05 19.7096C13.6 19.5496 13.78 18.8496 13.36 18.4396C13.09 18.1796 12.93 17.8396 12.9 17.4796C12.83 16.6496 13.44 15.9296 14.27 15.8596C14.46 15.8396 14.64 15.7496 14.76 15.6096C14.84 15.5096 14.93 15.4296 15.03 15.3596C15.32 15.1496 15.43 14.7796 15.29 14.4496C14.83 13.3496 15.3 12.0896 16.37 11.5596C17.48 11.0096 18.83 11.4596 19.38 12.5796C19.62 13.0796 20.32 13.1396 20.65 12.6896C20.73 12.5596 20.84 12.4496 20.96 12.3696C21.62 11.8696 22.56 12.0196 23.05 12.6796C23.38 13.1296 24.07 13.0696 24.32 12.5596C24.84 11.4896 26.1 11.0196 27.2 11.4696C28.34 11.9396 28.89 13.2596 28.41 14.4096C28.27 14.7296 28.38 15.1096 28.67 15.3096C28.77 15.3796 28.86 15.4596 28.94 15.5496C29.06 15.6896 29.24 15.7796 29.43 15.7896C29.79 15.8096 30.13 15.9696 30.38 16.2396C30.95 16.8296 30.94 17.7796 30.34 18.3496C29.92 18.7496 30.1 19.4496 30.65 19.6096C31.61 19.8796 32.28 20.7596 32.28 21.7696L32.5 21.9896Z" fill="white"/>
<path d="M25.75 22V25C25.75 25.41 25.41 25.75 25 25.75H19C18.58 25.75 18.25 25.41 18.25 25V19C18.25 18.58 18.58 18.25 19 18.25H25C25.41 18.25 25.75 18.58 25.75 19V22ZM27.25 22V19C27.25 17.75 26.24 16.75 25 16.75H19C17.75 16.75 16.75 17.75 16.75 19V25C16.75 26.24 17.75 27.25 19 27.25H25C26.24 27.25 27.25 26.24 27.25 25V22Z" fill="white"/>
<path d="M20.5 17.5V16C20.5 15.58 20.16 15.25 19.75 15.25C19.33 15.25 19 15.58 19 16V17.5C19 17.91 19.33 18.25 19.75 18.25C20.16 18.25 20.5 17.91 20.5 17.5Z" fill="white"/>
<path d="M25 17.5V16C25 15.58 24.66 15.25 24.25 15.25C23.83 15.25 23.5 15.58 23.5 16V17.5C23.5 17.91 23.83 18.25 24.25 18.25C24.66 18.25 25 17.91 25 17.5Z" fill="white"/>
<path d="M20.5 28V26.5C20.5 26.08 20.16 25.75 19.75 25.75C19.33 25.75 19 26.08 19 26.5V28C19 28.41 19.33 28.75 19.75 28.75C20.16 28.75 20.5 28.41 20.5 28Z" fill="white"/>
<path d="M25 28V26.5C25 26.08 24.66 25.75 24.25 25.75C23.83 25.75 23.5 26.08 23.5 26.5V28C23.5 28.41 23.83 28.75 24.25 28.75C24.66 28.75 25 28.41 25 28Z" fill="white"/>
<path d="M26.5 20.5H28C28.41 20.5 28.75 20.16 28.75 19.75C28.75 19.33 28.41 19 28 19H26.5C26.08 19 25.75 19.33 25.75 19.75C25.75 20.16 26.08 20.5 26.5 20.5Z" fill="white"/>
<path d="M26.5 25H28C28.41 25 28.75 24.66 28.75 24.25C28.75 23.83 28.41 23.5 28 23.5H26.5C26.08 23.5 25.75 23.83 25.75 24.25C25.75 24.66 26.08 25 26.5 25Z" fill="white"/>
<path d="M16 20.5H17.5C17.91 20.5 18.25 20.16 18.25 19.75C18.25 19.33 17.91 19 17.5 19H16C15.58 19 15.25 19.33 15.25 19.75C15.25 20.16 15.58 20.5 16 20.5Z" fill="white"/>
<path d="M16 25H17.5C17.91 25 18.25 24.66 18.25 24.25C18.25 23.83 17.91 23.5 17.5 23.5H16C15.58 23.5 15.25 23.83 15.25 24.25C15.25 24.66 15.58 25 16 25Z" fill="white"/>
<path d="M20.5 21.25H23.5L22.75 20.5V23.5L23.5 22.75H20.5L21.25 23.5V20.5L20.5 21.25ZM20.5 19.75C20.08 19.75 19.75 20.08 19.75 20.5V23.5C19.75 23.91 20.08 24.25 20.5 24.25H23.5C23.91 24.25 24.25 23.91 24.25 23.5V20.5C24.25 20.08 23.91 19.75 23.5 19.75H20.5Z" fill="white"/>
</g>
<defs>
<clipPath id="clip0_275_2095">
<rect width="24" height="24" fill="white" transform="translate(10 10)"/>
</clipPath>
</defs>
</svg>
