<svg width="45" height="44" viewBox="0 0 45 44" fill="none" xmlns="http://www.w3.org/2000/svg">
<rect x="0.666016" width="44" height="44" rx="22" fill="#8C00BB"/>
<path d="M15.666 26V23C15.666 22.7348 15.7714 22.4804 15.9589 22.2929C16.1464 22.1054 16.4008 22 16.666 22H28.666C28.9312 22 29.1856 22.1054 29.3731 22.2929C29.5607 22.4804 29.666 22.7348 29.666 23V26M22.666 22V18M27.666 26H31.666C32.2183 26 32.666 26.4477 32.666 27V31C32.666 31.5523 32.2183 32 31.666 32H27.666C27.1137 32 26.666 31.5523 26.666 31V27C26.666 26.4477 27.1137 26 27.666 26ZM13.666 26H17.666C18.2183 26 18.666 26.4477 18.666 27V31C18.666 31.5523 18.2183 32 17.666 32H13.666C13.1137 32 12.666 31.5523 12.666 31V27C12.666 26.4477 13.1137 26 13.666 26ZM20.666 12H24.666C25.2183 12 25.666 12.4477 25.666 13V17C25.666 17.5523 25.2183 18 24.666 18H20.666C20.1137 18 19.666 17.5523 19.666 17V13C19.666 12.4477 20.1137 12 20.666 12Z" stroke="white" stroke-width="2" stroke-linecap="round" stroke-linejoin="round"/>
</svg>
