<svg width="189" height="78" viewBox="0 0 189 78" fill="none" xmlns="http://www.w3.org/2000/svg">
<g clip-path="url(#clip0_4571_15269)">
<path d="M43.3848 76.8307V57.4078L43.751 57.04H48.585L48.9512 57.4078V76.8307L48.585 77.1985H43.751L43.3848 76.8307Z" fill="#32E6E2"/>
<path d="M43.3848 20.2546V0.831724L43.751 0.463867H48.585L48.9512 0.831724V20.2546L48.585 20.6224H43.751L43.3848 20.2546Z" fill="#32E6E2"/>
<path d="M26.7598 63.1448H26.1006L22.8047 59.8341V59.172L29.0303 52.9184H32.5459L32.9854 53.3599V56.8913L26.7598 63.1448Z" fill="#32E6E2"/>
<path d="M22.8047 18.637V17.9749L26.1006 14.6642H26.7598L32.9854 20.9177V24.4492L32.5459 24.8906H29.0303L22.8047 18.637Z" fill="#32E6E2"/>
<path d="M0.905273 35.9976H28.2246L28.5908 36.3655V41.2212L28.2979 41.6626H0.905273L0.539062 41.2212V36.3655L0.905273 35.9976Z" fill="#32E6E2"/>
<path d="M187.6 35.9976L187.966 36.3655V41.2212L187.6 41.589H159.841L159.475 41.2212L161.452 36.3655L161.818 35.9976H187.6Z" fill="#32E6E2"/>
<path d="M55.25 48.9454H50.416L50.0498 48.5776V37.174C50.0498 35.1876 49.2441 33.569 46.8271 33.569C45.582 33.569 44.1172 33.569 42.6523 33.6426L42.4326 33.8633V48.5776L42.0664 48.9454H37.1592L36.793 48.5776V29.1547L37.1592 28.7868H47.999C52.2471 28.7868 55.6162 32.2447 55.6162 36.4383V48.5776L55.25 48.9454Z" fill="white"/>
<path d="M78.6152 40.4137L78.249 40.7815H65.7246L65.3584 41.1494C65.3584 41.9587 66.1641 44.3865 69.3867 44.3865C70.5586 44.3865 71.8037 44.0187 72.1699 43.2094L72.5361 42.8415H77.3701L77.7363 43.2094C77.3701 45.6372 75.3193 49.2423 69.3135 49.2423C62.502 49.2423 59.2793 44.3865 59.2793 38.7215C59.2793 33.0565 62.502 28.2008 68.9473 28.2008C75.3926 28.2008 78.6152 33.0565 78.6152 38.7215V40.4137ZM72.5361 36.4408C72.5361 36.073 72.1699 33.2037 68.9473 33.2037C65.7246 33.2037 65.3584 35.9994 65.3584 36.4408L65.7246 36.8087H72.1699L72.5361 36.4408Z" fill="white"/>
<path d="M89.8213 42.8408C89.8213 43.6501 90.1875 44.018 90.9932 44.018H94.582L94.9482 44.3858V48.4323L94.582 48.8001H90.9932C87.4043 48.8001 84.1816 47.1815 84.1816 42.7673V34.0123L83.8154 33.6444H81.0322L80.666 33.2765V29.1565L81.0322 28.7887H83.8154L84.1816 28.4208V24.8158L84.5478 24.448H89.3818L89.748 24.8158V28.4208L90.1143 28.7887H94.5088L94.875 29.1565V33.203L94.5088 33.5708H90.1143L89.748 33.9387L89.8213 42.8408Z" fill="white"/>
<path d="M104.763 48.9465H99.9287L99.5625 48.5787V21.063L99.9287 20.6951H104.763L105.129 21.063V48.5787L104.763 48.9465Z" fill="white"/>
<path d="M115.603 25.4773H110.769L110.402 25.1094V21.063L110.769 20.6951H115.603L115.969 21.063V25.1094L115.603 25.4773ZM115.603 48.9465H110.769L110.402 48.5787V29.1558L110.769 28.788H115.603L115.969 29.1558V48.5787L115.603 48.9465Z" fill="white"/>
<path d="M134.498 21.0631V25.1096L134.132 25.4774H130.543C129.737 25.4774 129.371 25.8453 129.371 26.6546V28.2731L129.737 28.641H133.766L134.132 29.0089V33.0553L133.766 33.4231H129.737L129.371 33.791V48.3581L129.005 48.726H124.171L123.805 48.3581V34.0117L123.438 33.6439H120.655L120.289 33.276V29.156L120.655 28.7881H123.438L123.805 28.4203V26.8017C123.805 22.3874 127.027 20.7689 130.616 20.7689H134.205L134.498 21.0631Z" fill="white"/>
<path d="M149.366 49.3133C147.755 53.3597 146.144 55.7876 140.504 55.7876H138.526L138.16 55.4197V51.3733L138.526 51.0054H140.504C142.481 51.0054 142.921 50.6376 143.287 49.3868V49.019L136.842 33.2747V29.1547L137.208 28.7868H140.797L141.163 29.1547L145.997 42.9126H146.363L151.417 29.1547L151.783 28.7868H155.372L155.812 29.1547V33.2011L149.366 49.3133Z" fill="white"/>
</g>
<defs>
<clipPath id="clip0_4571_15269">
<rect width="187.921" height="77.0771" fill="white" transform="translate(0.539062 0.465332)"/>
</clipPath>
</defs>
</svg>
