<svg width="64" height="64" viewBox="0 0 64 64" fill="none" xmlns="http://www.w3.org/2000/svg">
<path d="M58.6667 19.3335H5.33333C3.91885 19.3335 2.56229 19.8954 1.5621 20.8956C0.561903 21.8958 0 23.2523 0 24.6668L0 56.6668C0 58.0813 0.561903 59.4379 1.5621 60.4381C2.56229 61.4383 3.91885 62.0002 5.33333 62.0002H58.6667C60.0812 62.0002 61.4377 61.4383 62.4379 60.4381C63.4381 59.4379 64 58.0813 64 56.6668V24.6668C64 23.2523 63.4381 21.8958 62.4379 20.8956C61.4377 19.8954 60.0812 19.3335 58.6667 19.3335ZM56 28.6668V39.3335C56 39.6871 55.8595 40.0263 55.6095 40.2763C55.3594 40.5264 55.0203 40.6668 54.6667 40.6668H44C43.6464 40.6668 43.3072 40.5264 43.0572 40.2763C42.8071 40.0263 42.6667 39.6871 42.6667 39.3335V28.6668C42.6667 28.3132 42.8071 27.9741 43.0572 27.724C43.3072 27.474 43.6464 27.3335 44 27.3335H54.6667C55.0203 27.3335 55.3594 27.474 55.6095 27.724C55.8595 27.9741 56 28.3132 56 28.6668ZM12 45.3335H36C36.5304 45.3335 37.0391 45.5442 37.4142 45.9193C37.7893 46.2944 38 46.8031 38 47.3335C38 47.8639 37.7893 48.3726 37.4142 48.7477C37.0391 49.1228 36.5304 49.3335 36 49.3335H12C11.4696 49.3335 10.9609 49.1228 10.5858 48.7477C10.2107 48.3726 10 47.8639 10 47.3335C10 46.8031 10.2107 46.2944 10.5858 45.9193C10.9609 45.5442 11.4696 45.3335 12 45.3335ZM10 38.0002C10 37.4697 10.2107 36.961 10.5858 36.586C10.9609 36.2109 11.4696 36.0002 12 36.0002H17.3333C17.8638 36.0002 18.3725 36.2109 18.7475 36.586C19.1226 36.961 19.3333 37.4697 19.3333 38.0002C19.3333 38.5306 19.1226 39.0393 18.7475 39.4144C18.3725 39.7894 17.8638 40.0002 17.3333 40.0002H12C11.4696 40.0002 10.9609 39.7894 10.5858 39.4144C10.2107 39.0393 10 38.5306 10 38.0002Z" fill="white"/>
<path d="M9.33268 15.3333H54.666C55.3733 15.3333 56.0515 15.0524 56.5516 14.5523C57.0517 14.0522 57.3327 13.3739 57.3327 12.6667C57.3327 11.9594 57.0517 11.2811 56.5516 10.781C56.0515 10.281 55.3733 10 54.666 10H9.33268C8.62544 10 7.94716 10.281 7.44706 10.781C6.94697 11.2811 6.66602 11.9594 6.66602 12.6667C6.66602 13.3739 6.94697 14.0522 7.44706 14.5523C7.94716 15.0524 8.62544 15.3333 9.33268 15.3333Z" fill="white"/>
<path d="M14.6667 7.33333H49.3333C50.0406 7.33333 50.7189 7.05238 51.219 6.55229C51.7191 6.05219 52 5.37391 52 4.66667C52 3.95942 51.7191 3.28115 51.219 2.78105C50.7189 2.28095 50.0406 2 49.3333 2H14.6667C13.9594 2 13.2811 2.28095 12.781 2.78105C12.281 3.28115 12 3.95942 12 4.66667C12 5.37391 12.281 6.05219 12.781 6.55229C13.2811 7.05238 13.9594 7.33333 14.6667 7.33333Z" fill="white"/>
</svg>
