<svg width="24" height="24" viewBox="0 0 24 24" fill="none" xmlns="http://www.w3.org/2000/svg">
<g id="Frame">
<g id="Group">
<path id="Vector" d="M12.0103 20.5202C9.67034 20.5202 7.34034 20.1502 5.13034 19.4102C4.29034 19.1202 3.65034 18.5302 3.37034 17.7602C3.08034 16.9902 3.18034 16.1402 3.64034 15.3802L4.79034 13.4702C5.03034 13.0702 5.25034 12.2702 5.25034 11.8002V8.91016C5.25034 5.19016 8.28034 2.16016 12.0003 2.16016C15.7203 2.16016 18.7503 5.19016 18.7503 8.91016V11.7902C18.7503 12.2502 18.9703 13.0602 19.2103 13.4702L20.3503 15.3702C20.7803 16.0902 20.8603 16.9602 20.5703 17.7502C20.2803 18.5402 19.6503 19.1402 18.8603 19.4002C16.6603 20.1402 14.3303 20.5102 12.0003 20.5102L12.0103 20.5202ZM12.0103 3.66016C9.11034 3.66016 6.75034 6.01016 6.75034 8.91016V11.7902C6.75034 12.5202 6.45034 13.6002 6.08034 14.2302L4.93034 16.1402C4.71034 16.5102 4.65034 16.9002 4.78034 17.2302C4.90034 17.5702 5.20034 17.8302 5.61034 17.9702C9.79034 19.3702 14.2203 19.3702 18.4003 17.9702C18.7603 17.8502 19.0403 17.5802 19.1703 17.2202C19.3003 16.8602 19.2703 16.4702 19.0703 16.1402L17.9203 14.2302C17.5403 13.5802 17.2503 12.5102 17.2503 11.7802V8.90016C17.2503 6.00016 14.9003 3.65016 12.0003 3.65016L12.0103 3.66016Z" fill="#FF83AC"/>
<path id="Vector_2" d="M13.8699 3.92992C13.7999 3.92992 13.7299 3.91992 13.6599 3.89992C13.3699 3.81992 13.0899 3.75992 12.8199 3.71992C11.9699 3.60992 11.1499 3.66992 10.3799 3.89992C10.0999 3.98992 9.79986 3.89992 9.60986 3.68992C9.41986 3.47992 9.35986 3.17992 9.46986 2.90992C9.87986 1.85992 10.8699 1.16992 12.0099 1.16992C13.1499 1.16992 14.1499 1.84992 14.5599 2.90992C14.6599 3.17992 14.6099 3.47992 14.4199 3.68992C14.2699 3.84992 14.0599 3.92992 13.8599 3.92992H13.8699Z" fill="#FF83AC"/>
<path id="Vector_3" d="M12.0107 22.7998C11.0207 22.7998 10.0607 22.3998 9.36074 21.6998C8.66074 20.9998 8.26074 20.0398 8.26074 19.0498H9.76074C9.76074 19.6398 9.99074 20.2198 10.4107 20.6398C10.8307 21.0598 11.4107 21.2998 12.0007 21.2998C13.2407 21.2998 14.2507 20.2898 14.2507 19.0498H15.7507C15.7507 21.1198 14.0707 22.7998 12.0007 22.7998H12.0107Z" fill="#FF83AC"/>
</g>
</g>
</svg>
