<svg width="24" height="24" viewBox="0 0 24 24" fill="none" xmlns="http://www.w3.org/2000/svg">
<g id="Frame" clip-path="url(#clip0_1484_8047)">
<g id="Group">
<path id="Vector" d="M21 17.5005C20.17 17.5005 19.5 16.8205 19.5 16.0005V11.1305C19.61 7.20047 16.85 3.78047 13 3.06047V0.980469C13 0.420469 12.55 -0.0195312 12 -0.0195312C11.44 -0.0195312 11 0.420469 11 0.980469V3.05047C7.14 3.76047 4.38 7.19047 4.5 11.1105V15.9705C4.5 16.7905 3.82 17.4705 3 17.4705C2.44 17.4705 2 17.9105 2 18.4705C2 19.0205 2.44 19.4705 3 19.4705H21C21.55 19.4705 22 19.0205 22 18.4705C22 17.9105 21.55 17.4705 21 17.4705V17.5005Z" fill="#FFB700"/>
<path id="Vector_2" d="M14.2305 21.0005H9.75047C9.62047 21.0005 9.51047 21.0905 9.50047 21.2205C9.48047 21.3105 9.48047 21.4005 9.48047 21.4905C9.48047 22.8705 10.5905 23.9905 11.9805 23.9905C13.3605 23.9905 14.4805 22.8705 14.4805 21.4905C14.4805 21.3905 14.4705 21.3005 14.4605 21.2105H14.4595C14.4395 21.0805 14.3295 20.9805 14.2095 20.9805L14.2305 21.0005Z" fill="#FFB700"/>
</g>
</g>
<defs>
<clipPath id="clip0_1484_8047">
<rect width="24" height="24" fill="white"/>
</clipPath>
</defs>
</svg>
