<svg width="41" height="41" viewBox="0 0 41 41" fill="none" xmlns="http://www.w3.org/2000/svg">
<g filter="url(#filter0_b_496_3137)">
<rect x="0.25" y="0.849609" width="40" height="40" rx="19.8" fill="url(#paint0_radial_496_3137)"/>
<rect x="0.75" y="1.34961" width="39" height="39" rx="19.3" stroke="white" stroke-opacity="0.25"/>
<path d="M15.6481 21.9318H18.1027L18.989 23.0455L20.489 24.75L22.4436 27.1136H19.6481L18.2618 25.5L17.3299 24.1591L15.6481 21.9318ZM22.4209 20.4318C22.4209 21.7273 22.169 22.8201 21.6652 23.7102C21.1614 24.5966 20.4815 25.2689 19.6254 25.7273C18.7693 26.1818 17.8148 26.4091 16.7618 26.4091C15.7012 26.4091 14.7428 26.1799 13.8868 25.7216C13.0345 25.2595 12.3565 24.5852 11.8527 23.6989C11.3527 22.8087 11.1027 21.7197 11.1027 20.4318C11.1027 19.1364 11.3527 18.0455 11.8527 17.1591C12.3565 16.2689 13.0345 15.5966 13.8868 15.142C14.7428 14.6837 15.7012 14.4545 16.7618 14.4545C17.8148 14.4545 18.7693 14.6837 19.6254 15.142C20.4815 15.5966 21.1614 16.2689 21.6652 17.1591C22.169 18.0455 22.4209 19.1364 22.4209 20.4318ZM19.1709 20.4318C19.1709 19.7348 19.078 19.1477 18.8924 18.6705C18.7106 18.1894 18.4398 17.8258 18.0799 17.5795C17.7239 17.3295 17.2845 17.2045 16.7618 17.2045C16.239 17.2045 15.7977 17.3295 15.4379 17.5795C15.0818 17.8258 14.811 18.1894 14.6254 18.6705C14.4436 19.1477 14.3527 19.7348 14.3527 20.4318C14.3527 21.1288 14.4436 21.7178 14.6254 22.1989C14.811 22.6761 15.0818 23.0398 15.4379 23.2898C15.7977 23.536 16.239 23.6591 16.7618 23.6591C17.2845 23.6591 17.7239 23.536 18.0799 23.2898C18.4398 23.0398 18.7106 22.6761 18.8924 22.1989C19.078 21.7178 19.1709 21.1288 19.1709 20.4318ZM28.9854 14.6136V26.25H25.8263V17.5227H25.7581L23.2127 19.0455V16.3636L26.0763 14.6136H28.9854Z" fill="white"/>
</g>
<defs>
<filter id="filter0_b_496_3137" x="-23.75" y="-23.1504" width="88" height="88" filterUnits="userSpaceOnUse" color-interpolation-filters="sRGB">
<feFlood flood-opacity="0" result="BackgroundImageFix"/>
<feGaussianBlur in="BackgroundImageFix" stdDeviation="12"/>
<feComposite in2="SourceAlpha" operator="in" result="effect1_backgroundBlur_496_3137"/>
<feBlend mode="normal" in="SourceGraphic" in2="effect1_backgroundBlur_496_3137" result="shape"/>
</filter>
<radialGradient id="paint0_radial_496_3137" cx="0" cy="0" r="1" gradientUnits="userSpaceOnUse" gradientTransform="translate(20.25 20.8496) scale(20)">
<stop stop-color="white" stop-opacity="0.5"/>
<stop offset="1" stop-color="white" stop-opacity="0.1"/>
</radialGradient>
</defs>
</svg>
