<svg width="41" height="41" viewBox="0 0 41 41" fill="none" xmlns="http://www.w3.org/2000/svg">
<g filter="url(#filter0_b_496_3197)">
<rect x="0.125" y="0.849609" width="40" height="40" rx="19.8" fill="url(#paint0_radial_496_3197)"/>
<rect x="0.625" y="1.34961" width="39" height="39" rx="19.3" stroke="white" stroke-opacity="0.25"/>
<path d="M13.7028 22.0314H16.1574L17.0437 23.1451L18.5437 24.8496L20.4983 27.2132H17.7028L16.3164 25.5996L15.3846 24.2587L13.7028 22.0314ZM20.4755 20.5314C20.4755 21.8269 20.2236 22.9197 19.7199 23.8098C19.2161 24.6962 18.5361 25.3685 17.6801 25.8269C16.824 26.2814 15.8695 26.5087 14.8164 26.5087C13.7558 26.5087 12.7975 26.2795 11.9414 25.8212C11.0892 25.3591 10.4111 24.6848 9.90736 23.7985C9.40736 22.9083 9.15736 21.8193 9.15736 20.5314C9.15736 19.236 9.40736 18.1451 9.90736 17.2587C10.4111 16.3685 11.0892 15.6962 11.9414 15.2417C12.7975 14.7833 13.7558 14.5542 14.8164 14.5542C15.8695 14.5542 16.824 14.7833 17.6801 15.2417C18.5361 15.6962 19.2161 16.3685 19.7199 17.2587C20.2236 18.1451 20.4755 19.236 20.4755 20.5314ZM17.2255 20.5314C17.2255 19.8345 17.1327 19.2473 16.9471 18.7701C16.7653 18.289 16.4945 17.9254 16.1346 17.6792C15.7786 17.4292 15.3392 17.3042 14.8164 17.3042C14.2937 17.3042 13.8524 17.4292 13.4926 17.6792C13.1365 17.9254 12.8657 18.289 12.6801 18.7701C12.4983 19.2473 12.4074 19.8345 12.4074 20.5314C12.4074 21.2284 12.4983 21.8174 12.6801 22.2985C12.8657 22.7757 13.1365 23.1394 13.4926 23.3894C13.8524 23.6356 14.2937 23.7587 14.8164 23.7587C15.3392 23.7587 15.7786 23.6356 16.1346 23.3894C16.4945 23.1394 16.7653 22.7757 16.9471 22.2985C17.1327 21.8174 17.2255 21.2284 17.2255 20.5314ZM21.2219 24.5314V22.0769L25.9037 14.7132H28.131V17.986H26.8583L24.3355 21.986V22.0769H31.2446V24.5314H21.2219ZM26.881 26.3496V23.7814L26.9492 22.7132V14.7132H29.9037V26.3496H26.881Z" fill="white"/>
</g>
<defs>
<filter id="filter0_b_496_3197" x="-23.875" y="-23.1504" width="88" height="88" filterUnits="userSpaceOnUse" color-interpolation-filters="sRGB">
<feFlood flood-opacity="0" result="BackgroundImageFix"/>
<feGaussianBlur in="BackgroundImageFix" stdDeviation="12"/>
<feComposite in2="SourceAlpha" operator="in" result="effect1_backgroundBlur_496_3197"/>
<feBlend mode="normal" in="SourceGraphic" in2="effect1_backgroundBlur_496_3197" result="shape"/>
</filter>
<radialGradient id="paint0_radial_496_3197" cx="0" cy="0" r="1" gradientUnits="userSpaceOnUse" gradientTransform="translate(20.125 20.8496) scale(20)">
<stop stop-color="white" stop-opacity="0.5"/>
<stop offset="1" stop-color="white" stop-opacity="0.1"/>
</radialGradient>
</defs>
</svg>
