<svg width="40" height="41" viewBox="0 0 40 41" fill="none" xmlns="http://www.w3.org/2000/svg">
<g filter="url(#filter0_b_496_3180)">
<rect y="0.849609" width="40" height="40" rx="19.8" fill="url(#paint0_radial_496_3180)"/>
<rect x="0.5" y="1.34961" width="39" height="39" rx="19.3" stroke="white" stroke-opacity="0.25"/>
<path d="M13.7966 22.0314H16.2511L17.1375 23.1451L18.6375 24.8496L20.592 27.2132H17.7966L16.4102 25.5996L15.4784 24.2587L13.7966 22.0314ZM20.5693 20.5314C20.5693 21.8269 20.3174 22.9197 19.8136 23.8098C19.3098 24.6962 18.6299 25.3685 17.7738 25.8269C16.9178 26.2814 15.9632 26.5087 14.9102 26.5087C13.8496 26.5087 12.8913 26.2795 12.0352 25.8212C11.1829 25.3591 10.5049 24.6848 10.0011 23.7985C9.50111 22.9083 9.25111 21.8193 9.25111 20.5314C9.25111 19.236 9.50111 18.1451 10.0011 17.2587C10.5049 16.3685 11.1829 15.6962 12.0352 15.2417C12.8913 14.7833 13.8496 14.5542 14.9102 14.5542C15.9632 14.5542 16.9178 14.7833 17.7738 15.2417C18.6299 15.6962 19.3098 16.3685 19.8136 17.2587C20.3174 18.1451 20.5693 19.236 20.5693 20.5314ZM17.3193 20.5314C17.3193 19.8345 17.2265 19.2473 17.0409 18.7701C16.8591 18.289 16.5882 17.9254 16.2284 17.6792C15.8723 17.4292 15.4329 17.3042 14.9102 17.3042C14.3875 17.3042 13.9462 17.4292 13.5863 17.6792C13.2303 17.9254 12.9594 18.289 12.7738 18.7701C12.592 19.2473 12.5011 19.8345 12.5011 20.5314C12.5011 21.2284 12.592 21.8174 12.7738 22.2985C12.9594 22.7757 13.2303 23.1394 13.5863 23.3894C13.9462 23.6356 14.3875 23.7587 14.9102 23.7587C15.4329 23.7587 15.8723 23.6356 16.2284 23.3894C16.5882 23.1394 16.8591 22.7757 17.0409 22.2985C17.2265 21.8174 17.3193 21.2284 17.3193 20.5314ZM25.9747 26.5087C25.0581 26.5087 24.2437 26.3515 23.5316 26.0371C22.8232 25.7189 22.2664 25.2814 21.8611 24.7246C21.4558 24.1678 21.2513 23.5276 21.2475 22.8042H24.4293C24.4331 23.0276 24.5013 23.2284 24.6338 23.4064C24.7702 23.5807 24.9558 23.717 25.1907 23.8155C25.4255 23.914 25.6944 23.9632 25.9975 23.9632C26.2891 23.9632 26.5467 23.9121 26.7702 23.8098C26.9937 23.7038 27.1679 23.5579 27.2929 23.3723C27.4179 23.1867 27.4785 22.9746 27.4747 22.736C27.4785 22.5011 27.4066 22.2928 27.2588 22.111C27.1149 21.9292 26.9122 21.7871 26.6509 21.6848C26.3895 21.5826 26.0884 21.5314 25.7475 21.5314H24.5657V19.3496H25.7475C26.0619 19.3496 26.3384 19.2985 26.577 19.1962C26.8194 19.0939 27.0069 18.9519 27.1395 18.7701C27.2759 18.5882 27.3422 18.3799 27.3384 18.1451C27.3422 17.9178 27.2872 17.717 27.1736 17.5428C27.06 17.3685 26.9009 17.2322 26.6963 17.1337C26.4956 17.0352 26.2626 16.986 25.9975 16.986C25.7096 16.986 25.452 17.0371 25.2247 17.1394C25.0013 17.2417 24.8251 17.3837 24.6963 17.5655C24.5675 17.7473 24.5013 17.9557 24.4975 18.1905H21.4747C21.4785 17.4784 21.6736 16.8496 22.06 16.3042C22.4501 15.7587 22.9842 15.3307 23.6622 15.0201C24.3403 14.7095 25.1187 14.5542 25.9975 14.5542C26.8573 14.5542 27.6168 14.7 28.2759 14.9917C28.9388 15.2833 29.4558 15.6848 29.827 16.1962C30.202 16.7038 30.3876 17.2852 30.3838 17.9405C30.3914 18.592 30.1679 19.1261 29.7134 19.5428C29.2626 19.9595 28.6907 20.2057 27.9975 20.2814V20.3723C28.9369 20.4746 29.6433 20.7625 30.1168 21.236C30.5903 21.7057 30.8232 22.2966 30.8157 23.0087C30.8194 23.6905 30.6149 24.2947 30.202 24.8212C29.7929 25.3477 29.2228 25.7606 28.4918 26.0598C27.7645 26.3591 26.9255 26.5087 25.9747 26.5087Z" fill="white"/>
</g>
<defs>
<filter id="filter0_b_496_3180" x="-24" y="-23.1504" width="88" height="88" filterUnits="userSpaceOnUse" color-interpolation-filters="sRGB">
<feFlood flood-opacity="0" result="BackgroundImageFix"/>
<feGaussianBlur in="BackgroundImageFix" stdDeviation="12"/>
<feComposite in2="SourceAlpha" operator="in" result="effect1_backgroundBlur_496_3180"/>
<feBlend mode="normal" in="SourceGraphic" in2="effect1_backgroundBlur_496_3180" result="shape"/>
</filter>
<radialGradient id="paint0_radial_496_3180" cx="0" cy="0" r="1" gradientUnits="userSpaceOnUse" gradientTransform="translate(20 20.8496) scale(20)">
<stop stop-color="white" stop-opacity="0.5"/>
<stop offset="1" stop-color="white" stop-opacity="0.1"/>
</radialGradient>
</defs>
</svg>
