<svg width="41" height="41" viewBox="0 0 41 41" fill="none" xmlns="http://www.w3.org/2000/svg">
<g filter="url(#filter0_b_496_3163)">
<rect x="0.375" y="0.849609" width="40" height="40" rx="19.8" fill="url(#paint0_radial_496_3163)"/>
<rect x="0.875" y="1.34961" width="39" height="39" rx="19.3" stroke="white" stroke-opacity="0.25"/>
<path d="M14.3981 22.0314H16.8527L17.739 23.1451L19.239 24.8496L21.1936 27.2132H18.3981L17.0118 25.5996L16.0799 24.2587L14.3981 22.0314ZM21.1709 20.5314C21.1709 21.8269 20.919 22.9197 20.4152 23.8098C19.9114 24.6962 19.2315 25.3685 18.3754 25.8269C17.5193 26.2814 16.5648 26.5087 15.5118 26.5087C14.4512 26.5087 13.4928 26.2795 12.6368 25.8212C11.7845 25.3591 11.1065 24.6848 10.6027 23.7985C10.1027 22.9083 9.85267 21.8193 9.85267 20.5314C9.85267 19.236 10.1027 18.1451 10.6027 17.2587C11.1065 16.3685 11.7845 15.6962 12.6368 15.2417C13.4928 14.7833 14.4512 14.5542 15.5118 14.5542C16.5648 14.5542 17.5193 14.7833 18.3754 15.2417C19.2315 15.6962 19.9114 16.3685 20.4152 17.2587C20.919 18.1451 21.1709 19.236 21.1709 20.5314ZM17.9209 20.5314C17.9209 19.8345 17.828 19.2473 17.6424 18.7701C17.4606 18.289 17.1898 17.9254 16.8299 17.6792C16.4739 17.4292 16.0345 17.3042 15.5118 17.3042C14.989 17.3042 14.5477 17.4292 14.1879 17.6792C13.8318 17.9254 13.561 18.289 13.3754 18.7701C13.1936 19.2473 13.1027 19.8345 13.1027 20.5314C13.1027 21.2284 13.1936 21.8174 13.3754 22.2985C13.561 22.7757 13.8318 23.1394 14.1879 23.3894C14.5477 23.6356 14.989 23.7587 15.5118 23.7587C16.0345 23.7587 16.4739 23.6356 16.8299 23.3894C17.1898 23.1394 17.4606 22.7757 17.6424 22.2985C17.828 21.8174 17.9209 21.2284 17.9209 20.5314ZM22.0309 26.3496V24.0769L26.3718 20.486C26.6596 20.2473 26.9059 20.0239 27.1104 19.8155C27.3187 19.6034 27.4778 19.3856 27.5877 19.1621C27.7013 18.9386 27.7581 18.6905 27.7581 18.4178C27.7581 18.1185 27.6937 17.8629 27.5649 17.6507C27.4399 17.4386 27.2657 17.2757 27.0422 17.1621C26.8187 17.0447 26.5612 16.986 26.2695 16.986C25.9778 16.986 25.7202 17.0447 25.4968 17.1621C25.2771 17.2795 25.1066 17.4519 24.9854 17.6792C24.8642 17.9064 24.8036 18.1829 24.8036 18.5087H21.8036C21.8036 17.6905 21.9873 16.986 22.3547 16.3951C22.7221 15.8042 23.2411 15.3496 23.9115 15.0314C24.582 14.7132 25.368 14.5542 26.2695 14.5542C27.2013 14.5542 28.0081 14.7038 28.6899 15.003C29.3755 15.2985 29.904 15.7151 30.2752 16.253C30.6502 16.7909 30.8377 17.4216 30.8377 18.1451C30.8377 18.592 30.7449 19.0371 30.5593 19.4803C30.3737 19.9197 30.0403 20.4064 29.5593 20.9405C29.0782 21.4746 28.3945 22.111 27.5081 22.8496L26.4172 23.7587V23.8269H30.9627V26.3496H22.0309Z" fill="white"/>
</g>
<defs>
<filter id="filter0_b_496_3163" x="-23.625" y="-23.1504" width="88" height="88" filterUnits="userSpaceOnUse" color-interpolation-filters="sRGB">
<feFlood flood-opacity="0" result="BackgroundImageFix"/>
<feGaussianBlur in="BackgroundImageFix" stdDeviation="12"/>
<feComposite in2="SourceAlpha" operator="in" result="effect1_backgroundBlur_496_3163"/>
<feBlend mode="normal" in="SourceGraphic" in2="effect1_backgroundBlur_496_3163" result="shape"/>
</filter>
<radialGradient id="paint0_radial_496_3163" cx="0" cy="0" r="1" gradientUnits="userSpaceOnUse" gradientTransform="translate(20.375 20.8496) scale(20)">
<stop stop-color="white" stop-opacity="0.5"/>
<stop offset="1" stop-color="white" stop-opacity="0.1"/>
</radialGradient>
</defs>
</svg>
