<svg width="203" height="44" viewBox="0 0 203 44" fill="none" xmlns="http://www.w3.org/2000/svg">
<path d="M16.6204 16.1898V12.1285C16.6204 11.7865 16.7488 11.5299 17.0479 11.359L25.2134 6.65656C26.3248 6.01534 27.6501 5.71624 29.0179 5.71624C34.1478 5.71624 37.3971 9.69207 37.3971 13.9241C37.3971 14.2233 37.3971 14.5654 37.3542 14.9074L28.8896 9.94832C28.3767 9.64913 27.8635 9.64913 27.3506 9.94832L16.6204 16.1898ZM35.6869 32.0074V22.3029C35.6869 21.7042 35.4302 21.2768 34.9174 20.9776L24.1871 14.7362L27.6926 12.7268C27.9918 12.556 28.2484 12.556 28.5476 12.7268L36.713 17.4293C39.0644 18.7974 40.646 21.7042 40.646 24.5256C40.646 27.7745 38.7224 30.7671 35.6869 32.007V32.0074ZM14.0981 23.4574L10.5927 21.4056C10.2936 21.2347 10.1652 20.9781 10.1652 20.636V11.2311C10.1652 6.65692 13.6707 3.19393 18.416 3.19393C20.2118 3.19393 21.8787 3.79265 23.2898 4.86127L14.868 9.73502C14.3552 10.0341 14.0986 10.4616 14.0986 11.0602V23.4578L14.0981 23.4574ZM21.6436 27.8178L16.6204 24.9964V19.0116L21.6436 16.1902L26.6665 19.0116V24.9964L21.6436 27.8178ZM24.8712 40.814C23.0756 40.814 21.4087 40.2154 19.9976 39.1467L28.4192 34.273C28.9321 33.9739 29.1887 33.5464 29.1887 32.9477V20.5502L32.7372 22.6021C33.0363 22.7729 33.1647 23.0295 33.1647 23.3716V32.7765C33.1647 37.3507 29.6162 40.8137 24.8712 40.8137V40.814ZM14.7394 31.2808L6.57387 26.5783C4.22245 25.2102 2.6409 22.3034 2.6409 19.482C2.6409 16.1902 4.60743 13.2405 7.6425 12.0006V21.7476C7.6425 22.3462 7.89918 22.7737 8.41202 23.0728L19.0997 29.2714L15.5942 31.2808C15.2952 31.4516 15.0385 31.4516 14.7394 31.2808ZM14.2694 38.2918C9.43859 38.2918 5.89024 34.658 5.89024 30.1693C5.89024 29.8272 5.93309 29.4852 5.97559 29.1431L14.3973 34.0168C14.9102 34.316 15.4235 34.316 15.9363 34.0168L26.6665 27.8183V31.8795C26.6665 32.2216 26.5382 32.4782 26.239 32.649L18.0736 37.3515C16.9621 37.9926 15.6367 38.2918 14.2689 38.2918H14.2694ZM24.8712 43.3788C30.0441 43.3788 34.3616 39.7025 35.3452 34.8288C40.1331 33.5889 43.2112 29.1002 43.2112 24.5261C43.2112 21.5334 41.9288 18.6266 39.6202 16.5318C39.834 15.634 39.9623 14.7362 39.9623 13.8388C39.9623 7.72563 35.0032 3.15107 29.2745 3.15107C28.1206 3.15107 27.009 3.32187 25.8974 3.70685C23.9734 1.82576 21.3229 0.628845 18.416 0.628845C13.2433 0.628845 8.92575 4.30514 7.94213 9.17879C3.15418 10.4187 0.0761719 14.9074 0.0761719 19.4815C0.0761719 22.4742 1.35853 25.381 3.66711 27.4758C3.45337 28.3736 3.32507 29.2714 3.32507 30.1688C3.32507 36.282 8.28417 40.8565 14.0127 40.8565C15.1668 40.8565 16.2783 40.6857 17.3899 40.3007C19.3135 42.1818 21.964 43.3788 24.8712 43.3788Z" fill="white"/>
<g clip-path="url(#clip0_4571_15346)">
<path d="M70.4324 2.133C61.7695 2.133 54.6816 9.22082 54.6816 17.8837C54.6816 26.5467 61.7695 33.6345 70.4324 33.6345C79.0953 33.6345 86.1832 26.5904 86.1832 17.8837C86.1832 9.17707 79.1391 2.133 70.4324 2.133ZM70.4324 27.9905C65.0509 27.9905 60.7194 23.5715 60.7194 17.8837C60.7194 12.196 65.0509 7.777 70.4324 7.777C75.8139 7.777 80.1454 12.196 80.1454 17.8837C80.1454 23.5715 75.8139 27.9905 70.4324 27.9905Z" fill="white"/>
<path d="M102.109 10.8845C99.2649 10.8845 96.5086 12.022 95.0647 13.9471V11.322H89.377V41.9485H95.0647V30.8792C96.5086 32.673 99.1774 33.6356 102.109 33.6356C108.234 33.6356 113.047 28.8228 113.047 22.26C113.047 15.6972 108.234 10.8845 102.109 10.8845ZM101.146 28.6916C97.9086 28.6916 95.021 26.154 95.021 22.26C95.021 18.3661 97.9086 15.8285 101.146 15.8285C104.384 15.8285 107.271 18.3661 107.271 22.26C107.271 26.154 104.384 28.6916 101.146 28.6916Z" fill="white"/>
<path d="M126.435 10.8845C120.223 10.8845 115.322 15.7409 115.322 22.26C115.322 28.7791 119.61 33.6356 126.61 33.6356C132.342 33.6356 136.017 30.1791 137.155 26.2852H131.598C130.898 27.904 128.929 29.0416 126.567 29.0416C123.635 29.0416 121.404 26.9852 120.879 24.0539H137.417V21.8225C137.417 15.8722 133.261 10.8845 126.435 10.8845ZM120.923 20.0287C121.535 17.2723 123.81 15.4784 126.567 15.4784C129.498 15.4784 131.729 17.4035 131.992 20.0287H120.923Z" fill="white"/>
<path d="M152.555 10.8845C150.017 10.8845 147.348 12.022 146.123 13.9034V11.322H140.436V33.198H146.123V21.4287C146.123 18.0161 147.961 15.7847 150.936 15.7847C153.692 15.7847 155.18 17.8848 155.18 20.8162V33.198H160.868V19.8974C160.868 14.4721 157.543 10.8845 152.555 10.8845Z" fill="white"/>
<path d="M175.435 2.57538L163.053 33.2019H169.134L171.759 26.5078H185.848L188.473 33.2019H194.642L182.347 2.57538H175.435ZM173.728 21.4325L178.804 8.61317L183.835 21.4325H173.728Z" fill="white"/>
<path d="M202.736 2.57538H196.961V33.2019H202.736V2.57538Z" fill="white"/>
</g>
<defs>
<clipPath id="clip0_4571_15346">
<rect width="148.243" height="40.149" fill="white" transform="translate(54.6816 1.92932)"/>
</clipPath>
</defs>
</svg>
