<svg width="45" height="44" viewBox="0 0 45 44" fill="none" xmlns="http://www.w3.org/2000/svg">
<rect x="0.333984" width="44" height="44" rx="22" fill="#3F41B4"/>
<path d="M22.334 25C20.6771 25 19.334 26.3431 19.334 28C19.334 29.6569 20.6771 31 22.334 31C23.9908 31 25.334 29.6569 25.334 28C25.334 26.3431 23.9908 25 22.334 25ZM22.334 25V22M16.334 19C17.9908 19 19.334 17.6569 19.334 16C19.334 14.3431 17.9908 13 16.334 13C14.6771 13 13.334 14.3431 13.334 16C13.334 17.6569 14.6771 19 16.334 19ZM16.334 19V21C16.334 21.6 16.734 22 17.334 22H27.334C27.934 22 28.334 21.6 28.334 21V19M28.334 19C29.9908 19 31.334 17.6569 31.334 16C31.334 14.3431 29.9908 13 28.334 13C26.6771 13 25.334 14.3431 25.334 16C25.334 17.6569 26.6771 19 28.334 19Z" stroke="white" stroke-width="2" stroke-linecap="round" stroke-linejoin="round"/>
</svg>
