<svg width="20" height="20" viewBox="0 0 20 20" fill="none" xmlns="http://www.w3.org/2000/svg">
<g id="Frame">
<g id="Group">
<path id="Vector" d="M18.9583 13.9426V3.88425C18.9583 2.51758 17.8249 1.48425 16.4666 1.60091V1.59258C14.5583 1.75091 11.8083 2.67591 10.2416 3.65925L10.0916 3.75091C10.0583 3.76758 9.9166 3.76758 9.87494 3.74258L9.65827 3.60925C8.0916 2.62591 5.3416 1.71758 3.49993 1.56758C2.1416 1.45091 1.0166 2.48425 1.0166 3.84258V13.9009C1.0166 15.0176 1.89993 16.0259 3.00827 16.1676L3.2416 16.1926C4.9666 16.4176 7.6916 17.3092 9.22493 18.1509L9.27493 18.1759C9.65827 18.3926 10.2499 18.3926 10.6666 18.1509C12.1833 17.3092 14.9166 16.4092 16.6499 16.1759L16.9166 16.1426C18.0249 16.0009 18.9083 14.9842 18.9083 13.8676L18.9583 13.9426ZM17.7083 13.9426C17.7083 14.4259 17.2833 14.9092 16.7999 14.9676L16.5249 14.9926C14.6249 15.2426 11.7499 16.1926 10.0749 17.1092C10.0333 17.1259 9.90827 17.1259 9.87494 17.1092L9.8166 17.0759C8.1666 16.1676 5.29993 15.2259 3.4166 14.9759L3.17493 14.9426C2.68327 14.8759 2.25827 14.4009 2.25827 13.9092V3.84258C2.25827 3.20925 2.74994 2.75091 3.37494 2.80091C5.0166 2.92591 7.57494 3.77591 8.97494 4.65091L9.1916 4.77591C9.62494 5.04258 10.2749 5.04258 10.7249 4.76758L10.8749 4.66758C12.2666 3.78425 14.8249 2.92591 16.4749 2.78425H16.4666C17.1416 2.72591 17.6499 3.18425 17.6499 3.81758V13.8676L17.7083 13.9426Z" fill="white"/>
<path id="Vector_2" d="M9.375 4.56693V17.0669C9.375 17.4086 9.65 17.6919 10 17.6919C10.3417 17.6919 10.625 17.4086 10.625 17.0669V4.55859C10.625 4.20859 10.3417 3.93359 10 3.93359C9.65 3.93359 9.375 4.20859 9.375 4.55859V4.56693Z" fill="white"/>
<path id="Vector_3" d="M6.4585 6.44336H4.5835C4.2335 6.44336 3.9585 6.71836 3.9585 7.06836C3.9585 7.41003 4.2335 7.69336 4.5835 7.69336H6.4585C6.80016 7.69336 7.0835 7.41003 7.0835 7.06836C7.0835 6.71836 6.80016 6.44336 6.4585 6.44336Z" fill="white"/>
<path id="Vector_4" d="M7.0835 8.95117H4.5835C4.2335 8.95117 3.9585 9.22617 3.9585 9.57617C3.9585 9.91784 4.2335 10.2012 4.5835 10.2012H7.0835C7.42516 10.2012 7.7085 9.91784 7.7085 9.57617C7.7085 9.22617 7.42516 8.95117 7.0835 8.95117Z" fill="white"/>
</g>
</g>
</svg>
