<svg width="16" height="17" viewBox="0 0 16 17" fill="none" xmlns="http://www.w3.org/2000/svg">
<g id="Frame">
<g id="Group">
<path id="Vector" d="M2 4.50001C2 6.14668 4.70667 7.16668 8 7.16668C11.2867 7.16668 14 6.14668 14 4.50001C14 2.84668 11.2867 1.83334 8 1.83334C4.70667 1.83334 2 2.84668 2 4.50001C2 4.86668 2.29333 5.16668 2.66667 5.16668C3.03333 5.16668 3.33333 4.86668 3.33333 4.50001C3.33333 3.94001 5.4 3.16668 8 3.16668C10.5933 3.16668 12.6667 3.94001 12.6667 4.50001C12.6667 5.05334 10.5933 5.83334 8 5.83334C5.4 5.83334 3.33333 5.05334 3.33333 4.50001C3.33333 4.12668 3.03333 3.83334 2.66667 3.83334C2.29333 3.83334 2 4.12668 2 4.50001Z" fill="white"/>
<path id="Vector_2" d="M2 4.50001V12.5C2 14.1467 4.70667 15.1667 8 15.1667C11.2867 15.1667 14 14.1467 14 12.5V4.50001C14 4.12668 13.7 3.83334 13.3333 3.83334C12.96 3.83334 12.6667 4.12668 12.6667 4.50001V12.5C12.6667 13.0533 10.5933 13.8333 8 13.8333C5.4 13.8333 3.33333 13.0533 3.33333 12.5V4.50001C3.33333 4.12668 3.03333 3.83334 2.66667 3.83334C2.29333 3.83334 2 4.12668 2 4.50001Z" fill="white"/>
<path id="Vector_3" d="M2.64703 11.16C3.39369 11.1733 4.10036 10.82 4.53369 10.2133C4.70703 9.96001 5.00036 9.81335 5.30703 9.82001C5.64036 9.81335 5.92703 9.95335 6.10703 10.2067C6.54036 10.8133 7.24703 11.1667 7.99369 11.1467C8.70703 11.16 9.41369 10.8067 9.85369 10.2C10.027 9.94668 10.3204 9.80001 10.627 9.80668C10.9604 9.80001 11.247 9.94001 11.427 10.1933C11.8604 10.8 12.567 11.1533 13.3137 11.1333C13.6804 11.12 13.9737 10.82 13.9604 10.4467C13.947 10.0733 13.647 9.78001 13.2737 9.79335C12.9604 9.79335 12.6737 9.65335 12.4937 9.40002C12.0537 8.78668 11.347 8.43335 10.6004 8.45335C9.88036 8.43335 9.17369 8.78668 8.73369 9.39335C8.55369 9.64002 8.26036 9.78668 7.95369 9.78001C7.61369 9.78001 7.32703 9.64001 7.14703 9.38668C6.70703 8.77335 6.00036 8.42001 5.25369 8.44001C4.53369 8.42001 3.82703 8.77335 3.38703 9.38001C3.20703 9.62668 2.91369 9.77335 2.60703 9.76668C2.23369 9.75335 1.93369 10.0467 1.92036 10.4133C1.90703 10.78 2.20036 11.08 2.56703 11.0933L2.64703 11.16Z" fill="white"/>
</g>
</g>
</svg>
