<svg width="24" height="24" viewBox="0 0 24 24" fill="none" xmlns="http://www.w3.org/2000/svg">
<g id="Frame">
<path id="Vector" d="M22.9231 11.4131L19.1731 3.91313C18.9518 3.46688 18.4972 3.18563 18.0003 3.18751H6.00028C5.50247 3.18563 5.04684 3.46688 4.82653 3.91313L1.07653 11.4131C0.752157 12.0609 1.01466 12.8494 1.66341 13.1738C1.84528 13.2647 2.04591 13.3116 2.24934 13.3116H11.4368V19.6866H8.99934C8.68809 19.6866 8.43684 19.9378 8.43684 20.2491C8.43684 20.5594 8.68809 20.8116 8.99934 20.8116H14.9993C15.3097 20.8116 15.5618 20.5594 15.5618 20.2491C15.5618 19.9378 15.3097 19.6866 14.9993 19.6866H12.5618V13.3116H21.7493C22.474 13.3106 23.0609 12.7228 23.0609 11.9981C23.06 11.7938 23.0131 11.5931 22.9222 11.4113L22.9231 11.4131ZM21.9087 12.0984C21.875 12.1547 21.814 12.1884 21.7493 12.1875H2.25028C2.14622 12.1866 2.06278 12.1031 2.06278 11.9991C2.06278 11.97 2.06934 11.9409 2.08153 11.9156L5.83153 4.41563C5.86247 4.35188 5.92809 4.31157 5.99934 4.31157H17.9993C18.0697 4.31157 18.1353 4.35188 18.1672 4.41563L21.9172 11.9156C21.9453 11.9738 21.9415 12.0422 21.9078 12.0975L21.9087 12.0984ZM17.8128 9.75001C17.8128 10.0603 17.5606 10.3125 17.2503 10.3125H6.75028C6.43903 10.3125 6.18778 10.0603 6.18778 9.75001C6.18778 9.43876 6.43903 9.18751 6.75028 9.18751H17.2503C17.5606 9.18751 17.8128 9.43876 17.8128 9.75001Z" fill="#FDBB2D"/>
</g>
</svg>
