<svg width="189" height="64" viewBox="0 0 189 64" fill="none" xmlns="http://www.w3.org/2000/svg">
<g clip-path="url(#clip0_4571_15254)">
<path fill-rule="evenodd" clip-rule="evenodd" d="M17.5043 0.504486L0 22.9889L6.24711 51.0263L31.5423 63.5045L56.8371 51.0263L63.084 22.9889L45.5793 0.504486H17.5043ZM22.5726 4.56334H40.5114L31.5423 16.0844L22.5726 4.56334ZM5.32827 22.6541L18.4585 5.78872L29.0079 19.3396L21.1525 29.4296L5.32827 22.6541ZM45.6417 7.09405L57.3855 22.1792L41.5221 25.5821L45.6417 7.09405ZM34.0758 19.3396L40.7622 10.7511L37.7871 24.1059L34.0758 19.3396ZM31.5423 22.5944L34.9629 26.9889L26.7493 28.7509L31.5423 22.5944ZM42.0729 29.611L58.3206 26.1256L54.1014 45.0614L42.0729 29.611ZM4.93197 26.8838L18.584 32.729L8.98272 45.0614L4.93197 26.8838ZM11.0642 48.8978L22.8729 33.7295L36.2832 30.8525L30.1635 58.3193L11.0642 48.8978ZM39.819 33.2258L52.0194 48.8978L34.389 57.5948L39.819 33.2258Z" fill="#FDFDFD"/>
<path d="M165.623 45.4904H159.92V14.5069H165.623V45.4904Z" fill="#FDFDFD"/>
<path fill-rule="evenodd" clip-rule="evenodd" d="M97.6779 16.2688C101.048 16.2688 103.597 17.0291 105.326 18.5496C107.054 20.0701 107.918 22.1069 107.918 24.6602C107.918 26.3242 107.529 27.8303 106.751 29.1787C105.974 30.4983 104.807 31.5455 103.252 32.3201C101.696 33.0947 99.795 33.482 97.5483 33.482H90.0738V45.488H84.1113V16.2688H97.6779ZM96.7275 28.9204C98.4555 28.9204 99.7662 28.5475 100.659 27.8016C101.552 27.0557 101.999 26.0516 101.999 24.7893C101.999 22.15 100.227 20.8303 96.6843 20.8303H90.0738V28.9204H96.7275Z" fill="#FDFDFD"/>
<path fill-rule="evenodd" clip-rule="evenodd" d="M120.664 46.0036C118.504 46.0036 116.56 45.5302 114.831 44.5834C113.103 43.6366 111.749 42.2884 110.77 40.5382C109.791 38.7595 109.301 36.7084 109.301 34.3846C109.301 32.0608 109.791 30.024 110.77 28.274C111.749 26.4953 113.103 25.1326 114.831 24.1859C116.56 23.2105 118.504 22.7228 120.664 22.7228C122.824 22.7228 124.754 23.2105 126.454 24.1859C128.182 25.1326 129.536 26.4953 130.515 28.274C131.494 30.024 131.984 32.0608 131.984 34.3846C131.984 36.7084 131.494 38.7454 130.515 40.4953C129.536 42.2452 128.182 43.6081 126.454 44.5834C124.754 45.5302 122.824 46.0036 120.664 46.0036ZM120.621 41.3989C122.291 41.3989 123.631 40.7677 124.639 39.5056C125.676 38.2432 126.194 36.5362 126.194 34.3846C126.194 32.233 125.676 30.526 124.639 29.2638C123.631 27.9728 122.291 27.3273 120.621 27.3273C118.95 27.3273 117.596 27.9728 116.56 29.2638C115.551 30.526 115.047 32.233 115.047 34.3846C115.047 36.5362 115.551 38.2432 116.56 39.5056C117.596 40.7677 118.95 41.3989 120.621 41.3989Z" fill="#FDFDFD"/>
<path fill-rule="evenodd" clip-rule="evenodd" d="M139.515 44.5834C141.243 45.5302 143.187 46.0036 145.348 46.0036C147.508 46.0036 149.438 45.5302 151.137 44.5834C152.865 43.6081 154.219 42.2452 155.199 40.4953C156.178 38.7454 156.668 36.7084 156.668 34.3846C156.668 32.0608 156.178 30.024 155.199 28.274C154.219 26.4953 152.865 25.1326 151.137 24.1859C149.438 23.2105 147.508 22.7228 145.348 22.7228C143.187 22.7228 141.243 23.2105 139.515 24.1859C137.787 25.1326 136.433 26.4953 135.453 28.274C134.474 30.024 133.984 32.0608 133.984 34.3846C133.984 36.7084 134.474 38.7595 135.453 40.5382C136.433 42.2884 137.787 43.6366 139.515 44.5834ZM149.323 39.5056C148.314 40.7677 146.975 41.3989 145.305 41.3989C143.634 41.3989 142.28 40.7677 141.243 39.5056C140.235 38.2432 139.731 36.5362 139.731 34.3846C139.731 32.233 140.235 30.526 141.243 29.2638C142.28 27.9728 143.634 27.3273 145.305 27.3273C146.975 27.3273 148.314 27.9728 149.323 29.2638C150.36 30.526 150.878 32.233 150.878 34.3846C150.878 36.5362 150.36 38.2432 149.323 39.5056Z" fill="#FDFDFD"/>
<path d="M187.501 45.4868V40.7963H176.224L187.371 27.6713V23.239H169.354V27.9295H180.069L168.922 41.0114V45.4868H187.501Z" fill="#FDFDFD"/>
</g>
<defs>
<clipPath id="clip0_4571_15254">
<rect width="189" height="63" fill="white" transform="translate(0 0.503906)"/>
</clipPath>
</defs>
</svg>
