<svg width="24" height="24" viewBox="0 0 24 24" fill="none" xmlns="http://www.w3.org/2000/svg">
<g id="Frame">
<g id="Group">
<path id="Vector" d="M12 22.75C6.07 22.75 1.25 17.93 1.25 12C1.25 6.07 6.07 1.25 12 1.25C17.93 1.25 22.75 6.07 22.75 12C22.75 17.93 17.93 22.75 12 22.75ZM12 2.75C6.9 2.75 2.75 6.9 2.75 12C2.75 17.1 6.9 21.25 12 21.25C17.1 21.25 21.25 17.1 21.25 12C21.25 6.9 17.1 2.75 12 2.75Z" fill="#00FFAE"/>
<path id="Vector_2" d="M10.5699 15.5796C10.3699 15.5796 10.1799 15.4996 10.0399 15.3596L7.19992 12.5296C6.90992 12.2396 6.90992 11.7596 7.19992 11.4696C7.48992 11.1796 7.96992 11.1796 8.25992 11.4696L10.5599 13.7696L15.6999 8.62961C15.9899 8.33961 16.4699 8.33961 16.7599 8.62961C17.0499 8.91961 17.0499 9.39961 16.7599 9.68961L11.0899 15.3596C10.9499 15.4996 10.7599 15.5796 10.5599 15.5796H10.5699Z" fill="#00FFAE"/>
</g>
</g>
</svg>
