<svg width="24" height="24" viewBox="0 0 24 24" fill="none" xmlns="http://www.w3.org/2000/svg">
<g id="Frame">
<g id="Group">
<path id="Vector" d="M12 14.75C11.59 14.75 11.25 14.41 11.25 14V9C11.25 8.59 11.59 8.25 12 8.25C12.41 8.25 12.75 8.59 12.75 9V14C12.75 14.41 12.41 14.75 12 14.75Z" fill="#FD982D"/>
<path id="Vector_2" d="M12 18.0005C11.94 18.0005 11.87 17.9905 11.8 17.9805C11.74 17.9705 11.68 17.9505 11.62 17.9205C11.56 17.9005 11.5 17.8705 11.44 17.8305C11.39 17.7905 11.34 17.7505 11.29 17.7105C11.11 17.5205 11 17.2605 11 17.0005C11 16.7405 11.11 16.4805 11.29 16.2905C11.34 16.2505 11.39 16.2105 11.44 16.1705C11.5 16.1305 11.56 16.1005 11.62 16.0805C11.68 16.0505 11.74 16.0305 11.8 16.0205C11.93 15.9905 12.07 15.9905 12.19 16.0205C12.26 16.0305 12.32 16.0505 12.38 16.0805C12.44 16.1005 12.5 16.1305 12.56 16.1705C12.61 16.2105 12.66 16.2505 12.71 16.2905C12.89 16.4805 13 16.7405 13 17.0005C13 17.2605 12.89 17.5205 12.71 17.7105C12.66 17.7505 12.61 17.7905 12.56 17.8305C12.5 17.8705 12.44 17.9005 12.38 17.9205C12.32 17.9505 12.26 17.9705 12.19 17.9805C12.13 17.9905 12.06 18.0005 12 18.0005Z" fill="#FD982D"/>
<path id="Vector_3" d="M18.0602 22.1501H5.93021C3.98021 22.1501 2.49021 21.4401 1.73021 20.1601C0.98021 18.8801 1.08021 17.2301 2.03021 15.5201L8.09021 4.62008C9.09021 2.82008 10.4702 1.83008 11.9902 1.83008C13.5102 1.83008 14.8902 2.82008 15.8902 4.62008L21.9502 15.5201C22.9002 17.2301 23.0102 18.8701 22.2502 20.1601C21.4902 21.4301 20.0002 22.1401 18.0502 22.1401L18.0602 22.1501ZM12.0002 3.33008C11.0602 3.33008 10.1402 4.05008 9.40021 5.35008L3.35021 16.2501C2.67021 17.4701 2.56021 18.5901 3.03021 19.4001C3.50021 20.2101 4.54021 20.6501 5.94021 20.6501H18.0602C19.4602 20.6501 20.4902 20.2101 20.9702 19.4001C21.4502 18.5901 21.3302 17.4801 20.6502 16.2501L14.5802 5.34008C13.8502 4.04008 12.9302 3.32008 11.9902 3.32008L12.0002 3.33008Z" fill="#FD982D"/>
</g>
</g>
</svg>
