<svg width="24" height="24" viewBox="0 0 24 24" fill="none" xmlns="http://www.w3.org/2000/svg">
<g id="Frame">
<g id="Group">
<path id="Vector" d="M11.25 7.75V13C11.25 13.41 11.58 13.75 12 13.75C12.41 13.75 12.75 13.41 12.75 13V7.75C12.75 7.33 12.41 7 12 7C11.58 7 11.25 7.33 11.25 7.75Z" fill="#FF5A5D"/>
<path id="Vector_2" d="M11.75 22.5C5.82 22.5 1 17.68 1 11.75C1 5.82 5.82 1 11.75 1C17.68 1 22.5 5.82 22.5 11.75C22.5 17.68 17.68 22.5 11.75 22.5ZM11.75 2.5C6.65 2.5 2.5 6.65 2.5 11.75C2.5 16.85 6.65 21 11.75 21C16.85 21 21 16.85 21 11.75C21 6.65 16.85 2.5 11.75 2.5Z" fill="#FF5A5D"/>
<path id="Vector_3" d="M11 16.2004V16.2904C11 16.8404 11.44 17.2904 12 17.2904C12.55 17.2904 13 16.8404 13 16.2904V16.1904C13 15.6304 12.55 15.1904 12 15.1904C11.44 15.1904 11 15.6304 11 16.1904V16.2004Z" fill="#FF5A5D"/>
</g>
</g>
</svg>
