<svg width="16" height="17" viewBox="0 0 16 17" fill="none" xmlns="http://www.w3.org/2000/svg">
<g id="Frame">
<path id="Vector" d="M13.4216 13.7319L9.50908 7.58311L13.3697 3.33624C13.5528 3.12936 13.5335 2.81311 13.3272 2.62999C13.1241 2.44936 12.8141 2.46436 12.6291 2.66311L8.95158 6.70811L6.42095 2.73124C6.32908 2.58686 6.1697 2.49936 5.99908 2.49936H2.99908C2.72283 2.49874 2.49845 2.72242 2.49845 2.99867C2.49783 3.09367 2.52533 3.1868 2.57658 3.26742L6.48908 9.41555L2.62845 13.6655C2.4397 13.8674 2.45158 14.1837 2.65345 14.3718C2.85533 14.5599 3.17158 14.548 3.3597 14.3462C3.3622 14.343 3.3647 14.3399 3.3672 14.3368L7.0447 10.2918L9.57533 14.2687C9.6672 14.4118 9.82658 14.498 9.9972 14.4974H12.9972C13.2728 14.4968 13.4966 14.273 13.4966 13.9968C13.496 13.9018 13.4691 13.8087 13.4185 13.7287L13.4216 13.7319ZM10.2741 13.5L3.91033 3.49999H5.72283L12.0891 13.5H10.2741Z" fill="white"/>
</g>
</svg>
