<svg width="40" height="41" viewBox="0 0 40 41" fill="none" xmlns="http://www.w3.org/2000/svg">
<g filter="url(#filter0_b_462_3674)">
<rect y="0.5" width="40" height="40" rx="19.8" fill="#F6A716" fill-opacity="0.2"/>
<path d="M15.25 19.8999C15.25 21.0699 16.17 22.0499 17.33 22.0499H18.83C19.89 22.0499 20.74 21.1499 20.74 20.0799C20.74 19.0899 20.29 18.5099 19.45 18.2099L17.04 17.3599C16.76 17.2599 16.74 17.2299 16.74 16.8999C16.74 16.6299 16.93 16.4299 17.15 16.4299H18.65C18.96 16.4299 19.24 16.7099 19.24 17.0799C19.24 17.4899 19.57 17.8299 19.99 17.8299C20.4 17.8299 20.74 17.4899 20.74 17.0799C20.74 15.8999 19.81 14.9399 18.66 14.9299L17.14 14.9199C16.07 14.9199 15.23 15.8099 15.23 16.8899C15.23 17.8799 15.68 18.4499 16.52 18.7499L18.92 19.5899C19.18 19.6799 19.2 19.7099 19.2 20.0399C19.2 20.2999 19 20.5099 18.79 20.5099H17.29C16.98 20.5099 16.71 20.2199 16.71 19.8599C16.71 19.4399 16.37 19.1099 15.96 19.1099C15.54 19.1099 15.21 19.4399 15.21 19.8599L15.25 19.8999Z" fill="#F7A716"/>
<path d="M17.25 21.3496V22.0896C17.25 22.4996 17.58 22.8396 18 22.8396C18.41 22.8396 18.75 22.4996 18.75 22.0896V21.3496C18.75 20.9296 18.41 20.5996 18 20.5996C17.58 20.5996 17.25 20.9296 17.25 21.3496Z" fill="#F7A716"/>
<path d="M17.25 14.9004V15.6804C17.25 16.0904 17.58 16.4304 18 16.4304C18.41 16.4304 18.75 16.0904 18.75 15.6804V14.9004C18.75 14.4804 18.41 14.1504 18 14.1504C17.58 14.1504 17.25 14.4804 17.25 14.9004Z" fill="#F7A716"/>
<path d="M17.99 27.23C22.81 27.23 26.73 23.31 26.73 18.49C26.73 13.66 22.81 9.75 17.99 9.75C13.16 9.75 9.25 13.66 9.25 18.49C9.25 23.31 13.16 27.23 17.99 27.23ZM17.99 25.73C13.99 25.73 10.75 22.48 10.75 18.49C10.75 14.49 13.99 11.25 17.99 11.25C21.98 11.25 25.23 14.49 25.23 18.49C25.23 22.48 21.98 25.73 17.99 25.73Z" fill="#F7A716"/>
<path d="M20.36 28.8105C21.42 30.3105 23.14 31.2205 25.02 31.2205C28.16 31.2205 30.72 28.6605 30.72 25.5205C30.72 23.6605 29.81 21.9405 28.33 20.8805C27.99 20.6305 27.52 20.7105 27.28 21.0505C27.03 21.3805 27.11 21.8505 27.45 22.0905C28.54 22.8705 29.2 24.1405 29.2 25.5105C29.2 27.8205 27.31 29.7105 25 29.7105C23.61 29.7105 22.35 29.0405 21.56 27.9205C21.32 27.5805 20.85 27.5005 20.51 27.7405C20.17 27.9705 20.09 28.4405 20.33 28.7805L20.36 28.8105Z" fill="#F7A716"/>
</g>
<defs>
<filter id="filter0_b_462_3674" x="-24" y="-23.5" width="88" height="88" filterUnits="userSpaceOnUse" color-interpolation-filters="sRGB">
<feFlood flood-opacity="0" result="BackgroundImageFix"/>
<feGaussianBlur in="BackgroundImageFix" stdDeviation="12"/>
<feComposite in2="SourceAlpha" operator="in" result="effect1_backgroundBlur_462_3674"/>
<feBlend mode="normal" in="SourceGraphic" in2="effect1_backgroundBlur_462_3674" result="shape"/>
</filter>
</defs>
</svg>
