<svg width="24" height="24" viewBox="0 0 24 24" fill="none" xmlns="http://www.w3.org/2000/svg">
<path d="M22.1249 12C22.1326 11.2667 21.9091 10.5496 21.4862 9.95039C21.0633 9.35122 20.4624 8.90045 19.7689 8.66205C20.0992 8.00061 20.2178 7.25353 20.1087 6.52231C19.9995 5.79109 19.6679 5.11121 19.1589 4.57505C18.6624 4.05175 18.0076 3.70635 17.2953 3.59214C16.5831 3.47792 15.8531 3.60123 15.2179 3.94305C15.0218 3.24038 14.601 2.62122 14.02 2.18012C13.4389 1.73903 12.7294 1.50024 11.9999 1.50024C11.2704 1.50024 10.5609 1.73903 9.97981 2.18012C9.39874 2.62122 8.97802 3.24038 8.78189 3.94305C8.1465 3.60132 7.41635 3.47806 6.70399 3.59227C5.99163 3.70648 5.33661 4.05182 4.83989 4.57505C4.33102 5.11132 3.99958 5.79126 3.89062 6.52247C3.78167 7.25368 3.90047 8.00071 4.23089 8.66205C3.54164 8.907 2.94514 9.35934 2.5233 9.95693C2.10147 10.5545 1.875 11.2681 1.875 11.9995C1.875 12.731 2.10147 13.4446 2.5233 14.0422C2.94514 14.6398 3.54164 15.0921 4.23089 15.337C3.90047 15.9984 3.78167 16.7454 3.89062 17.4766C3.99958 18.2078 4.33102 18.8878 4.83989 19.424C5.33649 19.9474 5.99145 20.293 6.70381 20.4074C7.41618 20.5217 8.14639 20.3987 8.78189 20.057C8.97802 20.7597 9.39874 21.3789 9.97981 21.82C10.5609 22.2611 11.2704 22.4999 11.9999 22.4999C12.7294 22.4999 13.4389 22.2611 14.02 21.82C14.601 21.3789 15.0218 20.7597 15.2179 20.057C15.8532 20.3987 16.5833 20.5219 17.2955 20.4075C18.0077 20.2931 18.6625 19.9475 19.1589 19.424C19.6679 18.8879 19.9995 18.208 20.1087 17.4768C20.2178 16.7456 20.0992 15.9985 19.7689 15.337C20.4624 15.0988 21.0632 14.6482 21.4861 14.0492C21.909 13.4502 22.1325 12.7333 22.1249 12Z" stroke="white" stroke-width="1.5" stroke-linecap="round" stroke-linejoin="round"/>
<path d="M8.625 15.75L16.125 8.25" stroke="white" stroke-width="1.5" stroke-linecap="round" stroke-linejoin="round"/>
<path d="M9.375 10.5C10.2034 10.5 10.875 9.82843 10.875 9C10.875 8.17157 10.2034 7.5 9.375 7.5C8.54657 7.5 7.875 8.17157 7.875 9C7.875 9.82843 8.54657 10.5 9.375 10.5Z" stroke="white" stroke-width="1.5" stroke-linecap="round" stroke-linejoin="round"/>
<path d="M15.375 16.5C16.2034 16.5 16.875 15.8284 16.875 15C16.875 14.1716 16.2034 13.5 15.375 13.5C14.5466 13.5 13.875 14.1716 13.875 15C13.875 15.8284 14.5466 16.5 15.375 16.5Z" stroke="white" stroke-width="1.5" stroke-linecap="round" stroke-linejoin="round"/>
</svg>
