<svg width="16" height="17" viewBox="0 0 16 17" fill="none" xmlns="http://www.w3.org/2000/svg">
<g id="Frame">
<g id="Group">
<path id="Vector" d="M12 7.66634C11.7267 7.66634 11.5 7.43967 11.5 7.16634V5.83301C11.5 3.73301 10.9067 2.33301 8 2.33301C5.09333 2.33301 4.5 3.73301 4.5 5.83301V7.16634C4.5 7.43967 4.27333 7.66634 4 7.66634C3.72667 7.66634 3.5 7.43967 3.5 7.16634V5.83301C3.5 3.89967 3.96667 1.33301 8 1.33301C12.0333 1.33301 12.5 3.89967 12.5 5.83301V7.16634C12.5 7.43967 12.2733 7.66634 12 7.66634Z" fill="white"/>
<path id="Vector_2" d="M8.00065 13.3333C6.80732 13.3333 5.83398 12.36 5.83398 11.1667C5.83398 9.97333 6.80732 9 8.00065 9C9.19398 9 10.1673 9.97333 10.1673 11.1667C10.1673 12.36 9.19398 13.3333 8.00065 13.3333ZM8.00065 10C7.36065 10 6.83398 10.5267 6.83398 11.1667C6.83398 11.8067 7.36065 12.3333 8.00065 12.3333C8.64065 12.3333 9.16732 11.8067 9.16732 11.1667C9.16732 10.5267 8.64065 10 8.00065 10Z" fill="white"/>
<path id="Vector_3" d="M11.334 15.666H4.66732C1.72732 15.666 0.833984 14.7727 0.833984 11.8327V10.4993C0.833984 7.55935 1.72732 6.66602 4.66732 6.66602H11.334C14.274 6.66602 15.1673 7.55935 15.1673 10.4993V11.8327C15.1673 14.7727 14.274 15.666 11.334 15.666ZM4.66732 7.66602C2.28065 7.66602 1.83398 8.11935 1.83398 10.4993V11.8327C1.83398 14.2127 2.28065 14.666 4.66732 14.666H11.334C13.7207 14.666 14.1673 14.2127 14.1673 11.8327V10.4993C14.1673 8.11935 13.7207 7.66602 11.334 7.66602H4.66732Z" fill="white"/>
</g>
</g>
</svg>
