<svg width="24" height="24" viewBox="0 0 24 24" fill="none" xmlns="http://www.w3.org/2000/svg">
<path d="M12.23 10.1205C12.08 10.1005 11.91 10.1005 11.75 10.1105C9.86004 10.0405 8.29004 8.41047 8.29004 6.42047C8.29004 4.38047 9.93004 2.73047 11.98 2.73047C14.01 2.73047 15.67 4.38047 15.67 6.42047C15.66 8.41047 14.09 10.0305 12.11 10.1005L12.23 10.1205ZM12.18 11.6105C14.96 11.5105 17.17 9.23047 17.18 6.43047C17.18 3.56047 14.85 1.23047 11.99 1.23047C9.11004 1.23047 6.79004 3.55047 6.79004 6.42047C6.79004 9.22047 8.99004 11.5005 11.78 11.5905C11.93 11.5805 12 11.5805 12.06 11.5805L12.18 11.6105Z" fill="#4CD7FF"/>
<path d="M6.74039 13.9304C3.87039 15.8404 3.87039 19.1404 6.74039 21.0404C9.74039 23.0404 14.5804 23.0404 17.5804 21.0304C20.4404 19.1104 20.4404 15.8104 17.5704 13.9104C14.5704 11.9104 9.74039 11.9104 6.73039 13.9004L6.74039 13.9304ZM7.57039 15.1704C10.0704 13.5004 14.2604 13.5004 16.7404 15.1604C18.7104 16.4704 18.7104 18.4604 16.7304 19.7804C14.2304 21.4504 10.0504 21.4504 7.55039 19.7704C5.57039 18.4504 5.57039 16.4604 7.55039 15.1404L7.57039 15.1704Z" fill="#4CD7FF"/>
</svg>
