<svg width="45" height="44" viewBox="0 0 45 44" fill="none" xmlns="http://www.w3.org/2000/svg">
<rect x="0.333984" width="44" height="44" rx="22" fill="#B43F3F"/>
<path d="M13.334 13V29C13.334 29.5304 13.5447 30.0391 13.9198 30.4142C14.2948 30.7893 14.8036 31 15.334 31H31.334M17.334 21.2069C17.334 21.0746 17.3865 20.9476 17.48 20.8539L19.48 18.8539C19.5264 18.8074 19.5816 18.7704 19.6424 18.7452C19.7031 18.72 19.7682 18.707 19.834 18.707C19.8998 18.707 19.9649 18.72 20.0256 18.7452C20.0864 18.7704 20.1415 18.8074 20.188 18.8539L23.48 22.1459C23.5264 22.1925 23.5816 22.2294 23.6424 22.2546C23.7031 22.2798 23.7682 22.2928 23.834 22.2928C23.8998 22.2928 23.9649 22.2798 24.0256 22.2546C24.0864 22.2294 24.1415 22.1925 24.188 22.1459L28.48 17.8539C28.5499 17.7839 28.6389 17.7361 28.7359 17.7167C28.833 17.6973 28.9336 17.7072 29.025 17.745C29.1164 17.7827 29.1946 17.8468 29.2496 17.929C29.3046 18.0113 29.334 18.108 29.334 18.2069V25.9999C29.334 26.2651 29.2286 26.5195 29.0411 26.707C28.8536 26.8946 28.5992 26.9999 28.334 26.9999H18.334C18.0688 26.9999 17.8144 26.8946 17.6269 26.707C17.4393 26.5195 17.334 26.2651 17.334 25.9999V21.2069Z" stroke="white" stroke-width="2" stroke-linecap="round" stroke-linejoin="round"/>
</svg>
