<svg width="16" height="17" viewBox="0 0 16 17" fill="none" xmlns="http://www.w3.org/2000/svg">
<g id="Frame">
<path id="Vector" d="M8 2C4.41 2 1.5 4.91 1.5 8.5C1.5 12.0894 4.41 15 8 15C11.5894 15 14.5 12.0894 14.5 8.5C14.4956 4.91125 11.5881 2.00375 8 2ZM13.5 8.5C13.5 9.00688 13.43 9.51188 13.2919 10H10.885C11.0381 9.00562 11.0381 7.99375 10.885 7H13.2919C13.43 7.4875 13.4999 7.9925 13.4999 8.5H13.5ZM6.375 11H9.625C9.30438 12.0487 8.74875 13.0106 8 13.8125C7.25125 13.0106 6.695 12.0487 6.375 11ZM6.13125 10C5.95937 9.00688 5.95937 7.9925 6.13119 7H9.87369C10.0449 7.9925 10.0449 9.00688 9.87369 10H6.13125ZM2.5 8.5C2.49937 7.9925 2.56931 7.4875 2.70806 7H5.11494C4.96119 7.99375 4.96119 9.00556 5.11494 9.99994H2.70806C2.56931 9.51181 2.49925 9.00681 2.49988 8.49994L2.5 8.5ZM9.625 6H6.375C6.695 4.95062 7.25063 3.98875 8 3.1875C8.74813 3.98875 9.30431 4.95062 9.62494 6H9.625ZM12.8956 6H10.6694C10.3888 4.97 9.91563 4.00313 9.27563 3.15C10.8406 3.52563 12.1637 4.56687 12.8981 6H12.8956ZM6.72437 3.15L6.72431 3.14994C6.08369 4.00306 5.61056 4.96994 5.33056 5.99994H3.10125C3.835 4.56681 5.15813 3.52556 6.72375 3.14994L6.72437 3.15ZM3.10188 11H5.33063C5.61063 12.0294 6.08369 12.9963 6.72431 13.85C5.15869 13.4738 3.83563 12.4325 3.10188 11ZM9.27563 13.85C9.91563 12.9963 10.3888 12.0294 10.6694 11H12.8981C12.1637 12.4325 10.8406 13.4738 9.27563 13.85Z" fill="white"/>
</g>
</svg>
