<svg width="16" height="16" viewBox="0 0 16 16" fill="none" xmlns="http://www.w3.org/2000/svg">
<g id="Frame">
<path id="Vector" d="M8 1.5C4.41 1.5 1.5 4.41 1.5 8C1.5 11.5894 4.41 14.5 8 14.5C11.5894 14.5 14.5 11.5894 14.5 8C14.4956 4.41125 11.5881 1.50375 8 1.5ZM13.5 8C13.5 8.50688 13.43 9.01188 13.2919 9.5H10.885C11.0381 8.50562 11.0381 7.49375 10.885 6.5H13.2919C13.43 6.9875 13.4999 7.4925 13.4999 8H13.5ZM6.375 10.5H9.625C9.30438 11.5487 8.74875 12.5106 8 13.3125C7.25125 12.5106 6.695 11.5487 6.375 10.5ZM6.13125 9.5C5.95937 8.50688 5.95937 7.4925 6.13119 6.5H9.87369C10.0449 7.4925 10.0449 8.50688 9.87369 9.5H6.13125ZM2.5 8C2.49937 7.4925 2.56931 6.9875 2.70806 6.5H5.11494C4.96119 7.49375 4.96119 8.50556 5.11494 9.49994H2.70806C2.56931 9.01181 2.49925 8.50681 2.49988 7.99994L2.5 8ZM9.625 5.5H6.375C6.695 4.45062 7.25063 3.48875 8 2.6875C8.74813 3.48875 9.30431 4.45062 9.62494 5.5H9.625ZM12.8956 5.5H10.6694C10.3888 4.47 9.91563 3.50313 9.27563 2.65C10.8406 3.02563 12.1637 4.06687 12.8981 5.5H12.8956ZM6.72437 2.65L6.72431 2.64994C6.08369 3.50306 5.61056 4.46994 5.33056 5.49994H3.10125C3.835 4.06681 5.15813 3.02556 6.72375 2.64994L6.72437 2.65ZM3.10188 10.5H5.33063C5.61063 11.5294 6.08369 12.4963 6.72431 13.35C5.15869 12.9738 3.83563 11.9325 3.10188 10.5ZM9.27563 13.35C9.91563 12.4963 10.3888 11.5294 10.6694 10.5H12.8981C12.1637 11.9325 10.8406 12.9738 9.27563 13.35Z" fill="white"/>
</g>
</svg>
