<svg width="75" height="75" viewBox="0 0 75 75" fill="none" xmlns="http://www.w3.org/2000/svg">
<path d="M73.454 61.7687L64.079 45.5812C64.0088 45.4596 63.9071 45.3591 63.7846 45.2904C63.662 45.2217 63.5233 45.1873 63.3829 45.1909C63.2425 45.1944 63.1056 45.2357 62.9867 45.3104C62.8678 45.3852 62.7712 45.4906 62.7071 45.6156C61.4501 48.0897 59.5127 50.1533 57.1228 51.5639C54.7329 52.9744 51.99 53.6732 49.2165 53.5781C49.1054 53.5737 48.9946 53.5932 48.8916 53.6353C48.7887 53.6773 48.6959 53.7409 48.6196 53.8219C47.7305 54.7526 46.718 55.5569 45.6103 56.2125C45.4348 56.3195 45.3083 56.4911 45.2581 56.6904C45.2078 56.8896 45.2378 57.1007 45.3415 57.2781L54.5353 72.8344C54.8376 73.3433 55.2782 73.756 55.8059 74.0243C56.3336 74.2926 56.9266 74.4055 57.516 74.3498C58.1053 74.2941 58.6668 74.0722 59.1349 73.7099C59.603 73.3475 59.9586 72.8597 60.1603 72.3031L62.7603 65.1531L70.2353 66.4187C70.8204 66.5173 71.4215 66.4472 71.9683 66.2166C72.5151 65.9861 72.9849 65.6047 73.3229 65.1169C73.6608 64.6291 73.8529 64.0552 73.8767 63.4623C73.9005 62.8694 73.755 62.282 73.4571 61.7687H73.454Z" fill="url(#paint0_linear_4894_15751)"/>
<path d="M27.2579 53.8252C27.1816 53.7443 27.0889 53.6806 26.9859 53.6386C26.8829 53.5965 26.7722 53.5771 26.661 53.5814C23.8879 53.6766 21.1452 52.9785 18.755 51.5692C16.3648 50.1599 14.4264 48.0978 13.1673 45.6252C13.1031 45.5005 13.0066 45.3952 12.8878 45.3205C12.7691 45.2457 12.6325 45.2042 12.4923 45.2002C12.3515 45.1955 12.2122 45.2295 12.0894 45.2983C11.9665 45.3672 11.8649 45.4683 11.7954 45.5908L2.42041 61.7814C2.12322 62.2949 1.97831 62.8823 2.00263 63.475C2.02694 64.0678 2.21946 64.6413 2.5577 65.1287C2.89594 65.6161 3.36592 65.9971 3.91269 66.2272C4.45947 66.4574 5.06046 66.5271 5.64541 66.4283L13.1173 65.1627L15.7204 72.3158C15.9231 72.8718 16.2795 73.3589 16.7482 73.7202C17.2168 74.0816 17.7785 74.3025 18.3677 74.3572C18.957 74.4118 19.5497 74.2981 20.0768 74.0291C20.604 73.7601 21.0439 73.3469 21.3454 72.8377L30.536 57.2877C30.6398 57.1103 30.6697 56.8992 30.6195 56.6999C30.5692 56.5007 30.4428 56.3291 30.2673 56.2221C29.1602 55.5631 28.1478 54.7568 27.2579 53.8252Z" fill="url(#paint1_linear_4894_15751)"/>
<path d="M44.186 31.8941C45.0148 31.8941 45.8096 31.5649 46.3957 30.9788C46.9817 30.3928 47.311 29.5979 47.311 28.7691V25.6441C47.311 24.8153 46.9817 24.0204 46.3957 23.4344C45.8096 22.8483 45.0148 22.5191 44.186 22.5191C43.3572 22.5191 42.5623 22.8483 41.9763 23.4344C41.3902 24.0204 41.061 24.8153 41.061 25.6441V28.7691C41.061 29.5979 41.3902 30.3928 41.9763 30.9788C42.5623 31.5649 43.3572 31.8941 44.186 31.8941Z" fill="url(#paint2_linear_4894_15751)"/>
<path d="M46.7273 48.4375C48.4566 48.9853 50.303 49.0476 52.0652 48.6176C53.8274 48.1876 55.4377 47.2819 56.7203 45.9993C58.0029 44.7167 58.9087 43.1064 59.3386 41.3442C59.7686 39.582 59.7063 37.7355 59.1586 36.0063C60.7681 35.1706 62.1172 33.9091 63.0588 32.3592C64.0004 30.8094 64.4984 29.0307 64.4984 27.2172C64.4984 25.4037 64.0004 23.6251 63.0588 22.0752C62.1172 20.5254 60.7681 19.2638 59.1586 18.4282C59.7063 16.6989 59.7686 14.8525 59.3386 13.0903C58.9087 11.3281 58.0029 9.7178 56.7203 8.43517C55.4377 7.15255 53.8274 6.24684 52.0652 5.81686C50.303 5.38689 48.4566 5.44917 46.7273 5.99691C45.8915 4.38675 44.6295 3.03705 43.0791 2.09501C41.5287 1.15297 39.7493 0.654785 37.9352 0.654785C36.121 0.654785 34.3416 1.15297 32.7912 2.09501C31.2408 3.03705 29.9788 4.38675 29.143 5.99691C27.4147 5.45014 25.5695 5.38821 23.8085 5.81787C22.0475 6.24753 20.4382 7.1523 19.1559 8.43358C17.8737 9.71485 16.9677 11.3235 16.5367 13.0842C16.1057 14.8449 16.1662 16.6901 16.7117 18.4188C15.1022 19.2544 13.7531 20.516 12.8115 22.0658C11.8699 23.6157 11.3719 25.3944 11.3719 27.2078C11.3719 29.0213 11.8699 30.8 12.8115 32.3498C13.7531 33.8997 15.1022 35.1613 16.7117 35.9969C16.1614 37.727 16.0972 39.5751 16.5263 41.3392C16.9553 43.1034 17.8611 44.7156 19.1446 45.9997C20.428 47.2838 22.0398 48.1903 23.8037 48.6203C25.5676 49.0502 27.4157 48.987 29.1461 48.4375C29.9815 50.0478 31.2431 51.3977 32.7933 52.3399C34.3435 53.282 36.1227 53.7803 37.9367 53.7803C39.7508 53.7803 41.53 53.282 43.0802 52.3399C44.6304 51.3977 45.892 50.0478 46.7273 48.4375ZM28.5617 35.0188C28.1473 35.0188 27.7499 34.8542 27.4569 34.5611C27.1638 34.2681 26.9992 33.8707 26.9992 33.4563C26.9992 33.0419 27.1638 32.6445 27.4569 32.3514C27.7499 32.0584 28.1473 31.8938 28.5617 31.8938H30.1242V22.5188L28.1242 24.0188C27.7927 24.2674 27.376 24.3742 26.9657 24.3156C26.5555 24.257 26.1854 24.0378 25.9367 23.7063C25.6881 23.3748 25.5813 22.958 25.6399 22.5478C25.6985 22.1376 25.9177 21.7674 26.2492 21.5188L28.2492 20.0188C28.7133 19.6677 29.2666 19.454 29.8462 19.4021C30.4257 19.3501 31.0083 19.462 31.5273 19.725C32.0452 19.9852 32.4804 20.3843 32.7845 20.8777C33.0886 21.371 33.2495 21.9392 33.2492 22.5188V31.8938H34.8117C35.2261 31.8938 35.6235 32.0584 35.9166 32.3514C36.2096 32.6445 36.3742 33.0419 36.3742 33.4563C36.3742 33.8707 36.2096 34.2681 35.9166 34.5611C35.6235 34.8542 35.2261 35.0188 34.8117 35.0188H28.5617ZM37.9367 25.6438C37.9367 23.9862 38.5952 22.3965 39.7673 21.2244C40.9394 20.0523 42.5291 19.3938 44.1867 19.3938C45.8443 19.3938 47.434 20.0523 48.6061 21.2244C49.7782 22.3965 50.4367 23.9862 50.4367 25.6438V28.7688C50.4367 30.4264 49.7782 32.0161 48.6061 33.1882C47.434 34.3603 45.8443 35.0188 44.1867 35.0188C42.5291 35.0188 40.9394 34.3603 39.7673 33.1882C38.5952 32.0161 37.9367 30.4264 37.9367 28.7688V25.6438Z" fill="url(#paint3_linear_4894_15751)"/>
<defs>
<linearGradient id="paint0_linear_4894_15751" x1="37.9396" y1="0.654785" x2="37.9396" y2="74.3705" gradientUnits="userSpaceOnUse">
<stop stop-color="#00EEFF"/>
<stop offset="1" stop-color="#CC00FF"/>
</linearGradient>
<linearGradient id="paint1_linear_4894_15751" x1="37.9396" y1="0.654785" x2="37.9396" y2="74.3705" gradientUnits="userSpaceOnUse">
<stop stop-color="#00EEFF"/>
<stop offset="1" stop-color="#CC00FF"/>
</linearGradient>
<linearGradient id="paint2_linear_4894_15751" x1="37.9396" y1="0.654785" x2="37.9396" y2="74.3705" gradientUnits="userSpaceOnUse">
<stop stop-color="#00EEFF"/>
<stop offset="1" stop-color="#CC00FF"/>
</linearGradient>
<linearGradient id="paint3_linear_4894_15751" x1="37.9396" y1="0.654785" x2="37.9396" y2="74.3705" gradientUnits="userSpaceOnUse">
<stop stop-color="#00EEFF"/>
<stop offset="1" stop-color="#CC00FF"/>
</linearGradient>
</defs>
</svg>
