<svg width="21" height="20" viewBox="0 0 21 20" fill="none" xmlns="http://www.w3.org/2000/svg">
<g id="Frame" opacity="0.8">
<path id="Vector" d="M18.625 9.375H17.9734H17.9734C17.6632 5.72813 14.771 2.83594 11.1249 2.52656V1.875C11.1249 1.52969 10.8445 1.25 10.4999 1.25C10.1546 1.25 9.87492 1.52969 9.87492 1.875V2.52656C6.22734 2.83594 3.33516 5.72813 3.02648 9.375H2.37492C2.02961 9.375 1.74992 9.65469 1.74992 10C1.74992 10.3445 2.02961 10.625 2.37492 10.625H3.02648V10.6249C3.33586 14.271 6.22805 17.1632 9.87492 17.4734V18.1249C9.87492 18.4695 10.1545 18.7499 10.4998 18.7491C10.8444 18.7484 11.1241 18.4687 11.1241 18.1241V17.4726V17.4725C14.7702 17.1623 17.6623 14.2702 17.9725 10.6241H18.6241C18.9686 10.6241 19.2491 10.3436 19.2491 9.99906C19.2491 9.65375 18.9686 9.37406 18.6241 9.37406L18.625 9.375ZM11.125 16.2188V15.625C11.125 15.2797 10.8445 15 10.5 15C10.1547 15 9.875 15.2797 9.875 15.625V16.2188C6.91953 15.9164 4.58281 13.5797 4.28125 10.625H4.875C5.21953 10.625 5.5 10.3445 5.5 10C5.5 9.65469 5.21953 9.375 4.875 9.375H4.28125H4.28117C4.58273 6.41953 6.91945 4.08281 9.87492 3.78125V4.375C9.87492 4.71953 10.1546 5 10.4999 5C10.8445 5 11.1249 4.71953 11.1249 4.375V3.78125V3.78117C14.0796 4.08273 16.4163 6.41945 16.7187 9.37492H16.1249C15.7796 9.37492 15.4999 9.65461 15.4999 9.99992C15.4999 10.3445 15.7796 10.6249 16.1249 10.6249H16.7187C16.4163 13.5796 14.0796 15.9163 11.1249 16.2187L11.125 16.2188ZM10.5 6.875C8.77344 6.875 7.375 8.27344 7.375 10C7.375 11.7258 8.77344 13.125 10.5 13.125C12.2258 13.125 13.625 11.7258 13.625 10C13.625 8.27344 12.2258 6.875 10.5 6.875ZM10.5 11.875C9.46406 11.875 8.625 11.0352 8.625 10C8.625 8.96406 9.46406 8.125 10.5 8.125C11.5352 8.125 12.375 8.96406 12.375 10C12.375 11.0352 11.5352 11.875 10.5 11.875Z" fill="white"/>
</g>
</svg>
