<svg width="64" height="64" viewBox="0 0 64 64" fill="none" xmlns="http://www.w3.org/2000/svg">
<path d="M35.334 61.1839C35.3346 61.2951 35.3629 61.4044 35.4163 61.502C35.4698 61.5995 35.5467 61.6822 35.6402 61.7425C35.7336 61.8029 35.8406 61.839 35.9515 61.8476C36.0624 61.8562 36.1737 61.8371 36.2753 61.7919L61.1047 50.5065C61.5705 50.2946 61.9656 49.9532 62.2427 49.5229C62.5198 49.0926 62.6672 48.5917 62.6673 48.0799V18.3625C62.6674 18.251 62.6395 18.1413 62.5863 18.0434C62.533 17.9455 62.456 17.8625 62.3624 17.802C62.2687 17.7415 62.1614 17.7054 62.0502 17.6972C61.939 17.6889 61.8276 17.7086 61.726 17.7545L35.734 29.5732C35.6171 29.6253 35.5178 29.7103 35.4482 29.8177C35.3786 29.9252 35.3417 30.0505 35.342 30.1785L35.334 61.1839ZM48.4007 35.5199C48.5245 35.3957 48.6716 35.2972 48.8336 35.23C48.9956 35.1627 49.1693 35.1281 49.3447 35.1281C49.52 35.1281 49.6937 35.1627 49.8557 35.23C50.0177 35.2972 50.1648 35.3957 50.2887 35.5199L54.2887 39.5199C54.4756 39.7063 54.603 39.9441 54.6546 40.2031C54.7063 40.462 54.6799 40.7305 54.5787 40.9744C54.4776 41.2184 54.3064 41.4268 54.0867 41.5732C53.867 41.7197 53.6087 41.7977 53.3447 41.7972H52.0113C51.9237 41.7968 51.8368 41.8138 51.7558 41.8472C51.6747 41.8806 51.6011 41.9297 51.5391 41.9917C51.4772 42.0536 51.4281 42.1273 51.3947 42.2083C51.3613 42.2894 51.3443 42.3762 51.3447 42.4639V47.1305C51.3447 47.661 51.1339 48.1697 50.7589 48.5447C50.3838 48.9198 49.8751 49.1305 49.3447 49.1305C48.8142 49.1305 48.3055 48.9198 47.9304 48.5447C47.5554 48.1697 47.3447 47.661 47.3447 47.1305V42.4639C47.345 42.3762 47.328 42.2894 47.2946 42.2083C47.2612 42.1273 47.2122 42.0536 47.1502 41.9917C47.0882 41.9297 47.0146 41.8806 46.9335 41.8472C46.8525 41.8138 46.7656 41.7968 46.678 41.7972H45.334C45.0699 41.7977 44.8117 41.7197 44.592 41.5732C44.3723 41.4268 44.201 41.2184 44.0999 40.9744C43.9988 40.7305 43.9724 40.462 44.024 40.2031C44.0757 39.9441 44.203 39.7063 44.39 39.5199L48.4007 35.5199Z" fill="#A1F7FF"/>
<path d="M20.2167 25.1656C20.1155 25.1235 20.0056 25.107 19.8966 25.1175C19.7875 25.1281 19.6828 25.1653 19.5916 25.2259C19.5004 25.2866 19.4255 25.3687 19.3736 25.4652C19.3217 25.5616 19.2943 25.6694 19.294 25.7789V31.1309C19.294 31.6613 19.0833 32.17 18.7082 32.5451C18.3331 32.9202 17.8244 33.1309 17.294 33.1309C16.7636 33.1309 16.2548 32.9202 15.8798 32.5451C15.5047 32.17 15.294 31.6613 15.294 31.1309V23.5576C15.296 23.4244 15.258 23.2936 15.1847 23.1823C15.1115 23.0711 15.0065 22.9844 14.8833 22.9336L2.25665 17.6829C2.15549 17.6401 2.04529 17.623 1.93592 17.6333C1.82656 17.6435 1.72144 17.6807 1.62998 17.7416C1.53932 17.803 1.465 17.8857 1.41343 17.9823C1.36185 18.0789 1.33459 18.1867 1.33398 18.2962V48.0189C1.33394 48.5452 1.48964 49.0598 1.78148 49.4978C2.07332 49.9358 2.48824 50.2776 2.97398 50.4802L30.4007 61.9122C30.502 61.9544 30.6122 61.9709 30.7214 61.9602C30.8306 61.9495 30.9355 61.9121 31.0268 61.8511C31.1181 61.7902 31.1929 61.7077 31.2446 61.6109C31.2964 61.5141 31.3234 61.406 31.3233 61.2962V30.2402C31.3231 30.1085 31.284 29.9799 31.2109 29.8703C31.1379 29.7607 31.0341 29.6751 30.9127 29.6242L20.2167 25.1656Z" fill="#A1F7FF"/>
<path d="M42.3989 7.52494C42.5161 7.47225 42.6155 7.38683 42.6853 7.27897C42.755 7.17111 42.7921 7.04539 42.7921 6.91694C42.7921 6.78848 42.755 6.66277 42.6853 6.5549C42.6155 6.44704 42.5161 6.36163 42.3989 6.30894L33.0656 2.25827C32.7291 2.11144 32.366 2.03564 31.9989 2.03564C31.6318 2.03564 31.2687 2.11144 30.9323 2.25827L5.31359 13.3996C5.19333 13.4508 5.09079 13.5363 5.01871 13.6453C4.94663 13.7544 4.9082 13.8822 4.9082 14.0129C4.9082 14.1437 4.94663 14.2715 5.01871 14.3805C5.09079 14.4896 5.19333 14.575 5.31359 14.6263L16.5323 19.2903C16.6162 19.3275 16.7071 19.3467 16.7989 19.3467C16.8908 19.3467 16.9816 19.3275 17.0656 19.2903L42.3989 7.52494Z" fill="#A1F7FF"/>
<path d="M33.029 26.171C33.1133 26.2073 33.204 26.2259 33.2957 26.2259C33.3874 26.2259 33.4781 26.2073 33.5624 26.171L58.8317 14.667C58.9488 14.6143 59.0483 14.5289 59.118 14.421C59.1878 14.3132 59.2249 14.1875 59.2249 14.059C59.2249 13.9306 59.1878 13.8048 59.118 13.697C59.0483 13.5891 58.9488 13.5037 58.8317 13.451L48.9197 9.15234C48.8355 9.11595 48.7448 9.09717 48.653 9.09717C48.5613 9.09717 48.4706 9.11595 48.3864 9.15234L23.1704 20.8537C23.0535 20.9085 22.9551 20.9962 22.8871 21.1059C22.8191 21.2156 22.7844 21.3426 22.7873 21.4717C22.7901 21.6007 22.8303 21.7262 22.9031 21.8328C22.9758 21.9394 23.0779 22.0226 23.197 22.0723L33.029 26.171Z" fill="#A1F7FF"/>
</svg>
