<svg width="54" height="54" viewBox="0 0 54 54" fill="none" xmlns="http://www.w3.org/2000/svg">
<g id="Frame">
<g id="Group">
<path id="Vector" d="M27 51.1875C13.6575 51.1875 2.8125 40.3425 2.8125 27C2.8125 13.6575 13.6575 2.8125 27 2.8125C40.3425 2.8125 51.1875 13.6575 51.1875 27C51.1875 40.3425 40.3425 51.1875 27 51.1875ZM27 6.1875C15.525 6.1875 6.1875 15.525 6.1875 27C6.1875 38.475 15.525 47.8125 27 47.8125C38.475 47.8125 47.8125 38.475 47.8125 27C47.8125 15.525 38.475 6.1875 27 6.1875Z" fill="#377EFF"/>
<path id="Vector_2" d="M34.9425 31.5004C34.515 31.5004 34.0875 31.3429 33.75 31.0054L27 24.2554L20.2275 31.0054C19.575 31.6579 18.495 31.6579 17.8425 31.0054C17.19 30.3529 17.19 29.2729 17.8425 28.6204L25.785 20.6779C26.4375 20.0254 27.5175 20.0254 28.17 20.6779L36.1125 28.5979C36.765 29.2504 36.765 30.3304 36.1125 30.9829C35.775 31.3204 35.3475 31.4779 34.92 31.4779L34.9425 31.5004Z" fill="#377EFF"/>
</g>
</g>
</svg>
