<svg width="16" height="16" viewBox="0 0 16 16" fill="none" xmlns="http://www.w3.org/2000/svg">
<g id="Frame">
<path id="Vector" d="M3.37027 2.16352C3.18652 1.95664 2.8709 1.93789 2.66402 2.12102C2.45715 2.30414 2.4384 2.61977 2.62152 2.82664C2.62402 2.82914 2.62652 2.83227 2.62902 2.83539L3.83152 4.15852C1.56152 5.55164 0.585273 7.69914 0.542148 7.79664C0.484648 7.92539 0.484648 8.07352 0.542148 8.20289C0.564023 8.25227 1.0934 9.42602 2.27027 10.6029C3.8384 12.1704 5.81902 12.9991 7.99902 12.9991C9.11902 13.0054 10.2284 12.7748 11.2534 12.3223L12.6284 13.8354C12.8115 14.0416 13.1271 14.0603 13.334 13.8772C13.5403 13.6935 13.559 13.3778 13.3759 13.171C13.3728 13.1678 13.3703 13.1647 13.3678 13.1616L3.37027 2.16352ZM6.3284 6.90352L8.93277 9.76914C7.95465 10.2829 6.74527 9.90727 6.23152 8.92977C5.89277 8.28664 5.93027 7.51039 6.32777 6.90289L6.3284 6.90352ZM8.00027 11.9998C6.07652 11.9998 4.3959 11.3004 3.00465 9.92164C2.4334 9.35352 1.94771 8.70664 1.56271 7.99977C1.85584 7.45039 2.79146 5.91289 4.52209 4.91352L5.64709 6.14789C4.62709 7.45352 4.85896 9.33846 6.16521 10.3585C7.16709 11.1403 8.55334 11.2066 9.62521 10.5222L10.5458 11.5347C9.73271 11.846 8.86959 12.0035 7.99959 11.9991L8.00027 11.9998ZM8.37527 6.03539C8.1034 5.98352 7.9259 5.72164 7.97777 5.45039C8.02902 5.17852 8.2909 5.00102 8.56277 5.05289C9.8709 5.30602 10.8571 6.39039 10.9859 7.71789C11.0115 7.99227 10.809 8.23602 10.5346 8.26227C10.519 8.26289 10.5028 8.26289 10.4878 8.26227C10.2284 8.26289 10.0115 8.06602 9.98777 7.80852C9.9009 6.92539 9.24527 6.20477 8.37527 6.03539ZM15.4553 8.20352C15.429 8.26227 14.7959 9.66414 13.3703 10.941C13.1671 11.1279 12.8509 11.1154 12.6634 10.9129C12.4759 10.7098 12.4884 10.3935 12.6909 10.206C12.6946 10.2023 12.6984 10.1985 12.7021 10.1954C13.4015 9.56664 13.989 8.82414 14.4396 7.99914C14.0534 7.29102 13.5665 6.64352 12.9946 6.07602C11.6034 4.69852 9.92277 3.99914 7.99902 3.99914V3.99908C7.5934 3.99846 7.1884 4.03096 6.78902 4.09721C6.51652 4.14471 6.25715 3.96346 6.20902 3.69158C6.1609 3.41908 6.34215 3.15971 6.61402 3.11158C6.61652 3.11096 6.61965 3.11033 6.62277 3.10971C7.07715 3.03408 7.53652 2.99721 7.99777 2.99783C10.1778 2.99783 12.1584 3.82658 13.7265 5.39471C14.9034 6.57158 15.4328 7.74596 15.4546 7.79533C15.5115 7.92408 15.5115 8.07221 15.4546 8.20158L15.4553 8.20352Z" fill="white"/>
</g>
</svg>
