<svg width="45" height="44" viewBox="0 0 45 44" fill="none" xmlns="http://www.w3.org/2000/svg">
<rect x="0.666016" width="44" height="44" rx="22" fill="#56C20D"/>
<path d="M22.666 11.9995C22.3874 11.9995 22.1179 12.099 21.906 12.28C20.166 13.8 17.666 15 15.666 15C15.4008 15 15.1464 15.1053 14.9589 15.2929C14.7714 15.4804 14.666 15.7347 14.666 16V23C14.666 28 18.166 30.5 22.336 31.94C22.5516 32.0202 22.7882 32.0238 23.006 31.95C27.166 30.5 30.666 28 30.666 23V16C30.666 15.7347 30.5607 15.4804 30.3731 15.2929C30.1856 15.1053 29.9312 15 29.666 15C27.666 15 25.176 13.81 23.426 12.28C23.2142 12.099 22.9447 11.9995 22.666 11.9995ZM22.666 11.9995V32" stroke="white" stroke-width="2" stroke-linecap="round" stroke-linejoin="round"/>
</svg>
