<svg width="45" height="44" viewBox="0 0 45 44" fill="none" xmlns="http://www.w3.org/2000/svg">
<rect x="0.333496" width="44" height="44" rx="22" fill="#B721FF"/>
<g clip-path="url(#clip0_275_2083)">
<path d="M27.5835 18.2507H33.5835L32.8335 17.5007C32.8335 17.6107 32.8135 17.8307 32.7835 18.1207C32.7235 18.5907 32.6335 19.0707 32.4835 19.5107C32.1035 20.6407 31.4935 21.2407 30.5635 21.2407H29.8135C29.3935 21.2407 29.0635 21.5707 29.0635 21.9907C29.0635 22.4007 29.3935 22.7407 29.8135 22.7407H30.5635C32.2535 22.7407 33.3335 21.6507 33.8935 19.9707C34.0735 19.4207 34.1835 18.8407 34.2535 18.2607C34.2835 17.9107 34.3035 17.6407 34.3035 17.4707C34.3035 17.0507 33.9635 16.7207 33.5535 16.7207H27.5535C27.1335 16.7207 26.8035 17.0507 26.8035 17.4707C26.8035 17.8807 27.1335 18.2207 27.5535 18.2207L27.5835 18.2507Z" fill="white"/>
<path d="M31.3635 21.4203C31.1935 23.4103 30.6035 24.2403 28.3235 24.2403C27.9035 24.2403 27.5735 24.5703 27.5735 24.9903C27.5735 25.4003 27.9035 25.7403 28.3235 25.7403C31.5335 25.7403 32.6235 24.2103 32.8435 21.5303C32.8735 21.1103 32.5635 20.7503 32.1535 20.7203C31.7335 20.6803 31.3735 20.9903 31.3435 21.4003L31.3635 21.4203Z" fill="white"/>
<path d="M17.0835 16.7507H11.0835C10.6635 16.7507 10.3335 17.0807 10.3335 17.5007C10.3335 17.6607 10.3435 17.9307 10.3835 18.2807C10.4435 18.8507 10.5535 19.4307 10.7435 19.9807C11.2935 21.6507 12.3835 22.7407 14.0735 22.7407H14.8235C15.2335 22.7407 15.5735 22.4007 15.5735 21.9907C15.5735 21.5707 15.2335 21.2407 14.8235 21.2407H14.0735C13.1335 21.2407 12.5335 20.6307 12.1535 19.5007C12.0035 19.0607 11.9035 18.5807 11.8535 18.1007C11.8135 17.8107 11.8035 17.5907 11.8035 17.4707L11.0535 18.2207H17.0535C17.4635 18.2207 17.8035 17.8807 17.8035 17.4707C17.8035 17.0507 17.4635 16.7207 17.0535 16.7207L17.0835 16.7507Z" fill="white"/>
<path d="M11.8036 21.5398C12.0236 24.2198 13.1036 25.7398 16.3236 25.7398C16.7336 25.7398 17.0736 25.3998 17.0736 24.9898C17.0736 24.5698 16.7336 24.2398 16.3236 24.2398C14.0436 24.2398 13.4536 23.3998 13.2836 21.4098C13.2436 20.9898 12.8836 20.6898 12.4736 20.7198C12.0536 20.7498 11.7536 21.1098 11.7836 21.5198L11.8036 21.5398Z" fill="white"/>
<path d="M27.6135 14.9102C26.1535 13.6002 24.2435 12.9102 22.2935 12.9902C20.3935 12.9002 18.4835 13.5902 17.0335 14.9002C16.5635 15.3302 16.3135 15.9302 16.3135 16.5402L16.3035 19.1502C16.3035 22.6002 17.5535 25.9302 19.8235 28.5302L20.6035 29.4202C21.4135 30.3502 22.8335 30.4502 23.7735 29.6302C23.8435 29.5602 23.9135 29.4902 23.9835 29.4102L24.7635 28.5102C27.0335 25.9102 28.2835 22.5702 28.2835 19.1202V16.5002C28.2835 15.8802 28.0235 15.2902 27.5835 14.8602L27.6135 14.9102ZM26.5935 16.0102C26.7335 16.1502 26.8235 16.3402 26.8235 16.5502L26.8135 19.1602C26.8035 22.2402 25.6835 25.2302 23.6535 27.5502L22.8635 28.4402C22.8335 28.4602 22.8135 28.4802 22.7835 28.5102C22.4635 28.7802 21.9935 28.7502 21.7235 28.4302L20.9335 27.5302C18.8935 25.2002 17.7735 22.2202 17.7735 19.1302V16.5102C17.7635 16.3002 17.8535 16.1002 18.0035 15.9602C19.1435 14.9202 20.6735 14.3702 22.2335 14.4402C23.8535 14.3702 25.3835 14.9202 26.5435 15.9702L26.5935 16.0102Z" fill="white"/>
</g>
<defs>
<clipPath id="clip0_275_2083">
<rect width="24" height="24" fill="white" transform="translate(10.3335 10)"/>
</clipPath>
</defs>
</svg>
