<svg width="24" height="24" viewBox="0 0 24 24" fill="none" xmlns="http://www.w3.org/2000/svg">
<g id="Frame">
<path id="Vector" d="M22.875 11.9999C22.875 12.6205 22.3706 13.1249 21.75 13.1249H19.4456L16.0059 20.0033C15.8147 20.384 15.4256 20.624 15 20.6249H14.9437C14.4975 20.6015 14.1075 20.3183 13.9491 19.9011L8.90625 6.6702L6.27375 12.4686C6.09 12.868 5.68969 13.1249 5.25 13.1249H2.25C1.62844 13.1249 1.125 12.6205 1.125 11.9999C1.125 11.3783 1.62844 10.8749 2.25 10.8749H4.52531L7.97625 3.28114C8.23313 2.71489 8.90063 2.46645 9.46594 2.72333C9.73406 2.8452 9.94406 3.06926 10.05 3.34583L15.1388 16.7015L17.7431 11.4927C17.9344 11.1121 18.3234 10.8729 18.7491 10.8739H21.7491C22.3697 10.8738 22.8741 11.3773 22.8741 11.9989L22.875 11.9999Z" fill="#FE8C33"/>
</g>
</svg>
