<svg width="21" height="20" viewBox="0 0 21 20" fill="none" xmlns="http://www.w3.org/2000/svg">
<g id="Frame" opacity="0.9">
<path id="Vector" d="M19.4012 10.7368C19.8012 10.3285 19.8012 9.67013 19.4012 9.2618C19.3928 9.25346 19.3928 9.25346 19.3928 9.25346L17.3428 7.20346C17.3012 7.1618 17.2762 7.1118 17.2762 7.05346V4.15013C17.2678 3.57513 16.8095 3.10846 16.2345 3.10846H13.3345C13.2762 3.10846 13.2262 3.08346 13.1845 3.0418L11.1345 0.991797C10.7262 0.583464 10.0678 0.583464 9.65951 0.991797L7.60951 3.0418C7.56784 3.07513 7.50951 3.10013 7.45951 3.10013H4.55701C3.97367 3.10013 3.51534 3.55846 3.50701 4.1418V7.0418C3.50701 7.0918 3.48201 7.1418 3.44034 7.18346L1.39034 9.23346C0.982005 9.63346 0.982005 10.2918 1.38951 10.7001L3.43951 12.7501C3.47284 12.7835 3.49784 12.8418 3.49784 12.8918V15.7835C3.49784 16.3585 3.96451 16.8251 4.53951 16.8251H7.43951C7.48951 16.8168 7.53951 16.8418 7.58117 16.8835L9.63117 18.9335C10.0312 19.3335 10.6895 19.3335 11.0978 18.9335L13.1478 16.8835C13.1812 16.8418 13.2395 16.8168 13.2895 16.8168H16.1812C16.7478 16.8085 17.2145 16.3418 17.2145 15.7751V12.8751C17.2145 12.8168 17.2312 12.7585 17.2728 12.7251L19.4012 10.7368ZM6.24284 9.99513C6.24284 7.6868 8.10117 5.82846 10.4095 5.82846C12.7095 5.82846 14.5762 7.6868 14.5762 9.99513C14.5762 12.2951 12.7095 14.1618 10.4095 14.1618C8.10117 14.1618 6.24284 12.2951 6.24284 9.99513Z" fill="white"/>
</g>
</svg>
