<svg width="24" height="24" viewBox="0 0 24 24" fill="none" xmlns="http://www.w3.org/2000/svg">
<g id="Frame" clip-path="url(#clip0_1484_8060)">
<path id="Vector" d="M22.4212 9.76255L21.1512 9.31255C20.4312 9.05255 20.0612 8.27255 20.3112 7.55255C20.3212 7.50255 20.3412 7.46255 20.3612 7.41255L20.9312 6.19955V6.18955C21.4912 4.99955 20.9812 3.57955 19.8012 3.01955C19.1512 2.70955 18.4012 2.70955 17.7612 3.01955L16.5412 3.59655C15.8512 3.91655 15.0312 3.62655 14.7012 2.93655C14.6812 2.88655 14.6612 2.84655 14.6412 2.80655L14.1912 1.54155V1.54955C13.7402 0.309551 12.3902 -0.340449 11.1502 0.0995513C10.4702 0.329551 9.94022 0.859551 9.70022 1.53955L9.25022 2.79955C8.99022 3.50955 8.20022 3.87955 7.49022 3.62955C7.44022 3.60955 7.40022 3.58955 7.36022 3.56955L6.14022 2.98955C4.95022 2.41955 3.53022 2.92955 2.97022 4.10955C2.66022 4.74955 2.66022 5.49955 2.97022 6.13955L3.54022 7.35255C3.86022 8.03255 3.57022 8.85255 2.88022 9.18255C2.83022 9.20255 2.79022 9.21255 2.75022 9.23255L1.48022 9.68255C0.240215 10.1126 -0.409785 11.4726 0.0302154 12.7126C0.260215 13.3826 0.790215 13.9126 1.47022 14.1526L2.73622 14.6026H2.74022C3.45022 14.8526 3.82022 15.6426 3.57022 16.3526C3.55022 16.3926 3.53022 16.4326 3.51022 16.4726L2.93022 17.6826V17.6816C2.36022 18.8616 2.87022 20.2816 4.05022 20.8416C4.69022 21.1416 5.44022 21.1416 6.08022 20.8416L7.29322 20.2616H7.29022C7.97022 19.9316 8.79022 20.2216 9.12022 20.9016C9.14022 20.9416 9.15022 20.9816 9.17022 21.0316L9.62022 22.2916C10.0602 23.5216 11.4102 24.1716 12.6502 23.7316C13.3202 23.4916 13.8502 22.9616 14.0902 22.2816L14.5402 21.0116C14.7902 20.2916 15.5802 19.9216 16.2902 20.1716C16.3302 20.1816 16.3702 20.2016 16.4102 20.2216L17.6202 20.7916C18.8002 21.3516 20.2202 20.8416 20.7802 19.6616C21.0802 19.0116 21.0802 18.2616 20.7802 17.6216L20.2002 16.4016C19.8702 15.7116 20.1602 14.8916 20.8502 14.5616C20.8902 14.5316 20.9302 14.5216 20.9702 14.5016L22.2302 14.0416C23.4602 13.6016 24.1102 12.2416 23.6702 11.0016C23.4302 10.3216 22.9002 9.79155 22.2202 9.55155L22.4212 9.76255ZM12.0002 16.7826C10.0702 16.7526 8.33022 15.6026 7.55022 13.8326H7.54022C6.52022 11.3726 7.69022 8.56255 10.1402 7.54255C12.5902 6.55255 15.3702 7.71255 16.4202 10.1426C17.4302 12.5926 16.2602 15.4026 13.8202 16.4226C13.2302 16.6526 12.6092 16.7726 11.9792 16.7626L12.0002 16.7826Z" fill="#FF52B4"/>
</g>
<defs>
<clipPath id="clip0_1484_8060">
<rect width="24" height="24" fill="white"/>
</clipPath>
</defs>
</svg>
