<svg width="24" height="24" viewBox="0 0 24 24" fill="none" xmlns="http://www.w3.org/2000/svg">
<g id="Frame">
<g id="Group">
<path id="Vector" d="M12 15.75C14.07 15.75 15.75 14.07 15.75 12C15.75 9.92 14.07 8.25 12 8.25C9.92 8.25 8.25 9.92 8.25 12C8.25 14.07 9.92 15.75 12 15.75ZM12 14.25C10.75 14.25 9.75 13.24 9.75 12C9.75 10.75 10.75 9.75 12 9.75C13.24 9.75 14.25 10.75 14.25 12C14.25 13.24 13.24 14.25 12 14.25Z" fill="white"/>
<path id="Vector_2" d="M2.74988 12.8695V11.1095C2.74988 10.4795 3.25988 9.95952 3.89988 9.95952C6.27988 9.95952 7.37988 8.04952 6.17988 5.97952C5.85988 5.42952 6.04988 4.71952 6.59988 4.40952L8.32988 3.40952C8.75988 3.14952 9.31988 3.29952 9.58988 3.73952L9.68988 3.91952C10.8699 5.97952 13.0699 5.97952 14.2699 3.91952L14.3799 3.71952C14.6299 3.27952 15.1999 3.12952 15.6199 3.37952L17.3599 4.36952C17.8999 4.67952 18.0899 5.38952 17.7799 5.92952C16.5799 7.98952 17.6799 9.89952 20.0599 9.89952C20.6799 9.89952 21.2099 10.4095 21.2099 11.0395V12.7995C21.2099 13.4195 20.6899 13.9495 20.0599 13.9495C17.6699 13.9495 16.5699 15.8495 17.7699 17.9195C18.0799 18.4595 17.8899 19.1595 17.3399 19.4795L15.5999 20.4695C15.1599 20.7195 14.5999 20.5695 14.3299 20.1295L14.2199 19.9395C13.0299 17.8695 10.8299 17.8695 9.62988 19.9295L9.50988 20.1195C9.24988 20.5495 8.67988 20.6995 8.25988 20.4495L6.50988 19.4495C5.95988 19.1295 5.76988 18.4195 6.07988 17.8795C7.26988 15.8095 6.16988 13.8995 3.78988 13.8995C3.14988 13.8995 2.63988 13.3695 2.63988 12.7495L2.74988 12.8695ZM1.24988 12.8695C1.24988 14.3195 2.42988 15.5195 3.89988 15.5195C5.12988 15.5195 5.50988 16.1695 4.88988 17.2395C4.15988 18.4995 4.58988 20.1295 5.85988 20.8495L7.57988 21.8295C8.70988 22.4995 10.1899 22.0995 10.8699 20.9595L10.9799 20.7595C11.5999 19.6795 12.3499 19.6795 12.9699 20.7495L13.0799 20.9395C13.7599 22.0895 15.2399 22.4795 16.3899 21.7995L18.0999 20.8095C19.3599 20.0795 19.7999 18.4595 19.0699 17.1895C18.4399 16.1095 18.8199 15.4595 20.0499 15.4595C21.5099 15.4595 22.6999 14.2595 22.6999 12.8095V11.0495C22.6999 9.57952 21.4999 8.39952 20.0499 8.39952C18.8099 8.39952 18.4299 7.73952 19.0499 6.66952C19.7699 5.39952 19.3399 3.76952 18.0699 3.04952L16.3399 2.05952C15.1999 1.37952 13.7199 1.77952 13.0399 2.91952L12.9199 3.10952C12.2899 4.17952 11.5399 4.17952 10.9199 3.10952L10.7999 2.90952C10.1099 1.74952 8.62988 1.35952 7.47988 2.03952L5.75988 3.01952C4.48988 3.73952 4.04988 5.36952 4.77988 6.62952C5.39988 7.68952 5.01988 8.34952 3.77988 8.34952C2.30988 8.34952 1.12988 9.53952 1.12988 10.9895V12.7495L1.24988 12.8695Z" fill="white"/>
</g>
</g>
</svg>
