<svg width="24" height="25" viewBox="0 0 24 25" fill="none" xmlns="http://www.w3.org/2000/svg">
<g id="Frame">
<g id="Group">
<path id="Vector" d="M12 16.25C14.07 16.25 15.75 14.57 15.75 12.5C15.75 10.42 14.07 8.75 12 8.75C9.92 8.75 8.25 10.42 8.25 12.5C8.25 14.57 9.92 16.25 12 16.25ZM12 14.75C10.75 14.75 9.75 13.74 9.75 12.5C9.75 11.25 10.75 10.25 12 10.25C13.24 10.25 14.25 11.25 14.25 12.5C14.25 13.74 13.24 14.75 12 14.75Z" fill="white"/>
<path id="Vector_2" d="M2.74988 13.3695V11.6095C2.74988 10.9795 3.25988 10.4595 3.89988 10.4595C6.27988 10.4595 7.37988 8.54952 6.17988 6.47952C5.85988 5.92952 6.04988 5.21952 6.59988 4.90952L8.32988 3.90952C8.75988 3.64952 9.31988 3.79952 9.58988 4.23952L9.68988 4.41952C10.8699 6.47952 13.0699 6.47952 14.2699 4.41952L14.3799 4.21952C14.6299 3.77952 15.1999 3.62952 15.6199 3.87952L17.3599 4.86952C17.8999 5.17952 18.0899 5.88952 17.7799 6.42952C16.5799 8.48952 17.6799 10.3995 20.0599 10.3995C20.6799 10.3995 21.2099 10.9095 21.2099 11.5395V13.2995C21.2099 13.9195 20.6899 14.4495 20.0599 14.4495C17.6699 14.4495 16.5699 16.3495 17.7699 18.4195C18.0799 18.9595 17.8899 19.6595 17.3399 19.9795L15.5999 20.9695C15.1599 21.2195 14.5999 21.0695 14.3299 20.6295L14.2199 20.4395C13.0299 18.3695 10.8299 18.3695 9.62988 20.4295L9.50988 20.6195C9.24988 21.0495 8.67988 21.1995 8.25988 20.9495L6.50988 19.9495C5.95988 19.6295 5.76988 18.9195 6.07988 18.3795C7.26988 16.3095 6.16988 14.3995 3.78988 14.3995C3.14988 14.3995 2.63988 13.8695 2.63988 13.2495L2.74988 13.3695ZM1.24988 13.3695C1.24988 14.8195 2.42988 16.0195 3.89988 16.0195C5.12988 16.0195 5.50988 16.6695 4.88988 17.7395C4.15988 18.9995 4.58988 20.6295 5.85988 21.3495L7.57988 22.3295C8.70988 22.9995 10.1899 22.5995 10.8699 21.4595L10.9799 21.2595C11.5999 20.1795 12.3499 20.1795 12.9699 21.2495L13.0799 21.4395C13.7599 22.5895 15.2399 22.9795 16.3899 22.2995L18.0999 21.3095C19.3599 20.5795 19.7999 18.9595 19.0699 17.6895C18.4399 16.6095 18.8199 15.9595 20.0499 15.9595C21.5099 15.9595 22.6999 14.7595 22.6999 13.3095V11.5495C22.6999 10.0795 21.4999 8.89952 20.0499 8.89952C18.8099 8.89952 18.4299 8.23952 19.0499 7.16952C19.7699 5.89952 19.3399 4.26952 18.0699 3.54952L16.3399 2.55952C15.1999 1.87952 13.7199 2.27952 13.0399 3.41952L12.9199 3.60952C12.2899 4.67952 11.5399 4.67952 10.9199 3.60952L10.7999 3.40952C10.1099 2.24952 8.62988 1.85952 7.47988 2.53952L5.75988 3.51952C4.48988 4.23952 4.04988 5.86952 4.77988 7.12952C5.39988 8.18952 5.01988 8.84952 3.77988 8.84952C2.30988 8.84952 1.12988 10.0395 1.12988 11.4895V13.2495L1.24988 13.3695Z" fill="white"/>
</g>
</g>
</svg>
