<svg width="16" height="16" viewBox="0 0 16 16" fill="none" xmlns="http://www.w3.org/2000/svg">
<g id="Frame" opacity="0.7">
<g id="Group">
<path id="Vector" d="M11.6199 10.2408C11.4932 10.2408 11.3666 10.1941 11.2666 10.0941C11.0732 9.90077 11.0732 9.58077 11.2666 9.38743L12.6199 8.0341L11.2666 6.68077C11.0732 6.48744 11.0732 6.16743 11.2666 5.9741C11.4599 5.78077 11.7799 5.78077 11.9732 5.9741L13.6799 7.6741C13.8732 7.86743 13.8732 8.18743 13.6799 8.38077L11.9732 10.0874C11.8732 10.1874 11.7466 10.2341 11.6199 10.2341V10.2408Z" fill="white"/>
<path id="Vector_2" d="M13.2798 8.54004H6.49316C6.21983 8.54004 5.99316 8.31337 5.99316 8.04004C5.99316 7.76671 6.21983 7.54004 6.49316 7.54004H13.2732C13.5465 7.54004 13.7732 7.76671 13.7732 8.04004C13.7732 8.31337 13.5465 8.54004 13.2732 8.54004H13.2798Z" fill="white"/>
<path id="Vector_3" d="M7.83316 13.8337C4.39316 13.8337 1.99316 11.4337 1.99316 8.00033C1.99316 4.56699 4.39316 2.16699 7.8265 2.16699C8.09983 2.16699 8.3265 2.39366 8.3265 2.66699C8.3265 2.94033 8.09983 3.16699 7.8265 3.16699C4.97316 3.16699 2.9865 5.15366 2.9865 8.00033C2.9865 10.847 4.97316 12.8337 7.81983 12.8337C8.09316 12.8337 8.31983 13.0603 8.31983 13.3337C8.31983 13.607 8.09316 13.8337 7.81983 13.8337H7.83316Z" fill="white"/>
</g>
</g>
</svg>
