<svg width="45" height="44" viewBox="0 0 45 44" fill="none" xmlns="http://www.w3.org/2000/svg">
<rect x="0.333984" width="44" height="44" rx="22" fill="#0091BB"/>
<path d="M29.334 13L30.334 14M30.334 12L25.834 16.5M30.334 18V31C30.334 31.2652 30.2286 31.5196 30.0411 31.7071C29.8536 31.8946 29.5992 32 29.334 32H16.834C16.1709 32 15.5351 31.7366 15.0662 31.2678C14.5974 30.7989 14.334 30.163 14.334 29.5M14.334 29.5C14.334 28.837 14.5974 28.2011 15.0662 27.7322C15.5351 27.2634 16.1709 27 16.834 27H30.334M14.334 29.5V14.5C14.334 13.837 14.5974 13.2011 15.0662 12.7322C15.5351 12.2634 16.1709 12 16.834 12H24.334M26.334 18C26.334 19.1046 25.4386 20 24.334 20C23.2294 20 22.334 19.1046 22.334 18C22.334 16.8954 23.2294 16 24.334 16C25.4386 16 26.334 16.8954 26.334 18Z" stroke="white" stroke-width="2" stroke-linecap="round" stroke-linejoin="round"/>
</svg>
