<svg width="24" height="24" viewBox="0 0 24 24" fill="none" xmlns="http://www.w3.org/2000/svg">
<path d="M6.55036 9.66973C7.41036 10.0997 8.15036 10.7497 8.69036 11.5597C8.87036 11.8297 8.87036 12.1597 8.69036 12.4297C8.15036 13.2297 7.41036 13.8797 6.54036 14.3097C6.16036 14.4897 6.01036 14.9397 6.20036 15.3097C6.38036 15.6797 6.83036 15.8297 7.20036 15.6397C8.29036 15.0897 9.23036 14.2597 9.91036 13.2397C10.4204 12.4597 10.4204 11.4597 9.90036 10.6897C9.22036 9.65973 8.28036 8.82973 7.18036 8.27973C6.80036 8.08973 6.35036 8.23973 6.17036 8.60973C5.98036 8.97973 6.13036 9.42973 6.50036 9.60973L6.55036 9.66973Z" fill="#7BFFCC"/>
<path d="M13 15.75H17C17.41 15.75 17.75 15.41 17.75 15C17.75 14.58 17.41 14.25 17 14.25H13C12.58 14.25 12.25 14.58 12.25 15C12.25 15.41 12.58 15.75 13 15.75Z" fill="#7BFFCC"/>
<path d="M9 22.75H15C20.41 22.75 22.75 20.41 22.75 15V9C22.75 3.58 20.41 1.25 15 1.25H9C3.58 1.25 1.25 3.58 1.25 9V15C1.25 20.41 3.58 22.75 9 22.75ZM9 21.25C4.41 21.25 2.75 19.58 2.75 15V9C2.75 4.41 4.41 2.75 9 2.75H15C19.58 2.75 21.25 4.41 21.25 9V15C21.25 19.58 19.58 21.25 15 21.25H9Z" fill="#7BFFCC"/>
</svg>
