<svg width="24" height="24" viewBox="0 0 24 24" fill="none" xmlns="http://www.w3.org/2000/svg">
<g id="Frame" clip-path="url(#clip0_1357_5785)">
<g id="Group">
<path id="Vector" d="M11.999 3.75C11.999 4.85 9.69902 6 6.74902 6C3.78902 6 1.49902 4.85 1.49902 3.75C1.49902 2.64 3.78902 1.5 6.74902 1.5C9.69902 1.5 11.999 2.64 11.999 3.75ZM13.499 3.75C13.499 1.53 10.419 0 6.74902 0C3.06902 0 -0.000976562 1.53 -0.000976562 3.75C-0.000976562 5.96 3.06902 7.5 6.74902 7.5C10.419 7.5 13.499 5.96 13.499 3.75Z" fill="#4687FF"/>
<path id="Vector_2" d="M11.999 6.75C11.999 7.85 9.69902 9 6.74902 9C3.78902 9 1.49902 7.85 1.49902 6.75C1.49902 6.33 1.15902 6 0.749023 6C0.329023 6 -0.000976562 6.33 -0.000976562 6.75C-0.000976562 8.96 3.06902 10.5 6.74902 10.5C10.419 10.5 13.499 8.96 13.499 6.75C13.499 6.33 13.159 6 12.749 6C12.329 6 11.999 6.33 11.999 6.75Z" fill="#4687FF"/>
<path id="Vector_3" d="M13.499 9.75V3.75C13.499 3.33 13.159 3 12.749 3C12.329 3 11.999 3.33 11.999 3.75V9.75C11.999 10.16 12.329 10.5 12.749 10.5C13.159 10.5 13.499 10.16 13.499 9.75Z" fill="#4687FF"/>
<path id="Vector_4" d="M-3.90634e-05 3.74973V18.7497C-3.90634e-05 20.9597 3.06996 22.4997 6.74996 22.4997C7.54996 22.4997 8.34996 22.4197 9.13996 22.2597C9.53996 22.1697 9.79996 21.7797 9.71996 21.3697C9.62996 20.9597 9.23996 20.6997 8.82996 20.7797C8.12996 20.9097 7.42996 20.9797 6.71996 20.9797C3.75996 20.9697 1.45996 19.8297 1.45996 18.7197V3.71973C1.45996 3.29973 1.11996 2.96973 0.709961 2.96973C0.289961 2.96973 -0.0400391 3.29973 -0.0400391 3.71973L-3.90634e-05 3.74973Z" fill="#4687FF"/>
<path id="Vector_5" d="M-3.90634e-05 15.7497C-3.90634e-05 17.9597 3.06996 19.4997 6.74996 19.4997C7.54996 19.4997 8.34996 19.4197 9.13996 19.2597C9.53996 19.1697 9.79996 18.7797 9.71996 18.3697C9.62996 17.9597 9.23996 17.6997 8.82996 17.7797C8.12996 17.9097 7.42996 17.9797 6.71996 17.9797C3.75996 17.9697 1.45996 16.8297 1.45996 15.7197C1.45996 15.2997 1.11996 14.9697 0.709961 14.9697C0.289961 14.9697 -0.0400391 15.2997 -0.0400391 15.7197L-3.90634e-05 15.7497Z" fill="#4687FF"/>
<path id="Vector_6" d="M-3.90634e-05 12.7497C-3.90634e-05 14.9597 3.06996 16.4997 6.74996 16.4997C7.54996 16.4997 8.34996 16.4197 9.13996 16.2597C9.53996 16.1697 9.79996 15.7797 9.71996 15.3697C9.62996 14.9597 9.23996 14.6997 8.82996 14.7797C8.12996 14.9097 7.42996 14.9797 6.71996 14.9797C3.75996 14.9697 1.45996 13.8297 1.45996 12.7197C1.45996 12.2997 1.11996 11.9697 0.709961 11.9697C0.289961 11.9697 -0.0400391 12.2997 -0.0400391 12.7197L-3.90634e-05 12.7497Z" fill="#4687FF"/>
<path id="Vector_7" d="M-3.90634e-05 9.74973C-3.90634e-05 11.9597 3.06996 13.4997 6.74996 13.4997C7.54996 13.4997 8.34996 13.4197 9.13996 13.2597C9.53996 13.1697 9.79996 12.7797 9.71996 12.3697C9.62996 11.9597 9.23996 11.6997 8.82996 11.7797C8.12996 11.9097 7.42996 11.9797 6.71996 11.9797C3.75996 11.9697 1.45996 10.8297 1.45996 9.71973C1.45996 9.29973 1.11996 8.96973 0.709961 8.96973C0.289961 8.96973 -0.0400391 9.29973 -0.0400391 9.71973L-3.90634e-05 9.74973Z" fill="#4687FF"/>
<path id="Vector_8" d="M22.499 14.25C22.499 15.35 20.199 16.5 17.249 16.5C14.289 16.5 11.999 15.35 11.999 14.25C11.999 13.14 14.289 12 17.249 12C20.199 12 22.499 13.14 22.499 14.25ZM23.999 14.25C23.999 12.03 20.919 10.5 17.249 10.5C13.569 10.5 10.499 12.03 10.499 14.25C10.499 16.46 13.569 18 17.249 18C20.919 18 23.999 16.46 23.999 14.25Z" fill="#4687FF"/>
<path id="Vector_9" d="M10.499 14.25V20.25C10.499 22.46 13.569 24 17.249 24C20.919 24 23.999 22.46 23.999 20.25V14.25C23.999 13.83 23.659 13.5 23.249 13.5C22.829 13.5 22.499 13.83 22.499 14.25V20.25C22.499 21.35 20.199 22.5 17.249 22.5C14.289 22.5 11.999 21.35 11.999 20.25V14.25C11.999 13.83 11.659 13.5 11.249 13.5C10.829 13.5 10.499 13.83 10.499 14.25Z" fill="#4687FF"/>
<path id="Vector_10" d="M22.499 17.25C22.499 18.35 20.199 19.5 17.249 19.5C14.289 19.5 11.999 18.35 11.999 17.25C11.999 16.83 11.659 16.5 11.249 16.5C10.829 16.5 10.499 16.83 10.499 17.25C10.499 19.46 13.569 21 17.249 21C20.919 21 23.999 19.46 23.999 17.25C23.999 16.83 23.659 16.5 23.249 16.5C22.829 16.5 22.499 16.83 22.499 17.25Z" fill="#4687FF"/>
</g>
</g>
<defs>
<clipPath id="clip0_1357_5785">
<rect width="24" height="24" fill="white"/>
</clipPath>
</defs>
</svg>
