<svg width="40" height="41" viewBox="0 0 40 41" fill="none" xmlns="http://www.w3.org/2000/svg">
<g filter="url(#filter0_b_462_3686)">
<rect y="0.5" width="40" height="40" rx="19.8" fill="#15BC84" fill-opacity="0.2"/>
<path d="M28.986 12.9171C28.9391 12.1596 28.3363 11.5568 27.5797 11.5109C26.4003 11.4406 23.3863 11.5484 20.885 14.0487L20.4397 14.4996H14.9713C14.571 14.4968 14.1875 14.6553 13.9063 14.9384L10.6906 18.1559C10.1038 18.7409 10.1038 19.6906 10.6897 20.2765C10.9194 20.5062 11.2185 20.6553 11.54 20.7012L15.1466 21.2046L19.2913 25.3493L19.7947 28.9578C19.8735 29.5203 20.2652 29.99 20.8052 30.169C20.959 30.2196 21.1202 30.2459 21.2834 30.2468C21.6799 30.2468 22.0615 30.0893 22.3427 29.8081L25.5602 26.5925C25.8424 26.3103 26.0009 25.9268 25.999 25.5275V20.059L26.4462 19.6118C28.9474 17.1106 29.0552 14.0965 28.9849 12.9162L28.986 12.9171ZM14.9713 15.9996H18.9397L15.2338 19.7046L11.75 19.219L14.9713 15.9996ZM21.9472 15.1137L21.9471 15.1136C23.4049 13.6464 25.4243 12.8786 27.4887 13.007C27.6209 15.0724 26.8549 17.0945 25.3868 18.5533L19.9999 23.9383L16.5612 20.4995L21.9472 15.1137ZM24.5 25.5284L21.2816 28.7496L20.795 25.265L24.5 21.56V25.5284ZM17.5475 26.419C17.1256 27.3434 15.7147 29.4996 11.75 29.4996C11.3356 29.4996 11 29.1631 11 28.7496C11 24.785 13.1563 23.374 14.0806 22.9512C14.4575 22.7787 14.9019 22.9446 15.0744 23.3225C15.246 23.6993 15.08 24.1437 14.7031 24.3162C14.1003 24.5909 12.77 25.475 12.5356 27.964C15.0247 27.7296 15.9106 26.3993 16.1835 25.7965C16.355 25.4187 16.7994 25.2528 17.1772 25.4243C17.5541 25.5959 17.72 26.0403 17.5485 26.4181C17.5475 26.4181 17.5475 26.4181 17.5475 26.4181V26.419Z" fill="#15BC84"/>
</g>
<defs>
<filter id="filter0_b_462_3686" x="-24" y="-23.5" width="88" height="88" filterUnits="userSpaceOnUse" color-interpolation-filters="sRGB">
<feFlood flood-opacity="0" result="BackgroundImageFix"/>
<feGaussianBlur in="BackgroundImageFix" stdDeviation="12"/>
<feComposite in2="SourceAlpha" operator="in" result="effect1_backgroundBlur_462_3686"/>
<feBlend mode="normal" in="SourceGraphic" in2="effect1_backgroundBlur_462_3686" result="shape"/>
</filter>
</defs>
</svg>
