<svg width="16" height="16" viewBox="0 0 16 16" fill="none" xmlns="http://www.w3.org/2000/svg">
<g id="Frame" clip-path="url(#clip0_989_2602)">
<g id="Group">
<path id="Vector" d="M10.6668 15.1663H2.00016C1.36016 15.1663 0.833496 14.6397 0.833496 13.9997V5.33301C0.833496 2.38634 2.38683 0.833008 5.3335 0.833008H10.6668C13.6135 0.833008 15.1668 2.38634 15.1668 5.33301V10.6663C15.1668 13.613 13.6135 15.1663 10.6668 15.1663ZM5.3335 1.83301C2.94683 1.83301 1.8335 2.94634 1.8335 5.33301V13.9997C1.8335 14.093 1.90683 14.1663 2.00016 14.1663H10.6668C13.0535 14.1663 14.1668 13.053 14.1668 10.6663V5.33301C14.1668 2.94634 13.0535 1.83301 10.6668 1.83301H5.3335Z" fill="#00FFAE"/>
<path id="Vector_2" d="M10.3337 8.5H5.66699C5.39366 8.5 5.16699 8.27333 5.16699 8C5.16699 7.72667 5.39366 7.5 5.66699 7.5H10.3337C10.607 7.5 10.8337 7.72667 10.8337 8C10.8337 8.27333 10.607 8.5 10.3337 8.5Z" fill="#00FFAE"/>
<path id="Vector_3" d="M8 10.8327C7.72667 10.8327 7.5 10.606 7.5 10.3327V5.66602C7.5 5.39268 7.72667 5.16602 8 5.16602C8.27333 5.16602 8.5 5.39268 8.5 5.66602V10.3327C8.5 10.606 8.27333 10.8327 8 10.8327Z" fill="#00FFAE"/>
</g>
</g>
<defs>
<clipPath id="clip0_989_2602">
<rect width="16" height="16" fill="white"/>
</clipPath>
</defs>
</svg>
