<svg width="16" height="17" viewBox="0 0 16 17" fill="none" xmlns="http://www.w3.org/2000/svg">
<g id="Frame" opacity="0.5" clip-path="url(#clip0_1414_7829)">
<path id="Vector" d="M8.69948 3.50477L9.87281 5.85143C10.0995 6.3181 10.6595 6.73143 11.1795 6.8181L13.3061 7.17143C14.2661 7.33143 14.4195 7.82477 13.7328 8.50477L12.0728 10.1581C11.6661 10.5581 11.4661 11.2714 11.5861 11.8248L12.0595 13.8714C12.3328 15.0581 11.9328 15.3514 10.8795 14.7248L8.88615 13.5448C8.36615 13.2381 7.57948 13.2381 7.05948 13.5381L5.05948 14.7181C4.00615 15.3381 3.60615 15.0448 3.87948 13.8581L4.35281 11.8048C4.47281 11.2448 4.27281 10.5314 3.86615 10.1314L2.21281 8.4781C1.52615 7.79143 1.67948 7.29143 2.63948 7.1381L4.75948 6.78477C5.27281 6.69143 5.83281 6.2781 6.06615 5.81143L7.23281 3.46477C7.68615 2.5581 8.19948 2.5581 8.64615 3.4581L8.69948 3.50477ZM9.59281 3.0581C8.77281 1.41143 7.20615 1.41143 6.37948 3.05143L5.19948 5.3981C5.10615 5.5781 4.81948 5.79143 4.61948 5.82477L2.49281 6.17143C0.726146 6.46477 0.259479 7.9381 1.51948 9.20477L3.17281 10.8581C3.32615 11.0114 3.43281 11.3781 3.37948 11.5981L2.90615 13.6381C2.43281 15.6781 3.75948 16.6514 5.56615 15.5781L7.55281 14.3981C7.75948 14.2714 8.15948 14.2714 8.35948 14.3914L10.3528 15.5714C12.1595 16.6381 13.4861 15.6714 13.0128 13.6248L12.5328 11.5714C12.4795 11.3514 12.5861 10.9848 12.7395 10.8248L14.3928 9.17143C15.6595 7.91143 15.1795 6.43143 13.4195 6.13143L11.2861 5.77143C11.0795 5.73143 10.7928 5.5181 10.7061 5.3381L9.52615 2.98477L9.59281 3.0581Z" fill="white"/>
</g>
<defs>
<clipPath id="clip0_1414_7829">
<rect width="16" height="16" fill="white" transform="translate(0 0.944336)"/>
</clipPath>
</defs>
</svg>
