<svg width="16" height="16" viewBox="0 0 16 16" fill="none" xmlns="http://www.w3.org/2000/svg">
<g id="Frame" clip-path="url(#clip0_1015_4841)">
<g id="Group">
<path id="Vector" d="M6 5.5V10.5C6 10.7733 6.22 11 6.5 11C6.77333 11 7 10.7733 7 10.5V5.5C7 5.22 6.77333 5 6.5 5C6.22 5 6 5.22 6 5.5Z" fill="white"/>
<path id="Vector_2" d="M9.37332 5.5V10.5C9.37332 10.7733 9.59332 11 9.87332 11C10.1467 11 10.3733 10.7733 10.3733 10.5V5.5C10.3733 5.22 10.1467 5 9.87332 5C9.59332 5 9.37332 5.22 9.37332 5.5Z" fill="white"/>
<path id="Vector_3" d="M15 7.99902C15 11.859 11.86 14.999 8 14.999C4.13333 14.999 1 11.859 1 7.99902C1 4.13236 4.13333 0.999023 8 0.999023C11.86 0.999023 15 4.13236 15 7.99902ZM16 7.99902C16 3.57902 12.4133 -0.000976562 8 -0.000976562C3.58 -0.000976562 0 3.57902 0 7.99902C0 12.4124 3.58 15.999 8 15.999C12.4133 15.999 16 12.4124 16 7.99902Z" fill="white"/>
</g>
</g>
<defs>
<clipPath id="clip0_1015_4841">
<rect width="16" height="16" fill="white"/>
</clipPath>
</defs>
</svg>
