<svg width="233" height="47" viewBox="0 0 233 47" fill="none" xmlns="http://www.w3.org/2000/svg">
<g clip-path="url(#clip0_4571_15288)">
<path d="M61.1172 27.5349C61.3569 29.7655 63.3958 33.5893 69.3127 33.5893C74.4697 33.5893 76.9488 30.3231 76.9488 27.1366C76.9488 24.2687 74.9896 21.9186 71.1119 21.1219L68.3131 20.5245C67.2338 20.3253 66.5143 19.7279 66.5143 18.7719C66.5143 17.6566 67.6336 16.8201 69.033 16.8201C71.2716 16.8201 72.1111 18.2939 72.2712 19.4491L76.7087 18.4533C76.469 16.3422 74.5898 12.7971 68.993 12.7971C64.7552 12.7971 61.637 15.7049 61.637 19.21C61.637 21.9584 63.3557 24.2289 67.1538 25.0653L69.7525 25.6628C71.2716 25.9814 71.8714 26.6985 71.8714 27.5748C71.8714 28.6104 71.0318 29.5265 69.2727 29.5265C66.9541 29.5265 65.7944 28.0925 65.6747 26.5391L61.1172 27.5349Z" fill="white"/>
<path d="M93.9404 32.9921H99.0178C98.9378 32.315 98.8177 30.9607 98.8177 29.4471V13.3948H93.5002V24.7867C93.5002 27.0572 92.1412 28.6504 89.7826 28.6504C87.304 28.6504 86.1843 26.8978 86.1843 24.7071V13.3948H80.8672V25.7826C80.8672 30.0446 83.5856 33.51 88.3432 33.51C90.4217 33.51 92.7015 32.7133 93.7807 30.881C93.7807 31.6777 93.8604 32.5938 93.9404 32.9921Z" fill="white"/>
<path d="M109.809 40.5636V31.0837C110.768 32.3981 112.767 33.4736 115.486 33.4736C121.043 33.4736 124.761 29.092 124.761 23.1571C124.761 17.3417 121.443 12.9601 115.686 12.9601C112.728 12.9601 110.529 14.2745 109.649 15.7882V13.3983H104.492V40.5636H109.809ZM119.523 23.1969C119.523 26.7022 117.365 28.7336 114.646 28.7336C111.928 28.7336 109.729 26.6623 109.729 23.1969C109.729 19.7316 111.928 17.7001 114.646 17.7001C117.365 17.7001 119.523 19.7316 119.523 23.1969Z" fill="white"/>
<path d="M127.771 27.6544C127.771 30.7215 130.33 33.5496 134.528 33.5496C137.446 33.5496 139.325 32.1952 140.324 30.6418C140.324 31.3986 140.404 32.474 140.524 32.9919H145.401C145.281 32.3147 145.162 30.9206 145.162 29.885V20.2456C145.162 16.3023 142.843 12.7971 136.607 12.7971C131.329 12.7971 128.491 16.1828 128.171 19.2499L132.888 20.2456C133.049 18.5329 134.328 17.0591 136.646 17.0591C138.885 17.0591 139.965 18.2142 139.965 19.6084C139.965 20.2855 139.605 20.8432 138.486 21.0025L133.648 21.7195C130.37 22.1974 127.771 24.1492 127.771 27.6544ZM135.647 29.6062C133.928 29.6062 133.088 28.4909 133.088 27.3358C133.088 25.8221 134.167 25.0653 135.527 24.8662L139.965 24.189V25.0653C139.965 28.5307 137.886 29.6062 135.647 29.6062Z" fill="white"/>
<path d="M155.679 32.9927V30.6027C156.718 32.2757 158.797 33.4706 161.515 33.4706C167.113 33.4706 170.791 29.0493 170.791 23.1143C170.791 17.2988 167.472 12.8775 161.715 12.8775C158.797 12.8775 156.638 14.1522 155.759 15.5462V4.15433H150.521V32.9927H155.679ZM165.473 23.1541C165.473 26.739 163.315 28.7306 160.596 28.7306C157.917 28.7306 155.679 26.6992 155.679 23.1541C155.679 19.5692 157.917 17.6175 160.596 17.6175C163.315 17.6175 165.473 19.5692 165.473 23.1541Z" fill="white"/>
<path d="M173.803 27.6544C173.803 30.7215 176.361 33.5496 180.559 33.5496C183.477 33.5496 185.357 32.1952 186.355 30.6418C186.355 31.3986 186.436 32.474 186.555 32.9919H191.433C191.313 32.3147 191.193 30.9206 191.193 29.885V20.2456C191.193 16.3023 188.874 12.7971 182.638 12.7971C177.361 12.7971 174.522 16.1828 174.203 19.2499L178.919 20.2456C179.08 18.5329 180.359 17.0591 182.677 17.0591C184.917 17.0591 185.996 18.2142 185.996 19.6084C185.996 20.2855 185.636 20.8432 184.517 21.0025L179.68 21.7195C176.401 22.1974 173.803 24.1492 173.803 27.6544ZM181.679 29.6062C179.959 29.6062 179.119 28.4909 179.119 27.3358C179.119 25.8221 180.199 25.0653 181.558 24.8662L185.996 24.189V25.0653C185.996 28.5307 183.917 29.6062 181.679 29.6062Z" fill="white"/>
<path d="M194.873 27.5349C195.112 29.7655 197.152 33.5893 203.068 33.5893C208.226 33.5893 210.704 30.3231 210.704 27.1366C210.704 24.2687 208.745 21.9186 204.867 21.1219L202.069 20.5245C200.989 20.3253 200.27 19.7279 200.27 18.7719C200.27 17.6566 201.389 16.8201 202.788 16.8201C205.028 16.8201 205.867 18.2939 206.027 19.4491L210.465 18.4533C210.224 16.3422 208.346 12.7971 202.749 12.7971C198.511 12.7971 195.393 15.7049 195.393 19.21C195.393 21.9584 197.111 24.2289 200.91 25.0653L203.508 25.6628C205.028 25.9814 205.627 26.6985 205.627 27.5748C205.627 28.6104 204.788 29.5265 203.029 29.5265C200.71 29.5265 199.551 28.0925 199.431 26.5391L194.873 27.5349Z" fill="white"/>
<path d="M218.779 20.9626C218.899 19.1702 220.418 17.0989 223.177 17.0989C226.215 17.0989 227.495 19.0109 227.575 20.9626H218.779ZM228.095 26.0612C227.455 27.8137 226.095 29.0485 223.617 29.0485C220.978 29.0485 218.779 27.1764 218.66 24.5874H232.732C232.732 24.5076 232.811 23.711 232.811 22.9542C232.811 16.6608 229.174 12.7971 223.097 12.7971C218.06 12.7971 213.422 16.8599 213.422 23.1136C213.422 29.7256 218.179 33.5893 223.577 33.5893C228.414 33.5893 231.532 30.7613 232.532 27.3756L228.095 26.0612Z" fill="white"/>
<path d="M26.0261 44.8674C24.8818 46.3014 22.5616 45.5157 22.534 43.6847L22.1309 16.9032H40.2265C43.5041 16.9032 45.3321 20.6705 43.294 23.225L26.0261 44.8674Z" fill="url(#paint0_linear_4571_15288)"/>
<path d="M26.0261 44.8674C24.8818 46.3014 22.5616 45.5157 22.534 43.6847L22.1309 16.9032H40.2265C43.5041 16.9032 45.3321 20.6705 43.294 23.225L26.0261 44.8674Z" fill="url(#paint1_linear_4571_15288)" fill-opacity="0.2"/>
<path d="M18.6657 1.77474C19.81 0.34055 22.1302 1.12638 22.1578 2.95747L22.3345 29.7389H4.46529C1.18758 29.7389 -0.640456 25.9716 1.39772 23.4171L18.6657 1.77474Z" fill="#3ECF8E"/>
</g>
<defs>
<linearGradient id="paint0_linear_4571_15288" x1="22.1309" y1="22.8413" x2="38.1902" y2="29.6094" gradientUnits="userSpaceOnUse">
<stop stop-color="#249361"/>
<stop offset="1" stop-color="#3ECF8E"/>
</linearGradient>
<linearGradient id="paint1_linear_4571_15288" x1="15.0006" y1="13.1261" x2="22.2797" y2="26.8954" gradientUnits="userSpaceOnUse">
<stop/>
<stop offset="1" stop-opacity="0"/>
</linearGradient>
<clipPath id="clip0_4571_15288">
<rect width="231.936" height="45.1097" fill="white" transform="translate(0.53125 0.949036)"/>
</clipPath>
</defs>
</svg>
