<svg width="21" height="20" viewBox="0 0 21 20" fill="none" xmlns="http://www.w3.org/2000/svg">
<g id="Frame">
<g id="Group">
<path id="Vector" d="M2.37318 8.33327C2.37318 4.60827 2.48151 3.75827 3.16484 3.08327C3.83984 2.39994 4.68984 2.28327 8.40651 2.28327H11.7398C15.4565 2.28327 16.3065 2.3916 16.9815 3.07493C17.6565 3.74994 17.7732 4.59993 17.7732 8.3166V9.14993C17.7732 11.8833 17.6815 12.5083 17.2232 12.9749C16.7565 13.4333 16.1315 13.5166 13.3898 13.5166H6.72318C3.98151 13.5166 3.35651 13.4249 2.88984 12.9666C2.42318 12.4999 2.33984 11.8749 2.33984 9.13327V8.29993L2.37318 8.33327ZM1.12318 8.33327V9.1666C1.12318 12.3166 1.21484 13.0583 2.03151 13.8749C2.83984 14.6833 3.58151 14.7833 6.73984 14.7833H13.4065C16.5565 14.7833 17.2982 14.6833 18.1148 13.8666C18.9232 13.0499 19.0232 12.3083 19.0232 9.14993V8.3166C19.0232 4.17493 18.8898 3.20827 17.8565 2.18327C16.8232 1.14993 15.8565 1.0166 11.7232 1.0166H8.38984C4.24818 1.0166 3.28151 1.1416 2.25651 2.17493C1.22318 3.19993 1.08984 4.1666 1.08984 8.29993L1.12318 8.33327Z" fill="white"/>
<path id="Vector_2" d="M13.4147 17.708H6.74805C6.39805 17.708 6.12305 17.983 6.12305 18.333C6.12305 18.6747 6.39805 18.958 6.74805 18.958H13.4147C13.7564 18.958 14.0397 18.6747 14.0397 18.333C14.0397 17.983 13.7564 17.708 13.4147 17.708ZM9.45638 14.1663V18.333C9.45638 18.6747 9.73138 18.958 10.0814 18.958C10.423 18.958 10.7064 18.6747 10.7064 18.333V14.1663C10.7064 13.8163 10.423 13.5413 10.0814 13.5413C9.73138 13.5413 9.45638 13.8163 9.45638 14.1663ZM18.4147 10.208H1.74805C1.39805 10.208 1.12305 10.483 1.12305 10.833C1.12305 11.1747 1.39805 11.458 1.74805 11.458H18.4147C18.7564 11.458 19.0397 11.1747 19.0397 10.833C19.0397 10.483 18.7564 10.208 18.4147 10.208Z" fill="white"/>
</g>
</g>
</svg>
