<svg width="25" height="24" viewBox="0 0 25 24" fill="none" xmlns="http://www.w3.org/2000/svg">
<g id="Frame">
<g id="Group">
<path id="Vector" d="M12.5 15.75C14.57 15.75 16.25 14.07 16.25 12C16.25 9.92 14.57 8.25 12.5 8.25C10.42 8.25 8.75 9.92 8.75 12C8.75 14.07 10.42 15.75 12.5 15.75ZM12.5 14.25C11.25 14.25 10.25 13.24 10.25 12C10.25 10.75 11.25 9.75 12.5 9.75C13.74 9.75 14.75 10.75 14.75 12C14.75 13.24 13.74 14.25 12.5 14.25Z" fill="white"/>
<path id="Vector_2" d="M3.24988 12.8695V11.1095C3.24988 10.4795 3.75988 9.95952 4.39988 9.95952C6.77988 9.95952 7.87988 8.04952 6.67988 5.97952C6.35988 5.42952 6.54988 4.71952 7.09988 4.40952L8.82988 3.40952C9.25988 3.14952 9.81988 3.29952 10.0899 3.73952L10.1899 3.91952C11.3699 5.97952 13.5699 5.97952 14.7699 3.91952L14.8799 3.71952C15.1299 3.27952 15.6999 3.12952 16.1199 3.37952L17.8599 4.36952C18.3999 4.67952 18.5899 5.38952 18.2799 5.92952C17.0799 7.98952 18.1799 9.89952 20.5599 9.89952C21.1799 9.89952 21.7099 10.4095 21.7099 11.0395V12.7995C21.7099 13.4195 21.1899 13.9495 20.5599 13.9495C18.1699 13.9495 17.0699 15.8495 18.2699 17.9195C18.5799 18.4595 18.3899 19.1595 17.8399 19.4795L16.0999 20.4695C15.6599 20.7195 15.0999 20.5695 14.8299 20.1295L14.7199 19.9395C13.5299 17.8695 11.3299 17.8695 10.1299 19.9295L10.0099 20.1195C9.74988 20.5495 9.17988 20.6995 8.75988 20.4495L7.00988 19.4495C6.45988 19.1295 6.26988 18.4195 6.57988 17.8795C7.76988 15.8095 6.66988 13.8995 4.28988 13.8995C3.64988 13.8995 3.13988 13.3695 3.13988 12.7495L3.24988 12.8695ZM1.74988 12.8695C1.74988 14.3195 2.92988 15.5195 4.39988 15.5195C5.62988 15.5195 6.00988 16.1695 5.38988 17.2395C4.65988 18.4995 5.08988 20.1295 6.35988 20.8495L8.07988 21.8295C9.20988 22.4995 10.6899 22.0995 11.3699 20.9595L11.4799 20.7595C12.0999 19.6795 12.8499 19.6795 13.4699 20.7495L13.5799 20.9395C14.2599 22.0895 15.7399 22.4795 16.8899 21.7995L18.5999 20.8095C19.8599 20.0795 20.2999 18.4595 19.5699 17.1895C18.9399 16.1095 19.3199 15.4595 20.5499 15.4595C22.0099 15.4595 23.1999 14.2595 23.1999 12.8095V11.0495C23.1999 9.57952 21.9999 8.39952 20.5499 8.39952C19.3099 8.39952 18.9299 7.73952 19.5499 6.66952C20.2699 5.39952 19.8399 3.76952 18.5699 3.04952L16.8399 2.05952C15.6999 1.37952 14.2199 1.77952 13.5399 2.91952L13.4199 3.10952C12.7899 4.17952 12.0399 4.17952 11.4199 3.10952L11.2999 2.90952C10.6099 1.74952 9.12988 1.35952 7.97988 2.03952L6.25988 3.01952C4.98988 3.73952 4.54988 5.36952 5.27988 6.62952C5.89988 7.68952 5.51988 8.34952 4.27988 8.34952C2.80988 8.34952 1.62988 9.53952 1.62988 10.9895V12.7495L1.74988 12.8695Z" fill="white"/>
</g>
</g>
</svg>
