<svg width="24" height="24" viewBox="0 0 24 24" fill="none" xmlns="http://www.w3.org/2000/svg">
<g id="Frame">
<path id="Vector" d="M21.7502 11.0002V10.7931L21.7395 10.7824C21.7333 9.96789 21.6886 9.27997 21.569 8.7091C21.4382 8.08474 21.2102 7.56358 20.8109 7.16507C20.4117 6.76662 19.8902 6.53989 19.2666 6.40996C18.6484 6.28118 17.8935 6.24023 16.9902 6.24023H13.9902C13.5435 6.24023 13.2391 6.18445 13.0062 6.08598C12.7805 5.99051 12.5881 5.84058 12.3881 5.59469L12.3882 5.59459L12.3799 5.58484C12.3623 5.56433 12.3488 5.54669 12.3205 5.50856L12.3146 5.50053C12.2871 5.46342 12.2507 5.41433 12.1969 5.34581L10.7002 3.35023L10.6996 3.34945C10.4055 2.95886 10.1483 2.63462 9.78316 2.45019C9.41664 2.26506 9.00096 2.25023 8.50023 2.25023H7.00023C6.09454 2.25023 5.33835 2.29118 4.71974 2.41995C4.09563 2.54986 3.57423 2.77663 3.17543 3.17543C2.77663 3.57423 2.54986 4.09563 2.41995 4.71974C2.29118 5.33835 2.25023 6.09454 2.25023 7.00023V17.0002C2.25023 17.9035 2.29118 18.6584 2.41996 19.2766C2.54989 19.9002 2.77662 20.4217 3.17507 20.8209C3.57358 21.2202 4.09474 21.4482 4.7191 21.579C5.33791 21.7086 6.09426 21.7502 7.00023 21.7502H17.0002C17.9038 21.7502 18.6589 21.7086 19.2772 21.579C19.9011 21.4481 20.4223 21.2203 20.8213 20.8213C21.2203 20.4223 21.4481 19.9011 21.579 19.2772C21.7086 18.6589 21.7502 17.9038 21.7502 17.0002V11.0002ZM22.2402 10.3782V10.9902V16.9902C22.2402 19.178 21.8996 20.4313 21.1654 21.1654C20.4313 21.8996 19.178 22.2402 16.9902 22.2402H6.99023C4.79709 22.2402 3.54427 21.8995 2.81154 21.1657C2.07863 20.4317 1.74023 19.1787 1.74023 16.9902V6.99023C1.74023 4.79637 2.07876 3.54381 2.81129 2.81129C3.54381 2.07876 4.79637 1.74023 6.99023 1.74023H8.49023C9.23564 1.74023 9.67385 1.82374 10.0167 1.99994C10.361 2.1769 10.6679 2.47717 11.0902 3.04023L12.5847 5.03284C12.6691 5.1542 12.7143 5.20737 12.7532 5.25316C12.7608 5.26209 12.7681 5.27075 12.7755 5.27957L22.2402 10.3782Z" stroke="#4CE7FF"/>
</g>
</svg>
