<svg width="25" height="24" viewBox="0 0 25 24" fill="none" xmlns="http://www.w3.org/2000/svg">
<g id="Frame">
<g id="Group">
<path id="Vector" d="M7.05036 9.66973C7.91036 10.0997 8.65036 10.7497 9.19036 11.5597C9.37036 11.8297 9.37036 12.1597 9.19036 12.4297C8.65036 13.2297 7.91036 13.8797 7.04036 14.3097C6.66036 14.4897 6.51036 14.9397 6.70036 15.3097C6.88036 15.6797 7.33036 15.8297 7.70036 15.6397C8.79036 15.0897 9.73036 14.2597 10.4104 13.2397C10.9204 12.4597 10.9204 11.4597 10.4004 10.6897C9.72036 9.65973 8.78036 8.82973 7.68036 8.27973C7.30036 8.08973 6.85036 8.23973 6.67036 8.60973C6.48036 8.97973 6.63036 9.42973 7.00036 9.60973L7.05036 9.66973Z" fill="#7BFFCC"/>
<path id="Vector_2" d="M13.5 15.75H17.5C17.91 15.75 18.25 15.41 18.25 15C18.25 14.58 17.91 14.25 17.5 14.25H13.5C13.08 14.25 12.75 14.58 12.75 15C12.75 15.41 13.08 15.75 13.5 15.75Z" fill="#7BFFCC"/>
<path id="Vector_3" d="M9.5 22.75H15.5C20.91 22.75 23.25 20.41 23.25 15V9C23.25 3.58 20.91 1.25 15.5 1.25H9.5C4.08 1.25 1.75 3.58 1.75 9V15C1.75 20.41 4.08 22.75 9.5 22.75ZM9.5 21.25C4.91 21.25 3.25 19.58 3.25 15V9C3.25 4.41 4.91 2.75 9.5 2.75H15.5C20.08 2.75 21.75 4.41 21.75 9V15C21.75 19.58 20.08 21.25 15.5 21.25H9.5Z" fill="#7BFFCC"/>
</g>
</g>
</svg>
