<svg width="24" height="24" viewBox="0 0 24 24" fill="none" xmlns="http://www.w3.org/2000/svg">
<g id="Frame">
<g id="Group">
<path id="Vector" d="M17 20.75H7C5.26991 20.75 3.97362 20.254 3.1098 19.3902C2.24598 18.5264 1.75 17.2301 1.75 15.5V8.5C1.75 6.76991 2.24598 5.47362 3.1098 4.6098C3.97362 3.74598 5.26991 3.25 7 3.25H17C18.7301 3.25 20.0264 3.74598 20.8902 4.6098C21.754 5.47362 22.25 6.76991 22.25 8.5V15.5C22.25 17.2301 21.754 18.5264 20.8902 19.3902C20.0264 20.254 18.7301 20.75 17 20.75ZM7 3.75C5.49651 3.75 4.28256 4.11533 3.44895 4.94895C2.61533 5.78256 2.25 6.99651 2.25 8.5V15.5C2.25 17.0035 2.61533 18.2174 3.44895 19.0511C4.28256 19.8847 5.49651 20.25 7 20.25H17C18.5035 20.25 19.7174 19.8847 20.5511 19.0511C21.3847 18.2174 21.75 17.0035 21.75 15.5V8.5C21.75 6.99651 21.3847 5.78256 20.5511 4.94895C19.7174 4.11533 18.5035 3.75 17 3.75H7Z" stroke="#FF46B2"/>
<path id="Vector_2" d="M12 15.25C10.2061 15.25 8.75 13.7939 8.75 12C8.75 10.2061 10.2061 8.75 12 8.75C13.7939 8.75 15.25 10.2061 15.25 12C15.25 13.7939 13.7939 15.25 12 15.25ZM12 9.25C10.4839 9.25 9.25 10.4839 9.25 12C9.25 13.5161 10.4839 14.75 12 14.75C13.5161 14.75 14.75 13.5161 14.75 12C14.75 10.4839 13.5161 9.25 12 9.25Z" stroke="#FF46B2"/>
<path id="Vector_3" d="M3 9.25H2C1.86614 9.25 1.75 9.13386 1.75 9C1.75 8.86614 1.86614 8.75 2 8.75H3C4.29033 8.75 5.29829 8.59382 5.94605 7.94605C6.59382 7.29829 6.75 6.29033 6.75 5V4C6.75 3.86614 6.86614 3.75 7 3.75C7.13386 3.75 7.25 3.86614 7.25 4V5C7.25 6.6641 6.92286 7.68503 6.30395 8.30395C5.68503 8.92286 4.6641 9.25 3 9.25Z" stroke="#FF46B2"/>
<path id="Vector_4" d="M22 9.25H21C19.3359 9.25 18.315 8.92286 17.6961 8.30395C17.0771 7.68503 16.75 6.6641 16.75 5V4C16.75 3.86614 16.8661 3.75 17 3.75C17.1339 3.75 17.25 3.86614 17.25 4V5C17.25 6.29033 17.4062 7.29829 18.0539 7.94605C18.7017 8.59382 19.7097 8.75 21 8.75H22C22.1339 8.75 22.25 8.86614 22.25 9C22.25 9.13386 22.1339 9.25 22 9.25Z" stroke="#FF46B2"/>
<path id="Vector_5" d="M7 20.25C6.86614 20.25 6.75 20.1339 6.75 20V19C6.75 17.7097 6.59382 16.7017 5.94605 16.0539C5.29829 15.4062 4.29033 15.25 3 15.25H2C1.86614 15.25 1.75 15.1339 1.75 15C1.75 14.8661 1.86614 14.75 2 14.75H3C4.6641 14.75 5.68503 15.0771 6.30395 15.6961C6.92286 16.315 7.25 17.3359 7.25 19V20C7.25 20.1339 7.13386 20.25 7 20.25Z" stroke="#FF46B2"/>
<path id="Vector_6" d="M17 20.25C16.8661 20.25 16.75 20.1339 16.75 20V19C16.75 17.3359 17.0771 16.315 17.6961 15.6961C18.315 15.0771 19.3359 14.75 21 14.75H22C22.1339 14.75 22.25 14.8661 22.25 15C22.25 15.1339 22.1339 15.25 22 15.25H21C19.7097 15.25 18.7017 15.4062 18.0539 16.0539C17.4062 16.7017 17.25 17.7097 17.25 19V20C17.25 20.1339 17.1339 20.25 17 20.25Z" stroke="#FF46B2"/>
</g>
</g>
</svg>
