<svg width="24" height="24" viewBox="0 0 24 24" fill="none" xmlns="http://www.w3.org/2000/svg">
<g id="Frame" clip-path="url(#clip0_1666_8541)">
<g id="Group">
<path id="Vector" d="M15.7502 7.51117H19.5002C19.9102 7.51017 20.2502 7.84117 20.2502 8.26117V18.1312C20.2402 18.3212 20.1702 18.5112 20.0302 18.6512L16.4002 22.2712C16.2502 22.4112 16.0602 22.4812 15.8702 22.4812L4.49023 22.4712C4.07023 22.4712 3.74023 22.1312 3.74023 21.7212V8.22117C3.74023 7.80117 4.07023 7.47117 4.49023 7.47117H8.24023C8.65023 7.47117 8.99023 7.13117 8.99023 6.72117C8.99023 6.30117 8.65023 5.97117 8.24023 5.97117H4.49023C3.24023 5.97117 2.24023 6.97117 2.24023 8.22117V21.7212C2.24023 22.9612 3.24023 23.9712 4.49023 23.9712H15.8602C16.4502 23.9612 17.0202 23.7312 17.4502 23.3112L21.0702 19.6812C21.4902 19.2512 21.7202 18.6812 21.7202 18.0812V8.20117C21.7202 6.95117 20.7102 5.95117 19.4702 5.95117H15.7202C15.3002 5.95117 14.9702 6.28117 14.9702 6.70117C14.9702 7.11117 15.3002 7.45117 15.7202 7.45117L15.7502 7.51117Z" fill="#89EDFF"/>
<path id="Vector_2" d="M15.75 23.2607V18.7607C15.75 18.3407 16.08 18.0107 16.5 18.0107H21C21.41 18.0107 21.75 17.6707 21.75 17.2607C21.75 16.8407 21.41 16.5107 21 16.5107H16.5C15.25 16.5107 14.25 17.5107 14.25 18.7607V23.2607C14.25 23.6707 14.58 24.0107 15 24.0107C15.41 24.0107 15.75 23.6707 15.75 23.2607Z" fill="#89EDFF"/>
<path id="Vector_3" d="M13.5 3.00977C13.5 3.82977 12.82 4.50977 12 4.50977C11.17 4.50977 10.5 3.82977 10.5 3.00977C10.5 2.17977 11.17 1.50977 12 1.50977C12.82 1.50977 13.5 2.17977 13.5 3.00977ZM15 3.00977C15 1.34977 13.65 0.00976562 12 0.00976562C10.34 0.00976562 9 1.34977 9 3.00977C9 4.65977 10.34 6.00977 12 6.00977C13.65 6.00977 15 4.65977 15 3.00977Z" fill="#89EDFF"/>
<path id="Vector_4" d="M12.75 10.5098V5.25977C12.75 4.83977 12.41 4.50977 12 4.50977C11.58 4.50977 11.25 4.83977 11.25 5.25977V10.5098C11.25 10.9198 11.58 11.2598 12 11.2598C12.41 11.2598 12.75 10.9198 12.75 10.5098Z" fill="#89EDFF"/>
<path id="Vector_5" d="M6.75 15.0098H17.25C17.66 15.0098 18 14.6698 18 14.2598C18 13.8398 17.66 13.5098 17.25 13.5098H6.75C6.33 13.5098 6 13.8398 6 14.2598C6 14.6698 6.33 15.0098 6.75 15.0098Z" fill="#89EDFF"/>
<path id="Vector_6" d="M6.75 19.5098H11.25C11.66 19.5098 12 19.1698 12 18.7598C12 18.3398 11.66 18.0098 11.25 18.0098H6.75C6.33 18.0098 6 18.3398 6 18.7598C6 19.1698 6.33 19.5098 6.75 19.5098Z" fill="#89EDFF"/>
</g>
</g>
<defs>
<clipPath id="clip0_1666_8541">
<rect width="24" height="24" fill="white"/>
</clipPath>
</defs>
</svg>
