<svg width="25" height="24" viewBox="0 0 25 24" fill="none" xmlns="http://www.w3.org/2000/svg">
<g id="Frame" clip-path="url(#clip0_1772_18796)">
<g id="Group">
<path id="Vector" d="M12.499 3.75C12.499 4.85 10.199 6 7.24902 6C4.28902 6 1.99902 4.85 1.99902 3.75C1.99902 2.64 4.28902 1.5 7.24902 1.5C10.199 1.5 12.499 2.64 12.499 3.75ZM13.999 3.75C13.999 1.53 10.919 0 7.24902 0C3.56902 0 0.499023 1.53 0.499023 3.75C0.499023 5.96 3.56902 7.5 7.24902 7.5C10.919 7.5 13.999 5.96 13.999 3.75Z" fill="#4687FF"/>
<path id="Vector_2" d="M12.499 6.75C12.499 7.85 10.199 9 7.24902 9C4.28902 9 1.99902 7.85 1.99902 6.75C1.99902 6.33 1.65902 6 1.24902 6C0.829023 6 0.499023 6.33 0.499023 6.75C0.499023 8.96 3.56902 10.5 7.24902 10.5C10.919 10.5 13.999 8.96 13.999 6.75C13.999 6.33 13.659 6 13.249 6C12.829 6 12.499 6.33 12.499 6.75Z" fill="#4687FF"/>
<path id="Vector_3" d="M13.999 9.75V3.75C13.999 3.33 13.659 3 13.249 3C12.829 3 12.499 3.33 12.499 3.75V9.75C12.499 10.16 12.829 10.5 13.249 10.5C13.659 10.5 13.999 10.16 13.999 9.75Z" fill="#4687FF"/>
<path id="Vector_4" d="M0.499961 3.74973V18.7497C0.499961 20.9597 3.56996 22.4997 7.24996 22.4997C8.04996 22.4997 8.84996 22.4197 9.63996 22.2597C10.04 22.1697 10.3 21.7797 10.22 21.3697C10.13 20.9597 9.73996 20.6997 9.32996 20.7797C8.62996 20.9097 7.92996 20.9797 7.21996 20.9797C4.25996 20.9697 1.95996 19.8297 1.95996 18.7197V3.71973C1.95996 3.29973 1.61996 2.96973 1.20996 2.96973C0.789961 2.96973 0.459961 3.29973 0.459961 3.71973L0.499961 3.74973Z" fill="#4687FF"/>
<path id="Vector_5" d="M0.499961 15.7497C0.499961 17.9597 3.56996 19.4997 7.24996 19.4997C8.04996 19.4997 8.84996 19.4197 9.63996 19.2597C10.04 19.1697 10.3 18.7797 10.22 18.3697C10.13 17.9597 9.73996 17.6997 9.32996 17.7797C8.62996 17.9097 7.92996 17.9797 7.21996 17.9797C4.25996 17.9697 1.95996 16.8297 1.95996 15.7197C1.95996 15.2997 1.61996 14.9697 1.20996 14.9697C0.789961 14.9697 0.459961 15.2997 0.459961 15.7197L0.499961 15.7497Z" fill="#4687FF"/>
<path id="Vector_6" d="M0.499961 12.7497C0.499961 14.9597 3.56996 16.4997 7.24996 16.4997C8.04996 16.4997 8.84996 16.4197 9.63996 16.2597C10.04 16.1697 10.3 15.7797 10.22 15.3697C10.13 14.9597 9.73996 14.6997 9.32996 14.7797C8.62996 14.9097 7.92996 14.9797 7.21996 14.9797C4.25996 14.9697 1.95996 13.8297 1.95996 12.7197C1.95996 12.2997 1.61996 11.9697 1.20996 11.9697C0.789961 11.9697 0.459961 12.2997 0.459961 12.7197L0.499961 12.7497Z" fill="#4687FF"/>
<path id="Vector_7" d="M0.499961 9.74973C0.499961 11.9597 3.56996 13.4997 7.24996 13.4997C8.04996 13.4997 8.84996 13.4197 9.63996 13.2597C10.04 13.1697 10.3 12.7797 10.22 12.3697C10.13 11.9597 9.73996 11.6997 9.32996 11.7797C8.62996 11.9097 7.92996 11.9797 7.21996 11.9797C4.25996 11.9697 1.95996 10.8297 1.95996 9.71973C1.95996 9.29973 1.61996 8.96973 1.20996 8.96973C0.789961 8.96973 0.459961 9.29973 0.459961 9.71973L0.499961 9.74973Z" fill="#4687FF"/>
<path id="Vector_8" d="M22.999 14.25C22.999 15.35 20.699 16.5 17.749 16.5C14.789 16.5 12.499 15.35 12.499 14.25C12.499 13.14 14.789 12 17.749 12C20.699 12 22.999 13.14 22.999 14.25ZM24.499 14.25C24.499 12.03 21.419 10.5 17.749 10.5C14.069 10.5 10.999 12.03 10.999 14.25C10.999 16.46 14.069 18 17.749 18C21.419 18 24.499 16.46 24.499 14.25Z" fill="#4687FF"/>
<path id="Vector_9" d="M10.999 14.25V20.25C10.999 22.46 14.069 24 17.749 24C21.419 24 24.499 22.46 24.499 20.25V14.25C24.499 13.83 24.159 13.5 23.749 13.5C23.329 13.5 22.999 13.83 22.999 14.25V20.25C22.999 21.35 20.699 22.5 17.749 22.5C14.789 22.5 12.499 21.35 12.499 20.25V14.25C12.499 13.83 12.159 13.5 11.749 13.5C11.329 13.5 10.999 13.83 10.999 14.25Z" fill="#4687FF"/>
<path id="Vector_10" d="M22.999 17.25C22.999 18.35 20.699 19.5 17.749 19.5C14.789 19.5 12.499 18.35 12.499 17.25C12.499 16.83 12.159 16.5 11.749 16.5C11.329 16.5 10.999 16.83 10.999 17.25C10.999 19.46 14.069 21 17.749 21C21.419 21 24.499 19.46 24.499 17.25C24.499 16.83 24.159 16.5 23.749 16.5C23.329 16.5 22.999 16.83 22.999 17.25Z" fill="#4687FF"/>
</g>
</g>
<defs>
<clipPath id="clip0_1772_18796">
<rect width="24" height="24" fill="white" transform="translate(0.5)"/>
</clipPath>
</defs>
</svg>
