<svg width="25" height="24" viewBox="0 0 25 24" fill="none" xmlns="http://www.w3.org/2000/svg">
<g id="Frame">
<path id="Vector" d="M23.4231 11.4131L19.6731 3.91313C19.4518 3.46688 18.9972 3.18563 18.5003 3.18751H6.50028C6.00247 3.18563 5.54684 3.46688 5.32653 3.91313L1.57653 11.4131C1.25216 12.0609 1.51466 12.8494 2.16341 13.1738C2.34528 13.2647 2.54591 13.3116 2.74934 13.3116H11.9368V19.6866H9.49934C9.18809 19.6866 8.93684 19.9378 8.93684 20.2491C8.93684 20.5594 9.18809 20.8116 9.49934 20.8116H15.4993C15.8097 20.8116 16.0618 20.5594 16.0618 20.2491C16.0618 19.9378 15.8097 19.6866 15.4993 19.6866H13.0618V13.3116H22.2493C22.974 13.3106 23.5609 12.7228 23.5609 11.9981C23.56 11.7938 23.5131 11.5931 23.4222 11.4113L23.4231 11.4131ZM22.4087 12.0984C22.375 12.1547 22.314 12.1884 22.2493 12.1875H2.75028C2.64622 12.1866 2.56278 12.1031 2.56278 11.9991C2.56278 11.97 2.56934 11.9409 2.58153 11.9156L6.33153 4.41563C6.36247 4.35188 6.42809 4.31157 6.49934 4.31157H18.4993C18.5697 4.31157 18.6353 4.35188 18.6672 4.41563L22.4172 11.9156C22.4453 11.9738 22.4415 12.0422 22.4078 12.0975L22.4087 12.0984ZM18.3128 9.75001C18.3128 10.0603 18.0606 10.3125 17.7503 10.3125H7.25028C6.93903 10.3125 6.68778 10.0603 6.68778 9.75001C6.68778 9.43876 6.93903 9.18751 7.25028 9.18751H17.7503C18.0606 9.18751 18.3128 9.43876 18.3128 9.75001Z" fill="#FDBB2D"/>
</g>
</svg>
