<svg width="25" height="24" viewBox="0 0 25 24" fill="none" xmlns="http://www.w3.org/2000/svg">
<g id="Frame">
<g id="Group">
<path id="Vector" d="M18.0901 22.5498H6.89008C5.07008 22.5498 3.41008 21.1398 3.11008 19.3398L1.78008 11.3798C1.57008 10.1398 2.17008 8.53978 3.16008 7.74978L10.0801 2.18978C11.4101 1.10978 13.5201 1.11978 14.8701 2.19978L21.8001 7.73978C22.7801 8.52978 23.3801 10.1198 23.1801 11.3598L21.8501 19.3098C21.5501 21.0798 19.8601 22.5098 18.0701 22.5098L18.0901 22.5498ZM12.4801 2.91978C11.9501 2.91978 11.4201 3.07978 11.0301 3.38978L4.10008 8.92978C3.53008 9.38978 3.14008 10.4098 3.26008 11.1298L4.59008 19.0798C4.77008 20.1298 5.81008 21.0198 6.88008 21.0198H18.0701C19.1401 21.0198 20.1901 20.1198 20.3701 19.0598L21.7001 11.0998C21.8201 10.3798 21.4201 9.33978 20.8601 8.88978L13.9201 3.34978C13.5201 3.03978 12.9901 2.86978 12.4501 2.86978L12.4801 2.91978Z" fill="#FF537B"/>
<path id="Vector_2" d="M14.6198 15.1302C14.4298 15.1302 14.2498 15.0602 14.0998 14.9202C13.1298 13.9902 11.8698 13.9902 10.8898 14.9202C10.5898 15.2102 10.1098 15.2002 9.81979 14.9002C9.52979 14.6002 9.53979 14.1302 9.83979 13.8402C11.3798 12.3502 13.5498 12.3502 15.1098 13.8402C15.4098 14.1302 15.4198 14.6002 15.1298 14.9002C14.9998 15.0502 14.7998 15.1302 14.5998 15.1302H14.6198Z" fill="#FF537B"/>
<path id="Vector_3" d="M16.7396 12.9999C16.5496 12.9999 16.3596 12.9299 16.2196 12.7899C15.7496 12.3299 15.2196 11.9499 14.6596 11.6799C13.2596 11.0099 11.7296 11.0099 10.3296 11.6799C9.76963 11.9499 9.24964 12.3199 8.76964 12.7799C8.47964 13.0699 7.99964 13.0699 7.70964 12.7699C7.41964 12.4699 7.42963 11.9999 7.71963 11.7099C8.30963 11.1299 8.95964 10.6699 9.66964 10.3299C11.4796 9.44992 13.4796 9.44992 15.2796 10.3299C15.9896 10.6699 16.6496 11.1299 17.2396 11.7099C17.5396 11.9999 17.5396 12.4699 17.2496 12.7699C17.1096 12.9099 16.9196 12.9899 16.7196 12.9899L16.7396 12.9999Z" fill="#FF537B"/>
<path id="Vector_4" d="M12.5005 17.4996C12.2405 17.4996 11.9905 17.3896 11.7905 17.1996C11.4005 16.8096 11.4005 16.1796 11.7905 15.7896C12.1805 15.3996 12.8205 15.3996 13.2105 15.7896C13.6005 16.1796 13.6005 16.7996 13.2105 17.1896C13.0105 17.3796 12.7605 17.4796 12.5005 17.4796V17.4996Z" fill="#FF537B"/>
</g>
</g>
</svg>
