<svg width="24" height="24" viewBox="0 0 24 24" fill="none" xmlns="http://www.w3.org/2000/svg">
<g id="Frame" clip-path="url(#clip0_1484_8063)">
<g id="Group">
<path id="Vector" d="M14.7502 18.4867C14.7502 17.5167 15.5302 16.7367 16.5002 16.7367H21.7502C21.8802 16.7367 22.0002 16.6167 22.0002 16.4867V6.99973C22.0002 5.88973 21.1002 4.99973 20.0002 4.99973H19.2302C19.1502 4.98973 19.0802 5.02973 19.0302 5.07973L19.0292 5.07873C18.2692 5.96873 17.1492 6.48873 15.9792 6.48873C15.6692 6.48873 15.3692 6.44873 15.0792 6.38873C14.9892 6.36873 14.8992 6.38873 14.8392 6.44873L11.8892 9.39873H11.8882C11.0982 10.1787 9.83819 10.1787 9.0582 9.39873C8.2682 8.60873 8.2682 7.34873 9.0482 6.56873L10.1982 5.40873C10.2882 5.30873 10.2882 5.14973 10.1982 5.04973C10.1482 4.99973 10.0782 4.96973 10.0182 4.96973H3.9502C2.8402 4.96973 1.9502 5.85973 1.9502 6.96973V21.9397C1.9502 23.0397 2.8402 23.9397 3.9502 23.9397H14.4502C14.5802 23.9397 14.7002 23.8197 14.7002 23.6897L14.7502 18.4867ZM5.5002 17.9997C5.5002 17.5797 5.8302 17.2497 6.2502 17.2497H11.2502C11.6602 17.2497 12.0002 17.5797 12.0002 17.9997C12.0002 18.4097 11.6602 18.7497 11.2502 18.7497H6.2502C5.8302 18.7497 5.5002 18.4097 5.5002 17.9997ZM17.7502 12.2497C18.1602 12.2497 18.5002 12.5797 18.5002 12.9997C18.5002 13.4097 18.1602 13.7497 17.7502 13.7497H6.2502C5.8302 13.7497 5.5002 13.4097 5.5002 12.9997C5.5002 12.5797 5.8302 12.2497 6.2502 12.2497H17.7502Z" fill="#89EDFF"/>
<path id="Vector_2" d="M16.5006 18.2297C16.3606 18.2297 16.2506 18.3397 16.2506 18.4797V23.5597C16.2406 23.6897 16.3596 23.8097 16.4896 23.8097C16.4996 23.8097 16.5196 23.7997 16.5396 23.7997C17.8196 23.4997 18.9996 22.8588 19.9396 21.9288C20.8696 20.9888 21.5186 19.8087 21.8086 18.5287C21.8186 18.4487 21.7986 18.3688 21.7586 18.3188C21.7086 18.2488 21.6286 18.2188 21.5586 18.2188L16.5006 18.2297Z" fill="#89EDFF"/>
<path id="Vector_3" d="M9.79304 7.30499C9.39304 7.68499 9.38304 8.31499 9.76304 8.71499C10.143 9.10499 10.773 9.11499 11.173 8.73499C11.173 8.72499 11.183 8.71499 11.193 8.70499L14.953 4.93499H14.952C15.012 4.86499 15.112 4.83499 15.202 4.86499C16.512 5.28499 17.922 4.56499 18.342 3.25499C18.762 1.93499 18.042 0.52499 16.732 0.10499C15.412 -0.32501 14.002 0.394991 13.582 1.70499C13.412 2.20499 13.412 2.74499 13.582 3.24499C13.602 3.32499 13.582 3.42399 13.512 3.49799L9.79304 7.30499Z" fill="#89EDFF"/>
</g>
</g>
<defs>
<clipPath id="clip0_1484_8063">
<rect width="24" height="24" fill="white"/>
</clipPath>
</defs>
</svg>
