<svg width="20" height="20" viewBox="0 0 20 20" fill="none" xmlns="http://www.w3.org/2000/svg">
<g clip-path="url(#clip0_1534_4909)">
<path d="M10 0.3125C4.64961 0.3125 0.3125 4.64973 0.3125 10C0.3125 15.35 4.64973 19.6875 10 19.6875C15.35 19.6875 19.6875 15.35 19.6875 10C19.6875 4.64961 15.35 0.3125 10 0.3125ZM14.4903 6.90078C14.3442 8.43262 13.7134 12.1496 13.3927 13.8656C13.2567 14.5914 12.9891 14.8348 12.7305 14.8586C12.168 14.9102 11.7407 14.4867 11.1958 14.1296C10.343 13.5707 9.86141 13.2226 9.03367 12.6773C8.07703 12.0468 8.69695 11.7007 9.24227 11.1343C9.38484 10.9859 11.8636 8.7316 11.9114 8.52691C11.9173 8.50113 11.9231 8.40582 11.8661 8.35543C11.8091 8.30504 11.7259 8.32223 11.6653 8.3359C11.5796 8.35517 10.2176 9.25546 7.57906 11.0368C7.19234 11.3021 6.84208 11.4314 6.52828 11.4246C6.18219 11.4168 5.51695 11.2289 5.02203 11.068C4.415 10.8707 3.93316 10.7664 3.97516 10.4313C3.99703 10.2568 4.23727 10.0784 4.69586 9.89613C7.51997 8.66566 9.40305 7.85447 10.3451 7.46254C13.0353 6.3434 13.5943 6.14887 13.9587 6.14262C14.0388 6.14106 14.2177 6.16098 14.3341 6.25512C14.4111 6.32191 14.4603 6.41566 14.472 6.51723C14.4916 6.6434 14.497 6.77113 14.488 6.89848L14.4903 6.90078Z" fill="white"/>
</g>
<defs>
<clipPath id="clip0_1534_4909">
<rect width="19.375" height="20" fill="white" transform="translate(0.3125)"/>
</clipPath>
</defs>
</svg>
