<svg width="20" height="32" viewBox="0 0 20 32" fill="none" xmlns="http://www.w3.org/2000/svg">
<g clip-path="url(#clip0_682_859)">
<path d="M10 6.3125C4.64961 6.3125 0.3125 10.6497 0.3125 16C0.3125 21.35 4.64973 25.6875 10 25.6875C15.35 25.6875 19.6875 21.35 19.6875 16C19.6875 10.6496 15.35 6.3125 10 6.3125ZM14.4903 12.9008C14.3442 14.4326 13.7134 18.1496 13.3927 19.8656C13.2567 20.5914 12.9891 20.8348 12.7305 20.8586C12.168 20.9102 11.7407 20.4867 11.1958 20.1296C10.343 19.5707 9.86141 19.2226 9.03367 18.6773C8.07703 18.0468 8.69695 17.7007 9.24227 17.1343C9.38484 16.9859 11.8636 14.7316 11.9114 14.5269C11.9173 14.5011 11.9231 14.4058 11.8661 14.3554C11.8091 14.305 11.7259 14.3222 11.6653 14.3359C11.5796 14.3552 10.2176 15.2555 7.57906 17.0368C7.19234 17.3021 6.84208 17.4314 6.52828 17.4246C6.18219 17.4168 5.51695 17.2289 5.02203 17.068C4.415 16.8707 3.93316 16.7664 3.97516 16.4313C3.99703 16.2568 4.23727 16.0784 4.69586 15.8961C7.51997 14.6657 9.40305 13.8545 10.3451 13.4625C13.0353 12.3434 13.5943 12.1489 13.9587 12.1426C14.0388 12.1411 14.2177 12.161 14.3341 12.2551C14.4111 12.3219 14.4603 12.4157 14.472 12.5172C14.4916 12.6434 14.497 12.7711 14.488 12.8985L14.4903 12.9008Z" fill="white"/>
</g>
<defs>
<clipPath id="clip0_682_859">
<rect width="19.375" height="20" fill="white" transform="translate(0.3125 6)"/>
</clipPath>
</defs>
</svg>
