<svg width="45" height="44" viewBox="0 0 45 44" fill="none" xmlns="http://www.w3.org/2000/svg">
<rect x="0.666504" width="44" height="44" rx="22" fill="#B68300"/>
<path d="M21.5065 23.5402H20.0065C18.8565 23.5402 17.9265 22.5802 17.9265 21.3902C17.9265 20.9802 18.2665 20.6402 18.6765 20.6402C19.0865 20.6402 19.4265 20.9802 19.4265 21.3902C19.4265 21.7502 19.6865 22.0402 20.0065 22.0402H21.5065C21.7365 22.0402 21.9165 21.8302 21.9165 21.5702C21.9165 21.2202 21.8565 21.2002 21.6265 21.1202L19.2165 20.2802C18.3465 19.9802 17.9165 19.3702 17.9165 18.4202C17.9165 17.3402 18.7765 16.4502 19.8265 16.4502H21.3265C22.4765 16.4502 23.4065 17.4102 23.4065 18.6002C23.4065 19.0102 23.0665 19.3502 22.6565 19.3502C22.2465 19.3502 21.9065 19.0102 21.9065 18.6002C21.9065 18.2402 21.6465 17.9502 21.3265 17.9502H19.8265C19.5965 17.9502 19.4165 18.1602 19.4165 18.4202C19.4165 18.7702 19.4765 18.7902 19.7065 18.8702L22.1165 19.7102C22.9865 20.0202 23.4065 20.6302 23.4065 21.5702C23.4165 22.6602 22.5565 23.5402 21.5065 23.5402Z" fill="white"/>
<path d="M20.6665 24.3406C20.2565 24.3406 19.9165 24.0006 19.9165 23.5906V22.8506C19.9165 22.4406 20.2565 22.1006 20.6665 22.1006C21.0765 22.1006 21.4165 22.4406 21.4165 22.8506V23.5906C21.4165 24.0106 21.0765 24.3406 20.6665 24.3406Z" fill="white"/>
<path d="M20.6665 17.9402C20.2565 17.9402 19.9165 17.6002 19.9165 17.1902V16.4102C19.9165 16.0002 20.2565 15.6602 20.6665 15.6602C21.0765 15.6602 21.4165 16.0002 21.4165 16.4102V17.1902C21.4165 17.6002 21.0765 17.9402 20.6665 17.9402Z" fill="white"/>
<path d="M20.6565 28.7202C15.8365 28.7202 11.9165 24.8002 11.9165 19.9802C11.9165 15.1602 15.8365 11.2402 20.6565 11.2402C25.4765 11.2402 29.3965 15.1602 29.3965 19.9802C29.3965 24.7902 25.4665 28.7102 20.6565 28.7102V28.7202ZM20.6565 12.7502C16.6665 12.7502 13.4165 16.0002 13.4165 19.9902C13.4165 23.9702 16.6665 27.2102 20.6565 27.2102C24.6465 27.2102 27.8965 23.9602 27.8965 19.9702C27.8965 15.9802 24.6465 12.7402 20.6565 12.7402V12.7502Z" fill="white"/>
<path d="M27.6855 32.7203C25.8355 32.7203 24.0956 31.8203 23.0256 30.3003C22.7856 29.9603 22.8656 29.4903 23.2056 29.2503C23.5456 29.0103 24.0156 29.0903 24.2556 29.4303C25.0456 30.5503 26.3255 31.2103 27.6855 31.2103C30.0055 31.2103 31.8856 29.3303 31.8856 27.0103C31.8856 25.6603 31.2256 24.3803 30.1256 23.5903C29.7856 23.3503 29.7156 22.8803 29.9556 22.5403C30.1955 22.2003 30.6656 22.1303 31.0056 22.3703C32.4956 23.4403 33.3856 25.1703 33.3856 27.0103C33.3856 30.1703 30.8355 32.7203 27.6855 32.7203Z" fill="white"/>
</svg>
