<svg width="16" height="16" viewBox="0 0 16 16" fill="none" xmlns="http://www.w3.org/2000/svg">
<path d="M5.38965 7.20801C5.82699 7.30784 6.31867 7.24775 6.71973 6.98047L6.72266 6.97949C6.78943 6.93443 6.87267 6.86119 6.94629 6.79492C7.02868 6.72076 7.12857 6.62746 7.23828 6.52246C7.45831 6.31189 7.72656 6.04741 7.99023 5.78125C8.25389 5.51511 8.51593 5.24493 8.72363 5.02344C8.82718 4.91302 8.91928 4.81248 8.99219 4.72949C9.02429 4.69295 9.05878 4.65284 9.09082 4.61328L9.1748 4.49902L9.17578 4.49707C9.30641 4.29036 9.38713 4.07045 9.43066 3.84766L9.46191 3.62402L9.46289 3.62305C9.51135 3.07085 9.52322 1.8846 9.45996 1.32422V1.32324C9.45293 1.2628 9.43759 1.15425 9.40234 1.04395C9.37819 0.968435 9.31671 0.79627 9.16016 0.669922L9.08691 0.619141C8.99781 0.565845 8.90672 0.550651 8.89746 0.548828C8.86443 0.542328 8.83102 0.538364 8.80273 0.535156C8.74473 0.528589 8.67485 0.523552 8.60254 0.519531C8.45603 0.51139 8.27159 0.50582 8.08887 0.50293C7.90546 0.500031 7.71811 0.498851 7.56543 0.500977C7.43636 0.502775 7.27648 0.506752 7.1875 0.522461L7.18066 0.523438C7.08677 0.54135 6.95625 0.579214 6.83594 0.681641C6.72341 0.777453 6.66685 0.892107 6.63867 0.952148L6.62402 0.982422L6.61426 1.01465C6.57465 1.14122 6.55954 1.30734 6.55078 1.44727C6.54097 1.60412 6.53599 1.79359 6.53418 1.99805C6.53057 2.40712 6.53888 2.90498 6.5459 3.38184C6.5521 3.80319 6.55485 4.20705 6.55176 4.5332C6.41557 4.39111 6.26295 4.22554 6.10156 4.0498C5.89183 3.82141 5.66591 3.57739 5.46289 3.38672C5.36155 3.29156 5.25488 3.19846 5.15039 3.125C5.06215 3.06297 4.9098 2.9668 4.72754 2.94434L4.72656 2.94336C4.59193 2.92708 4.48469 2.96764 4.44922 2.98145C4.39924 3.0009 4.35554 3.02483 4.32324 3.04395C4.25751 3.08286 4.1891 3.13167 4.12695 3.17969C3.99999 3.27779 3.85352 3.40647 3.71582 3.5332C3.57709 3.66088 3.43976 3.79448 3.33105 3.90723C3.27705 3.96325 3.22575 4.0174 3.18457 4.06543C3.15955 4.09461 3.09124 4.17415 3.0498 4.2627L3.04883 4.26562C2.93657 4.50927 2.89818 4.86032 3.14648 5.16113L3.19238 5.2168L3.25195 5.25684C3.30824 5.29502 3.42507 5.40343 3.60449 5.5918C3.77495 5.77076 3.96264 5.97901 4.16309 6.19629C4.35772 6.40727 4.56231 6.62507 4.74707 6.79688C4.83925 6.88257 4.93547 6.96488 5.0293 7.03223C5.11221 7.09173 5.23931 7.17364 5.38867 7.20801H5.38965Z" stroke="white"/>
<path d="M8.45605 15.4961C8.57867 15.4934 8.73413 15.4891 8.81934 15.4736L8.81836 15.4727C8.91243 15.4557 9.04585 15.4203 9.16797 15.3164C9.22534 15.2676 9.2687 15.2136 9.30078 15.1641L9.36816 15.0371L9.37988 15.0098L9.38867 14.9814C9.42829 14.8548 9.44433 14.6888 9.45312 14.5488C9.46296 14.3921 9.46689 14.2033 9.46875 13.999C9.47247 13.59 9.46495 13.0921 9.45801 12.6152C9.45189 12.1944 9.44716 11.7907 9.4502 11.4648C9.59277 11.6116 9.75408 11.7826 9.9209 11.9629C10.1351 12.1944 10.3622 12.4392 10.5576 12.6279C10.6547 12.7216 10.7549 12.8125 10.8496 12.8838C10.897 12.9194 10.9529 12.9576 11.0127 12.9893C11.0659 13.0174 11.1582 13.0604 11.2734 13.0713L11.3672 13.0723C11.4541 13.0654 11.52 13.0392 11.5469 13.0283C11.5967 13.0081 11.6406 12.9839 11.6738 12.9639C11.7415 12.9229 11.8118 12.8706 11.877 12.8193C12.0099 12.7148 12.1638 12.5785 12.3076 12.4434C12.4522 12.3074 12.5954 12.1651 12.707 12.0449C12.7623 11.9854 12.8141 11.9259 12.8564 11.873C12.8773 11.847 12.9008 11.817 12.9219 11.7852C12.9349 11.7654 12.9759 11.7034 13.001 11.6211C13.0694 11.3963 13.071 11.0927 12.8584 10.835L12.8164 10.7842L12.7627 10.7461C12.6797 10.687 12.5506 10.5635 12.3721 10.374C12.1765 10.1664 12.0353 10.0057 11.8096 9.76465C11.6129 9.55452 11.4002 9.33709 11.1934 9.16406C11.0296 9.02714 10.8094 8.8648 10.5645 8.7959L10.458 8.77246C10.0965 8.71575 9.79722 8.73158 9.51953 8.89355C9.39976 8.96344 9.30391 9.04967 9.23242 9.11621C9.15292 9.19021 9.09436 9.24851 9.00977 9.32031H9.00879C8.37396 9.86133 7.50945 10.6875 6.95801 11.3262C6.74372 11.5745 6.65445 11.8928 6.60938 12.1426C6.56272 12.4012 6.54982 12.6695 6.53906 12.8545V12.8555C6.52895 13.0363 6.51827 13.4953 6.52539 13.9346C6.52896 14.1545 6.5376 14.3788 6.55371 14.5654C6.5617 14.658 6.57182 14.7502 6.58691 14.832C6.59819 14.8931 6.62372 15.0198 6.69141 15.1309L6.70312 15.1504C6.71065 15.1636 6.73073 15.1997 6.76074 15.2383C6.79404 15.281 6.83729 15.3251 6.89355 15.3643C6.94784 15.402 7.00304 15.4269 7.05371 15.4443C7.11266 15.4646 7.16892 15.4726 7.18457 15.4746C7.21185 15.4781 7.24084 15.4804 7.26758 15.4824C7.32175 15.4864 7.38763 15.4888 7.45801 15.4912C7.59987 15.496 7.7776 15.4993 7.9541 15.5C8.13067 15.5007 8.30997 15.4993 8.45605 15.4961Z" stroke="white"/>
<path d="M4.58008 13.0615C4.63518 13.0751 4.74269 13.094 4.86816 13.0615L4.86914 13.0625L4.87012 13.0615H4.87305L4.87207 13.0605C4.94566 13.041 5.00006 13.0093 5.01562 13C5.04018 12.9853 5.06167 12.9703 5.07715 12.959C5.10869 12.9358 5.14115 12.9092 5.1709 12.8838C5.23178 12.8318 5.30638 12.7632 5.38672 12.6875C5.54855 12.535 5.7515 12.3351 5.95312 12.1328C6.34185 11.7428 6.77282 11.2956 6.87305 11.168C7.09154 10.8896 7.28257 10.575 7.2959 10.2012C7.30604 9.91463 7.21022 9.65848 7.06641 9.42285L6.9082 9.19336C6.70941 8.93259 6.25664 8.45092 5.81543 8.00684C5.37402 7.56256 4.89592 7.10724 4.63672 6.90527L4.63574 6.90625C4.58475 6.86614 4.48893 6.79835 4.41016 6.74707C4.36704 6.71901 4.31914 6.68865 4.27637 6.66406C4.25585 6.65227 4.22864 6.63744 4.2002 6.62402C4.18636 6.6175 4.16426 6.60791 4.1377 6.59863C4.12366 6.59374 4.05411 6.56838 3.96387 6.56836H1.18457C1.04995 6.56836 0.952077 6.62494 0.948242 6.62695C0.92043 6.64158 0.899153 6.65574 0.888672 6.66309C0.866313 6.67877 0.847947 6.69471 0.836914 6.7041C0.812817 6.72463 0.788466 6.74781 0.767578 6.76855C0.7465 6.78949 0.721911 6.81451 0.699219 6.84082C0.690726 6.85067 0.63483 6.91268 0.597656 6.99414L0.598633 6.99512C0.552523 7.09623 0.536895 7.21126 0.530273 7.2627C0.520445 7.33905 0.512573 7.42797 0.507813 7.52051C0.498242 7.70656 0.496544 7.9323 0.504883 8.15137C0.513063 8.36614 0.531915 8.5955 0.568359 8.78125C0.585691 8.86955 0.61319 8.98122 0.662109 9.08203C0.686441 9.13212 0.729571 9.20693 0.801758 9.27539C0.879808 9.34933 1.0101 9.43066 1.18457 9.43066H4.54492L3.17676 10.8008L3.16016 10.8174L3.14551 10.8359C2.89729 11.1366 2.93471 11.4878 3.04688 11.7314L3.04785 11.7324C3.08858 11.8203 3.1544 11.8996 3.18457 11.9355C3.22816 11.9875 3.28184 12.0459 3.33887 12.1055C3.45349 12.2252 3.5985 12.3652 3.74609 12.498C3.89199 12.6294 4.05113 12.7636 4.19336 12.8643C4.26276 12.9133 4.34218 12.965 4.42285 13.0039C4.46311 13.0233 4.51756 13.0461 4.58008 13.0615Z" stroke="white"/>
<path d="M14.8193 9.42969C15.1581 9.42969 15.307 9.15202 15.3379 9.09082C15.3886 8.9903 15.4162 8.8798 15.4336 8.79395C15.4701 8.61311 15.4883 8.39104 15.4961 8.18457C15.504 7.97356 15.5017 7.75596 15.4922 7.57617C15.4874 7.48685 15.4812 7.40114 15.4717 7.32715C15.4649 7.27401 15.4495 7.16389 15.4072 7.06738L15.4062 7.06445C15.3482 6.93409 15.2554 6.84586 15.2119 6.80664C15.1649 6.76425 15.1067 6.72019 15.0938 6.70996L14.959 6.60352L14.7881 6.60254L11.3994 6.5752C11.5394 6.44164 11.7042 6.28975 11.8809 6.12891C12.1002 5.92922 12.3349 5.71469 12.5273 5.51855C12.6238 5.42028 12.7164 5.32013 12.7939 5.22363C12.8665 5.13336 12.9483 5.01859 13 4.89355L13.0234 4.83594L13.0332 4.77539C13.0498 4.66244 13.0487 4.5445 13.0127 4.4209C12.9817 4.31478 12.9292 4.22745 12.9062 4.1875L12.9033 4.18262C12.8668 4.12084 12.8114 4.06104 12.7969 4.04492C12.7666 4.01121 12.7293 3.97036 12.6885 3.92773C12.6062 3.84191 12.5012 3.73683 12.3965 3.63281C12.2916 3.52863 12.1843 3.4231 12.0957 3.33887C12.0235 3.27024 11.9281 3.18276 11.8672 3.13867L11.8682 3.1377C11.8044 3.09158 11.7247 3.03652 11.6396 2.99609C11.5448 2.95107 11.4133 2.90945 11.2559 2.92969C11.1102 2.94845 11.0012 3.01332 10.9404 3.05371C10.8832 3.09174 10.8171 3.14433 10.7725 3.17871V3.17969C10.5827 3.3259 10.205 3.68614 9.86523 4.02734C9.52761 4.36637 9.16502 4.74936 9.02246 4.94434L9.02148 4.94336C8.81736 5.22218 8.70044 5.53743 8.71191 5.87598C8.7233 6.21103 8.85929 6.51336 9.05957 6.77441C9.261 7.03685 9.72213 7.5249 10.1709 7.97559C10.6205 8.42706 11.1057 8.88957 11.3652 9.09277L11.3662 9.09375C11.5075 9.20342 11.7032 9.30949 11.7734 9.35352L11.8945 9.42969H14.8193Z" stroke="white"/>
</svg>
