<svg width="45" height="44" viewBox="0 0 45 44" fill="none" xmlns="http://www.w3.org/2000/svg">
<rect x="0.333984" width="44" height="44" rx="22" fill="#00BBA2"/>
<path d="M28.4241 20.3701C29.3694 20.7225 30.2106 21.3076 30.8698 22.0713C31.5291 22.835 31.9851 23.7526 32.1958 24.7392C32.4065 25.7258 32.365 26.7496 32.0751 27.716C31.7853 28.6823 31.2564 29.5599 30.5375 30.2677C29.8186 30.9755 28.9328 31.4906 27.9621 31.7653C26.9913 32.0401 25.967 32.0656 24.9838 31.8396C24.0005 31.6135 23.0902 31.1432 22.3369 30.4721C21.5836 29.801 21.0117 28.9508 20.6741 28.0001M17.334 16H18.334V20M27.0441 23.8799L27.7441 24.5899L24.9241 27.4099M24.334 18C24.334 21.3137 21.6477 24 18.334 24C15.0203 24 12.334 21.3137 12.334 18C12.334 14.6863 15.0203 12 18.334 12C21.6477 12 24.334 14.6863 24.334 18Z" stroke="white" stroke-width="2" stroke-linecap="round" stroke-linejoin="round"/>
</svg>
