<svg width="16" height="17" viewBox="0 0 16 17" fill="none" xmlns="http://www.w3.org/2000/svg">
<g id="Frame">
<path id="Vector" d="M2.99935 11.5C1.99935 12.34 1.66602 14.8333 1.66602 14.8333C1.66602 14.8333 4.15935 14.5 4.99935 13.5C5.47268 12.94 5.46602 12.08 4.93935 11.56C4.68022 11.3127 4.33888 11.1698 3.98083 11.1587C3.62279 11.1476 3.27327 11.2692 2.99935 11.5Z" stroke="white" stroke-width="1.5" stroke-linecap="round" stroke-linejoin="round"/>
<path id="Vector_2" d="M8 10.5L6 8.50001C6.35476 7.57963 6.80147 6.69738 7.33333 5.86667C8.11012 4.62467 9.19175 3.60204 10.4753 2.89607C11.7589 2.1901 13.2018 1.82425 14.6667 1.83334C14.6667 3.64667 14.1467 6.83334 10.6667 9.16667C9.82459 9.69916 8.93123 10.1458 8 10.5Z" stroke="white" stroke-width="1.5" stroke-linecap="round" stroke-linejoin="round"/>
<path id="Vector_3" d="M5.99935 8.5H2.66602C2.66602 8.5 3.03268 6.48 3.99935 5.83334C5.07935 5.11334 7.33268 5.83334 7.33268 5.83334" stroke="white" stroke-width="1.5" stroke-linecap="round" stroke-linejoin="round"/>
<path id="Vector_4" d="M8 10.5V13.8333C8 13.8333 10.02 13.4667 10.6667 12.5C11.3867 11.42 10.6667 9.16667 10.6667 9.16667" stroke="white" stroke-width="1.5" stroke-linecap="round" stroke-linejoin="round"/>
</g>
</svg>
