<svg width="16" height="16" viewBox="0 0 16 16" fill="none" xmlns="http://www.w3.org/2000/svg">
<g id="Frame" clip-path="url(#clip0_1956_8992)">
<g id="Group">
<path id="Vector" fill-rule="evenodd" clip-rule="evenodd" d="M8 0C5.87827 0 3.84344 0.842855 2.34315 2.34315C0.842855 3.84344 0 5.87827 0 8C0 10.1217 0.842855 12.1566 2.34315 13.6569C3.84344 15.1571 5.87827 16 8 16C10.1217 16 12.1566 15.1571 13.6569 13.6569C15.1571 12.1566 16 10.1217 16 8C16 5.87827 15.1571 3.84344 13.6569 2.34315C12.1566 0.842855 10.1217 0 8 0Z" fill="#26A17B"/>
<path id="Vector_2" fill-rule="evenodd" clip-rule="evenodd" d="M8.9605 8.68891V8.68391C8.9055 8.68391 8.6205 8.70391 7.9855 8.70391C7.4805 8.70391 7.1205 8.68891 6.9955 8.67891C5.0505 8.58891 3.6005 8.25391 3.6005 7.84891C3.6005 7.44391 5.0505 7.10391 6.9955 7.01891V8.33891C7.1205 8.34391 7.4855 8.36891 7.9855 8.36891C8.5855 8.36891 8.8905 8.34391 8.9455 8.33891V7.01391C10.8855 7.09891 12.3305 7.43891 12.3305 7.83891C12.3305 8.24391 10.8805 8.57891 8.9405 8.66741M8.9405 6.87241V5.68741H11.6455V3.87891H4.275V5.67891H6.98V6.85891C4.78 6.95891 3.125 7.39391 3.125 7.91391C3.125 8.43391 4.775 8.86891 6.975 8.96891V12.7589H8.93V8.96391C11.125 8.85891 12.775 8.42391 12.775 7.90391C12.775 7.37891 11.12 6.94391 8.925 6.84391" fill="white"/>
</g>
</g>
<defs>
<clipPath id="clip0_1956_8992">
<rect width="16" height="16" fill="white"/>
</clipPath>
</defs>
</svg>
