<svg width="200" height="45" viewBox="0 0 200 45" fill="none" xmlns="http://www.w3.org/2000/svg">
<g clip-path="url(#clip0_4571_15302)">
<path d="M100.172 11.265C92.4402 11.265 86.866 16.305 86.866 23.955C86.866 31.605 93.1594 36.645 100.891 36.645C105.566 36.645 109.702 34.755 112.219 31.695L106.825 28.545C105.387 30.075 103.229 30.975 100.801 30.975C97.4749 30.975 94.5979 29.175 93.519 26.385H113.208C113.388 25.575 113.478 24.765 113.478 23.955C113.478 16.305 107.904 11.265 100.172 11.265ZM93.519 21.435C94.4181 18.645 96.7556 16.845 100.172 16.845C103.499 16.845 105.926 18.645 106.825 21.435H93.519ZM91.9007 3.52498L72.4812 37.275L52.9717 3.52498H60.2541L72.3913 24.585L84.6184 3.52498H91.9007ZM26.1799 0.0149841L52.1626 45.015H0.197266L26.1799 0.0149841ZM141.708 23.955C141.708 28.185 144.495 30.975 148.721 30.975C151.598 30.975 153.756 29.625 154.924 27.555L160.319 30.705C158.071 34.395 153.935 36.645 148.721 36.645C140.989 36.645 135.415 31.605 135.415 23.955C135.415 16.305 140.989 11.265 148.721 11.265C153.846 11.265 158.071 13.515 160.319 17.205L154.924 20.355C153.846 18.195 151.598 16.935 148.721 16.935C144.495 16.935 141.708 19.725 141.708 23.955ZM199.697 3.52498V35.835H193.404V3.52498H199.697ZM175.782 11.265C168.051 11.265 162.476 16.305 162.476 23.955C162.476 31.605 168.77 36.645 176.502 36.645C181.177 36.645 185.312 34.755 187.83 31.695L182.435 28.545C180.997 30.075 178.839 30.975 176.412 30.975C173.085 30.975 170.208 29.175 169.129 26.385H188.819C188.999 25.575 189.088 24.765 189.088 23.955C189.178 16.305 183.514 11.265 175.782 11.265ZM169.129 21.435C170.028 18.645 172.366 16.845 175.782 16.845C179.199 16.845 181.536 18.645 182.435 21.435H169.129ZM133.347 11.985V18.825C132.628 18.645 131.909 18.465 131.099 18.465C127.054 18.465 124.087 21.255 124.087 25.485V35.925H117.793V11.985H124.087V18.465C124.087 14.865 128.223 11.985 133.347 11.985Z" fill="white"/>
</g>
<defs>
<clipPath id="clip0_4571_15302">
<rect width="199.605" height="44.9763" fill="white" transform="translate(0.197266 0.0157471)"/>
</clipPath>
</defs>
</svg>
