<svg width="98" height="98" viewBox="0 0 98 98" fill="none" xmlns="http://www.w3.org/2000/svg">
<g id="Frame" clip-path="url(#clip0_275_1988)">
<path id="Vector" d="M49 98C76.0317 98 98 76.0317 98 49C98 21.9275 76.0317 0 49 0C21.9275 0 0 21.9275 0 49C0 76.0317 21.9275 97.9592 49 98ZM68.6408 51.0417C68.5592 52.5117 67.62 53.8183 66.2317 54.39L41.3642 66.8115L41.3601 66.8074C40.6659 67.1341 39.9309 67.3382 39.1551 67.3382C38.4201 67.3382 37.7259 67.1341 37.1543 66.7666C35.8884 65.9091 35.1943 64.5208 35.2759 63.0099V38.8733C35.0718 36.6683 36.7051 34.7492 38.8693 34.545C39.6859 34.4633 40.5434 34.6675 41.2784 35.0758L66.1051 47.4892C67.4526 48.02 68.3917 49.3267 68.4734 50.8375L68.6408 51.0417Z" fill="white"/>
</g>
<defs>
<clipPath id="clip0_275_1988">
<rect width="98" height="98" fill="white"/>
</clipPath>
</defs>
</svg>
