<svg width="45" height="44" viewBox="0 0 45 44" fill="none" xmlns="http://www.w3.org/2000/svg">
<rect x="0.666016" width="44" height="44" rx="22" fill="#FFB906"/>
<path d="M25.666 16V28C25.666 28.5933 25.842 29.1734 26.1716 29.6667C26.5013 30.1601 26.9698 30.5446 27.518 30.7716C28.0661 30.9987 28.6693 31.0581 29.2513 30.9424C29.8332 30.8266 30.3678 30.5409 30.7873 30.1213C31.2069 29.7018 31.4926 29.1672 31.6084 28.5853C31.7241 28.0033 31.6647 27.4001 31.4377 26.852C31.2106 26.3038 30.8261 25.8352 30.3327 25.5056C29.8394 25.1759 29.2594 25 28.666 25H16.666C16.0727 25 15.4927 25.1759 14.9993 25.5056C14.506 25.8352 14.1214 26.3038 13.8944 26.852C13.6673 27.4001 13.6079 28.0033 13.7237 28.5853C13.8394 29.1672 14.1251 29.7018 14.5447 30.1213C14.9643 30.5409 15.4988 30.8266 16.0807 30.9424C16.6627 31.0581 17.2659 30.9987 17.8141 30.7716C18.3622 30.5446 18.8308 30.1601 19.1604 29.6667C19.4901 29.1734 19.666 28.5933 19.666 28V16C19.666 15.4067 19.4901 14.8266 19.1604 14.3333C18.8308 13.8399 18.3622 13.4554 17.8141 13.2284C17.2659 13.0013 16.6627 12.9419 16.0807 13.0576C15.4988 13.1734 14.9643 13.4591 14.5447 13.8787C14.1251 14.2982 13.8394 14.8328 13.7237 15.4147C13.6079 15.9967 13.6673 16.5999 13.8944 17.1481C14.1214 17.6962 14.506 18.1648 14.9993 18.4944C15.4927 18.8241 16.0727 19 16.666 19H28.666C29.2594 19 29.8394 18.8241 30.3327 18.4944C30.8261 18.1648 31.2106 17.6962 31.4377 17.1481C31.6647 16.5999 31.7241 15.9967 31.6084 15.4147C31.4926 14.8328 31.2069 14.2982 30.7873 13.8787C30.3678 13.4591 29.8332 13.1734 29.2513 13.0576C28.6693 12.9419 28.0661 13.0013 27.518 13.2284C26.9698 13.4554 26.5013 13.8399 26.1716 14.3333C25.842 14.8266 25.666 15.4067 25.666 16Z" stroke="white" stroke-width="2" stroke-linecap="round" stroke-linejoin="round"/>
</svg>
