<svg width="16" height="16" viewBox="0 0 16 16" fill="none" xmlns="http://www.w3.org/2000/svg">
<g id="Frame" clip-path="url(#clip0_481_1978)">
<path id="Vector" d="M13 9V8.99994C13.0025 9.41744 12.7412 9.79119 12.3487 9.93369L9.12499 11.1249L7.93749 14.3512C7.74749 14.8668 7.17561 15.1306 6.65999 14.9412C6.38624 14.8399 6.17061 14.6243 6.06936 14.3506L4.87436 11.1243L1.64811 9.93681H1.64805C1.1318 9.74681 0.868049 9.17494 1.05742 8.65931C1.15805 8.38556 1.37367 8.16994 1.64742 8.06869L4.87367 6.87369L6.06117 3.64744C6.25055 3.13119 6.82242 2.86738 7.33805 3.05675C7.61117 3.15738 7.8268 3.373 7.92805 3.64675L9.12305 6.873L12.3493 8.0605C12.7424 8.20363 13.0024 8.57925 12.998 8.998L13 9ZM9.49999 3H10.5V4C10.5 4.27562 10.7237 4.5 11 4.5C11.2756 4.5 11.5 4.27562 11.5 4V3H12.5C12.7756 3 13 2.77562 13 2.5C13 2.22375 12.7756 2 12.5 2H11.5V1C11.5 0.72375 11.2756 0.5 11 0.5C10.7237 0.5 10.5 0.72375 10.5 1V2H9.49999C9.22374 2 8.99999 2.22375 8.99999 2.5C8.99999 2.77562 9.22374 3 9.49999 3ZM15 5H14.5V4.5C14.5 4.22375 14.2756 4 14 4C13.7237 4 13.5 4.22375 13.5 4.5V5H13C12.7237 5 12.5 5.22375 12.5 5.5C12.5 5.77563 12.7237 6 13 6H13.5V6.5C13.5 6.77563 13.7237 7 14 7C14.2756 7 14.5 6.77563 14.5 6.5V6H15C15.2756 6 15.5 5.77563 15.5 5.5C15.5 5.22375 15.2756 5 15 5Z" fill="url(#paint0_linear_481_1978)"/>
</g>
<defs>
<linearGradient id="paint0_linear_481_1978" x1="0.996094" y1="7.75126" x2="15.5" y2="7.75126" gradientUnits="userSpaceOnUse">
<stop stop-color="#00C6FF"/>
<stop offset="1" stop-color="#0072FF"/>
</linearGradient>
<clipPath id="clip0_481_1978">
<rect width="16" height="16" fill="white"/>
</clipPath>
</defs>
</svg>
