<svg xmlns="http://www.w3.org/2000/svg" width="512" height="512" viewBox="0 0 512 512" role="img" aria-label="Dataify Walmart Products">
  <rect x="64" y="64" width="384" height="384" rx="88" fill="#0071dc"/>
  <circle cx="256" cy="256" r="72" fill="#ffc220"/>
  <g fill="#ffc220">
    <rect x="240" y="88" width="32" height="96" rx="16"/>
    <rect x="240" y="328" width="32" height="96" rx="16"/>
    <rect x="328" y="240" width="96" height="32" rx="16"/>
    <rect x="88" y="240" width="96" height="32" rx="16"/>
    <rect x="312" y="136" width="32" height="96" rx="16" transform="rotate(45 328 184)"/>
    <rect x="168" y="280" width="32" height="96" rx="16" transform="rotate(45 184 328)"/>
    <rect x="312" y="280" width="32" height="96" rx="16" transform="rotate(-45 328 328)"/>
    <rect x="168" y="136" width="32" height="96" rx="16" transform="rotate(-45 184 184)"/>
  </g>
</svg>
