<svg width="512" height="240" viewBox="0 0 512 240" fill="none" xmlns="http://www.w3.org/2000/svg">
  <rect width="512" height="240" rx="32" fill="#F7F0E7"/>
  <rect x="28" y="28" width="184" height="184" rx="28" fill="#1F2937"/>
  <path d="M68 171V69H123.2C152.428 69 170 83.6338 170 106.4C170 122.944 160.438 134.444 144.6 137.8L174 171H142.8L117.8 142.6H95.6V171H68ZM95.6 121H121.6C136.372 121 144.4 115.959 144.4 106C144.4 96.1406 136.372 91 121.6 91H95.6V121Z" fill="#E5B96B"/>
  <circle cx="175" cy="61" r="16" fill="#E5B96B"/>
  <path d="M249 95H316.2C349.452 95 370 113.853 370 143.6C370 173.347 349.452 192 316.2 192H249V95ZM277.8 168.2H314C331.731 168.2 341.2 159.026 341.2 143.6C341.2 128.174 331.731 118.8 314 118.8H277.8V168.2Z" fill="#1F2937"/>
  <path d="M386 95H414.8V192H386V95Z" fill="#1F2937"/>
  <path d="M433 143.6C433 114.752 454.94 92 486.2 92C501.332 92 514.446 97.0649 523.6 106.4L506.8 123C501.126 117.216 494.604 114.4 486.8 114.4C470.252 114.4 459.4 126.265 459.4 143.6C459.4 160.935 470.252 172.8 486.8 172.8C494.604 172.8 501.126 169.984 506.8 164.2L523.6 180.8C514.446 190.135 501.332 195.2 486.2 195.2C454.94 195.2 433 172.448 433 143.6Z" fill="#1F2937"/>
</svg>
