<svg width="21" height="21" viewBox="0 0 21 21" fill="none" xmlns="http://www.w3.org/2000/svg">
<g style="mix-blend-mode:plus-lighter">
<path d="M11.6275 0.555787C11.6101 0.405686 11.5674 0.15032 11.4335 0.0703964C11.3132 -0.00172997 9.39221 -0.0192738 9.16131 0.0216627C9.00802 0.0509024 8.95757 0.103535 8.89354 0.23999C8.66846 0.959304 8.99444 6.10952 8.73249 6.2947C8.64711 6.35319 8.49576 6.35513 8.39098 6.33759C7.87873 6.25377 5.9694 3.63968 5.35237 3.56365C5.14281 3.53831 3.7438 4.87947 3.6526 5.0744C3.56723 5.25959 3.56335 5.45258 3.69529 5.61243C4.32591 6.03934 5.99463 8.22262 6.57092 8.35518C7.04049 8.46239 7.54886 8.39222 7.94664 8.1271C8.33665 7.86394 11.0745 5.10364 11.3209 4.71767C11.5033 4.42917 11.5984 4.10752 11.6295 3.76638C11.6974 2.99249 11.7129 1.31214 11.6275 0.555787Z" fill="url(#paint0_linear_2564_26361)"/>
<path d="M16.7542 14.8324C16.0033 14.2982 14.5208 12.2066 13.6981 12.076C12.8036 11.9356 12.7318 12.2339 12.1691 12.7115C11.261 13.4853 10.027 14.6647 9.25275 15.5614C8.88602 15.9864 8.85109 16.7915 8.8181 17.3587C8.79094 17.8441 8.75601 19.9689 8.93453 20.2613C8.97721 20.3296 8.98692 20.3783 9.07811 20.4095C9.22558 20.4602 11.0728 20.4621 11.2882 20.4231C11.4395 20.3958 11.4919 20.3432 11.554 20.2048C11.7791 19.4855 11.4551 14.3353 11.7151 14.152C11.8005 14.0916 11.9518 14.0916 12.0566 14.1072C12.5378 14.1852 14.5888 16.8616 15.0719 16.9065C15.297 16.9279 16.7717 15.4951 16.8279 15.3022C16.8784 15.1365 16.8668 14.9688 16.7542 14.8324Z" fill="url(#paint1_linear_2564_26361)"/>
<path d="M8.0482 12.4112C7.534 11.7368 5.53542 9.72697 4.86211 9.20259C4.77674 9.13437 4.37896 8.86535 4.32851 8.86535H0.269263C0.251799 8.86535 0.0985102 9.0135 0.0771662 9.06029C-0.0431367 9.31761 -0.0528385 11.5847 0.269263 11.5847H6.1641C6.33097 11.6315 6.49979 11.996 6.35814 12.1656L3.69595 14.8323C3.56401 14.9922 3.56789 15.1852 3.65326 15.3704C3.75804 15.5965 5.1978 16.9844 5.46751 16.9123C5.6402 16.8675 7.78237 14.6842 8.00357 14.4015C8.58956 13.6549 8.63225 13.1793 8.0482 12.4112Z" fill="url(#paint2_linear_2564_26361)"/>
<path d="M20.3709 9.15604C20.3301 9.06442 20.2098 8.97865 20.1283 8.91432L14.4722 8.86753C14.1753 8.86753 13.9735 8.64336 14.055 8.349C14.1928 7.85971 16.5658 6.09554 16.8491 5.40937C16.8743 5.23782 16.8336 5.15985 16.754 5.02145C16.6861 4.90643 15.5898 3.82064 15.4424 3.71537C15.0814 3.45416 15.0504 3.50484 14.7167 3.76216C14.2529 4.11889 12.6405 5.73101 12.3028 6.19301C11.8604 6.79731 11.8973 7.40356 12.3475 7.99032C12.8694 8.67065 14.9088 10.7155 15.5859 11.2458C15.7567 11.3783 15.9391 11.4699 16.1195 11.583L20.1807 11.583C20.5028 11.583 20.4854 9.41725 20.3709 9.15604Z" fill="url(#paint3_linear_2564_26361)"/>
</g>
<defs>
<linearGradient id="paint0_linear_2564_26361" x1="3.5918" y1="4.20165" x2="11.6861" y2="4.20165" gradientUnits="userSpaceOnUse">
<stop stop-color="white"/>
<stop offset="1" stop-color="white" stop-opacity="0.6"/>
</linearGradient>
<linearGradient id="paint1_linear_2564_26361" x1="8.7959" y1="16.2457" x2="16.8565" y2="16.2457" gradientUnits="userSpaceOnUse">
<stop stop-color="white"/>
<stop offset="1" stop-color="white" stop-opacity="0.6"/>
</linearGradient>
<linearGradient id="paint2_linear_2564_26361" x1="0" y1="12.8902" x2="8.46526" y2="12.8902" gradientUnits="userSpaceOnUse">
<stop stop-color="white"/>
<stop offset="1" stop-color="white" stop-opacity="0.6"/>
</linearGradient>
<linearGradient id="paint3_linear_2564_26361" x1="11.9897" y1="7.5628" x2="20.4462" y2="7.5628" gradientUnits="userSpaceOnUse">
<stop stop-color="white"/>
<stop offset="1" stop-color="white" stop-opacity="0.6"/>
</linearGradient>
</defs>
</svg>
