<svg xmlns="http://www.w3.org/2000/svg" width="512" height="512" viewBox="0 0 512 512" role="img" aria-label="Dataify eBay Products">
  <rect x="56" y="88" width="400" height="336" rx="80" fill="#f5f5f5"/>
  <path d="M128 264c0-48 32-88 80-88s80 40 80 88v20H176c8 24 28 36 56 36 20 0 36-4 52-16v48c-20 12-40 16-64 16-60 0-100-40-100-104Zm108-20c-4-20-16-32-32-32-20 0-32 12-36 32h68Z" fill="#e53238"/>
  <path d="M296 176h48v24c16-20 36-28 60-28 40 0 68 32 68 92s-28 100-72 100c-24 0-40-8-56-24v80h-48V176Zm124 92c0-32-16-48-36-48s-40 16-40 48 16 48 40 48 36-16 36-48Z" fill="#0064d2"/>
  <path d="M60 304h60v56H60v-56Z" fill="#f5af02"/>
  <path d="M64 232h56v56H64v-56Z" fill="#86b817"/>
</svg>
