<svg xmlns="http://www.w3.org/2000/svg" viewBox="0 0 512 512" width="512" height="512">
  <defs>
    <linearGradient id="tableGrad" x1="0%" y1="0%" x2="100%" y2="100%">
      <stop offset="0%" style="stop-color:#7aa2f7;stop-opacity:1"/>
      <stop offset="100%" style="stop-color:#bb9af7;stop-opacity:1"/>
    </linearGradient>
    <filter id="glow" x="-20%" y="-20%" width="140%" height="140%">
      <feGaussianBlur stdDeviation="6" result="blur"/>
      <feMerge>
        <feMergeNode in="blur"/>
        <feMergeNode in="SourceGraphic"/>
      </feMerge>
    </filter>
  </defs>

  <!-- Outer ring -->
  <circle cx="256" cy="256" r="160" fill="none" stroke="url(#tableGrad)" stroke-width="8" opacity="0.85"/>

  <!-- Connection lines (hexagon) -->
  <g opacity="0.3" stroke="#7aa2f7" stroke-width="2.5">
    <line x1="256" y1="96" x2="394" y2="176"/>
    <line x1="394" y1="176" x2="394" y2="336"/>
    <line x1="394" y1="336" x2="256" y2="416"/>
    <line x1="256" y1="416" x2="118" y2="336"/>
    <line x1="118" y1="336" x2="118" y2="176"/>
    <line x1="118" y1="176" x2="256" y2="96"/>
  </g>

  <!-- 6 Agent seats - bigger for small size readability -->
  <circle cx="256" cy="96" r="24" fill="#1a1b26" stroke="#7aa2f7" stroke-width="4"/>
  <circle cx="256" cy="96" r="10" fill="#7aa2f7"/>

  <circle cx="394" cy="176" r="24" fill="#1a1b26" stroke="#bb9af7" stroke-width="4"/>
  <circle cx="394" cy="176" r="10" fill="#bb9af7"/>

  <circle cx="394" cy="336" r="24" fill="#1a1b26" stroke="#7dcfff" stroke-width="4"/>
  <circle cx="394" cy="336" r="10" fill="#7dcfff"/>

  <circle cx="256" cy="416" r="24" fill="#1a1b26" stroke="#9ece6a" stroke-width="4"/>
  <circle cx="256" cy="416" r="10" fill="#9ece6a"/>

  <circle cx="118" cy="336" r="24" fill="#1a1b26" stroke="#ff9e64" stroke-width="4"/>
  <circle cx="118" cy="336" r="10" fill="#ff9e64"/>

  <circle cx="118" cy="176" r="24" fill="#1a1b26" stroke="#c0caf5" stroke-width="4"/>
  <circle cx="118" cy="176" r="10" fill="#c0caf5"/>

  <!-- Central convergence diamond -->
  <g filter="url(#glow)">
    <rect x="242" y="242" width="28" height="28" rx="5" transform="rotate(45 256 256)" fill="url(#tableGrad)"/>
  </g>
</svg>
