<svg xmlns="http://www.w3.org/2000/svg" xmlns:xlink="http://www.w3.org/1999/xlink" width="1000" height="581.04"><rect width="1000" height="581.04" rx="5" ry="5" class="a"/><svg y="0%" x="0%"><circle cx="20" cy="20" r="6" fill="#ff5f58"/><circle cx="40" cy="20" r="6" fill="#ffbd2e"/><circle cx="60" cy="20" r="6" fill="#18c132"/></svg><svg height="521.04" viewBox="0 0 96 52.104" width="960" x="15" xmlns="http://www.w3.org/2000/svg" xmlns:xlink="http://www.w3.org/1999/xlink" y="50"><style>@keyframes j{0%{transform:translateX(0)}.09%{transform:translateX(-96px)}.43%{transform:translateX(-192px)}.73%{transform:translateX(-288px)}9.2%{transform:translateX(-480px)}10.19%{transform:translateX(-576px)}29.04%{transform:translateX(-672px)}31.55%{transform:translateX(-768px)}44.44%{transform:translateX(-864px)}to{transform:translateX(-960px)}}.a{fill:#282d35}.f,.g{fill:#b9c0cb;white-space:pre}.g{fill:#66c2cd;font-weight:700}</style><g font-family="Monaco,Consolas,Menlo,'Bitstream Vera Sans Mono','Powerline Symbols',monospace" font-size="1.67"><defs><symbol id="1"><text y="1.67" class="f">make_demo</text><text x="10.02" y="1.67" class="f">/home/less/repo-garden-audit/repos/loopsmith</text><text x="55.11" y="1.67" class="f">assets/loopsmith-terminal-demo.cast</text><text x="91.182" y="1.67" class="f">asset</text></symbol><symbol id="2"><text y="1.67" class="f">s/loopsmith-terminal-demo.svg</text><text x="30.06" y="1.67" class="f">&apos;printf</text><text x="38.076" y="1.67" class="f">&quot;\\033[1;36m$</text><text x="52.104" y="1.67" class="f">make</text><text x="57.114" y="1.67" class="f">test\\033[0m\\n&quot;;</text><text x="75.15" y="1.67" class="f">make</text><text x="80.16" y="1.67" class="f">test;</text><text x="86.172" y="1.67" class="f">printf</text><text x="93.186" y="1.67" class="f">&quot;\\</text></symbol><symbol id="3"><text y="1.67" class="f">n\\033[1;36m$</text><text x="14.028" y="1.67" class="f">sed</text><text x="18.036" y="1.67" class="f">-n</text><text x="21.042" y="1.67" class="f">&apos;\&apos;&apos;1,32p&apos;\&apos;&apos;</text><text x="35.07" y="1.67" class="f">examples/before-after-eval.md\\033[0m\\n&quot;;</text><text x="78.156" y="1.67" class="f">sed</text><text x="82.164" y="1.67" class="f">-n</text><text x="85.17" y="1.67" class="f">&apos;\&apos;&apos;1,32p&apos;\</text></symbol><symbol id="4"><text y="1.67" class="f">&apos;&apos;</text><text x="3.006" y="1.67" class="f">examples/before-after-eval.md&apos;</text></symbol><symbol id="5"><text y="1.67" class="g">$</text><text x="2.004" y="1.67" class="g">bin/proof-loop</text><text x="17.034" y="1.67" class="g">doctor</text></symbol><symbol id="6"><text y="1.67" class="f">init</text><text x="5.01" y="1.67" class="f">script:</text><text x="13.026" y="1.67" class="f">ok</text></symbol><symbol id="7"><text y="1.67" class="f">check</text><text x="6.012" y="1.67" class="f">script:</text><text x="14.028" y="1.67" class="f">ok</text></symbol><symbol id="8"><text y="1.67" class="f">spec</text><text x="5.01" y="1.67" class="f">schema:</text><text x="13.026" y="1.67" class="f">ok</text></symbol><symbol id="9"><text y="1.67" class="f">verdict</text><text x="8.016" y="1.67" class="f">schema:</text><text x="16.032" y="1.67" class="f">ok</text></symbol><symbol id="10"><text y="1.67" class="f">evidence</text><text x="9.018" y="1.67" class="f">schema:</text><text x="17.034" y="1.67" class="f">ok</text></symbol><symbol id="11"><text y="1.67" class="f">demo</text><text x="5.01" y="1.67" class="f">fixture:</text><text x="14.028" y="1.67" class="f">ok</text></symbol><symbol id="12"><text y="1.67" class="f">test</text><text x="5.01" y="1.67" class="f">workflow:</text><text x="15.03" y="1.67" class="f">ok</text></symbol><symbol id="13"><text y="1.67" class="f">PROOF_LOOP_DOCTOR_PASS</text></symbol><symbol id="14"><text y="1.67" class="g">$</text><text x="2.004" y="1.67" class="g">bin/proof-loop</text><text x="17.034" y="1.67" class="g">check</text><text x="23.046" y="1.67" class="g">examples/demo-repo/.agent/tasks/nav-labels-proof</text></symbol><symbol id="15"><text y="1.67" class="f">PROOF_LOOP_PASS</text><text x="16.032" y="1.67" class="f">examples/demo-repo/.agent/tasks/nav-labels-proof</text></symbol><symbol id="16"><text y="1.67" class="g">$</text><text x="2.004" y="1.67" class="g">bin/proof-loop</text><text x="17.034" y="1.67" class="g">report</text><text x="24.048" y="1.67" class="g">examples/demo-repo/.agent/tasks/nav-labels-proof</text><text x="73.146" y="1.67" class="g">--format</text><text x="82.164" y="1.67" class="g">md</text><text x="85.17" y="1.67" class="g">|</text><text x="87.174" y="1.67" class="g">sed</text><text x="91.182" y="1.67" class="g">-n</text><text x="94.188" y="1.67" class="g">&apos;1</text></symbol><symbol id="17"><text y="1.67" class="g">,18p&apos;</text></symbol><symbol id="18"><text y="1.67" class="f">#</text><text x="2.004" y="1.67" class="f">Proof</text><text x="8.016" y="1.67" class="f">Report</text><text x="15.03" y="1.67" class="f">-</text><text x="17.034" y="1.67" class="f">nav-labels-proof</text></symbol><symbol id="19"><text y="1.67" class="f">Overall:</text><text x="9.018" y="1.67" class="f">**PASS**</text></symbol><symbol id="20"><text y="1.67" class="f">##</text><text x="3.006" y="1.67" class="f">Acceptance</text><text x="14.028" y="1.67" class="f">Criteria</text></symbol><symbol id="21"><text y="1.67" class="f">|</text><text x="2.004" y="1.67" class="f">AC</text><text x="5.01" y="1.67" class="f">|</text><text x="7.014" y="1.67" class="f">Status</text><text x="14.028" y="1.67" class="f">|</text><text x="16.032" y="1.67" class="f">Note</text><text x="21.042" y="1.67" class="f">|</text></symbol><symbol id="22"><text y="1.67" class="f">|---|---|---|</text></symbol><symbol id="23"><text y="1.67" class="f">|</text><text x="2.004" y="1.67" class="f">AC1</text><text x="6.012" y="1.67" class="f">|</text><text x="8.016" y="1.67" class="f">PASS</text><text x="13.026" y="1.67" class="f">|</text><text x="15.03" y="1.67" class="f">Demo</text><text x="20.04" y="1.67" class="f">check</text><text x="26.052" y="1.67" class="f">confirms</text><text x="35.07" y="1.67" class="f">expected</text><text x="44.088" y="1.67" class="f">English</text><text x="52.104" y="1.67" class="f">labels.</text><text x="60.12" y="1.67" class="f">|</text></symbol><symbol id="24"><text y="1.67" class="f">|</text><text x="2.004" y="1.67" class="f">AC2</text><text x="6.012" y="1.67" class="f">|</text><text x="8.016" y="1.67" class="f">PASS</text><text x="13.026" y="1.67" class="f">|</text><text x="15.03" y="1.67" class="f">Demo</text><text x="20.04" y="1.67" class="f">check</text><text x="26.052" y="1.67" class="f">confirms</text><text x="35.07" y="1.67" class="f">expected</text><text x="44.088" y="1.67" class="f">German</text><text x="51.102" y="1.67" class="f">labels.</text><text x="59.118" y="1.67" class="f">|</text></symbol><symbol id="25"><text y="1.67" class="f">|</text><text x="2.004" y="1.67" class="f">AC3</text><text x="6.012" y="1.67" class="f">|</text><text x="8.016" y="1.67" class="f">PASS</text><text x="13.026" y="1.67" class="f">|</text><text x="15.03" y="1.67" class="f">Verifier</text><text x="24.048" y="1.67" class="f">inspected</text><text x="34.068" y="1.67" class="f">the</text><text x="38.076" y="1.67" class="f">check</text><text x="44.088" y="1.67" class="f">script;</text><text x="52.104" y="1.67" class="f">mismatches</text><text x="63.126" y="1.67" class="f">return</text><text x="70.14" y="1.67" class="f">exit</text><text x="75.15" y="1.67" class="f">status</text><text x="82.164" y="1.67" class="f">1.</text><text x="85.17" y="1.67" class="f">|</text></symbol><symbol id="26"><text y="1.67" class="f">##</text><text x="3.006" y="1.67" class="f">Evidence</text><text x="12.024" y="1.67" class="f">Summary</text></symbol><symbol id="27"><text y="1.67" class="f">#</text><text x="2.004" y="1.67" class="f">Evidence</text><text x="11.022" y="1.67" class="f">-</text><text x="13.026" y="1.67" class="f">nav-labels-proof</text></symbol><symbol id="28"><text y="1.67" class="f">##</text><text x="3.006" y="1.67" class="f">Build</text><text x="9.018" y="1.67" class="f">Summary</text></symbol><symbol id="29"><text y="1.67" class="f">The</text><text x="4.008" y="1.67" class="f">demo</text><text x="9.018" y="1.67" class="f">fixture</text><text x="17.034" y="1.67" class="f">contains</text><text x="26.052" y="1.67" class="f">`examples/demo-repo/nav_labels.json`</text><text x="63.126" y="1.67" class="f">and</text><text x="67.134" y="1.67" class="f">a</text><text x="69.138" y="1.67" class="f">real</text><text x="74.148" y="1.67" class="f">check</text><text x="80.16" y="1.67" class="f">command</text><text x="88.176" y="1.67" class="f">at</text><text x="91.182" y="1.67" class="f">`exam</text></symbol><symbol id="30"><text y="1.67" class="f">ples/demo-repo/check_nav_labels.py`.</text></symbol><symbol id="31"><text y="1.67" class="f">##</text><text x="3.006" y="1.67" class="f">Checks</text><text x="10.02" y="1.67" class="f">Run</text></symbol><symbol id="a"><path fill="transparent" d="M0 0h96v25H0z"/></symbol><symbol id="b"><path fill="#6f7683" d="M0 0h1.102v2.171H0z"/></symbol></defs><path class="a" d="M0 0h96v52.104H0z"/><g style="animation-duration:18s;animation-iteration-count:infinite;animation-name:j;animation-timing-function:steps(1,end)"><svg width="1056"><svg><use xlink:href="#a"/><use xlink:href="#b" x="-.004"/></svg><svg x="96"><use xlink:href="#a"/><use xlink:href="#b" x="15.996" y="4.317"/><use xlink:href="#1"/><use xlink:href="#2" y="2.171"/><text y="6.012" class="f">n\\033[1;36m$</text><text x="14.028" y="6.012" class="f">se</text></svg><svg x="192"><use xlink:href="#a"/><use xlink:href="#b" x="-.004" y="8.659"/><use xlink:href="#1"/><use xlink:href="#2" y="2.171"/><use xlink:href="#3" y="4.342"/><use xlink:href="#4" y="6.513"/></svg><svg x="288"><use xlink:href="#a"/><use xlink:href="#b" x="-.004" y="10.83"/><use xlink:href="#1"/><use xlink:href="#2" y="2.171"/><use xlink:href="#3" y="4.342"/><use xlink:href="#4" y="6.513"/><use xlink:href="#5" y="8.684"/></svg><svg x="384"><use xlink:href="#a"/><use xlink:href="#b" x="-.004" y="19.514"/><use xlink:href="#1"/><use xlink:href="#2" y="2.171"/><use xlink:href="#3" y="4.342"/><use xlink:href="#4" y="6.513"/><use xlink:href="#5" y="8.684"/><use xlink:href="#6" y="10.855"/><use xlink:href="#7" y="13.026"/><use xlink:href="#8" y="15.197"/><use xlink:href="#9" y="17.368"/></svg><svg x="480"><use xlink:href="#a"/><use xlink:href="#b" x="-.004" y="28.198"/><use xlink:href="#1"/><use xlink:href="#2" y="2.171"/><use xlink:href="#3" y="4.342"/><use xlink:href="#4" y="6.513"/><use xlink:href="#5" y="8.684"/><use xlink:href="#6" y="10.855"/><use xlink:href="#7" y="13.026"/><use xlink:href="#8" y="15.197"/><use xlink:href="#9" y="17.368"/><use xlink:href="#10" y="19.539"/><use xlink:href="#11" y="21.71"/><use xlink:href="#12" y="23.881"/><use xlink:href="#13" y="26.052"/></svg><svg x="576"><use xlink:href="#a"/><use xlink:href="#b" x="-.004" y="32.54"/><use xlink:href="#1"/><use xlink:href="#2" y="2.171"/><use xlink:href="#3" y="4.342"/><use xlink:href="#4" y="6.513"/><use xlink:href="#5" y="8.684"/><use xlink:href="#6" y="10.855"/><use xlink:href="#7" y="13.026"/><use xlink:href="#8" y="15.197"/><use xlink:href="#9" y="17.368"/><use xlink:href="#10" y="19.539"/><use xlink:href="#11" y="21.71"/><use xlink:href="#12" y="23.881"/><use xlink:href="#13" y="26.052"/><use xlink:href="#14" y="30.394"/></svg><svg x="672"><use xlink:href="#a"/><use xlink:href="#b" x="-.004" y="34.711"/><use xlink:href="#1"/><use xlink:href="#2" y="2.171"/><use xlink:href="#3" y="4.342"/><use xlink:href="#4" y="6.513"/><use xlink:href="#5" y="8.684"/><use xlink:href="#6" y="10.855"/><use xlink:href="#7" y="13.026"/><use xlink:href="#8" y="15.197"/><use xlink:href="#9" y="17.368"/><use xlink:href="#10" y="19.539"/><use xlink:href="#11" y="21.71"/><use xlink:href="#12" y="23.881"/><use xlink:href="#13" y="26.052"/><use xlink:href="#14" y="30.394"/><use xlink:href="#15" y="32.565"/></svg><svg x="768"><use xlink:href="#a"/><use xlink:href="#b" x="-.004" y="41.224"/><use xlink:href="#1"/><use xlink:href="#2" y="2.171"/><use xlink:href="#3" y="4.342"/><use xlink:href="#4" y="6.513"/><use xlink:href="#5" y="8.684"/><use xlink:href="#6" y="10.855"/><use xlink:href="#7" y="13.026"/><use xlink:href="#8" y="15.197"/><use xlink:href="#9" y="17.368"/><use xlink:href="#10" y="19.539"/><use xlink:href="#11" y="21.71"/><use xlink:href="#12" y="23.881"/><use xlink:href="#13" y="26.052"/><use xlink:href="#14" y="30.394"/><use xlink:href="#15" y="32.565"/><use xlink:href="#16" y="36.907"/><use xlink:href="#17" y="39.078"/></svg><svg x="864"><use xlink:href="#a"/><use xlink:href="#b" x="-.004" y="52.079"/><use xlink:href="#14"/><use xlink:href="#15" y="2.171"/><use xlink:href="#16" y="6.513"/><use xlink:href="#17" y="8.684"/><use xlink:href="#18" y="10.855"/><use xlink:href="#19" y="15.197"/><use xlink:href="#20" y="19.539"/><use xlink:href="#21" y="23.881"/><use xlink:href="#22" y="26.052"/><use xlink:href="#23" y="28.223"/><use xlink:href="#24" y="30.394"/><use xlink:href="#25" y="32.565"/><use xlink:href="#26" y="36.907"/><use xlink:href="#27" y="41.249"/><use xlink:href="#28" y="43.42"/><use xlink:href="#29" y="45.591"/><use xlink:href="#30" y="47.762"/><use xlink:href="#31" y="49.933"/></svg><svg x="960"><use xlink:href="#a"/><use xlink:href="#b" x="-.004" y="52.079"/><use xlink:href="#14"/><use xlink:href="#15" y="2.171"/><use xlink:href="#16" y="6.513"/><use xlink:href="#17" y="8.684"/><use xlink:href="#18" y="10.855"/><use xlink:href="#19" y="15.197"/><use xlink:href="#20" y="19.539"/><use xlink:href="#21" y="23.881"/><use xlink:href="#22" y="26.052"/><use xlink:href="#23" y="28.223"/><use xlink:href="#24" y="30.394"/><use xlink:href="#25" y="32.565"/><use xlink:href="#26" y="36.907"/><use xlink:href="#27" y="41.249"/><use xlink:href="#28" y="43.42"/><use xlink:href="#29" y="45.591"/><use xlink:href="#30" y="47.762"/><use xlink:href="#31" y="49.933"/></svg></svg></g></g></svg></svg>