<svg xmlns="http://www.w3.org/2000/svg" width="749.0" height="316.0" viewBox="-19.0 82.0 749.0 316.0" role="img" aria-label="Service Map">
  <defs>
    <pattern id="grid" width="120" height="80" patternUnits="userSpaceOnUse">
      <path d="M 120 0 L 0 0 0 80" fill="none" stroke="#e5e7eb" stroke-width="1"/>
    </pattern>
  </defs>
  <rect x="-19.0" y="82.0" width="749.0" height="316.0" fill="#f8fafc"/>
  <g id="arrows">
    <path d="M 219.0 160.0 L 270.0 160.0" fill="none" stroke="#2563eb" stroke-width="3" stroke-linejoin="round" stroke-linecap="round"/>
    <polygon points="261.0,154.6 270.0,160.0 261.0,165.4" fill="#2563eb"/>
    <path d="M 450.0 160.0 L 510.0 160.0" fill="none" stroke="#475569" stroke-width="3" stroke-linejoin="round" stroke-linecap="round" stroke-dasharray="6 6"/>
    <polygon points="501.0,154.6 510.0,160.0 501.0,165.4" fill="#475569"/>
    <path d="M 360.0 198.0 L 360.0 282.0" fill="none" stroke="#16a34a" stroke-width="3" stroke-linejoin="round" stroke-linecap="round" stroke-dasharray="10 8"/>
    <polygon points="365.4,273.0 360.0,282.0 354.6,273.0" fill="#16a34a"/>
    <path d="M 600.0 198.0 L 600.0 282.0" fill="none" stroke="#2563eb" stroke-width="3" stroke-linejoin="round" stroke-linecap="round"/>
    <polygon points="605.4,273.0 600.0,282.0 594.6,273.0" fill="#2563eb"/>
    <path d="M 510.0 160.0 L 480.0 240.0 L 480.0 320.0 L 450.0 320.0" fill="none" stroke="#16a34a" stroke-width="3" stroke-linejoin="round" stroke-linecap="round" stroke-dasharray="10 8"/>
    <polygon points="459.0,325.4 450.0,320.0 459.0,314.6" fill="#16a34a"/>
  </g>
  <g id="nodes">
    <rect x="21.0" y="122.0" width="198.0" height="76.0" rx="12" fill="#ffffff" stroke="#1f2937" stroke-width="2"/>
    <rect x="270.0" y="122.0" width="180.0" height="76.0" rx="12" fill="#ffffff" stroke="#1f2937" stroke-width="2"/>
    <polygon points="532.0,122.0 668.0,122.0 690.0,160.0 668.0,198.0 532.0,198.0 510.0,160.0" fill="#f8fafc" stroke="#0f172a" stroke-width="2"/>
    <path d="M 270.0 294.0 A 90.0 12.0 0 0 1 450.0 294.0 L 450.0 346.0 A 90.0 12.0 0 0 1 270.0 346.0 Z" fill="#f8fafc" stroke="#14532d" stroke-width="2"/>
    <ellipse cx="360.0" cy="294.0" rx="90.0" ry="12.0" fill="#f8fafc" stroke="#14532d" stroke-width="2"/>
    <path d="M 270.0 346.0 A 90.0 12.0 0 0 0 450.0 346.0" fill="none" stroke="#14532d" stroke-width="2"/>
    <rect x="510.0" y="282.0" width="180.0" height="76.0" rx="16" fill="#ffffff" stroke="#0f172a" stroke-width="2"/>
    <rect x="516.0" y="288.0" width="168.0" height="64.0" rx="12" fill="none" stroke="#0f172a" stroke-width="1.5"/>
  </g>
  <g id="labels">
    <rect x="211.5" y="120.0" width="66.0" height="24.0" rx="6" fill="#dbeafe" stroke="#ffffff" stroke-width="2"/>
    <text x="244.5" y="136.0" text-anchor="middle" font-family="Inter, ui-sans-serif, system-ui, -apple-system, BlinkMacSystemFont, 'Segoe UI', sans-serif" font-size="12" font-weight="600" fill="#1d4ed8">request</text>
    <rect x="447.0" y="120.0" width="66.0" height="24.0" rx="6" fill="#e2e8f0" stroke="#ffffff" stroke-width="2"/>
    <text x="480.0" y="136.0" text-anchor="middle" font-family="Inter, ui-sans-serif, system-ui, -apple-system, BlinkMacSystemFont, 'Segoe UI', sans-serif" font-size="12" font-weight="600" fill="#334155">enqueue</text>
    <rect x="316.5" y="228.0" width="87.0" height="24.0" rx="6" fill="#dcfce7" stroke="#ffffff" stroke-width="2"/>
    <text x="360.0" y="244.0" text-anchor="middle" font-family="Inter, ui-sans-serif, system-ui, -apple-system, BlinkMacSystemFont, 'Segoe UI', sans-serif" font-size="12" font-weight="600" fill="#166534">read/write</text>
    <rect x="560.0" y="228.0" width="80.0" height="24.0" rx="6" fill="#dbeafe" stroke="#ffffff" stroke-width="2"/>
    <text x="600.0" y="244.0" text-anchor="middle" font-family="Inter, ui-sans-serif, system-ui, -apple-system, BlinkMacSystemFont, 'Segoe UI', sans-serif" font-size="12" font-weight="600" fill="#1d4ed8">inference</text>
    <rect x="436.5" y="268.0" width="87.0" height="24.0" rx="6" fill="#dcfce7" stroke="#ffffff" stroke-width="2"/>
    <text x="480.0" y="284.0" text-anchor="middle" font-family="Inter, ui-sans-serif, system-ui, -apple-system, BlinkMacSystemFont, 'Segoe UI', sans-serif" font-size="12" font-weight="600" fill="#166534">job result</text>
    <text x="120.0" y="156.0" text-anchor="middle" font-family="Inter, ui-sans-serif, system-ui, -apple-system, BlinkMacSystemFont, 'Segoe UI', sans-serif" font-size="18" font-weight="600" fill="#111827">Client App</text>
    <text x="120.0" y="178.0" text-anchor="middle" font-family="Inter, ui-sans-serif, system-ui, -apple-system, BlinkMacSystemFont, 'Segoe UI', sans-serif" font-size="13" font-weight="500" fill="#475569">Browser or mobile UI</text>
    <text x="360.0" y="156.0" text-anchor="middle" font-family="Inter, ui-sans-serif, system-ui, -apple-system, BlinkMacSystemFont, 'Segoe UI', sans-serif" font-size="18" font-weight="600" fill="#111827">API</text>
    <text x="360.0" y="178.0" text-anchor="middle" font-family="Inter, ui-sans-serif, system-ui, -apple-system, BlinkMacSystemFont, 'Segoe UI', sans-serif" font-size="13" font-weight="500" fill="#475569">Request handler</text>
    <text x="600.0" y="156.0" text-anchor="middle" font-family="Inter, ui-sans-serif, system-ui, -apple-system, BlinkMacSystemFont, 'Segoe UI', sans-serif" font-size="18" font-weight="600" fill="#0f172a">Worker</text>
    <text x="600.0" y="178.0" text-anchor="middle" font-family="Inter, ui-sans-serif, system-ui, -apple-system, BlinkMacSystemFont, 'Segoe UI', sans-serif" font-size="13" font-weight="500" fill="#475569">Async jobs</text>
    <text x="360.0" y="316.0" text-anchor="middle" font-family="Inter, ui-sans-serif, system-ui, -apple-system, BlinkMacSystemFont, 'Segoe UI', sans-serif" font-size="18" font-weight="600" fill="#14532d">Database</text>
    <text x="360.0" y="338.0" text-anchor="middle" font-family="Inter, ui-sans-serif, system-ui, -apple-system, BlinkMacSystemFont, 'Segoe UI', sans-serif" font-size="13" font-weight="500" fill="#475569">Application state</text>
    <text x="600.0" y="316.0" text-anchor="middle" font-family="Inter, ui-sans-serif, system-ui, -apple-system, BlinkMacSystemFont, 'Segoe UI', sans-serif" font-size="18" font-weight="600" fill="#0f172a">LLM Gateway</text>
    <text x="600.0" y="338.0" text-anchor="middle" font-family="Inter, ui-sans-serif, system-ui, -apple-system, BlinkMacSystemFont, 'Segoe UI', sans-serif" font-size="13" font-weight="500" fill="#475569">Model calls</text>
  </g>
</svg>
