<svg xmlns="http://www.w3.org/2000/svg" viewBox="0 0 1200 720" role="img" aria-label="赛博朋克主题封面">
  <defs>
    <linearGradient id="bg" x1="120" y1="60" x2="1060" y2="660" gradientUnits="userSpaceOnUse">
      <stop offset="0" stop-color="#050C16"/>
      <stop offset="0.42" stop-color="#07111E"/>
      <stop offset="1" stop-color="#160917"/>
    </linearGradient>
    <radialGradient id="cyanGlow" cx="0" cy="0" r="1" gradientTransform="translate(920 170) rotate(90) scale(280 420)" gradientUnits="userSpaceOnUse">
      <stop offset="0" stop-color="#35E8FF" stop-opacity="0.36"/>
      <stop offset="1" stop-color="#35E8FF" stop-opacity="0"/>
    </radialGradient>
    <radialGradient id="pinkGlow" cx="0" cy="0" r="1" gradientTransform="translate(250 580) rotate(90) scale(240 380)" gradientUnits="userSpaceOnUse">
      <stop offset="0" stop-color="#FF41D0" stop-opacity="0.28"/>
      <stop offset="1" stop-color="#FF41D0" stop-opacity="0"/>
    </radialGradient>
    <linearGradient id="frame" x1="140" y1="90" x2="980" y2="620" gradientUnits="userSpaceOnUse">
      <stop offset="0" stop-color="#35E8FF"/>
      <stop offset="0.58" stop-color="#86F3FF"/>
      <stop offset="1" stop-color="#FF41D0"/>
    </linearGradient>
    <filter id="glow" x="-20%" y="-20%" width="160%" height="160%">
      <feGaussianBlur stdDeviation="10" result="blur"/>
      <feMerge>
        <feMergeNode in="blur"/>
        <feMergeNode in="SourceGraphic"/>
      </feMerge>
    </filter>
  </defs>
  <rect width="1200" height="720" fill="url(#bg)"/>
  <rect width="1200" height="720" fill="url(#cyanGlow)"/>
  <rect width="1200" height="720" fill="url(#pinkGlow)"/>
  <g opacity="0.18">
    <path d="M0 94 H1200 M0 188 H1200 M0 282 H1200 M0 376 H1200 M0 470 H1200 M0 564 H1200" stroke="#35E8FF" stroke-width="1"/>
    <path d="M110 0 V720 M220 0 V720 M330 0 V720 M440 0 V720 M550 0 V720 M660 0 V720 M770 0 V720 M880 0 V720 M990 0 V720 M1100 0 V720" stroke="#35E8FF" stroke-width="1"/>
  </g>
  <path d="M118 132 L184 68 H1012 L1084 140 V522 L1004 602 H180 L118 540 Z" fill="rgba(7,14,25,0.6)" stroke="url(#frame)" stroke-width="8"/>
  <path d="M160 178 H548 L602 236 V522 H160 Z" fill="rgba(5,11,20,0.72)" stroke="rgba(255,255,255,0.08)" stroke-width="2"/>
  <path d="M206 250 H490" stroke="#35E8FF" stroke-width="14" stroke-linecap="round" filter="url(#glow)"/>
  <path d="M206 292 H432" stroke="#86F3FF" stroke-width="8" stroke-linecap="round"/>
  <path d="M206 334 H350" stroke="#FF41D0" stroke-width="10" stroke-linecap="round" filter="url(#glow)"/>
  <text x="206" y="430" fill="#F3FCFF" font-size="92" font-weight="700" font-family="Arial, sans-serif">赛博朋克主题</text>
  <text x="208" y="486" fill="#8FC8EF" font-size="28" letter-spacing="4" font-family="Arial, sans-serif">OPENCLAW CHAT + DREAM UI KIT</text>
  <text x="208" y="536" fill="#D9F5FF" font-size="24" font-family="Arial, sans-serif">可替换主助手 / Tool / 用户头像，以及聊天与梦境背景。</text>
  <path d="M698 164 L748 116 H1004 L1050 162 V522 L994 578 H742 L698 534 Z" fill="rgba(8,14,24,0.8)" stroke="rgba(122,232,255,0.26)" stroke-width="2"/>
  <path d="M742 214 L780 178 H958 L994 214 V476 L952 520 H742 Z" fill="rgba(10,18,31,0.82)" stroke="url(#frame)" stroke-width="6" filter="url(#glow)"/>
  <path d="M776 250 H944" stroke="#35E8FF" stroke-width="10" stroke-linecap="round"/>
  <path d="M776 286 H914" stroke="#FF41D0" stroke-width="8" stroke-linecap="round"/>
  <path d="M776 324 H888" stroke="#9CEEFF" stroke-width="6" stroke-linecap="round"/>
  <circle cx="956" cy="174" r="10" fill="#35E8FF" filter="url(#glow)"/>
  <path d="M774 394 H968" stroke="#35E8FF" stroke-width="2" opacity="0.7"/>
  <path d="M774 434 H914" stroke="#FF41D0" stroke-width="2" opacity="0.7"/>
  <path d="M774 474 H882" stroke="#9CEEFF" stroke-width="2" opacity="0.7"/>
</svg>
