<svg width="1280" height="400" viewBox="0 0 1280 400" xmlns="http://www.w3.org/2000/svg">
  <defs>
    <linearGradient id="bg" x1="0%" y1="0%" x2="100%" y2="100%">
      <stop offset="0%" style="stop-color:#0d1117"/>
      <stop offset="100%" style="stop-color:#161b22"/>
    </linearGradient>
    <linearGradient id="accent" x1="0%" y1="0%" x2="100%" y2="0%">
      <stop offset="0%" style="stop-color:#EC4899"/>
      <stop offset="100%" style="stop-color:#db2777"/>
    </linearGradient>
    <linearGradient id="glow" x1="0%" y1="0%" x2="100%" y2="100%">
      <stop offset="0%" style="stop-color:#EC489920"/>
      <stop offset="100%" style="stop-color:#db277700"/>
    </linearGradient>
  </defs>
  <rect width="1280" height="400" fill="url(#bg)"/>
  <ellipse cx="200" cy="200" rx="300" ry="200" fill="url(#glow)"/>
  <g opacity="0.04" stroke="#ffffff" stroke-width="1">
    <line x1="0" y1="80" x2="1280" y2="80"/><line x1="0" y1="160" x2="1280" y2="160"/>
    <line x1="0" y1="240" x2="1280" y2="240"/><line x1="0" y1="320" x2="1280" y2="320"/>
    <line x1="160" y1="0" x2="160" y2="400"/><line x1="320" y1="0" x2="320" y2="400"/>
    <line x1="480" y1="0" x2="480" y2="400"/><line x1="640" y1="0" x2="640" y2="400"/>
    <line x1="800" y1="0" x2="800" y2="400"/><line x1="960" y1="0" x2="960" y2="400"/>
    <line x1="1120" y1="0" x2="1120" y2="400"/>
  </g>
  <rect x="0" y="0" width="1280" height="3" fill="url(#accent)"/>
  <!-- Geometric shapes - enterprise feel -->
  <rect x="920" y="80" width="200" height="120" rx="6" fill="none" stroke="#EC4899" stroke-width="1" opacity="0.2"/>
  <rect x="940" y="100" width="160" height="80" rx="4" fill="#EC489908"/>
  <rect x="960" y="240" width="140" height="80" rx="6" fill="none" stroke="#EC4899" stroke-width="1" opacity="0.15"/>
  <line x1="1020" y1="200" x2="1030" y2="240" stroke="#EC4899" stroke-width="1" opacity="0.25"/>
  <circle cx="1020" cy="200" r="4" fill="#EC4899" opacity="0.7"/>
  <circle cx="1030" cy="240" r="3" fill="#EC4899" opacity="0.5"/>
  <rect x="1120" y="130" width="100" height="60" rx="6" fill="none" stroke="#db2777" stroke-width="1" opacity="0.15"/>
  <!-- Badge -->
  <rect x="80" y="100" width="130" height="28" rx="14" fill="#EC489920" stroke="#EC4899" stroke-width="1"/>
  <text x="145" y="119" font-family="monospace" font-size="12" fill="#EC4899" text-anchor="middle">SKILL.md</text>
  <!-- Title -->
  <text x="80" y="200" font-family="-apple-system, BlinkMacSystemFont, 'Segoe UI', sans-serif" font-size="52" font-weight="700" fill="#ffffff" letter-spacing="-1">Web3 B2B</text>
  <text x="80" y="258" font-family="-apple-system, BlinkMacSystemFont, 'Segoe UI', sans-serif" font-size="52" font-weight="700" fill="#EC4899" letter-spacing="-1">Positioning</text>
  <text x="80" y="310" font-family="-apple-system, BlinkMacSystemFont, 'Segoe UI', sans-serif" font-size="18" fill="#8b949e">Position and sell blockchain products to enterprise buyers — in their language</text>
  <rect x="80" y="340" width="88" height="24" rx="12" fill="#EC489910" stroke="#EC489940" stroke-width="1"/>
  <text x="124" y="357" font-family="monospace" font-size="11" fill="#EC4899" text-anchor="middle">6 modules</text>
  <rect x="180" y="340" width="130" height="24" rx="12" fill="#EC489910" stroke="#EC489940" stroke-width="1"/>
  <text x="245" y="357" font-family="monospace" font-size="11" fill="#EC4899" text-anchor="middle">Enterprise ready</text>
  <rect x="322" y="340" width="100" height="24" rx="12" fill="#EC489910" stroke="#EC489940" stroke-width="1"/>
  <text x="372" y="357" font-family="monospace" font-size="11" fill="#EC4899" text-anchor="middle">OpenClaw</text>
</svg>
