<svg width="1280" height="400" viewBox="0 0 1280 400" xmlns="http://www.w3.org/2000/svg">
  <defs>
    <linearGradient id="bg" x1="0%" y1="0%" x2="100%" y2="100%">
      <stop offset="0%" style="stop-color:#0d1117"/>
      <stop offset="100%" style="stop-color:#161b22"/>
    </linearGradient>
    <linearGradient id="accent" x1="0%" y1="0%" x2="100%" y2="0%">
      <stop offset="0%" style="stop-color:#F59E0B"/>
      <stop offset="100%" style="stop-color:#d97706"/>
    </linearGradient>
    <linearGradient id="glow" x1="0%" y1="0%" x2="100%" y2="100%">
      <stop offset="0%" style="stop-color:#F59E0B20"/>
      <stop offset="100%" style="stop-color:#d9770600"/>
    </linearGradient>
  </defs>
  <rect width="1280" height="400" fill="url(#bg)"/>
  <ellipse cx="200" cy="200" rx="300" ry="200" fill="url(#glow)"/>
  <g opacity="0.04" stroke="#ffffff" stroke-width="1">
    <line x1="0" y1="80" x2="1280" y2="80"/><line x1="0" y1="160" x2="1280" y2="160"/>
    <line x1="0" y1="240" x2="1280" y2="240"/><line x1="0" y1="320" x2="1280" y2="320"/>
    <line x1="160" y1="0" x2="160" y2="400"/><line x1="320" y1="0" x2="320" y2="400"/>
    <line x1="480" y1="0" x2="480" y2="400"/><line x1="640" y1="0" x2="640" y2="400"/>
    <line x1="800" y1="0" x2="800" y2="400"/><line x1="960" y1="0" x2="960" y2="400"/>
    <line x1="1120" y1="0" x2="1120" y2="400"/>
  </g>
  <rect x="0" y="0" width="1280" height="3" fill="url(#accent)"/>
  <!-- Audio waveform decoration -->
  <g opacity="0.7" transform="translate(900, 200)">
    <rect x="0" y="-15" width="10" height="30" rx="5" fill="#F59E0B" opacity="0.4"/>
    <rect x="18" y="-35" width="10" height="70" rx="5" fill="#F59E0B" opacity="0.6"/>
    <rect x="36" y="-55" width="10" height="110" rx="5" fill="#F59E0B" opacity="0.85"/>
    <rect x="54" y="-40" width="10" height="80" rx="5" fill="#F59E0B" opacity="0.7"/>
    <rect x="72" y="-65" width="10" height="130" rx="5" fill="#F59E0B" opacity="0.95"/>
    <rect x="90" y="-45" width="10" height="90" rx="5" fill="#d97706" opacity="0.75"/>
    <rect x="108" y="-30" width="10" height="60" rx="5" fill="#F59E0B" opacity="0.6"/>
    <rect x="126" y="-50" width="10" height="100" rx="5" fill="#F59E0B" opacity="0.8"/>
    <rect x="144" y="-25" width="10" height="50" rx="5" fill="#F59E0B" opacity="0.55"/>
    <rect x="162" y="-60" width="10" height="120" rx="5" fill="#F59E0B" opacity="0.9"/>
    <rect x="180" y="-35" width="10" height="70" rx="5" fill="#d97706" opacity="0.65"/>
    <rect x="198" y="-20" width="10" height="40" rx="5" fill="#F59E0B" opacity="0.5"/>
    <rect x="216" y="-45" width="10" height="90" rx="5" fill="#F59E0B" opacity="0.75"/>
    <rect x="234" y="-55" width="10" height="110" rx="5" fill="#F59E0B" opacity="0.85"/>
    <rect x="252" y="-30" width="10" height="60" rx="5" fill="#d97706" opacity="0.6"/>
    <rect x="270" y="-15" width="10" height="30" rx="5" fill="#F59E0B" opacity="0.4"/>
  </g>
  <!-- Badge -->
  <rect x="80" y="100" width="130" height="28" rx="14" fill="#F59E0B20" stroke="#F59E0B" stroke-width="1"/>
  <text x="145" y="119" font-family="monospace" font-size="12" fill="#F59E0B" text-anchor="middle">SKILL.md</text>
  <!-- Title -->
  <text x="80" y="200" font-family="-apple-system, BlinkMacSystemFont, 'Segoe UI', sans-serif" font-size="52" font-weight="700" fill="#ffffff" letter-spacing="-1">Podcast Production</text>
  <text x="80" y="258" font-family="-apple-system, BlinkMacSystemFont, 'Segoe UI', sans-serif" font-size="52" font-weight="700" fill="#F59E0B" letter-spacing="-1">Workflow</text>
  <text x="80" y="310" font-family="-apple-system, BlinkMacSystemFont, 'Segoe UI', sans-serif" font-size="18" fill="#8b949e">Plan, produce, distribute, and repurpose podcast content — 1 episode → 10 pieces</text>
  <rect x="80" y="340" width="88" height="24" rx="12" fill="#F59E0B10" stroke="#F59E0B40" stroke-width="1"/>
  <text x="124" y="357" font-family="monospace" font-size="11" fill="#F59E0B" text-anchor="middle">6 modules</text>
  <rect x="180" y="340" width="120" height="24" rx="12" fill="#F59E0B10" stroke="#F59E0B40" stroke-width="1"/>
  <text x="240" y="357" font-family="monospace" font-size="11" fill="#F59E0B" text-anchor="middle">1 ep → 10 pieces</text>
  <rect x="312" y="340" width="100" height="24" rx="12" fill="#F59E0B10" stroke="#F59E0B40" stroke-width="1"/>
  <text x="362" y="357" font-family="monospace" font-size="11" fill="#F59E0B" text-anchor="middle">OpenClaw</text>
</svg>
