<svg xmlns="http://www.w3.org/2000/svg" width="48" height="48" fill="none"><path fill="url(#id5591e-id1bc18-paint0_linear_62220_751)" d="M5 10a5 5 0 0 1 5-5h28a5 5 0 0 1 5 5v19.703C38.969 30.516 40.761 43 38 43H10a5 5 0 0 1-5-5z"/><path fill="url(#id5591e-id1bc18-paint1_radial_62220_751)" fill-opacity=".2" d="M5 10a5 5 0 0 1 5-5h28a5 5 0 0 1 5 5v19.703C38.969 30.516 40.761 43 38 43H10a5 5 0 0 1-5-5z"/><path fill="url(#id5591e-id1bc18-paint2_linear_62220_751)" fill-rule="evenodd" d="M38 6H10a4 4 0 0 0-4 4v28a4 4 0 0 0 4 4h28c2.21 0 4-9.353 4-11.562V10a4 4 0 0 0-4-4M10 5a5 5 0 0 0-5 5v28a5 5 0 0 0 5 5h28c2.761 0 2.836-13.04 5-13.422V10a5 5 0 0 0-5-5z" clip-rule="evenodd"/><path fill="url(#id5591e-id1bc18-paint3_linear_62220_751)" d="M31.49 17.57a6 6 0 0 1-1.892 8.962c-.65.351-1.43.135-1.953-.387l-5.79-5.79c-.522-.522-.738-1.303-.388-1.952a6 6 0 0 1 8.962-1.893l2.29-2.29a.75.75 0 1 1 1.061 1.06zM15.28 33.78l2.29-2.29a6 6 0 0 0 8.962-1.893c.351-.649.135-1.43-.387-1.952l-5.79-5.79c-.522-.522-1.303-.738-1.952-.388a6 6 0 0 0-1.893 8.962l-2.29 2.29a.75.75 0 1 0 1.06 1.061"/><path fill="#F5F5F5" d="M41.5 28a1.5 1.5 0 0 1 0 3h-.124l.002.003L41.5 31h4a1.5 1.5 0 0 1 0 3 1.5 1.5 0 0 1 0 3H42v1a8 8 0 0 1-8 8h-.5a1.5 1.5 0 0 1-.157-2.992L33.34 43H30.5a1.5 1.5 0 0 1 0-3 1.5 1.5 0 0 1 0-3H33v-1a8 8 0 0 1 8-8z"/><path fill="url(#id5591e-id1bc18-paint4_linear_62220_751)" d="M35 36a6 6 0 0 1 6-6h.5a.5.5 0 0 0 0-1H41a7 7 0 0 0-7 7v1a1 1 0 0 1-1 1h-2.5a.5.5 0 0 0 0 1H33a2 2 0 0 0 2-2zm6.5-3a3.5 3.5 0 0 0-3.5 3.5v1a4.5 4.5 0 0 1-4.5 4.5h-3a.5.5 0 0 1 0-1h3a3.5 3.5 0 0 0 3.5-3.5v-1a4.5 4.5 0 0 1 4.5-4.5h4a.5.5 0 0 1 0 1zm.5 3a1 1 0 0 0-1 1v1a7 7 0 0 1-7 7h-.5a.5.5 0 0 1 0-1h.5a6 6 0 0 0 6-6v-1a2 2 0 0 1 2-2h3.5a.5.5 0 0 1 0 1z"/><defs><linearGradient id="id5591e-id1bc18-paint0_linear_62220_751" x1="15.556" x2="20.362" y1="5" y2="43.455" gradientUnits="userSpaceOnUse"><stop stop-color="#fff"/><stop offset="1" stop-color="#EBEBEB"/></linearGradient><radialGradient id="id5591e-id1bc18-paint1_radial_62220_751" cx="0" cy="0" r="1" gradientTransform="matrix(20.0556 30.08335 -26.03368 17.3558 17.139 14.896)" gradientUnits="userSpaceOnUse"><stop offset=".177" stop-color="#fff"/><stop offset="1" stop-color="#B8B8B8"/></radialGradient><linearGradient id="id5591e-id1bc18-paint2_linear_62220_751" x1="17.271" x2="22.387" y1="5" y2="43.373" gradientUnits="userSpaceOnUse"><stop stop-color="#BBB"/><stop offset="1" stop-color="#888"/></linearGradient><linearGradient id="id5591e-id1bc18-paint3_linear_62220_751" x1="14" x2="34" y1="14" y2="34" gradientUnits="userSpaceOnUse"><stop stop-color="#4BA446"/><stop offset="1" stop-color="#3F7D35"/></linearGradient><linearGradient id="id5591e-id1bc18-paint4_linear_62220_751" x1="30" x2="46" y1="29" y2="45" gradientUnits="userSpaceOnUse"><stop stop-color="#4BA446"/><stop offset="1" stop-color="#3F7D35"/></linearGradient></defs></svg>