<svg xmlns="http://www.w3.org/2000/svg" width="48" height="48" fill="currentColor"><path fill="url(#i193093-a)" d="M5 10a5 5 0 0 1 5-5h28a5 5 0 0 1 5 5v28a5 5 0 0 1-5 5H10a5 5 0 0 1-5-5z"/><path fill="url(#i193093-b)" fill-opacity=".2" d="M5 10a5 5 0 0 1 5-5h28a5 5 0 0 1 5 5v28a5 5 0 0 1-5 5H10a5 5 0 0 1-5-5z"/><path fill="url(#i193093-c)" fill-rule="evenodd" d="M38 6H10a4 4 0 0 0-4 4v28a4 4 0 0 0 4 4h28a4 4 0 0 0 4-4V10a4 4 0 0 0-4-4M10 5a5 5 0 0 0-5 5v28a5 5 0 0 0 5 5h28a5 5 0 0 0 5-5V10a5 5 0 0 0-5-5z" clip-rule="evenodd"/><path fill="url(#i193093-d)" d="M18.5 33a4.5 4.5 0 0 0 4.5-4.5V24h2v4.53a4.5 4.5 0 0 0 9-.03v-.436q0-.137-.026-.272l-1.953-9.898A3.59 3.59 0 0 0 28.5 15a3.5 3.5 0 0 0-3.5 3.5V20h-2v-1.5a3.5 3.5 0 0 0-3.5-3.5 3.42 3.42 0 0 0-3.348 2.716L14.03 27.779a1.4 1.4 0 0 0-.03.289v.432a4.5 4.5 0 0 0 4.5 4.5m0-1.5a3 3 0 1 1 0-6 3 3 0 0 1 0 6m11-6a3 3 0 0 1 3 3v.02a3 3 0 1 1-3-3.02"/><defs><linearGradient id="i193093-a" x1="15.556" x2="20.362" y1="5" y2="43.455" gradientUnits="userSpaceOnUse"><stop stop-color="#fff"/><stop offset="1" stop-color="#EBEBEB"/></linearGradient><linearGradient id="i193093-c" x1="17.271" x2="22.387" y1="5" y2="43.373" gradientUnits="userSpaceOnUse"><stop stop-color="#BBB"/><stop offset="1" stop-color="#888"/></linearGradient><linearGradient id="i193093-d" x1="14" x2="31.901" y1="15" y2="34.889" gradientUnits="userSpaceOnUse"><stop stop-color="#C28400"/><stop offset="1" stop-color="#A86500"/></linearGradient><radialGradient id="i193093-b" cx="0" cy="0" r="1" gradientTransform="rotate(56.31 -5.347 23.46)scale(36.1557 31.2886)" gradientUnits="userSpaceOnUse"><stop offset=".177" stop-color="#fff"/><stop offset="1" stop-color="#B8B8B8"/></radialGradient></defs></svg>