<svg xmlns="http://www.w3.org/2000/svg" width="48" height="48" fill="none"><path fill="url(#i0d02f7-i389858-paint0_linear_62220_656)" d="M10 11a5 5 0 0 1 5-5h21a5 5 0 0 1 5 5v26a8 8 0 0 1-8 8H15a5 5 0 0 1-5-5z"/><path fill="url(#i0d02f7-i389858-paint1_radial_62220_656)" fill-opacity=".2" d="M10 11a5 5 0 0 1 5-5h21a5 5 0 0 1 5 5v26a8 8 0 0 1-8 8H15a5 5 0 0 1-5-5z"/><path fill="url(#i0d02f7-i389858-paint2_linear_62220_656)" fill-rule="evenodd" d="M36 7H15a4 4 0 0 0-4 4v29a4 4 0 0 0 4 4h18a7 7 0 0 0 7-7V11a4 4 0 0 0-4-4M15 6a5 5 0 0 0-5 5v29a5 5 0 0 0 5 5h18a8 8 0 0 0 8-8V11a5 5 0 0 0-5-5z" clip-rule="evenodd"/><path fill="url(#i0d02f7-i389858-paint3_linear_62220_656)" d="M7.25 8a5 5 0 0 1 5-5h21a5 5 0 0 1 5 5v29a5 5 0 0 1-5 5h-21a5 5 0 0 1-5-5z"/><path fill="url(#i0d02f7-i389858-paint4_radial_62220_656)" fill-opacity=".2" d="M7.25 8a5 5 0 0 1 5-5h21a5 5 0 0 1 5 5v29a5 5 0 0 1-5 5h-21a5 5 0 0 1-5-5z"/><path fill="url(#i0d02f7-i389858-paint5_linear_62220_656)" fill-rule="evenodd" d="M33 4H12a4 4 0 0 0-4 4v29a4 4 0 0 0 4 4h21a4 4 0 0 0 4-4V8a4 4 0 0 0-4-4M12 3a5 5 0 0 0-5 5v29a5 5 0 0 0 5 5h21a5 5 0 0 0 5-5V8a5 5 0 0 0-5-5z" clip-rule="evenodd"/><path fill="url(#i0d02f7-i389858-paint6_linear_62220_656)" fill-rule="evenodd" d="M22.5 9.5a2.25 2.25 0 0 1 2.236 2.487l5.818 3.359A2.25 2.25 0 1 1 31.75 19.5q-.165-.002-.323-.026L29.68 22.5l1.747 3.025q.157-.024.322-.025a2.25 2.25 0 1 1-1.196 4.153l-5.817 3.359q.012.116.013.236a2.25 2.25 0 1 1-4.487-.237l-5.817-3.358a2.25 2.25 0 1 1-.874-4.128L15.32 22.5l-1.747-3.026a2 2 0 0 1-.322.026 2.25 2.25 0 1 1 1.195-4.153l5.818-3.359A2.25 2.25 0 0 1 22.5 9.5m-7.027 17.922c.015.107.027.216.027.328 0 .25-.043.488-.118.712l5.068 2.926-2.96-5.13zm9.076 3.966 5.068-2.926a2.3 2.3 0 0 1-.117-.712q.001-.167.026-.328l-2.015-1.163zm-5.76-5.88 2.961 5.129v-6.019a2.2 2.2 0 0 1-.71-.409zm5.17-1.299a2.2 2.2 0 0 1-.709.41v6.018l2.96-5.128zm-8.882 1.71 1.662-.959-.553-.96zm13.184-.96 1.662.96L28.815 24zM17.05 22.5l.988 1.71 2.25-1.3a2.3 2.3 0 0 1-.039-.411q.001-.208.038-.405l-2.254-1.296zm7.66-.406q.038.196.039.405-.001.21-.04.41l2.252 1.3.986-1.709-.983-1.703zm-8.525-1.095.546-.95-1.64-.943zm12.08-.95.549.95 1.092-1.893zm-5.26-6.109a2.3 2.3 0 0 1-.506.06q-.262-.002-.508-.06l-3.208 5.558 2.251 1.294a2.24 2.24 0 0 1 2.929.001l2.25-1.295zm-7.624 2.597c.075.224.118.463.118.713q-.002.174-.03.343l2.013 1.157 2.967-5.139zm12.134 2.213 2.012-1.157a2.25 2.25 0 0 1 .089-1.056l-5.068-2.926z" clip-rule="evenodd"/><defs><linearGradient id="i0d02f7-i389858-paint0_linear_62220_656" x1="18.611" x2="24.762" y1="6" y2="45.116" gradientUnits="userSpaceOnUse"><stop stop-color="#fff"/><stop offset="1" stop-color="#EBEBEB"/></linearGradient><radialGradient id="i0d02f7-i389858-paint1_radial_62220_656" cx="0" cy="0" r="1" gradientTransform="rotate(62.08 -3.472 24.614)scale(34.9421 27.1064)" gradientUnits="userSpaceOnUse"><stop offset=".177" stop-color="#fff"/><stop offset="1" stop-color="#B8B8B8"/></radialGradient><linearGradient id="i0d02f7-i389858-paint2_linear_62220_656" x1="20.01" x2="26.55" y1="6" y2="44.986" gradientUnits="userSpaceOnUse"><stop stop-color="#BBB"/><stop offset="1" stop-color="#888"/></linearGradient><linearGradient id="i0d02f7-i389858-paint3_linear_62220_656" x1="15.861" x2="22.012" y1="3" y2="42.116" gradientUnits="userSpaceOnUse"><stop stop-color="#fff"/><stop offset="1" stop-color="#EBEBEB"/></linearGradient><radialGradient id="i0d02f7-i389858-paint4_radial_62220_656" cx="0" cy="0" r="1" gradientTransform="rotate(62.08 -2.354 20.829)scale(34.9421 27.1064)" gradientUnits="userSpaceOnUse"><stop offset=".177" stop-color="#fff"/><stop offset="1" stop-color="#B8B8B8"/></radialGradient><linearGradient id="i0d02f7-i389858-paint5_linear_62220_656" x1="17.01" x2="23.55" y1="3" y2="41.986" gradientUnits="userSpaceOnUse"><stop stop-color="#BBB"/><stop offset="1" stop-color="#888"/></linearGradient><linearGradient id="i0d02f7-i389858-paint6_linear_62220_656" x1="11" x2="36.804" y1="9.5" y2="32.328" gradientUnits="userSpaceOnUse"><stop stop-color="#4BA446"/><stop offset="1" stop-color="#3F7D35"/></linearGradient></defs></svg>