<svg xmlns="http://www.w3.org/2000/svg" width="48" height="48" fill="none"><path fill="url(#i560c2b-i8a48a9-paint0_linear_62220_698)" d="M5 10a5 5 0 0 1 5-5h28a5 5 0 0 1 5 5v28a5 5 0 0 1-5 5H10a5 5 0 0 1-5-5z"/><path fill="url(#i560c2b-i8a48a9-paint1_radial_62220_698)" fill-opacity=".2" d="M5 10a5 5 0 0 1 5-5h28a5 5 0 0 1 5 5v28a5 5 0 0 1-5 5H10a5 5 0 0 1-5-5z"/><path fill="url(#i560c2b-i8a48a9-paint2_linear_62220_698)" fill-rule="evenodd" d="M38 6H10a4 4 0 0 0-4 4v28a4 4 0 0 0 4 4h28a4 4 0 0 0 4-4V10a4 4 0 0 0-4-4M10 5a5 5 0 0 0-5 5v28a5 5 0 0 0 5 5h28a5 5 0 0 0 5-5V10a5 5 0 0 0-5-5z" clip-rule="evenodd"/><path fill="url(#i560c2b-i8a48a9-paint3_linear_62220_698)" fill-rule="evenodd" d="M24 11a2.25 2.25 0 0 1 2.236 2.487l5.818 3.359A2.25 2.25 0 1 1 33.25 21q-.165-.002-.323-.026L31.18 24l1.747 3.025q.158-.024.322-.025a2.25 2.25 0 1 1-1.196 4.153l-5.817 3.359q.012.116.013.236a2.25 2.25 0 1 1-4.487-.237l-5.817-3.358a2.25 2.25 0 1 1-.874-4.128L16.82 24l-1.747-3.026a2 2 0 0 1-.322.026 2.25 2.25 0 1 1 1.195-4.153l5.818-3.359A2.25 2.25 0 0 1 24 11m-7.027 17.922c.015.107.027.216.027.328 0 .25-.043.488-.118.712l5.068 2.926-2.96-5.13zm9.076 3.966 5.068-2.926A2.3 2.3 0 0 1 31 29.25q.001-.167.026-.328l-2.015-1.163zm-5.76-5.88 2.961 5.129v-6.019a2.2 2.2 0 0 1-.71-.409zm5.17-1.299a2.2 2.2 0 0 1-.709.41v6.018l2.96-5.128zm-8.882 1.71 1.662-.959-.553-.96zm13.184-.96 1.662.96-1.108-1.919zM18.55 24l.988 1.71 2.25-1.3a2.3 2.3 0 0 1-.038-.41q.001-.208.038-.405l-2.254-1.296zm7.66-.406q.038.196.039.405-.001.21-.04.41l2.252 1.3.986-1.709-.983-1.703zm-8.525-1.095.546-.95-1.64-.943zm12.08-.95.549.95 1.092-1.893zm-5.26-6.109a2.3 2.3 0 0 1-.506.06q-.262-.002-.508-.06l-3.208 5.558 2.251 1.294a2.24 2.24 0 0 1 2.929.001l2.25-1.295zm-7.624 2.597c.075.224.118.463.118.713q-.002.174-.03.343l2.013 1.157 2.967-5.139zm12.134 2.213 2.012-1.157a2.25 2.25 0 0 1 .089-1.056l-5.068-2.926z" clip-rule="evenodd"/><defs><linearGradient id="i560c2b-i8a48a9-paint0_linear_62220_698" x1="15.556" x2="20.362" y1="5" y2="43.455" gradientUnits="userSpaceOnUse"><stop stop-color="#fff"/><stop offset="1" stop-color="#EBEBEB"/></linearGradient><radialGradient id="i560c2b-i8a48a9-paint1_radial_62220_698" cx="0" cy="0" r="1" gradientTransform="matrix(20.0556 30.08335 -26.03368 17.3558 17.139 14.896)" gradientUnits="userSpaceOnUse"><stop offset=".177" stop-color="#fff"/><stop offset="1" stop-color="#B8B8B8"/></radialGradient><linearGradient id="i560c2b-i8a48a9-paint2_linear_62220_698" x1="17.271" x2="22.387" y1="5" y2="43.373" gradientUnits="userSpaceOnUse"><stop stop-color="#BBB"/><stop offset="1" stop-color="#888"/></linearGradient><linearGradient id="i560c2b-i8a48a9-paint3_linear_62220_698" x1="12.5" x2="38.304" y1="11" y2="33.828" gradientUnits="userSpaceOnUse"><stop stop-color="#7751B8"/><stop offset="1" stop-color="#5A409C"/></linearGradient></defs></svg>