<svg xmlns="http://www.w3.org/2000/svg" width="48" height="48" fill="none"><path fill="url(#i3c0eb8-i97d568-paint0_linear_62917_1962)" d="M5 10a5 5 0 0 1 5-5h28a5 5 0 0 1 5 5v28a5 5 0 0 1-5 5H10a5 5 0 0 1-5-5z"/><path fill="url(#i3c0eb8-i97d568-paint1_radial_62917_1962)" fill-opacity=".2" d="M5 10a5 5 0 0 1 5-5h28a5 5 0 0 1 5 5v28a5 5 0 0 1-5 5H10a5 5 0 0 1-5-5z"/><path fill="url(#i3c0eb8-i97d568-paint2_linear_62917_1962)" fill-rule="evenodd" d="M38 6H10a4 4 0 0 0-4 4v28a4 4 0 0 0 4 4h28a4 4 0 0 0 4-4V10a4 4 0 0 0-4-4M10 5a5 5 0 0 0-5 5v28a5 5 0 0 0 5 5h28a5 5 0 0 0 5-5V10a5 5 0 0 0-5-5z" clip-rule="evenodd"/><path fill="url(#i3c0eb8-i97d568-paint3_linear_62917_1962)" fill-rule="evenodd" d="M17.219 14a.75.75 0 0 1 .75.75v18.5a.75.75 0 0 1-1.5 0v-18.5a.75.75 0 0 1 .75-.75m6.031 19.25v-13.5a.75.75 0 0 1 1.5 0v13.5a.75.75 0 0 1-1.5 0m8.281-7.5a.75.75 0 1 0-1.5 0v7.5a.75.75 0 0 0 1.5 0z" clip-rule="evenodd"/><path fill="#F5F5F5" fill-rule="evenodd" d="M43 30a3 3 0 0 1 3 3v11a3 3 0 0 1-3 3h-6a3 3 0 0 1-2.996-2.846L34 44V33a3 3 0 0 1 3-3z" clip-rule="evenodd"/><rect width="10" height="15" x="35" y="31" fill="url(#i3c0eb8-i97d568-paint4_linear_62917_1962)" rx="2"/><path fill="#F5F5F5" d="M41.375 42.693a.5.5 0 1 1 0 1h-2.75a.5.5 0 1 1 0-1z"/><defs><linearGradient id="i3c0eb8-i97d568-paint0_linear_62917_1962" x1="15.556" x2="20.362" y1="5" y2="43.455" gradientUnits="userSpaceOnUse"><stop stop-color="#fff"/><stop offset="1" stop-color="#EBEBEB"/></linearGradient><radialGradient id="i3c0eb8-i97d568-paint1_radial_62917_1962" cx="0" cy="0" r="1" gradientTransform="matrix(20.0556 30.0833 -30.0833 11.2812 17.139 14.896)" gradientUnits="userSpaceOnUse"><stop offset=".177" stop-color="#fff"/><stop offset="1" stop-color="#B8B8B8"/></radialGradient><linearGradient id="i3c0eb8-i97d568-paint2_linear_62917_1962" x1="17.271" x2="22.387" y1="5" y2="43.373" gradientUnits="userSpaceOnUse"><stop stop-color="#BBB"/><stop offset="1" stop-color="#888"/></linearGradient><linearGradient id="i3c0eb8-i97d568-paint3_linear_62917_1962" x1="16.469" x2="35.691" y1="14" y2="28.477" gradientUnits="userSpaceOnUse"><stop stop-color="#C28400"/><stop offset="1" stop-color="#A86500"/></linearGradient><linearGradient id="i3c0eb8-i97d568-paint4_linear_62917_1962" x1="35" x2="48.846" y1="31" y2="40.231" gradientUnits="userSpaceOnUse"><stop stop-color="#C28400"/><stop offset="1" stop-color="#A86500"/></linearGradient></defs></svg>