<svg xmlns="http://www.w3.org/2000/svg" width="48" height="48" fill="currentColor"><path fill="url(#ie64e10-a)" d="M10 11a5 5 0 0 1 5-5h21a5 5 0 0 1 5 5v26a8 8 0 0 1-8 8H15a5 5 0 0 1-5-5z"/><path fill="url(#ie64e10-b)" fill-opacity=".2" d="M10 11a5 5 0 0 1 5-5h21a5 5 0 0 1 5 5v26a8 8 0 0 1-8 8H15a5 5 0 0 1-5-5z"/><path fill="url(#ie64e10-c)" fill-rule="evenodd" d="M36 7H15a4 4 0 0 0-4 4v29a4 4 0 0 0 4 4h18a7 7 0 0 0 7-7V11a4 4 0 0 0-4-4M15 6a5 5 0 0 0-5 5v29a5 5 0 0 0 5 5h18a8 8 0 0 0 8-8V11a5 5 0 0 0-5-5z" clip-rule="evenodd"/><path fill="url(#ie64e10-d)" d="M7 8a5 5 0 0 1 5-5h21a5 5 0 0 1 5 5v29a5 5 0 0 1-5 5H12a5 5 0 0 1-5-5z"/><path fill="url(#ie64e10-e)" fill-opacity=".2" d="M7 8a5 5 0 0 1 5-5h21a5 5 0 0 1 5 5v29a5 5 0 0 1-5 5H12a5 5 0 0 1-5-5z"/><path fill="url(#ie64e10-f)" fill-rule="evenodd" d="M33 4H12a4 4 0 0 0-4 4v29a4 4 0 0 0 4 4h21a4 4 0 0 0 4-4V8a4 4 0 0 0-4-4M12 3a5 5 0 0 0-5 5v29a5 5 0 0 0 5 5h21a5 5 0 0 0 5-5V8a5 5 0 0 0-5-5z" clip-rule="evenodd"/><path fill="url(#ie64e10-g)" d="M13.5 11a1.5 1.5 0 0 0-1.5 1.5v6a1.5 1.5 0 0 0 1.5 1.5h6a1.5 1.5 0 0 0 1.5-1.5v-6a1.5 1.5 0 0 0-1.5-1.5z"/><path fill="url(#ie64e10-h)" d="M24.502 13a.5.5 0 1 0 0 1h8a.5.5 0 0 0 0-1z"/><path fill="url(#ie64e10-i)" d="M24.502 18a.5.5 0 1 0 0 1h8a.5.5 0 0 0 0-1z"/><path fill="url(#ie64e10-j)" d="M12 23.5a.5.5 0 0 1 .5-.5h20a.5.5 0 0 1 0 1h-20a.5.5 0 0 1-.5-.5"/><path fill="url(#ie64e10-k)" d="M12.5 28a.5.5 0 0 0 0 1h20a.5.5 0 0 0 0-1z"/><path fill="url(#ie64e10-l)" d="M12 33.5a.5.5 0 0 1 .5-.5h20a.5.5 0 0 1 0 1h-20a.5.5 0 0 1-.5-.5"/><defs><linearGradient id="ie64e10-a" x1="18.611" x2="24.762" y1="6" y2="45.116" gradientUnits="userSpaceOnUse"><stop stop-color="#fff"/><stop offset="1" stop-color="#EBEBEB"/></linearGradient><linearGradient id="ie64e10-c" x1="20.01" x2="26.55" y1="6" y2="44.986" gradientUnits="userSpaceOnUse"><stop stop-color="#BBB"/><stop offset="1" stop-color="#888"/></linearGradient><linearGradient id="ie64e10-d" x1="15.611" x2="21.762" y1="3" y2="42.116" gradientUnits="userSpaceOnUse"><stop stop-color="#fff"/><stop offset="1" stop-color="#EBEBEB"/></linearGradient><linearGradient id="ie64e10-f" x1="17.01" x2="23.55" y1="3" y2="41.986" gradientUnits="userSpaceOnUse"><stop stop-color="#BBB"/><stop offset="1" stop-color="#888"/></linearGradient><linearGradient id="ie64e10-g" x1="12" x2="34.905" y1="11" y2="31.916" gradientUnits="userSpaceOnUse"><stop stop-color="#C28400"/><stop offset="1" stop-color="#A86500"/></linearGradient><linearGradient id="ie64e10-h" x1="12" x2="34.905" y1="11" y2="31.916" gradientUnits="userSpaceOnUse"><stop stop-color="#C28400"/><stop offset="1" stop-color="#A86500"/></linearGradient><linearGradient id="ie64e10-i" x1="12" x2="34.905" y1="11" y2="31.916" gradientUnits="userSpaceOnUse"><stop stop-color="#C28400"/><stop offset="1" stop-color="#A86500"/></linearGradient><linearGradient id="ie64e10-j" x1="12" x2="34.905" y1="11" y2="31.916" gradientUnits="userSpaceOnUse"><stop stop-color="#C28400"/><stop offset="1" stop-color="#A86500"/></linearGradient><linearGradient id="ie64e10-k" x1="12" x2="34.905" y1="11" y2="31.916" gradientUnits="userSpaceOnUse"><stop stop-color="#C28400"/><stop offset="1" stop-color="#A86500"/></linearGradient><linearGradient id="ie64e10-l" x1="12" x2="34.905" y1="11" y2="31.916" gradientUnits="userSpaceOnUse"><stop stop-color="#C28400"/><stop offset="1" stop-color="#A86500"/></linearGradient><radialGradient id="ie64e10-b" cx="0" cy="0" r="1" gradientTransform="rotate(62.08 -3.472 24.614)scale(34.9421 27.1064)" gradientUnits="userSpaceOnUse"><stop offset=".177" stop-color="#fff"/><stop offset="1" stop-color="#B8B8B8"/></radialGradient><radialGradient id="ie64e10-e" cx="0" cy="0" r="1" gradientTransform="rotate(62.08 -2.48 20.621)scale(34.9421 27.1064)" gradientUnits="userSpaceOnUse"><stop offset=".177" stop-color="#fff"/><stop offset="1" stop-color="#B8B8B8"/></radialGradient></defs></svg>