<svg xmlns="http://www.w3.org/2000/svg" width="48" height="48" fill="none"><path fill="url(#i0f21e6-id44746-paint0_linear_65420_305)" d="M5 10a5 5 0 0 1 5-5h28a5 5 0 0 1 5 5v28a5 5 0 0 1-5 5H10a5 5 0 0 1-5-5z"/><path fill="url(#i0f21e6-id44746-paint1_radial_65420_305)" fill-opacity=".2" d="M5 10a5 5 0 0 1 5-5h28a5 5 0 0 1 5 5v28a5 5 0 0 1-5 5H10a5 5 0 0 1-5-5z"/><path fill="url(#i0f21e6-id44746-paint2_linear_65420_305)" fill-rule="evenodd" d="M38 6H10a4 4 0 0 0-4 4v28a4 4 0 0 0 4 4h28a4 4 0 0 0 4-4V10a4 4 0 0 0-4-4M10 5a5 5 0 0 0-5 5v28a5 5 0 0 0 5 5h28a5 5 0 0 0 5-5V10a5 5 0 0 0-5-5z" clip-rule="evenodd"/><path fill="url(#i0f21e6-id44746-paint3_linear_65420_305)" d="M24 14c1.162 0 2.276.2 3.314.565l-.795.794a9 9 0 1 0 6.046 5.872l.822-.685A10 10 0 0 1 34 24c0 5.523-4.477 10-10 10s-10-4.477-10-10 4.477-10 10-10"/><path fill="url(#i0f21e6-id44746-paint4_linear_65420_305)" d="M24 18q.779.002 1.5.189v1.04a5 5 0 1 0 3.271 3.271h1.04Q30 23.221 30 24a6 6 0 1 1-6-6"/><path fill="url(#i0f21e6-id44746-paint5_linear_65420_305)" d="M29.147 14.147A.5.5 0 0 1 30 14.5V18h3.5a.5.5 0 0 1 .32.884l-3 2.5a.5.5 0 0 1-.32.116h-3.293l-1.855 1.855a1.5 1.5 0 1 1-.707-.707l1.855-1.855V17a.5.5 0 0 1 .146-.354z"/><defs><linearGradient id="i0f21e6-id44746-paint0_linear_65420_305" x1="15.556" x2="20.362" y1="5" y2="43.455" gradientUnits="userSpaceOnUse"><stop stop-color="#fff"/><stop offset="1" stop-color="#EBEBEB"/></linearGradient><radialGradient id="i0f21e6-id44746-paint1_radial_65420_305" cx="0" cy="0" r="1" gradientTransform="matrix(20.0556 30.0833 -30.0833 11.2812 17.139 14.896)" gradientUnits="userSpaceOnUse"><stop offset=".177" stop-color="#fff"/><stop offset="1" stop-color="#B8B8B8"/></radialGradient><linearGradient id="i0f21e6-id44746-paint2_linear_65420_305" x1="17.271" x2="22.387" y1="5" y2="43.373" gradientUnits="userSpaceOnUse"><stop stop-color="#BBB"/><stop offset="1" stop-color="#888"/></linearGradient><linearGradient id="i0f21e6-id44746-paint3_linear_65420_305" x1="14" x2="34" y1="14" y2="34" gradientUnits="userSpaceOnUse"><stop stop-color="#7751B8"/><stop offset="1" stop-color="#5A409C"/></linearGradient><linearGradient id="i0f21e6-id44746-paint4_linear_65420_305" x1="14" x2="34" y1="14" y2="34" gradientUnits="userSpaceOnUse"><stop stop-color="#7751B8"/><stop offset="1" stop-color="#5A409C"/></linearGradient><linearGradient id="i0f21e6-id44746-paint5_linear_65420_305" x1="14" x2="34" y1="14" y2="34" gradientUnits="userSpaceOnUse"><stop stop-color="#7751B8"/><stop offset="1" stop-color="#5A409C"/></linearGradient></defs></svg>