<svg xmlns="http://www.w3.org/2000/svg" width="48" height="48" fill="currentColor"><path fill="url(#ia703e7-i254649-a)" d="M36 6a5 5 0 0 1 5 5v26a8 8 0 0 1-8 8h-2.442v-2.906h-1.875V45H15a5 5 0 0 1-5-5V11a5 5 0 0 1 5-5z"/><path fill="url(#ia703e7-i254649-b)" fill-opacity=".2" d="M36 6a5 5 0 0 1 5 5v26a8 8 0 0 1-8 8h-2.442v-2.906h-1.875V45H15a5 5 0 0 1-5-5V11a5 5 0 0 1 5-5z"/><path fill="url(#ia703e7-i254649-c)" d="M36 6a5 5 0 0 1 5 5v26a8 8 0 0 1-8 8h-2.442v-1H33a7 7 0 0 0 7-7V11a4 4 0 0 0-4-4H15a4 4 0 0 0-4 4v29a4 4 0 0 0 4 4h13.683v1H15a5 5 0 0 1-5-5V11a5 5 0 0 1 5-5z"/><path fill="url(#ia703e7-i254649-d)" d="M7.25 8a5 5 0 0 1 5-5h21a5 5 0 0 1 5 5v29a5 5 0 0 1-5 5h-21a5 5 0 0 1-5-5z"/><path fill="url(#ia703e7-i254649-e)" fill-opacity=".2" d="M7.25 8a5 5 0 0 1 5-5h21a5 5 0 0 1 5 5v29a5 5 0 0 1-5 5h-21a5 5 0 0 1-5-5z"/><path fill="url(#ia703e7-i254649-f)" fill-rule="evenodd" d="M33 4H12a4 4 0 0 0-4 4v29a4 4 0 0 0 4 4h21a4 4 0 0 0 4-4V8a4 4 0 0 0-4-4M12 3a5 5 0 0 0-5 5v29a5 5 0 0 0 5 5h21a5 5 0 0 0 5-5V8a5 5 0 0 0-5-5z" clip-rule="evenodd"/><path fill="url(#ia703e7-i254649-g)" fill-rule="evenodd" d="M16.245 12a.75.75 0 0 1 .75.75v19.5a.75.75 0 0 1-1.5 0v-19.5a.75.75 0 0 1 .75-.75m6.03 20.25v-14.5a.75.75 0 0 1 1.5 0v14.5a.75.75 0 0 1-1.5 0m8.282-8.5a.75.75 0 0 0-1.5 0v8.5a.75.75 0 0 0 1.5 0z" clip-rule="evenodd"/><path fill="#F5F5F5" d="M29.776 36a3.25 3.25 0 0 1 3.25 3.25q0 .065-.004.128l.004-.003V37.5a1.5 1.5 0 0 1 1.5-1.5h1.5c2.208 0 4 1.792 4 4v-2.5a1.5 1.5 0 0 1 1.5-1.5l.155.008a1.5 1.5 0 0 1 1.345 1.492V43h2.501a1.5 1.5 0 0 1 0 3h-4a1.5 1.5 0 0 1-1.5-1.5V42a4 4 0 0 1-3.795 3.995l-.206.005h-1.5a1.5 1.5 0 0 1-1.376-.902 1.5 1.5 0 0 1-1.373.902c-.514 0-.889-.239-1.101-.433a2 2 0 0 1-.386-.499 4 4 0 0 1-.266-.656c-.136-.423-.213-.734-.363-1.114-.136-.347-.263-.556-.371-.673-.081-.088-.139-.113-.204-.121l-.06-.003V44.5a1.5 1.5 0 0 1-3 0v-7a1.5 1.5 0 0 1 1.5-1.5z"/><path fill="url(#ia703e7-i254649-h)" d="M29.776 37a2.248 2.248 0 0 1 .982 4.27c.359.393.599.874.765 1.297.18.456.31.937.405 1.233.04.128.074.214.1.27a.499.499 0 0 1-.252.93.63.63 0 0 1-.425-.17 1 1 0 0 1-.183-.241 3 3 0 0 1-.191-.483c-.116-.36-.22-.755-.385-1.173-.313-.796-.725-1.359-1.423-1.426l-.143-.007h-1v3a.5.5 0 0 1-1 0v-7a.5.5 0 0 1 .5-.5zm6.25 0c1.656 0 3 1.344 3 3v2c0 1.656-1.344 3-3 3h-1.5a.5.5 0 0 1-.5-.5v-7a.5.5 0 0 1 .5-.5zm5.5 0a.5.5 0 0 1 .5.5V44h3.5a.5.5 0 0 1 0 1h-4a.5.5 0 0 1-.5-.5v-7a.5.5 0 0 1 .5-.5m-6.5 7h1a2 2 0 0 0 2-2v-2a2 2 0 0 0-2-2h-1zm-7-3.5h1.75a1.251 1.251 0 0 0 0-2.5h-1.75z"/><defs><linearGradient id="ia703e7-i254649-a" x1="18.611" x2="24.762" y1="6" y2="45.116" gradientUnits="userSpaceOnUse"><stop stop-color="#fff"/><stop offset="1" stop-color="#EBEBEB"/></linearGradient><linearGradient id="ia703e7-i254649-c" x1="20.01" x2="26.55" y1="6" y2="44.986" gradientUnits="userSpaceOnUse"><stop stop-color="#BBB"/><stop offset="1" stop-color="#888"/></linearGradient><linearGradient id="ia703e7-i254649-d" x1="15.861" x2="22.012" y1="3" y2="42.116" gradientUnits="userSpaceOnUse"><stop stop-color="#fff"/><stop offset="1" stop-color="#EBEBEB"/></linearGradient><linearGradient id="ia703e7-i254649-f" x1="17.01" x2="23.55" y1="3" y2="41.986" gradientUnits="userSpaceOnUse"><stop stop-color="#BBB"/><stop offset="1" stop-color="#888"/></linearGradient><linearGradient id="ia703e7-i254649-g" x1="15.495" x2="35.386" y1="12" y2="26.267" gradientUnits="userSpaceOnUse"><stop stop-color="#C28400"/><stop offset="1" stop-color="#A86500"/></linearGradient><linearGradient id="ia703e7-i254649-h" x1="27.026" x2="32.749" y1="37" y2="50.591" gradientUnits="userSpaceOnUse"><stop stop-color="#C28400"/><stop offset="1" stop-color="#A86500"/></linearGradient><radialGradient id="ia703e7-i254649-b" cx="0" cy="0" r="1" gradientTransform="matrix(16.3611 30.875 -24.5417 11.5781 19.903 16.156)" gradientUnits="userSpaceOnUse"><stop offset=".177" stop-color="#fff"/><stop offset="1" stop-color="#B8B8B8"/></radialGradient><radialGradient id="ia703e7-i254649-e" cx="0" cy="0" r="1" gradientTransform="matrix(16.3611 30.875 -24.5417 11.5781 17.153 13.156)" gradientUnits="userSpaceOnUse"><stop offset=".177" stop-color="#fff"/><stop offset="1" stop-color="#B8B8B8"/></radialGradient></defs></svg>