<svg xmlns="http://www.w3.org/2000/svg" width="48" height="48" fill="currentColor"><path fill="url(#i78084c-a)" d="M5 10a5 5 0 0 1 5-5h28a5 5 0 0 1 5 5v28a5 5 0 0 1-5 5H10a5 5 0 0 1-5-5z"/><path fill="url(#i78084c-b)" fill-opacity=".2" d="M5 10a5 5 0 0 1 5-5h28a5 5 0 0 1 5 5v28a5 5 0 0 1-5 5H10a5 5 0 0 1-5-5z"/><path fill="url(#i78084c-c)" fill-rule="evenodd" d="M38 6H10a4 4 0 0 0-4 4v28a4 4 0 0 0 4 4h28a4 4 0 0 0 4-4V10a4 4 0 0 0-4-4M10 5a5 5 0 0 0-5 5v28a5 5 0 0 0 5 5h28a5 5 0 0 0 5-5V10a5 5 0 0 0-5-5z" clip-rule="evenodd"/><path fill="url(#i78084c-d)" fill-rule="evenodd" d="M17.219 14a.75.75 0 0 1 .75.75v18.5a.75.75 0 0 1-1.5 0v-18.5a.75.75 0 0 1 .75-.75m6.031 19.25v-13.5a.75.75 0 0 1 1.5 0v13.5a.75.75 0 0 1-1.5 0m8.281-7.5a.75.75 0 1 0-1.5 0v7.5a.75.75 0 0 0 1.5 0z" clip-rule="evenodd"/><path fill="#F5F5F5" d="M47 37c0-5.523-4.477-10-10-10s-10 4.477-10 10 4.477 10 10 10 10-4.477 10-10"/><path fill="url(#i78084c-e)" fill-rule="evenodd" d="M37 28a9 9 0 1 1 0 18 9 9 0 0 1 0-18m6.021 3.733a8 8 0 0 1-11.289 11.289l11.29-11.29Zm-.704-.71L31.023 42.317a8 8 0 0 1 11.295-11.295Z" clip-rule="evenodd"/><defs><linearGradient id="i78084c-a" x1="15.556" x2="20.362" y1="5" y2="43.455" gradientUnits="userSpaceOnUse"><stop stop-color="#fff"/><stop offset="1" stop-color="#EBEBEB"/></linearGradient><linearGradient id="i78084c-c" x1="17.271" x2="22.387" y1="5" y2="43.373" gradientUnits="userSpaceOnUse"><stop stop-color="#BBB"/><stop offset="1" stop-color="#888"/></linearGradient><linearGradient id="i78084c-d" x1="16.469" x2="35.691" y1="14" y2="28.477" gradientUnits="userSpaceOnUse"><stop stop-color="#C28400"/><stop offset="1" stop-color="#A86500"/></linearGradient><linearGradient id="i78084c-e" x1="28" x2="46" y1="28" y2="46" gradientUnits="userSpaceOnUse"><stop stop-color="#C28400"/><stop offset="1" stop-color="#A86500"/></linearGradient><radialGradient id="i78084c-b" cx="0" cy="0" r="1" gradientTransform="rotate(56.31 -5.347 23.46)scale(36.1557 31.2886)" gradientUnits="userSpaceOnUse"><stop offset=".177" stop-color="#fff"/><stop offset="1" stop-color="#B8B8B8"/></radialGradient></defs></svg>