<svg xmlns="http://www.w3.org/2000/svg" width="48" height="48" fill="none"><path fill="url(#ica0004-i5195d2-paint0_linear_64423_1049)" d="M5 10a5 5 0 0 1 5-5h28a5 5 0 0 1 5 5v28a5 5 0 0 1-5 5H10a5 5 0 0 1-5-5z"/><path fill="url(#ica0004-i5195d2-paint1_radial_64423_1049)" fill-opacity=".2" d="M5 10a5 5 0 0 1 5-5h28a5 5 0 0 1 5 5v28a5 5 0 0 1-5 5H10a5 5 0 0 1-5-5z"/><path fill="url(#ica0004-i5195d2-paint2_linear_64423_1049)" fill-rule="evenodd" d="M38 6H10a4 4 0 0 0-4 4v28a4 4 0 0 0 4 4h28a4 4 0 0 0 4-4V10a4 4 0 0 0-4-4M10 5a5 5 0 0 0-5 5v28a5 5 0 0 0 5 5h28a5 5 0 0 0 5-5V10a5 5 0 0 0-5-5z" clip-rule="evenodd"/><path fill="url(#ica0004-i5195d2-paint3_linear_64423_1049)" d="M30.503 13.995a3.5 3.5 0 1 1-3.425 4.224h-.828c-.69 0-1.25.56-1.25 1.25V28.5c0 .69.56 1.25 1.25 1.25h.835a3.5 3.5 0 1 1 0 1.5h-.835a2.75 2.75 0 0 1-2.75-2.75v-3.753h-2.585a3.5 3.5 0 1 1 0-1.5H23.5V19.47a2.75 2.75 0 0 1 2.75-2.75h.84a3.5 3.5 0 0 1 3.413-2.724"/><defs><linearGradient id="ica0004-i5195d2-paint0_linear_64423_1049" x1="15.556" x2="20.362" y1="5" y2="43.455" gradientUnits="userSpaceOnUse"><stop stop-color="#fff"/><stop offset="1" stop-color="#EBEBEB"/></linearGradient><radialGradient id="ica0004-i5195d2-paint1_radial_64423_1049" cx="0" cy="0" r="1" gradientTransform="matrix(20.0556 30.0833 -30.0833 11.2812 17.139 14.896)" gradientUnits="userSpaceOnUse"><stop offset=".177" stop-color="#fff"/><stop offset="1" stop-color="#B8B8B8"/></radialGradient><linearGradient id="ica0004-i5195d2-paint2_linear_64423_1049" x1="17.271" x2="22.387" y1="5" y2="43.373" gradientUnits="userSpaceOnUse"><stop stop-color="#BBB"/><stop offset="1" stop-color="#888"/></linearGradient><linearGradient id="ica0004-i5195d2-paint3_linear_64423_1049" x1="13.996" x2="34.001" y1="13.995" y2="34.002" gradientUnits="userSpaceOnUse"><stop stop-color="#E03F8F"/><stop offset="1" stop-color="#BD1E7B"/></linearGradient></defs></svg>