<svg xmlns="http://www.w3.org/2000/svg" width="48" height="48" fill="currentColor"><path fill="url(#ic2f962-a)" d="M5 10a5 5 0 0 1 5-5h28a5 5 0 0 1 5 5v28a5 5 0 0 1-5 5H10a5 5 0 0 1-5-5z"/><path fill="url(#ic2f962-b)" fill-opacity=".2" d="M5 10a5 5 0 0 1 5-5h28a5 5 0 0 1 5 5v28a5 5 0 0 1-5 5H10a5 5 0 0 1-5-5z"/><path fill="url(#ic2f962-c)" fill-rule="evenodd" d="M38 6H10a4 4 0 0 0-4 4v28a4 4 0 0 0 4 4h28a4 4 0 0 0 4-4V10a4 4 0 0 0-4-4M10 5a5 5 0 0 0-5 5v28a5 5 0 0 0 5 5h28a5 5 0 0 0 5-5V10a5 5 0 0 0-5-5z" clip-rule="evenodd"/><path fill="url(#ic2f962-d)" d="M20.25 20.92A3.501 3.501 0 0 0 19.5 14a3.5 3.5 0 0 0-.75 6.92v6.16A3.501 3.501 0 0 0 19.5 34a3.5 3.5 0 0 0 .75-6.92v-2.29h5.25a4.75 4.75 0 0 0 4.665-3.852 3.501 3.501 0 1 0-1.528-.044A3.25 3.25 0 0 1 25.5 23.29h-5.25z"/><path fill="#F5F5F5" fill-rule="evenodd" d="M45.462 46a1.5 1.5 0 0 0 1.51-1.29c.085-.603.127-1.301.127-1.904C47.099 35.734 41.365 30 34.293 30q-1.035.001-2.029.16a1.5 1.5 0 0 0-1.263 1.53l-.001.002V43.5a2.5 2.5 0 0 0 2.5 2.5z" clip-rule="evenodd"/><path fill="url(#ic2f962-e)" d="M32.579 32.135q.838-.134 1.713-.135C40.261 32 45.1 36.838 45.1 42.806c0 .524-.037 1.128-.108 1.624a.5.5 0 0 0 .99.14c.078-.55.118-1.2.118-1.764C46.1 36.286 40.814 31 34.293 31q-.955 0-1.87.148a.5.5 0 0 0 .157.987Z"/><path fill="url(#ic2f962-f)" d="M32.579 35.102A8.132 8.132 0 0 1 42 43.132c0 .399-.029.928-.08 1.298a.5.5 0 1 0 .99.14c.06-.429.09-1.008.09-1.438a9.132 9.132 0 0 0-10.579-9.018.5.5 0 1 0 .158.988"/><path fill="url(#ic2f962-g)" d="M32.57 38.041a5.627 5.627 0 0 1 6.43 5.57c0 .273-.02.56-.056.819a.5.5 0 1 0 .99.14 7 7 0 0 0 .066-.958 6.627 6.627 0 0 0-7.57-6.561.5.5 0 0 0 .14.99"/><path fill="url(#ic2f962-h)" d="M36.602 42.489a2.051 2.051 0 1 1-4.102 0 2.051 2.051 0 0 1 4.102 0"/><defs><linearGradient id="ic2f962-a" x1="15.556" x2="20.362" y1="5" y2="43.455" gradientUnits="userSpaceOnUse"><stop stop-color="#fff"/><stop offset="1" stop-color="#EBEBEB"/></linearGradient><linearGradient id="ic2f962-c" x1="17.271" x2="22.387" y1="5" y2="43.373" gradientUnits="userSpaceOnUse"><stop stop-color="#BBB"/><stop offset="1" stop-color="#888"/></linearGradient><linearGradient id="ic2f962-d" x1="16" x2="35.739" y1="14" y2="30.778" gradientUnits="userSpaceOnUse"><stop stop-color="#7751B8"/><stop offset="1" stop-color="#5A409C"/></linearGradient><linearGradient id="ic2f962-e" x1="32" x2="46" y1="31" y2="45.098" gradientUnits="userSpaceOnUse"><stop stop-color="#7751B8"/><stop offset="1" stop-color="#5A409C"/></linearGradient><linearGradient id="ic2f962-f" x1="32" x2="46" y1="31" y2="45.098" gradientUnits="userSpaceOnUse"><stop stop-color="#7751B8"/><stop offset="1" stop-color="#5A409C"/></linearGradient><linearGradient id="ic2f962-g" x1="32" x2="46" y1="31" y2="45.098" gradientUnits="userSpaceOnUse"><stop stop-color="#7751B8"/><stop offset="1" stop-color="#5A409C"/></linearGradient><linearGradient id="ic2f962-h" x1="32" x2="46" y1="31" y2="45.098" gradientUnits="userSpaceOnUse"><stop stop-color="#7751B8"/><stop offset="1" stop-color="#5A409C"/></linearGradient><radialGradient id="ic2f962-b" cx="0" cy="0" r="1" gradientTransform="rotate(56.31 -5.347 23.46)scale(36.1557 31.2886)" gradientUnits="userSpaceOnUse"><stop offset=".177" stop-color="#fff"/><stop offset="1" stop-color="#B8B8B8"/></radialGradient></defs></svg>