<svg xmlns="http://www.w3.org/2000/svg" width="48" height="48" fill="none"><path fill="url(#i7e003e-i7dfe3a-paint0_linear_62447_425)" d="M5 10a5 5 0 0 1 5-5h28a5 5 0 0 1 5 5v28a5 5 0 0 1-5 5H10a5 5 0 0 1-5-5z"/><path fill="url(#i7e003e-i7dfe3a-paint1_radial_62447_425)" fill-opacity=".2" d="M5 10a5 5 0 0 1 5-5h28a5 5 0 0 1 5 5v28a5 5 0 0 1-5 5H10a5 5 0 0 1-5-5z"/><path fill="url(#i7e003e-i7dfe3a-paint2_linear_62447_425)" fill-rule="evenodd" d="M38 6H10a4 4 0 0 0-4 4v28a4 4 0 0 0 4 4h28a4 4 0 0 0 4-4V10a4 4 0 0 0-4-4M10 5a5 5 0 0 0-5 5v28a5 5 0 0 0 5 5h28a5 5 0 0 0 5-5V10a5 5 0 0 0-5-5z" clip-rule="evenodd"/><path fill="url(#i7e003e-i7dfe3a-paint3_linear_62447_425)" d="M15.75 12.5A2.75 2.75 0 0 0 13 15.25v6.19a1.89 1.89 0 0 1-1.432 1.833.748.748 0 0 0-.33 1.277.75.75 0 0 0 .512.201c.69 0 1.25.56 1.25 1.25v6.19a3.39 3.39 0 0 0 2.568 3.288.75.75 0 0 0 .364-1.455A1.89 1.89 0 0 1 14.5 32.19v-6.189c0-.863-.398-1.634-1.02-2.138a3.4 3.4 0 0 0 1.02-2.424V15.25c0-.69.56-1.25 1.25-1.25a.75.75 0 0 0 0-1.5"/><path fill="url(#i7e003e-i7dfe3a-paint4_linear_62447_425)" d="M35 15.25a2.75 2.75 0 0 0-2.75-2.75.75.75 0 0 0 0 1.5c.69 0 1.25.56 1.25 1.25v6.19c0 .936.384 1.801 1.02 2.423a2.75 2.75 0 0 0-1.02 2.138v6.19a1.89 1.89 0 0 1-1.432 1.833.75.75 0 0 0 .364 1.455A3.39 3.39 0 0 0 35 32.19v-6.189c0-.69.56-1.25 1.25-1.25a.76.76 0 0 0 .511-.201.75.75 0 0 0 .151-.901.75.75 0 0 0-.48-.376A1.89 1.89 0 0 1 35 21.44z"/><path fill="url(#i7e003e-i7dfe3a-paint5_linear_62447_425)" d="M29.463 16.905c.325.256.385.73.132 1.057L24.947 24l4.648 6.037a.76.76 0 0 1-.133 1.058.74.74 0 0 1-1.047-.131L24 25.229l-4.415 5.734a.74.74 0 0 1-1.047.13.76.76 0 0 1-.133-1.057L23.053 24l-4.648-6.036a.76.76 0 0 1 .133-1.058.74.74 0 0 1 1.047.13L24 22.77l4.415-5.734a.74.74 0 0 1 1.047-.13"/><defs><linearGradient id="i7e003e-i7dfe3a-paint0_linear_62447_425" x1="15.556" x2="20.362" y1="5" y2="43.455" gradientUnits="userSpaceOnUse"><stop stop-color="#fff"/><stop offset="1" stop-color="#EBEBEB"/></linearGradient><radialGradient id="i7e003e-i7dfe3a-paint1_radial_62447_425" cx="0" cy="0" r="1" gradientTransform="matrix(20.0556 30.0833 -30.0833 11.2812 17.139 14.896)" gradientUnits="userSpaceOnUse"><stop offset=".177" stop-color="#fff"/><stop offset="1" stop-color="#B8B8B8"/></radialGradient><linearGradient id="i7e003e-i7dfe3a-paint2_linear_62447_425" x1="17.271" x2="22.387" y1="5" y2="43.373" gradientUnits="userSpaceOnUse"><stop stop-color="#BBB"/><stop offset="1" stop-color="#888"/></linearGradient><linearGradient id="i7e003e-i7dfe3a-paint3_linear_62447_425" x1="11" x2="33.83" y1="12.5" y2="38.306" gradientUnits="userSpaceOnUse"><stop stop-color="#4BA446"/><stop offset="1" stop-color="#3F7D35"/></linearGradient><linearGradient id="i7e003e-i7dfe3a-paint4_linear_62447_425" x1="11" x2="33.83" y1="12.5" y2="38.306" gradientUnits="userSpaceOnUse"><stop stop-color="#4BA446"/><stop offset="1" stop-color="#3F7D35"/></linearGradient><linearGradient id="i7e003e-i7dfe3a-paint5_linear_62447_425" x1="11" x2="33.83" y1="12.5" y2="38.306" gradientUnits="userSpaceOnUse"><stop stop-color="#4BA446"/><stop offset="1" stop-color="#3F7D35"/></linearGradient></defs></svg>